%FSLAX46Y46*%
%MOMM*%
%ADD10C,0.250000*%
%ADD11C,1.000000*%
%AMPS13*
1,1,1.000000,0.000000,0.000000*
%
%ADD13PS13*%
%AMPS19*
1,1,1.000000,0.000000,0.000000*
%
%ADD19PS19*%
%AMPS16*
1,1,1.000000,0.000000,0.000000*
%
%ADD16PS16*%
%AMPS22*
1,1,1.000000,0.000000,0.000000*
%
%ADD22PS22*%
%AMPS12*
1,1,2.000000,0.000000,0.000000*
%
%ADD12PS12*%
%AMPS18*
1,1,2.000000,0.000000,0.000000*
%
%ADD18PS18*%
%AMPS15*
1,1,2.000000,0.000000,0.000000*
%
%ADD15PS15*%
%AMPS21*
1,1,2.000000,0.000000,0.000000*
%
%ADD21PS21*%
%AMPS14*
1,1,0.550000,0.000000,0.000000*
%
%ADD14PS14*%
%AMPS20*
1,1,0.550000,0.000000,0.000000*
%
%ADD20PS20*%
%AMPS17*
1,1,0.550000,0.000000,0.000000*
%
%ADD17PS17*%
%AMPS23*
1,1,0.550000,0.000000,0.000000*
%
%ADD23PS23*%
G01*
%LPD*%
G01*
%LPD*%
D10*
X91100000Y83800000D02*
X80479898Y83800000D01*
D11*
X75900000Y65500000D02*
X77200000Y65500000D01*
D10*
X69950000Y90050000D02*
X69950000Y87550000D01*
D11*
X74600000Y65500000D02*
X75900000Y65500000D01*
D10*
X78872792Y82500000D02*
X91100000Y82500000D01*
D10*
X77300000Y86500000D02*
X77400000Y86500000D01*
D10*
X76338477Y83761522D02*
X76700000Y83400000D01*
D11*
X72300000Y83800000D02*
X64200000Y83800000D01*
D11*
X77900000Y66200000D02*
X77900000Y69200000D01*
D10*
X73200000Y87300000D02*
X77400000Y87300000D01*
D10*
X77100000Y85200000D02*
X76912132Y85387868D01*
D10*
X73600000Y88100000D02*
X73200000Y88100000D01*
D10*
X73950000Y90050000D02*
X73950000Y88450000D01*
D11*
X75600000Y71500000D02*
X75600000Y80500000D01*
D10*
X40900000Y85900000D02*
X30279898Y85900000D01*
D11*
X25700000Y67600000D02*
X27000000Y67600000D01*
D10*
X19750000Y92150000D02*
X19750000Y89650000D01*
D11*
X24400000Y67600000D02*
X25700000Y67600000D01*
D10*
X28672792Y84600000D02*
X40900000Y84600000D01*
D10*
X27100000Y88600000D02*
X27200000Y88600000D01*
D10*
X26138477Y85861522D02*
X26500000Y85500000D01*
D11*
X22100000Y85900000D02*
X14000000Y85900000D01*
D11*
X27700000Y68300000D02*
X27700000Y71300000D01*
D10*
X23000000Y89400000D02*
X27200000Y89400000D01*
D10*
X26900000Y87300000D02*
X26712132Y87487868D01*
D10*
X23400000Y90200000D02*
X23000000Y90200000D01*
D10*
X23750000Y92150000D02*
X23750000Y90550000D01*
D11*
X25400000Y73600000D02*
X25400000Y82600000D01*
D10*
X58497367Y25047127D02*
X69117469Y25047127D01*
D11*
X73697367Y43347127D02*
X72397367Y43347127D01*
D10*
X79647367Y18797127D02*
X79647367Y21297127D01*
D11*
X74997367Y43347127D02*
X73697367Y43347127D01*
D10*
X70724575Y26347127D02*
X58497367Y26347127D01*
D10*
X72297367Y22347127D02*
X72197367Y22347127D01*
D10*
X73258890Y25085605D02*
X72897367Y25447127D01*
D11*
X77297367Y25047127D02*
X85397367Y25047127D01*
D11*
X71697367Y42647127D02*
X71697367Y39647127D01*
D10*
X76397367Y21547127D02*
X72197367Y21547127D01*
D10*
X72497367Y23647127D02*
X72685235Y23459259D01*
D10*
X75997367Y20747127D02*
X76397367Y20747127D01*
D10*
X75647367Y18797127D02*
X75647367Y20397127D01*
D11*
X73997367Y37347127D02*
X73997367Y28347127D01*
D10*
X16750000Y74500000D02*
X16750000Y63879898D01*
D11*
X35050000Y59300000D02*
X35050000Y60600000D01*
D10*
X10500000Y53350000D02*
X13000000Y53350000D01*
D11*
X35050000Y58000000D02*
X35050000Y59300000D01*
D10*
X18050000Y62272792D02*
X18050000Y74500000D01*
D10*
X14050000Y60700000D02*
X14050000Y60800000D01*
D10*
X16788478Y59738477D02*
X17150000Y60100000D01*
D11*
X16750000Y55700000D02*
X16750000Y47600000D01*
D11*
X34350000Y61300000D02*
X31350000Y61300000D01*
D10*
X13250000Y56600000D02*
X13250000Y60800000D01*
D10*
X15350000Y60500000D02*
X15162132Y60312132D01*
D10*
X12450000Y57000000D02*
X12450000Y56600000D01*
D10*
X10500000Y57350000D02*
X12100000Y57350000D01*
D11*
X29050000Y59000000D02*
X20050000Y59000000D01*
D10*
X24200000Y42100000D02*
X24200000Y31479898D01*
D11*
X42500000Y26900000D02*
X42500000Y28200000D01*
D10*
X17950000Y20950000D02*
X20450000Y20950000D01*
D11*
X42500000Y25600000D02*
X42500000Y26900000D01*
D10*
X25500000Y29872792D02*
X25500000Y42100000D01*
D10*
X21500000Y28300000D02*
X21500000Y28400000D01*
D10*
X24238478Y27338477D02*
X24600000Y27700000D01*
D11*
X24200000Y23300000D02*
X24200000Y15200000D01*
D11*
X41800000Y28900000D02*
X38800000Y28900000D01*
D10*
X20700000Y24200000D02*
X20700000Y28400000D01*
D10*
X22800000Y28100000D02*
X22612132Y27912132D01*
D10*
X19900000Y24600000D02*
X19900000Y24200000D01*
D10*
X17950000Y24950000D02*
X19550000Y24950000D01*
D11*
X36500000Y26600000D02*
X27500000Y26600000D01*
D10*
X74100000Y50800000D02*
X63479898Y50800000D01*
D11*
X58900000Y32500000D02*
X60200000Y32500000D01*
D10*
X52950000Y57050000D02*
X52950000Y54550000D01*
D11*
X57600000Y32500000D02*
X58900000Y32500000D01*
D10*
X61872792Y49500000D02*
X74100000Y49500000D01*
D10*
X60300000Y53500000D02*
X60400000Y53500000D01*
D10*
X59338477Y50761522D02*
X59700000Y50400000D01*
D11*
X55300000Y50800000D02*
X47200000Y50800000D01*
D11*
X60900000Y33200000D02*
X60900000Y36200000D01*
D10*
X56200000Y54300000D02*
X60400000Y54300000D01*
D10*
X60100000Y52200000D02*
X59912132Y52387868D01*
D10*
X56600000Y55100000D02*
X56200000Y55100000D01*
D10*
X56950000Y57050000D02*
X56950000Y55450000D01*
D11*
X58600000Y38500000D02*
X58600000Y47500000D01*
D10*
X84800000Y42900000D02*
X84800000Y53520102D01*
D11*
X66500000Y58100000D02*
X66500000Y56800000D01*
D10*
X91050000Y64050000D02*
X88550000Y64050000D01*
D11*
X66500000Y59400000D02*
X66500000Y58100000D01*
D10*
X83500000Y55127208D02*
X83500000Y42900000D01*
D10*
X87500000Y56700000D02*
X87500000Y56600000D01*
D10*
X84761522Y57661523D02*
X84400000Y57300000D01*
D11*
X84800000Y61700000D02*
X84800000Y69800000D01*
D11*
X67200000Y56100000D02*
X70200000Y56100000D01*
D10*
X88300000Y60800000D02*
X88300000Y56600000D01*
D10*
X86200000Y56900000D02*
X86387868Y57087868D01*
D10*
X89100000Y60400000D02*
X89100000Y60800000D01*
D10*
X91050000Y60050000D02*
X89450000Y60050000D01*
D11*
X72500000Y58400000D02*
X81500000Y58400000D01*
D10*
X35100000Y15100000D02*
X45720102Y15100000D01*
D11*
X50300000Y33400000D02*
X49000000Y33400000D01*
D10*
X56250000Y8850000D02*
X56250000Y11350000D01*
D11*
X51600000Y33400000D02*
X50300000Y33400000D01*
D10*
X47327208Y16400000D02*
X35100000Y16400000D01*
D10*
X48900000Y12400000D02*
X48800000Y12400000D01*
D10*
X49861523Y15138478D02*
X49500000Y15500000D01*
D11*
X53900000Y15100000D02*
X62000000Y15100000D01*
D11*
X48300000Y32700000D02*
X48300000Y29700000D01*
D10*
X53000000Y11600000D02*
X48800000Y11600000D01*
D10*
X49100000Y13700000D02*
X49287868Y13512132D01*
D10*
X52600000Y10800000D02*
X53000000Y10800000D01*
D10*
X52250000Y8850000D02*
X52250000Y10450000D01*
D11*
X50600000Y27400000D02*
X50600000Y18400000D01*
D10*
X32900000Y73200000D02*
X43520102Y73200000D01*
D11*
X48100000Y91500000D02*
X46800000Y91500000D01*
D10*
X54050000Y66950000D02*
X54050000Y69450000D01*
D11*
X49400000Y91500000D02*
X48100000Y91500000D01*
D10*
X45127208Y74500000D02*
X32900000Y74500000D01*
D10*
X46700000Y70500000D02*
X46600000Y70500000D01*
D10*
X47661523Y73238478D02*
X47300000Y73600000D01*
D11*
X51700000Y73200000D02*
X59800000Y73200000D01*
D11*
X46100000Y90800000D02*
X46100000Y87800000D01*
D10*
X50800000Y69700000D02*
X46600000Y69700000D01*
D10*
X46900000Y71800000D02*
X47087868Y71612132D01*
D10*
X50400000Y68900000D02*
X50800000Y68900000D01*
D10*
X50050000Y66950000D02*
X50050000Y68550000D01*
D11*
X48400000Y85500000D02*
X48400000Y76500000D01*
G75*
D10*
G03*
X72800000Y87700000D02*
X73200000Y87300000I399999J-1D01*
D10*
G03*
X77100000Y85200000D02*
X80479898Y83800000I3379899J3379900D01*
D10*
G03*
X69950000Y87550000D02*
X71900000Y85600000I1950001J1D01*
D10*
G03*
X73600000Y88100000D02*
X73950000Y88450000I-1J350001D01*
D10*
G03*
X76700000Y85900000D02*
X76912132Y85387868I724294J12D01*
D10*
G03*
X77800000Y86900000D02*
X77400000Y87300000I-399999J1D01*
D10*
G03*
X77300000Y86500000D02*
X76700000Y85900000I0J-600000D01*
D11*
G03*
X75600000Y80500000D02*
X72300000Y83800000I-3300001J-1D01*
D10*
G03*
X77400000Y86500000D02*
X77800000Y86900000I1J399999D01*
D11*
G03*
X77200000Y65500000D02*
X77900000Y66200000I0J700000D01*
D10*
G03*
X76338477Y83761522D02*
X71900000Y85600000I-4438477J-4438475D01*
D11*
G03*
X75600000Y71500000D02*
X77100000Y70000000I1500000J0D01*
D11*
G03*
X58200000Y89800000D02*
X64200000Y83800000I5999999J-1D01*
D11*
G03*
X77900000Y69200000D02*
X77100000Y70000000I-800000J0D01*
D10*
G03*
X76700000Y83400000D02*
X78872792Y82500000I2172796J2172801D01*
D10*
G03*
X73200000Y88100000D02*
X72800000Y87700000I-1J-399999D01*
D10*
G03*
X22600000Y89800000D02*
X23000000Y89400000I399999J-1D01*
D10*
G03*
X26900000Y87300000D02*
X30279898Y85900000I3379899J3379900D01*
D10*
G03*
X19750000Y89650000D02*
X21700000Y87700000I1950001J1D01*
D10*
G03*
X23400000Y90200000D02*
X23750000Y90550000I-1J350001D01*
D10*
G03*
X26500000Y88000000D02*
X26712132Y87487868I724294J12D01*
D10*
G03*
X27600000Y89000000D02*
X27200000Y89400000I-399999J1D01*
D10*
G03*
X27100000Y88600000D02*
X26500000Y88000000I0J-600000D01*
D11*
G03*
X25400000Y82600000D02*
X22100000Y85900000I-3300001J-1D01*
D10*
G03*
X27200000Y88600000D02*
X27600000Y89000000I1J399999D01*
D11*
G03*
X27000000Y67600000D02*
X27700000Y68300000I0J700000D01*
D10*
G03*
X26138477Y85861522D02*
X21700000Y87700000I-4438477J-4438475D01*
D11*
G03*
X25400000Y73600000D02*
X26900000Y72100000I1500000J0D01*
D11*
G03*
X8000000Y91900000D02*
X14000000Y85900000I5999999J-1D01*
D11*
G03*
X27700000Y71300000D02*
X26900000Y72100000I-800000J0D01*
D10*
G03*
X26500000Y85500000D02*
X28672792Y84600000I2172796J2172801D01*
D10*
G03*
X23000000Y90200000D02*
X22600000Y89800000I-1J-399999D01*
D10*
G03*
X76797367Y21147127D02*
X76397367Y21547127I-399999J1D01*
D10*
G03*
X72497367Y23647127D02*
X69117469Y25047127I-3379900J-3379901D01*
D10*
G03*
X79647367Y21297127D02*
X77697367Y23247127I-1950001J-1D01*
D10*
G03*
X75997367Y20747127D02*
X75647367Y20397127I1J-350001D01*
D10*
G03*
X72897367Y22947127D02*
X72685235Y23459259I-724295J-13D01*
D10*
G03*
X71797367Y21947127D02*
X72197367Y21547127I399999J-1D01*
D10*
G03*
X72297367Y22347127D02*
X72897367Y22947127I0J600000D01*
D11*
G03*
X73997367Y28347127D02*
X77297367Y25047127I3300001J1D01*
D10*
G03*
X72197367Y22347127D02*
X71797367Y21947127I-1J-399999D01*
D11*
G03*
X72397367Y43347127D02*
X71697367Y42647127I0J-700000D01*
D10*
G03*
X73258890Y25085605D02*
X77697367Y23247127I4438476J4438474D01*
D11*
G03*
X73997367Y37347127D02*
X72497367Y38847127I-1500000J0D01*
D11*
G03*
X91397367Y19047127D02*
X85397367Y25047127I-5999999J1D01*
D11*
G03*
X71697367Y39647127D02*
X72497367Y38847127I800000J0D01*
D10*
G03*
X72897367Y25447127D02*
X70724575Y26347127I-2172797J-2172802D01*
D10*
G03*
X76397367Y20747127D02*
X76797367Y21147127I1J399999D01*
D10*
G03*
X12850000Y56200000D02*
X13250000Y56600000I1J399999D01*
D10*
G03*
X15350000Y60500000D02*
X16750000Y63879898I-3379901J3379899D01*
D10*
G03*
X13000000Y53350000D02*
X14950000Y55300000I-1J1950001D01*
D10*
G03*
X12450000Y57000000D02*
X12100000Y57350000I-350001J-1D01*
D10*
G03*
X14650000Y60100000D02*
X15162132Y60312132I-13J724294D01*
D10*
G03*
X13650000Y61200000D02*
X13250000Y60800000I-1J-399999D01*
D10*
G03*
X14050000Y60700000D02*
X14650000Y60100000I600000J0D01*
D11*
G03*
X20050000Y59000000D02*
X16750000Y55700000I1J-3300001D01*
D10*
G03*
X14050000Y60800000D02*
X13650000Y61200000I-399999J1D01*
D11*
G03*
X35050000Y60600000D02*
X34350000Y61300000I-700000J0D01*
D10*
G03*
X16788478Y59738477D02*
X14950000Y55300000I4438474J-4438477D01*
D11*
G03*
X29050000Y59000000D02*
X30550000Y60500000I0J1500000D01*
D11*
G03*
X10750000Y41600000D02*
X16750000Y47600000I1J5999999D01*
D11*
G03*
X31350000Y61300000D02*
X30550000Y60500000I0J-800000D01*
D10*
G03*
X17150000Y60100000D02*
X18050000Y62272792I-2172802J2172796D01*
D10*
G03*
X12450000Y56600000D02*
X12850000Y56200000I399999J-1D01*
D10*
G03*
X20300000Y23800000D02*
X20700000Y24200000I1J399999D01*
D10*
G03*
X22800000Y28100000D02*
X24200000Y31479898I-3379901J3379899D01*
D10*
G03*
X20450000Y20950000D02*
X22400000Y22900000I-1J1950001D01*
D10*
G03*
X19900000Y24600000D02*
X19550000Y24950000I-350001J-1D01*
D10*
G03*
X22100000Y27700000D02*
X22612132Y27912132I-13J724294D01*
D10*
G03*
X21100000Y28800000D02*
X20700000Y28400000I-1J-399999D01*
D10*
G03*
X21500000Y28300000D02*
X22100000Y27700000I600000J0D01*
D11*
G03*
X27500000Y26600000D02*
X24200000Y23300000I1J-3300001D01*
D10*
G03*
X21500000Y28400000D02*
X21100000Y28800000I-399999J1D01*
D11*
G03*
X42500000Y28200000D02*
X41800000Y28900000I-700000J0D01*
D10*
G03*
X24238478Y27338477D02*
X22400000Y22900000I4438474J-4438477D01*
D11*
G03*
X36500000Y26600000D02*
X38000000Y28100000I0J1500000D01*
D11*
G03*
X18200000Y9200000D02*
X24200000Y15200000I1J5999999D01*
D11*
G03*
X38800000Y28900000D02*
X38000000Y28100000I0J-800000D01*
D10*
G03*
X24600000Y27700000D02*
X25500000Y29872792I-2172802J2172796D01*
D10*
G03*
X19900000Y24200000D02*
X20300000Y23800000I399999J-1D01*
D10*
G03*
X55800000Y54700000D02*
X56200000Y54300000I399999J-1D01*
D10*
G03*
X60100000Y52200000D02*
X63479898Y50800000I3379899J3379900D01*
D10*
G03*
X52950000Y54550000D02*
X54900000Y52600000I1950001J1D01*
D10*
G03*
X56600000Y55100000D02*
X56950000Y55450000I-1J350001D01*
D10*
G03*
X59700000Y52900000D02*
X59912132Y52387868I724294J12D01*
D10*
G03*
X60800000Y53900000D02*
X60400000Y54300000I-399999J1D01*
D10*
G03*
X60300000Y53500000D02*
X59700000Y52900000I0J-600000D01*
D11*
G03*
X58600000Y47500000D02*
X55300000Y50800000I-3300001J-1D01*
D10*
G03*
X60400000Y53500000D02*
X60800000Y53900000I1J399999D01*
D11*
G03*
X60200000Y32500000D02*
X60900000Y33200000I0J700000D01*
D10*
G03*
X59338477Y50761522D02*
X54900000Y52600000I-4438477J-4438475D01*
D11*
G03*
X58600000Y38500000D02*
X60100000Y37000000I1500000J0D01*
D11*
G03*
X41200000Y56800000D02*
X47200000Y50800000I5999999J-1D01*
D11*
G03*
X60900000Y36200000D02*
X60100000Y37000000I-800000J0D01*
D10*
G03*
X59700000Y50400000D02*
X61872792Y49500000I2172796J2172801D01*
D10*
G03*
X56200000Y55100000D02*
X55800000Y54700000I-1J-399999D01*
D10*
G03*
X88700000Y61200000D02*
X88300000Y60800000I-1J-399999D01*
D10*
G03*
X86200000Y56900000D02*
X84800000Y53520102I3379900J-3379900D01*
D10*
G03*
X88550000Y64050000D02*
X86600000Y62100000I1J-1950001D01*
D10*
G03*
X89100000Y60400000D02*
X89450000Y60050000I350001J1D01*
D10*
G03*
X86900000Y57300000D02*
X86387868Y57087868I12J-724295D01*
D10*
G03*
X87900000Y56200000D02*
X88300000Y56600000I1J399999D01*
D10*
G03*
X87500000Y56700000D02*
X86900000Y57300000I-600000J0D01*
D11*
G03*
X81500000Y58400000D02*
X84800000Y61700000I-1J3300001D01*
D10*
G03*
X87500000Y56600000D02*
X87900000Y56200000I399999J-1D01*
D11*
G03*
X66500000Y56800000D02*
X67200000Y56100000I700000J0D01*
D10*
G03*
X84761522Y57661523D02*
X86600000Y62100000I-4438475J4438476D01*
D11*
G03*
X72500000Y58400000D02*
X71000000Y56900000I0J-1500000D01*
D11*
G03*
X90800000Y75800000D02*
X84800000Y69800000I-1J-5999999D01*
D11*
G03*
X70200000Y56100000D02*
X71000000Y56900000I0J800000D01*
D10*
G03*
X84400000Y57300000D02*
X83500000Y55127208I2172801J-2172797D01*
D10*
G03*
X89100000Y60800000D02*
X88700000Y61200000I-399999J1D01*
D10*
G03*
X53400000Y11200000D02*
X53000000Y11600000I-399999J1D01*
D10*
G03*
X49100000Y13700000D02*
X45720102Y15100000I-3379900J-3379901D01*
D10*
G03*
X56250000Y11350000D02*
X54300000Y13300000I-1950001J-1D01*
D10*
G03*
X52600000Y10800000D02*
X52250000Y10450000I1J-350001D01*
D10*
G03*
X49500000Y13000000D02*
X49287868Y13512132I-724295J-13D01*
D10*
G03*
X48400000Y12000000D02*
X48800000Y11600000I399999J-1D01*
D10*
G03*
X48900000Y12400000D02*
X49500000Y13000000I0J600000D01*
D11*
G03*
X50600000Y18400000D02*
X53900000Y15100000I3300001J1D01*
D10*
G03*
X48800000Y12400000D02*
X48400000Y12000000I-1J-399999D01*
D11*
G03*
X49000000Y33400000D02*
X48300000Y32700000I0J-700000D01*
D10*
G03*
X49861523Y15138478D02*
X54300000Y13300000I4438476J4438474D01*
D11*
G03*
X50600000Y27400000D02*
X49100000Y28900000I-1500000J0D01*
D11*
G03*
X68000000Y9100000D02*
X62000000Y15100000I-5999999J1D01*
D11*
G03*
X48300000Y29700000D02*
X49100000Y28900000I800000J0D01*
D10*
G03*
X49500000Y15500000D02*
X47327208Y16400000I-2172797J-2172802D01*
D10*
G03*
X53000000Y10800000D02*
X53400000Y11200000I1J399999D01*
D10*
G03*
X51200000Y69300000D02*
X50800000Y69700000I-399999J1D01*
D10*
G03*
X46900000Y71800000D02*
X43520102Y73200000I-3379900J-3379901D01*
D10*
G03*
X54050000Y69450000D02*
X52100000Y71400000I-1950001J-1D01*
D10*
G03*
X50400000Y68900000D02*
X50050000Y68550000I1J-350001D01*
D10*
G03*
X47300000Y71100000D02*
X47087868Y71612132I-724295J-13D01*
D10*
G03*
X46200000Y70100000D02*
X46600000Y69700000I399999J-1D01*
D10*
G03*
X46700000Y70500000D02*
X47300000Y71100000I0J600000D01*
D11*
G03*
X48400000Y76500000D02*
X51700000Y73200000I3300001J1D01*
D10*
G03*
X46600000Y70500000D02*
X46200000Y70100000I-1J-399999D01*
D11*
G03*
X46800000Y91500000D02*
X46100000Y90800000I0J-700000D01*
D10*
G03*
X47661523Y73238478D02*
X52100000Y71400000I4438476J4438474D01*
D11*
G03*
X48400000Y85500000D02*
X46900000Y87000000I-1500000J0D01*
D11*
G03*
X65800000Y67200000D02*
X59800000Y73200000I-5999999J1D01*
D11*
G03*
X46100000Y87800000D02*
X46900000Y87000000I800000J0D01*
D10*
G03*
X47300000Y73600000D02*
X45127208Y74500000I-2172797J-2172802D01*
D10*
G03*
X50800000Y68900000D02*
X51200000Y69300000I1J399999D01*
D12*
X73950000Y90050000D03*
D13*
X75900000Y65500000D03*
D13*
X74600000Y65500000D03*
D12*
X69950000Y90050000D03*
D13*
X74600000Y68600000D03*
D12*
X64800000Y89600000D03*
D12*
X58200000Y89800000D03*
D13*
X75900000Y68600000D03*
D14*
X91100000Y83800000D03*
D14*
X91100000Y82500000D03*
D12*
X23750000Y92150000D03*
D13*
X25700000Y67600000D03*
D13*
X24400000Y67600000D03*
D12*
X19750000Y92150000D03*
D13*
X24400000Y70700000D03*
D12*
X14600000Y91700000D03*
D12*
X8000000Y91900000D03*
D13*
X25700000Y70700000D03*
D14*
X40900000Y85900000D03*
D14*
X40900000Y84600000D03*
D15*
X75647367Y18797127D03*
D16*
X73697367Y43347127D03*
D16*
X74997367Y43347127D03*
D15*
X79647367Y18797127D03*
D16*
X74997367Y40247127D03*
D15*
X84797367Y19247127D03*
D15*
X91397367Y19047127D03*
D16*
X73697367Y40247127D03*
D17*
X58497367Y25047127D03*
D17*
X58497367Y26347127D03*
D18*
X10500000Y57350000D03*
D19*
X35050000Y59300000D03*
D19*
X35050000Y58000000D03*
D18*
X10500000Y53350000D03*
D19*
X31950000Y58000000D03*
D18*
X10950000Y48200000D03*
D18*
X10750000Y41600000D03*
D19*
X31950000Y59300000D03*
D20*
X16750000Y74500000D03*
D20*
X18050000Y74500000D03*
D18*
X17950000Y24950000D03*
D19*
X42500000Y26900000D03*
D19*
X42500000Y25600000D03*
D18*
X17950000Y20950000D03*
D19*
X39400000Y25600000D03*
D18*
X18400000Y15800000D03*
D18*
X18200000Y9200000D03*
D19*
X39400000Y26900000D03*
D20*
X24200000Y42100000D03*
D20*
X25500000Y42100000D03*
D12*
X56950000Y57050000D03*
D13*
X58900000Y32500000D03*
D13*
X57600000Y32500000D03*
D12*
X52950000Y57050000D03*
D13*
X57600000Y35600000D03*
D12*
X47800000Y56600000D03*
D12*
X41200000Y56800000D03*
D13*
X58900000Y35600000D03*
D14*
X74100000Y50800000D03*
D14*
X74100000Y49500000D03*
D21*
X91050000Y60050000D03*
D22*
X66500000Y58100000D03*
D22*
X66500000Y59400000D03*
D21*
X91050000Y64050000D03*
D22*
X69600000Y59400000D03*
D21*
X90600000Y69200000D03*
D21*
X90800000Y75800000D03*
D22*
X69600000Y58100000D03*
D23*
X84800000Y42900000D03*
D23*
X83500000Y42900000D03*
D15*
X52250000Y8850000D03*
D16*
X50300000Y33400000D03*
D16*
X51600000Y33400000D03*
D15*
X56250000Y8850000D03*
D16*
X51600000Y30300000D03*
D15*
X61400000Y9300000D03*
D15*
X68000000Y9100000D03*
D16*
X50300000Y30300000D03*
D17*
X35100000Y15100000D03*
D17*
X35100000Y16400000D03*
D15*
X50050000Y66950000D03*
D16*
X48100000Y91500000D03*
D16*
X49400000Y91500000D03*
D15*
X54050000Y66950000D03*
D16*
X49400000Y88400000D03*
D15*
X59200000Y67400000D03*
D15*
X65800000Y67200000D03*
D16*
X48100000Y88400000D03*
D17*
X32900000Y73200000D03*
D17*
X32900000Y74500000D03*
M02*
