%FSLAX46Y46*%
%MOMM*%
%ADD11C,0.000000*%
%ADD10C,0.010000*%
G01*
%LPD*%
G01*
%LPD*%
D10*
X0Y0D02*
X0Y100000000D01*
D10*
X0Y100000000D02*
X100000000Y100000000D01*
D10*
X100000000Y100000000D02*
X100000000Y0D01*
D10*
X100000000Y0D02*
X0Y0D01*
D11*
X46500000Y65400000D02*
X45500000Y65400000D01*
D11*
X76900000Y76900000D02*
X76900000Y79900000D01*
D11*
X68400000Y91600000D02*
X68100000Y91300000D01*
D11*
X93097367Y17547127D02*
X93097367Y22147127D01*
D11*
X70697367Y44347127D02*
X70697367Y38747127D01*
D11*
X48500000Y34400000D02*
X47300000Y34400000D01*
D11*
X18650000Y73400000D02*
X18650000Y75100000D01*
D11*
X73600000Y64500000D02*
X73600000Y70600000D01*
D11*
X91700000Y84400000D02*
X90000000Y84400000D01*
D11*
X65500000Y57100000D02*
X65500000Y60400000D01*
D11*
X76900000Y72100000D02*
X76900000Y76100000D01*
D11*
X69097367Y24447127D02*
X60397367Y24447127D01*
D11*
X71897367Y44347127D02*
X70697367Y44347127D01*
D11*
X28700000Y66600000D02*
X28700000Y72200000D01*
D11*
X34000000Y75100000D02*
X32300000Y75100000D01*
D11*
X18650000Y75100000D02*
X16150000Y75100000D01*
D11*
X52399999Y75500000D02*
X59300000Y75500000D01*
D11*
X32300000Y72600000D02*
X34000000Y72600000D01*
D11*
X69700000Y17400000D02*
X62300000Y17400000D01*
D11*
X57800000Y7300000D02*
X58100000Y7600000D01*
D11*
X81497367Y17547127D02*
X87397367Y17547127D01*
D11*
X82500000Y62399999D02*
X82500000Y69300000D01*
D11*
X92300000Y77500000D02*
X87700000Y77500000D01*
D11*
X8950000Y60900000D02*
X8950000Y61900000D01*
D11*
X77997366Y27347127D02*
X84897367Y27347127D01*
D11*
X51100000Y58300000D02*
X45200000Y58300000D01*
D11*
X9250000Y44800000D02*
X9250000Y39900000D01*
D11*
X92300000Y72600000D02*
X92300000Y77500000D01*
D11*
X45100000Y75100000D02*
X34800000Y75100000D01*
D11*
X43500000Y29900000D02*
X37900000Y29900000D01*
D11*
X47700000Y7300000D02*
X47700000Y12500000D01*
D11*
X50400000Y92500000D02*
X50400000Y86400000D01*
D11*
X47300000Y34400000D02*
X47300000Y28800000D01*
D11*
X36600000Y24600000D02*
X28500000Y24600000D01*
D11*
X16400000Y28500000D02*
X16400000Y29500000D01*
D11*
X56500000Y81500000D02*
X63900000Y81500000D01*
D11*
X61900000Y31500000D02*
X61900000Y37100000D01*
D11*
X78900000Y81900000D02*
X89200000Y81900000D01*
D11*
X41500000Y84000000D02*
X41500000Y86500000D01*
D11*
X65500000Y60400000D02*
X71600000Y60400000D01*
D11*
X36050000Y61100000D02*
X36050000Y62300000D01*
D11*
X61900000Y48900000D02*
X72200000Y48900000D01*
D11*
X48700000Y7300000D02*
X47700000Y7300000D01*
D11*
X51400000Y58600000D02*
X51100000Y58300000D01*
D11*
X82900000Y44000000D02*
X82900000Y42300000D01*
D11*
X49300000Y26800000D02*
X49300000Y22800000D01*
D11*
X90000000Y81900000D02*
X91700000Y81900000D01*
D11*
X69700000Y17400000D02*
X69700000Y13000000D01*
D11*
X45500000Y65400000D02*
X45500000Y70600000D01*
D11*
X56600000Y38400000D02*
X56600000Y46500000D01*
D11*
X28700000Y84000000D02*
X39000000Y84000000D01*
D11*
X45100000Y92500000D02*
X45100000Y86900000D01*
D11*
X59900000Y31500000D02*
X56600000Y31500000D01*
D11*
X70697367Y26947127D02*
X60397367Y26947127D01*
D11*
X56500000Y85900000D02*
X56500000Y81500000D01*
D11*
X78900000Y64500000D02*
X78900000Y70100000D01*
D11*
X92600000Y65600000D02*
X92300000Y65900000D01*
D11*
X19050000Y55000001D02*
X19050000Y48100000D01*
D11*
X58100000Y7600000D02*
X64000000Y7600000D01*
D11*
X28300000Y93700000D02*
X28300000Y88500000D01*
D11*
X75997367Y37447127D02*
X75997367Y29347127D01*
D11*
X47100000Y80100000D02*
X47100000Y77100000D01*
D11*
X16400000Y27700000D02*
X16400000Y19400000D01*
D11*
X57897367Y24447127D02*
X59597367Y24447127D01*
D11*
X39500000Y52900000D02*
X39500000Y48500000D01*
D11*
X36050000Y60300000D02*
X36050000Y57000000D01*
D11*
X60700000Y31500000D02*
X61900000Y31500000D01*
D11*
X81197367Y17247127D02*
X81497367Y17547127D01*
D11*
X47300000Y65400000D02*
X55600000Y65400000D01*
D11*
X30300000Y86500000D02*
X39000000Y86500000D01*
D11*
X26100000Y29900000D02*
X26100000Y40200000D01*
D11*
X26700000Y74200000D02*
X26700000Y78200000D01*
D11*
X23650000Y60300000D02*
X20650000Y60300000D01*
D11*
X74700000Y51400000D02*
X73000000Y51400000D01*
D11*
X59597367Y26947127D02*
X57897367Y26947127D01*
D11*
X49300000Y34400000D02*
X52600000Y34400000D01*
D11*
X43500000Y72600000D02*
X34800000Y72600000D01*
D11*
X9250000Y51500000D02*
X9250000Y45600000D01*
D11*
X65500000Y55100000D02*
X71100000Y55100000D01*
D11*
X6300000Y93400000D02*
X6300000Y88800000D01*
D11*
X91700000Y81900000D02*
X91700000Y84400000D01*
D11*
X11200000Y93400000D02*
X6300000Y93400000D01*
D11*
X77700000Y64500000D02*
X78900000Y64500000D01*
D11*
X82500000Y77500000D02*
X82500000Y70100000D01*
D11*
X16700000Y12400000D02*
X16700000Y7500000D01*
D11*
X69700000Y13000000D02*
X69700000Y17400000D01*
D11*
X56600000Y31500000D02*
X56600000Y37600000D01*
D11*
X71097367Y17247127D02*
X71097367Y22447127D01*
D11*
X35900000Y27900000D02*
X31900000Y27900000D01*
D11*
X47100000Y92500000D02*
X50400000Y92500000D01*
D11*
X71600001Y81500000D02*
X64700000Y81500000D01*
D11*
X23400000Y73500000D02*
X23400000Y81600000D01*
D11*
X18200000Y93700000D02*
X17900000Y93400000D01*
D11*
X34500000Y17000000D02*
X34500000Y14500000D01*
D11*
X8950000Y61900000D02*
X14150000Y61900000D01*
D11*
X46300000Y92500000D02*
X45100000Y92500000D01*
D11*
X27300000Y93700000D02*
X28300000Y93700000D01*
D11*
X26500000Y7500000D02*
X26500000Y14900000D01*
D11*
X26500000Y22600001D02*
X26500000Y15700000D01*
D11*
X77900000Y57100000D02*
X80900000Y57100000D01*
D11*
X34500000Y14500000D02*
X36200000Y14500000D01*
D11*
X49300000Y22000000D02*
X49300000Y19000000D01*
D11*
X45700000Y14500000D02*
X37000000Y14500000D01*
D11*
X8950000Y51800000D02*
X9250000Y51500000D01*
D11*
X36050000Y62300000D02*
X30450000Y62300000D01*
D11*
X85400000Y42300000D02*
X85400000Y44000000D01*
D11*
X29150000Y57000000D02*
X21050000Y57000000D01*
D11*
X59700000Y58600000D02*
X51400000Y58600000D01*
D11*
X69700000Y7600000D02*
X69700000Y12200000D01*
D11*
X76900000Y64500000D02*
X73600000Y64500000D01*
D11*
X63500000Y51400000D02*
X72200000Y51400000D01*
D11*
X16700000Y19100000D02*
X16700000Y13200000D01*
D11*
X8950000Y60100000D02*
X8950000Y51800000D01*
D11*
X44400000Y58300000D02*
X39500000Y58300000D01*
D11*
X67500000Y65700000D02*
X67500000Y70300000D01*
D11*
X16700000Y7500000D02*
X21300000Y7500000D01*
D11*
X60500000Y58600000D02*
X61500000Y58600000D01*
D11*
X43500000Y24600000D02*
X37400000Y24600000D01*
D11*
X16150000Y75100000D02*
X16150000Y73400000D01*
D11*
X72697367Y44347127D02*
X75997367Y44347127D01*
D11*
X43500000Y27900000D02*
X43500000Y24600000D01*
D11*
X36200000Y17000000D02*
X34500000Y17000000D01*
D11*
X54600001Y48500000D02*
X47700000Y48500000D01*
D11*
X77500000Y91600000D02*
X78500000Y91600000D01*
D11*
X64800000Y7600000D02*
X69700000Y7600000D01*
D11*
X9250000Y39900000D02*
X13850000Y39900000D01*
D11*
X23600000Y42700000D02*
X23600000Y41000000D01*
D11*
X73000000Y48900000D02*
X74700000Y48900000D01*
D11*
X47100000Y84900000D02*
X47100000Y80900000D01*
D11*
X92600000Y57300000D02*
X92600000Y65600000D01*
D11*
X73600000Y71400000D02*
X73600000Y79500000D01*
D11*
X18650000Y62300000D02*
X18650000Y72600000D01*
D11*
X41500000Y86500000D02*
X39800000Y86500000D01*
D11*
X62600000Y65700000D02*
X67500000Y65700000D01*
D11*
X27500000Y66600000D02*
X28700000Y66600000D01*
D11*
X85400000Y53500000D02*
X85400000Y44800000D01*
D11*
X39800000Y84000000D02*
X41500000Y84000000D01*
D11*
X61400000Y91300000D02*
X56500000Y91300000D01*
D11*
X67500000Y71100000D02*
X67500000Y75500000D01*
D11*
X52600000Y34400000D02*
X52600000Y28300000D01*
D11*
X61500000Y58600000D02*
X61500000Y53400000D01*
D11*
X26100000Y42700000D02*
X23600000Y42700000D01*
D11*
X17900000Y93400000D02*
X12000000Y93400000D01*
D11*
X21400001Y83600000D02*
X14500000Y83600000D01*
D11*
X50400000Y85600000D02*
X50400000Y77500000D01*
D11*
X92600000Y55500000D02*
X87400000Y55500000D01*
D11*
X72400000Y60400000D02*
X80500000Y60400000D01*
D11*
X80500000Y84400000D02*
X89200000Y84400000D01*
D11*
X6300000Y88000000D02*
X6300000Y83600000D01*
D11*
X82900000Y55100000D02*
X82900000Y44800000D01*
D11*
X65500000Y56300000D02*
X65500000Y55100000D01*
D11*
X19050000Y39900000D02*
X19050000Y47300000D01*
D11*
X72697367Y36747127D02*
X72697367Y32747127D01*
D11*
X54599999Y17400000D02*
X61500000Y17400000D01*
D11*
X92300000Y65900000D02*
X92300000Y71800000D01*
D11*
X55600000Y65400000D02*
X55900000Y65700000D01*
D11*
X26100000Y41000000D02*
X26100000Y42700000D01*
D11*
X56500000Y91300000D02*
X56500000Y86700000D01*
D11*
X23600000Y31500000D02*
X23600000Y40200000D01*
D11*
X49500000Y7300000D02*
X57800000Y7300000D01*
D11*
X72697367Y31947127D02*
X72697367Y28947127D01*
D11*
X39500000Y58300000D02*
X39500000Y53700000D01*
D11*
X59900000Y43900000D02*
X59900000Y46900000D01*
D11*
X23400000Y66600000D02*
X23400000Y72700000D01*
D11*
X93097367Y22947127D02*
X93097367Y27347127D01*
D11*
X72097367Y17247127D02*
X71097367Y17247127D01*
D11*
X26500000Y93700000D02*
X18200000Y93700000D01*
D11*
X82900000Y42300000D02*
X85400000Y42300000D01*
D11*
X36050000Y57000000D02*
X29950000Y57000000D01*
D11*
X86900000Y77500000D02*
X82500000Y77500000D01*
D11*
X55900000Y65700000D02*
X61800000Y65700000D01*
D11*
X39500000Y48500000D02*
X46900000Y48500000D01*
D11*
X32300000Y75100000D02*
X32300000Y72600000D01*
D11*
X6300000Y83600000D02*
X13700000Y83600000D01*
D11*
X26700000Y66600000D02*
X23400000Y66600000D01*
D11*
X68100000Y91300000D02*
X62200000Y91300000D01*
D11*
X28450000Y60300000D02*
X24450000Y60300000D01*
D11*
X14650000Y39900000D02*
X19050000Y39900000D01*
D11*
X67500000Y75500000D02*
X60100000Y75500000D01*
D11*
X31100000Y27900000D02*
X28100000Y27900000D01*
D11*
X16150000Y63900000D02*
X16150000Y72600000D01*
D11*
X22100000Y7500000D02*
X26500000Y7500000D01*
D11*
X75997367Y44347127D02*
X75997367Y38247127D01*
D11*
X76700000Y91600000D02*
X68400000Y91600000D01*
D11*
X59900000Y39100000D02*
X59900000Y43100000D01*
D11*
X47300000Y17000000D02*
X37000000Y17000000D01*
D11*
X74700000Y48900000D02*
X74700000Y51400000D01*
D11*
X57897367Y26947127D02*
X57897367Y24447127D01*
D11*
X52600000Y27500000D02*
X52600000Y19400000D01*
D11*
X26700000Y79000000D02*
X26700000Y82000000D01*
D11*
X88197367Y17547127D02*
X93097367Y17547127D01*
D11*
X43500000Y28700000D02*
X43500000Y29900000D01*
D11*
X16400000Y29500000D02*
X21600000Y29500000D01*
D11*
X73100000Y57100000D02*
X77100000Y57100000D01*
D11*
X72897367Y17247127D02*
X81197367Y17247127D01*
D11*
X78500000Y91600000D02*
X78500000Y86400000D01*
D11*
X16400000Y19400000D02*
X16700000Y19100000D01*
D11*
X92600000Y56500000D02*
X92600000Y55500000D01*
D11*
X93097367Y27347127D02*
X85697367Y27347127D01*
G75*
D11*
G03*
X73100000Y57100000D02*
X72100000Y56100000I0J-1000000D01*
D11*
G03*
X37900000Y29900000D02*
X36900000Y28900000I0J-1000000D01*
D11*
G03*
X14150000Y61900000D02*
X16150000Y63900000I0J2000000D01*
D11*
G03*
X61900000Y48900000D02*
X59900000Y46900000I0J-2000000D01*
D11*
G03*
X28700000Y72200000D02*
X27700000Y73200000I-1000000J0D01*
D11*
G03*
X21600000Y29500000D02*
X23600000Y31500000I0J2000000D01*
D11*
G03*
X78900000Y81900000D02*
X76900000Y79900000I0J-2000000D01*
D11*
G03*
X21050000Y57000000D02*
X19050000Y55000001I-1J-2000001D01*
D11*
G03*
X52600000Y19400000D02*
X54599999Y17400000I2000000J-1D01*
D11*
G03*
X23400000Y81600000D02*
X21400001Y83600000I-2000001J0D01*
D11*
G03*
X80500000Y60400000D02*
X82500000Y62399999I0J2000000D01*
D11*
G03*
X35900000Y27900000D02*
X36900000Y28900000I0J1000000D01*
D11*
G03*
X28300000Y88500000D02*
X30300000Y86500000I2000000J0D01*
D11*
G03*
X45100000Y75100000D02*
X47100000Y77100000I0J2000000D01*
D11*
G03*
X61900000Y37100000D02*
X60900000Y38100000I-1000000J0D01*
D11*
G03*
X56600000Y46500000D02*
X54600001Y48500000I-2000001J0D01*
D11*
G03*
X18650000Y62300000D02*
X20650000Y60300000I2000000J0D01*
D11*
G03*
X26100000Y29900000D02*
X28100000Y27900000I2000000J0D01*
D11*
G03*
X76900000Y72100000D02*
X77900000Y71100000I1000000J0D01*
D11*
G03*
X71097367Y22447127D02*
X69097367Y24447127I-2000000J0D01*
D11*
G03*
X47300000Y17000000D02*
X49300000Y19000000I0J2000000D01*
D11*
G03*
X47100000Y84900000D02*
X46100000Y85900000I-1000000J0D01*
D11*
G03*
X70697367Y38747127D02*
X71697367Y37747127I1000000J0D01*
D11*
G03*
X75997367Y29347127D02*
X77997366Y27347127I2000000J-1D01*
D11*
G03*
X78900000Y70100000D02*
X77900000Y71100000I-1000000J0D01*
D11*
G03*
X59900000Y39100000D02*
X60900000Y38100000I1000000J0D01*
D11*
G03*
X30450000Y62300000D02*
X29450000Y61300000I0J-1000000D01*
D11*
G03*
X78500000Y86400000D02*
X80500000Y84400000I2000000J0D01*
D11*
G03*
X28700000Y84000000D02*
X26700000Y82000000I0J-2000000D01*
D11*
G03*
X45100000Y86900000D02*
X46100000Y85900000I1000000J0D01*
D11*
G03*
X28500000Y24600000D02*
X26500000Y22600001I-1J-2000001D01*
D11*
G03*
X87400000Y55500000D02*
X85400000Y53500000I0J-2000000D01*
D11*
G03*
X47300000Y28800000D02*
X48300000Y27800000I1000000J0D01*
D11*
G03*
X47700000Y12500000D02*
X45700000Y14500000I-2000000J0D01*
D11*
G03*
X28450000Y60300000D02*
X29450000Y61300000I0J1000000D01*
D11*
G03*
X72697367Y36747127D02*
X71697367Y37747127I-1000000J0D01*
D11*
G03*
X73600000Y79500000D02*
X71600001Y81500000I-2000001J0D01*
D11*
G03*
X70697367Y26947127D02*
X72697367Y28947127I0J2000000D01*
D11*
G03*
X45500000Y70600000D02*
X43500000Y72600000I-2000000J0D01*
D11*
G03*
X61500000Y53400000D02*
X63500000Y51400000I2000000J0D01*
D11*
G03*
X82900000Y55100000D02*
X80900000Y57100000I-2000000J0D01*
D11*
G03*
X26700000Y74200000D02*
X27700000Y73200000I1000000J0D01*
D11*
G03*
X50400000Y77500000D02*
X52399999Y75500000I2000000J-1D01*
D11*
G03*
X49300000Y26800000D02*
X48300000Y27800000I-1000000J0D01*
D11*
G03*
X71100000Y55100000D02*
X72100000Y56100000I0J1000000D01*
M02*
