M48
FMAT,2
METRIC,TZ
T4C0.300
T3C0.500
T2C1.000
T1C2.000
%
G90
G05
M71
T4
X91.100Y83.800
X91.100Y82.500
X40.900Y85.900
X40.900Y84.600
X58.497Y25.047
X58.497Y26.347
X16.750Y74.500
X18.050Y74.500
X24.200Y42.100
X25.500Y42.100
X74.100Y50.800
X74.100Y49.500
X84.800Y42.900
X83.500Y42.900
X35.100Y15.100
X35.100Y16.400
X32.900Y73.200
X32.900Y74.500
T3
X75.900Y65.500
X74.600Y65.500
X74.600Y68.600
X75.900Y68.600
X25.700Y67.600
X24.400Y67.600
X24.400Y70.700
X25.700Y70.700
X73.697Y43.347
X74.997Y43.347
X74.997Y40.247
X73.697Y40.247
X35.050Y59.300
X35.050Y58.000
X31.950Y58.000
X31.950Y59.300
X42.500Y26.900
X42.500Y25.600
X39.400Y25.600
X39.400Y26.900
X58.900Y32.500
X57.600Y32.500
X57.600Y35.600
X58.900Y35.600
X66.500Y58.100
X66.500Y59.400
X69.600Y59.400
X69.600Y58.100
X50.300Y33.400
X51.600Y33.400
X51.600Y30.300
X50.300Y30.300
X48.100Y91.500
X49.400Y91.500
X49.400Y88.400
X48.100Y88.400
T2
X73.950Y90.050
X69.950Y90.050
X64.800Y89.600
X58.200Y89.800
X23.750Y92.150
X19.750Y92.150
X14.600Y91.700
X8.000Y91.900
X75.647Y18.797
X79.647Y18.797
X84.797Y19.247
X91.397Y19.047
X10.500Y57.350
X10.500Y53.350
X10.950Y48.200
X10.750Y41.600
X17.950Y24.950
X17.950Y20.950
X18.400Y15.800
X18.200Y9.200
X56.950Y57.050
X52.950Y57.050
X47.800Y56.600
X41.200Y56.800
X91.050Y60.050
X91.050Y64.050
X90.600Y69.200
X90.800Y75.800
X52.250Y8.850
X56.250Y8.850
X61.400Y9.300
X68.000Y9.100
X50.050Y66.950
X54.050Y66.950
X59.200Y67.400
X65.800Y67.200
T1
X2.500Y97.500
X2.500Y2.500
X97.500Y2.500
X97.500Y92.000
M30
