%FSLAX46Y46*%
%MOMM*%
%ADD10C,0.150000*%
G01*
%LPD*%
G01*
%LPD*%
D10*
X67057144Y85323808D02*
X66771428Y86323808D01*
D10*
X67009524Y85323808D02*
X66723808Y86323808D01*
D10*
X66580952Y86323808D02*
X66914284Y86323808D01*
D10*
X66485716Y85323808D02*
X67200000Y85323808D01*
D10*
X66390476Y85609520D02*
X66485716Y85323808D01*
D10*
X66533332Y85323808D02*
X66390476Y85609520D01*
D10*
X66152380Y85895240D02*
X66200000Y85800000D01*
D10*
X66057144Y85990480D02*
X66152380Y85895240D01*
D10*
X65914284Y85990480D02*
X66057144Y85990480D01*
D10*
X65866668Y85942856D02*
X65914284Y85990480D01*
D10*
X65866668Y85800000D02*
X65866668Y85942856D01*
D10*
X65961904Y85514288D02*
X65866668Y85800000D01*
D10*
X65961904Y85419048D02*
X65961904Y85514288D01*
D10*
X65866668Y85323808D02*
X65961904Y85419048D01*
D10*
X65914284Y85942856D02*
X65961904Y85990480D01*
D10*
X65914284Y85800000D02*
X65914284Y85942856D01*
D10*
X66009524Y85514288D02*
X65914284Y85800000D01*
D10*
X66009524Y85419048D02*
X66009524Y85514288D01*
D10*
X65961904Y85371432D02*
X66009524Y85419048D01*
D10*
X65866668Y85323808D02*
X65961904Y85371432D01*
D10*
X65771428Y85323808D02*
X65866668Y85323808D01*
D10*
X65676192Y85371432D02*
X65771428Y85323808D01*
D10*
X65580952Y85466664D02*
X65676192Y85371432D01*
D10*
X65485716Y85657144D02*
X65580952Y85466664D01*
D10*
X65485716Y85657144D02*
X65390476Y85990480D01*
D10*
X65533332Y85466664D02*
X65485716Y85657144D01*
D10*
X65533332Y85371432D02*
X65533332Y85466664D01*
D10*
X65485716Y85323808D02*
X65533332Y85371432D01*
D10*
X65342856Y85323808D02*
X65485716Y85323808D01*
D10*
X65247620Y85419048D02*
X65342856Y85323808D01*
D10*
X65200000Y85514288D02*
X65247620Y85419048D01*
D10*
X65438096Y85657144D02*
X65342856Y85990480D01*
D10*
X65485716Y85466664D02*
X65438096Y85657144D01*
D10*
X65485716Y85371432D02*
X65485716Y85466664D01*
D10*
X65438096Y85323808D02*
X65485716Y85371432D01*
D10*
X65057144Y85323808D02*
X64771428Y86323808D01*
D10*
X65009524Y85323808D02*
X64723808Y86323808D01*
D10*
X64438096Y85895240D02*
X64390476Y85942856D01*
D10*
X64390476Y85847616D02*
X64438096Y85895240D01*
D10*
X64342856Y85895240D02*
X64390476Y85847616D01*
D10*
X64342856Y85942856D02*
X64342856Y85895240D01*
D10*
X64390476Y85990480D02*
X64342856Y85942856D01*
D10*
X64438096Y85990480D02*
X64390476Y85990480D01*
D10*
X64533332Y85942856D02*
X64438096Y85990480D01*
D10*
X64723808Y85752384D02*
X64533332Y85942856D01*
D10*
X64819048Y85704760D02*
X64723808Y85752384D01*
D10*
X64914284Y85704760D02*
X64819048Y85704760D01*
D10*
X64723808Y85657144D02*
X64819048Y85704760D01*
D10*
X64628572Y85371432D02*
X64723808Y85657144D01*
D10*
X64580952Y85323808D02*
X64628572Y85371432D01*
D10*
X64771428Y85657144D02*
X64819048Y85704760D01*
D10*
X64676192Y85371432D02*
X64771428Y85657144D01*
D10*
X64628572Y85323808D02*
X64676192Y85371432D01*
D10*
X64533332Y85323808D02*
X64628572Y85323808D01*
D10*
X64438096Y85371432D02*
X64533332Y85323808D01*
D10*
X64342856Y85514288D02*
X64438096Y85371432D01*
D10*
X64723808Y86323808D02*
X64914284Y86323808D01*
D10*
X63533332Y85657144D02*
X63438096Y85990480D01*
D10*
X63580952Y85466664D02*
X63533332Y85657144D01*
D10*
X63580952Y85371432D02*
X63580952Y85466664D01*
D10*
X63533332Y85323808D02*
X63580952Y85371432D01*
D10*
X63390476Y85323808D02*
X63533332Y85323808D01*
D10*
X63295240Y85419048D02*
X63390476Y85323808D01*
D10*
X63247620Y85514288D02*
X63295240Y85419048D01*
D10*
X63485716Y85657144D02*
X63390476Y85990480D01*
D10*
X63533332Y85466664D02*
X63485716Y85657144D01*
D10*
X63533332Y85371432D02*
X63533332Y85466664D01*
D10*
X63485716Y85323808D02*
X63533332Y85371432D01*
D10*
X63533332Y85800000D02*
X63533332Y85657144D01*
D10*
X63580952Y85942856D02*
X63533332Y85800000D01*
D10*
X63676192Y85990480D02*
X63580952Y85942856D01*
D10*
X63771428Y85990480D02*
X63676192Y85990480D01*
D10*
X63914284Y85942856D02*
X63771428Y85990480D01*
D10*
X64009524Y85800000D02*
X63914284Y85942856D01*
D10*
X64057144Y85657144D02*
X64009524Y85800000D01*
D10*
X64057144Y85514288D02*
X64057144Y85657144D01*
D10*
X64009524Y85419048D02*
X64057144Y85514288D01*
D10*
X63961904Y85371432D02*
X64009524Y85419048D01*
D10*
X63866668Y85323808D02*
X63961904Y85371432D01*
D10*
X63771428Y85323808D02*
X63866668Y85323808D01*
D10*
X63676192Y85371432D02*
X63771428Y85323808D01*
D10*
X63580952Y85514288D02*
X63676192Y85371432D01*
D10*
X63533332Y85657144D02*
X63580952Y85514288D01*
D10*
X63866668Y85942856D02*
X63771428Y85990480D01*
D10*
X63961904Y85800000D02*
X63866668Y85942856D01*
D10*
X64009524Y85657144D02*
X63961904Y85800000D01*
D10*
X64009524Y85466664D02*
X64009524Y85657144D01*
D10*
X63961904Y85371432D02*
X64009524Y85466664D01*
D10*
X62533332Y85847616D02*
X62533332Y85895240D01*
D10*
X62485716Y85847616D02*
X62533332Y85847616D01*
D10*
X62485716Y85895240D02*
X62485716Y85847616D01*
D10*
X62533332Y85942856D02*
X62485716Y85895240D01*
D10*
X62676192Y85990480D02*
X62533332Y85942856D01*
D10*
X62819048Y85990480D02*
X62676192Y85990480D01*
D10*
X62961904Y85942856D02*
X62819048Y85990480D01*
D10*
X63009524Y85895240D02*
X62961904Y85942856D01*
D10*
X63009524Y85800000D02*
X63009524Y85895240D01*
D10*
X62961904Y85752384D02*
X63009524Y85800000D01*
D10*
X62628572Y85561904D02*
X62961904Y85752384D01*
D10*
X62580952Y85514288D02*
X62628572Y85561904D01*
D10*
X62961904Y85800000D02*
X63009524Y85847616D01*
D10*
X62628572Y85609520D02*
X62961904Y85800000D01*
D10*
X62580952Y85561904D02*
X62628572Y85609520D01*
D10*
X62580952Y85419048D02*
X62580952Y85561904D01*
D10*
X62628572Y85371432D02*
X62580952Y85419048D01*
D10*
X62771428Y85323808D02*
X62628572Y85371432D01*
D10*
X62914288Y85323808D02*
X62771428Y85323808D01*
D10*
X63057144Y85371432D02*
X62914288Y85323808D01*
D10*
X63104760Y85419048D02*
X63057144Y85371432D01*
D10*
X63104760Y85466664D02*
X63104760Y85419048D01*
D10*
X63057144Y85466664D02*
X63104760Y85466664D01*
D10*
X63057144Y85419048D02*
X63057144Y85466664D01*
D10*
X61866668Y85323808D02*
X61580952Y86323808D01*
D10*
X61819048Y85323808D02*
X61533332Y86323808D01*
D10*
X61723808Y85704760D02*
X60914288Y86323808D01*
D10*
X61200000Y85323808D02*
X61390476Y85895240D01*
D10*
X61247620Y85323808D02*
X61438096Y85895240D01*
D10*
X61390476Y86323808D02*
X61723808Y86323808D01*
D10*
X60819048Y86323808D02*
X61104760Y86323808D01*
D10*
X61676192Y85323808D02*
X62009524Y85323808D01*
D10*
X61104760Y85323808D02*
X61390476Y85323808D01*
D10*
X60723808Y85371432D02*
X60676192Y85419048D01*
D10*
X60676192Y85323808D02*
X60723808Y85371432D01*
D10*
X60628572Y85371432D02*
X60676192Y85323808D01*
D10*
X60676192Y85419048D02*
X60628572Y85371432D01*
D10*
X67104760Y84395240D02*
X67152384Y84300000D01*
D10*
X67009524Y84490480D02*
X67104760Y84395240D01*
D10*
X66866668Y84490480D02*
X67009524Y84490480D01*
D10*
X66819048Y84442856D02*
X66866668Y84490480D01*
D10*
X66819048Y84347616D02*
X66819048Y84442856D01*
D10*
X66866668Y84157144D02*
X66819048Y84347616D01*
D10*
X66961904Y83823808D02*
X66866668Y84157144D01*
D10*
X66866668Y84442856D02*
X66914284Y84490480D01*
D10*
X66866668Y84347616D02*
X66866668Y84442856D01*
D10*
X66914284Y84157144D02*
X66866668Y84347616D01*
D10*
X67009524Y83823808D02*
X66914284Y84157144D01*
D10*
X66771428Y84347616D02*
X66866668Y84157144D01*
D10*
X66676192Y84442856D02*
X66771428Y84347616D01*
D10*
X66580952Y84490480D02*
X66676192Y84442856D01*
D10*
X66485716Y84490480D02*
X66580952Y84490480D01*
D10*
X66438096Y84442856D02*
X66485716Y84490480D01*
D10*
X66438096Y84395240D02*
X66438096Y84442856D01*
D10*
X66485716Y84347616D02*
X66438096Y84395240D01*
D10*
X66533332Y84395240D02*
X66485716Y84347616D01*
D10*
X66485716Y84442856D02*
X66533332Y84395240D01*
D10*
X66009524Y84109520D02*
X66200000Y84061904D01*
D10*
X65866668Y84157144D02*
X66009524Y84109520D01*
D10*
X65723808Y84252384D02*
X65866668Y84157144D01*
D10*
X65676192Y84347616D02*
X65723808Y84252384D01*
D10*
X65723808Y84442856D02*
X65676192Y84347616D01*
D10*
X65819048Y84490480D02*
X65723808Y84442856D01*
D10*
X65961904Y84490480D02*
X65819048Y84490480D01*
D10*
X66104760Y84442856D02*
X65961904Y84490480D01*
D10*
X66200000Y84300000D02*
X66104760Y84442856D01*
D10*
X66247620Y84157144D02*
X66200000Y84300000D01*
D10*
X66247620Y84014288D02*
X66247620Y84157144D01*
D10*
X66200000Y83919048D02*
X66247620Y84014288D01*
D10*
X66152380Y83871432D02*
X66200000Y83919048D01*
D10*
X66057144Y83823808D02*
X66152380Y83871432D01*
D10*
X65961904Y83823808D02*
X66057144Y83823808D01*
D10*
X65819048Y83871432D02*
X65961904Y83823808D01*
D10*
X65723808Y83966664D02*
X65819048Y83871432D01*
D10*
X66057144Y84442856D02*
X65961904Y84490480D01*
D10*
X66152380Y84300000D02*
X66057144Y84442856D01*
D10*
X66200000Y84157144D02*
X66152380Y84300000D01*
D10*
X66200000Y83966664D02*
X66200000Y84157144D01*
D10*
X66152380Y83871432D02*
X66200000Y83966664D01*
D10*
X65438096Y84395240D02*
X65485716Y84300000D01*
D10*
X65342856Y84490480D02*
X65438096Y84395240D01*
D10*
X65200000Y84490480D02*
X65342856Y84490480D01*
D10*
X65152380Y84442856D02*
X65200000Y84490480D01*
D10*
X65152380Y84300000D02*
X65152380Y84442856D01*
D10*
X65247620Y84014288D02*
X65152380Y84300000D01*
D10*
X65247620Y83919048D02*
X65247620Y84014288D01*
D10*
X65152380Y83823808D02*
X65247620Y83919048D01*
D10*
X65200000Y84442856D02*
X65247620Y84490480D01*
D10*
X65200000Y84300000D02*
X65200000Y84442856D01*
D10*
X65295240Y84014288D02*
X65200000Y84300000D01*
D10*
X65295240Y83919048D02*
X65295240Y84014288D01*
D10*
X65247620Y83871432D02*
X65295240Y83919048D01*
D10*
X65152380Y83823808D02*
X65247620Y83871432D01*
D10*
X65104760Y83823808D02*
X65152380Y83823808D01*
D10*
X64961904Y83871432D02*
X65104760Y83823808D01*
D10*
X64866668Y83966664D02*
X64961904Y83871432D01*
D10*
X64771428Y84109520D02*
X64866668Y83966664D01*
D10*
X64723808Y84300000D02*
X64771428Y84109520D01*
D10*
X64723808Y84490480D02*
X64723808Y84300000D01*
D10*
X64771428Y84490480D02*
X64723808Y84490480D01*
D10*
X64723808Y84395240D02*
X64771428Y84490480D01*
D10*
X64247620Y83823808D02*
X64009524Y84633336D01*
D10*
X64200000Y83823808D02*
X63914284Y84823808D01*
D10*
X64057144Y84680952D02*
X63914284Y84823808D01*
D10*
X64200000Y84585712D02*
X64057144Y84680952D01*
D10*
X64295240Y84538096D02*
X64200000Y84585712D01*
D10*
X64152380Y84585712D02*
X63961904Y84680952D01*
D10*
X64295240Y84538096D02*
X64152380Y84585712D01*
D10*
X66819048Y83085712D02*
X66866668Y83133336D01*
D10*
X66866668Y83038096D02*
X66819048Y83085712D01*
D10*
X66914284Y83085712D02*
X66866668Y83038096D01*
D10*
X66914284Y83133336D02*
X66914284Y83085712D01*
D10*
X66866668Y83228568D02*
X66914284Y83133336D01*
D10*
X66819048Y83276192D02*
X66866668Y83228568D01*
D10*
X66676192Y83323808D02*
X66819048Y83276192D01*
D10*
X66533332Y83323808D02*
X66676192Y83323808D01*
D10*
X66390476Y83276192D02*
X66533332Y83323808D01*
D10*
X66342856Y83180952D02*
X66390476Y83276192D01*
D10*
X66342856Y83085712D02*
X66342856Y83180952D01*
D10*
X66390476Y82990480D02*
X66342856Y83085712D01*
D10*
X66485716Y82895240D02*
X66390476Y82990480D01*
D10*
X66628572Y82800000D02*
X66485716Y82895240D01*
D10*
X66819048Y82704760D02*
X66628572Y82800000D01*
D10*
X66961904Y82609520D02*
X66819048Y82704760D01*
D10*
X67057144Y82514288D02*
X66961904Y82609520D01*
D10*
X67152384Y82323808D02*
X67057144Y82514288D01*
D10*
X66438096Y83276192D02*
X66533332Y83323808D01*
D10*
X66390476Y83180952D02*
X66438096Y83276192D01*
D10*
X66390476Y83085712D02*
X66390476Y83180952D01*
D10*
X66438096Y82990480D02*
X66390476Y83085712D01*
D10*
X66533332Y82895240D02*
X66438096Y82990480D01*
D10*
X66819048Y82704760D02*
X66533332Y82895240D01*
D10*
X67057144Y82466664D02*
X67104760Y82419048D01*
D10*
X66961904Y82466664D02*
X67057144Y82466664D01*
D10*
X66723808Y82371432D02*
X66961904Y82466664D01*
D10*
X66580952Y82371432D02*
X66723808Y82371432D01*
D10*
X66485716Y82419048D02*
X66580952Y82371432D01*
D10*
X66438096Y82514288D02*
X66485716Y82419048D01*
D10*
X66723808Y82323808D02*
X66961904Y82466664D01*
D10*
X66580952Y82323808D02*
X66723808Y82323808D01*
D10*
X66485716Y82371432D02*
X66580952Y82323808D01*
D10*
X66438096Y82514288D02*
X66485716Y82371432D01*
D10*
X65771428Y83276192D02*
X65628572Y83323808D01*
D10*
X65866668Y83180952D02*
X65771428Y83276192D01*
D10*
X65961904Y83038096D02*
X65866668Y83180952D01*
D10*
X66009524Y82895240D02*
X65961904Y83038096D01*
D10*
X66057144Y82704760D02*
X66009524Y82895240D01*
D10*
X66057144Y82561904D02*
X66057144Y82704760D01*
D10*
X66009524Y82419048D02*
X66057144Y82561904D01*
D10*
X65961904Y82371432D02*
X66009524Y82419048D01*
D10*
X65866668Y82323808D02*
X65961904Y82371432D01*
D10*
X65771428Y82323808D02*
X65866668Y82323808D01*
D10*
X65628572Y82371432D02*
X65771428Y82323808D01*
D10*
X65533332Y82466664D02*
X65628572Y82371432D01*
D10*
X65438096Y82609520D02*
X65533332Y82466664D01*
D10*
X65390476Y82752384D02*
X65438096Y82609520D01*
D10*
X65342856Y82942856D02*
X65390476Y82752384D01*
D10*
X65342856Y83085712D02*
X65342856Y82942856D01*
D10*
X65390476Y83228568D02*
X65342856Y83085712D01*
D10*
X65438096Y83276192D02*
X65390476Y83228568D01*
D10*
X65533332Y83323808D02*
X65438096Y83276192D01*
D10*
X65628572Y83323808D02*
X65533332Y83323808D01*
D10*
X65723808Y83276192D02*
X65628572Y83323808D01*
D10*
X65819048Y83180952D02*
X65723808Y83276192D01*
D10*
X65914284Y83038096D02*
X65819048Y83180952D01*
D10*
X65961904Y82895240D02*
X65914284Y83038096D01*
D10*
X66009524Y82704760D02*
X65961904Y82895240D01*
D10*
X66009524Y82561904D02*
X66009524Y82704760D01*
D10*
X65961904Y82419048D02*
X66009524Y82561904D01*
D10*
X65866668Y82323808D02*
X65961904Y82419048D01*
D10*
X65676192Y82371432D02*
X65771428Y82323808D01*
D10*
X65580952Y82466664D02*
X65676192Y82371432D01*
D10*
X65485716Y82609520D02*
X65580952Y82466664D01*
D10*
X65438096Y82752384D02*
X65485716Y82609520D01*
D10*
X65390476Y82942856D02*
X65438096Y82752384D01*
D10*
X65390476Y83085712D02*
X65390476Y82942856D01*
D10*
X65438096Y83228568D02*
X65390476Y83085712D01*
D10*
X65533332Y83323808D02*
X65438096Y83228568D01*
D10*
X64819048Y83085712D02*
X64866668Y83133336D01*
D10*
X64866668Y83038096D02*
X64819048Y83085712D01*
D10*
X64914284Y83085712D02*
X64866668Y83038096D01*
D10*
X64914284Y83133336D02*
X64914284Y83085712D01*
D10*
X64866668Y83228568D02*
X64914284Y83133336D01*
D10*
X64819048Y83276192D02*
X64866668Y83228568D01*
D10*
X64676192Y83323808D02*
X64819048Y83276192D01*
D10*
X64533332Y83323808D02*
X64676192Y83323808D01*
D10*
X64390476Y83276192D02*
X64533332Y83323808D01*
D10*
X64342856Y83180952D02*
X64390476Y83276192D01*
D10*
X64342856Y83085712D02*
X64342856Y83180952D01*
D10*
X64390476Y82990480D02*
X64342856Y83085712D01*
D10*
X64485716Y82895240D02*
X64390476Y82990480D01*
D10*
X64628572Y82800000D02*
X64485716Y82895240D01*
D10*
X64819048Y82704760D02*
X64628572Y82800000D01*
D10*
X64961904Y82609520D02*
X64819048Y82704760D01*
D10*
X65057144Y82514288D02*
X64961904Y82609520D01*
D10*
X65152380Y82323808D02*
X65057144Y82514288D01*
D10*
X64438096Y83276192D02*
X64533332Y83323808D01*
D10*
X64390476Y83180952D02*
X64438096Y83276192D01*
D10*
X64390476Y83085712D02*
X64390476Y83180952D01*
D10*
X64438096Y82990480D02*
X64390476Y83085712D01*
D10*
X64533332Y82895240D02*
X64438096Y82990480D01*
D10*
X64819048Y82704760D02*
X64533332Y82895240D01*
D10*
X65057144Y82466664D02*
X65104760Y82419048D01*
D10*
X64961904Y82466664D02*
X65057144Y82466664D01*
D10*
X64723808Y82371432D02*
X64961904Y82466664D01*
D10*
X64580952Y82371432D02*
X64723808Y82371432D01*
D10*
X64485716Y82419048D02*
X64580952Y82371432D01*
D10*
X64438096Y82514288D02*
X64485716Y82419048D01*
D10*
X64723808Y82323808D02*
X64961904Y82466664D01*
D10*
X64580952Y82323808D02*
X64723808Y82323808D01*
D10*
X64485716Y82371432D02*
X64580952Y82323808D01*
D10*
X64438096Y82514288D02*
X64485716Y82371432D01*
D10*
X63723808Y82323808D02*
X63438096Y83276192D01*
D10*
X63676192Y82323808D02*
X63390476Y83323808D01*
D10*
X64104760Y82609520D02*
X63390476Y83323808D01*
D10*
X63342856Y82609520D02*
X64104760Y82609520D01*
D10*
X62152380Y82752384D02*
X63009524Y82752384D01*
D10*
X61533332Y83276192D02*
X61390476Y83323808D01*
D10*
X61628572Y83180952D02*
X61533332Y83276192D01*
D10*
X61723808Y83038096D02*
X61628572Y83180952D01*
D10*
X61771428Y82895240D02*
X61723808Y83038096D01*
D10*
X61819048Y82704760D02*
X61771428Y82895240D01*
D10*
X61819048Y82561904D02*
X61819048Y82704760D01*
D10*
X61771428Y82419048D02*
X61819048Y82561904D01*
D10*
X61723808Y82371432D02*
X61771428Y82419048D01*
D10*
X61628572Y82323808D02*
X61723808Y82371432D01*
D10*
X61533332Y82323808D02*
X61628572Y82323808D01*
D10*
X61390476Y82371432D02*
X61533332Y82323808D01*
D10*
X61295240Y82466664D02*
X61390476Y82371432D01*
D10*
X61200000Y82609520D02*
X61295240Y82466664D01*
D10*
X61152380Y82752384D02*
X61200000Y82609520D01*
D10*
X61104760Y82942856D02*
X61152380Y82752384D01*
D10*
X61104760Y83085712D02*
X61104760Y82942856D01*
D10*
X61152380Y83228568D02*
X61104760Y83085712D01*
D10*
X61200000Y83276192D02*
X61152380Y83228568D01*
D10*
X61295240Y83323808D02*
X61200000Y83276192D01*
D10*
X61390476Y83323808D02*
X61295240Y83323808D01*
D10*
X61485716Y83276192D02*
X61390476Y83323808D01*
D10*
X61580952Y83180952D02*
X61485716Y83276192D01*
D10*
X61676192Y83038096D02*
X61580952Y83180952D01*
D10*
X61723808Y82895240D02*
X61676192Y83038096D01*
D10*
X61771428Y82704760D02*
X61723808Y82895240D01*
D10*
X61771428Y82561904D02*
X61771428Y82704760D01*
D10*
X61723808Y82419048D02*
X61771428Y82561904D01*
D10*
X61628572Y82323808D02*
X61723808Y82419048D01*
D10*
X61438096Y82371432D02*
X61533332Y82323808D01*
D10*
X61342856Y82466664D02*
X61438096Y82371432D01*
D10*
X61247620Y82609520D02*
X61342856Y82466664D01*
D10*
X61200000Y82752384D02*
X61247620Y82609520D01*
D10*
X61152380Y82942856D02*
X61200000Y82752384D01*
D10*
X61152380Y83085712D02*
X61152380Y82942856D01*
D10*
X61200000Y83228568D02*
X61152380Y83085712D01*
D10*
X61295240Y83323808D02*
X61200000Y83228568D01*
D10*
X60485716Y82323808D02*
X60200000Y83276192D01*
D10*
X60438096Y82323808D02*
X60152380Y83323808D01*
D10*
X60866668Y82609520D02*
X60152380Y83323808D01*
D10*
X60104760Y82609520D02*
X60866668Y82609520D01*
D10*
X58914288Y82752384D02*
X59771428Y82752384D01*
D10*
X58342856Y83085712D02*
X58390476Y83133336D01*
D10*
X58390476Y83038096D02*
X58342856Y83085712D01*
D10*
X58438096Y83085712D02*
X58390476Y83038096D01*
D10*
X58438096Y83133336D02*
X58438096Y83085712D01*
D10*
X58390476Y83228568D02*
X58438096Y83133336D01*
D10*
X58342856Y83276192D02*
X58390476Y83228568D01*
D10*
X58200000Y83323808D02*
X58342856Y83276192D01*
D10*
X58057144Y83323808D02*
X58200000Y83323808D01*
D10*
X57914288Y83276192D02*
X58057144Y83323808D01*
D10*
X57866668Y83180952D02*
X57914288Y83276192D01*
D10*
X57866668Y83085712D02*
X57866668Y83180952D01*
D10*
X57914288Y82990480D02*
X57866668Y83085712D01*
D10*
X58009524Y82895240D02*
X57914288Y82990480D01*
D10*
X58152380Y82800000D02*
X58009524Y82895240D01*
D10*
X58342856Y82704760D02*
X58152380Y82800000D01*
D10*
X58485712Y82609520D02*
X58342856Y82704760D01*
D10*
X58580952Y82514288D02*
X58485712Y82609520D01*
D10*
X58676192Y82323808D02*
X58580952Y82514288D01*
D10*
X57961904Y83276192D02*
X58057144Y83323808D01*
D10*
X57914288Y83180952D02*
X57961904Y83276192D01*
D10*
X57914288Y83085712D02*
X57914288Y83180952D01*
D10*
X57961904Y82990480D02*
X57914288Y83085712D01*
D10*
X58057144Y82895240D02*
X57961904Y82990480D01*
D10*
X58342856Y82704760D02*
X58057144Y82895240D01*
D10*
X58580952Y82466664D02*
X58628572Y82419048D01*
D10*
X58485712Y82466664D02*
X58580952Y82466664D01*
D10*
X58247620Y82371432D02*
X58485712Y82466664D01*
D10*
X58104760Y82371432D02*
X58247620Y82371432D01*
D10*
X58009524Y82419048D02*
X58104760Y82371432D01*
D10*
X57961904Y82514288D02*
X58009524Y82419048D01*
D10*
X58247620Y82323808D02*
X58485712Y82466664D01*
D10*
X58104760Y82323808D02*
X58247620Y82323808D01*
D10*
X58009524Y82371432D02*
X58104760Y82323808D01*
D10*
X57961904Y82514288D02*
X58009524Y82371432D01*
D10*
X57390476Y82323808D02*
X57152380Y83133336D01*
D10*
X57342856Y82323808D02*
X57057144Y83323808D01*
D10*
X57200000Y83180952D02*
X57057144Y83323808D01*
D10*
X57342856Y83085712D02*
X57200000Y83180952D01*
D10*
X57438096Y83038096D02*
X57342856Y83085712D01*
D10*
X57295240Y83085712D02*
X57104760Y83180952D01*
D10*
X57438096Y83038096D02*
X57295240Y83085712D01*
D10*
X16857142Y87423808D02*
X16571429Y88423808D01*
D10*
X16809524Y87423808D02*
X16523810Y88423808D01*
D10*
X16380952Y88423808D02*
X16714286Y88423808D01*
D10*
X16285714Y87423808D02*
X17000000Y87423808D01*
D10*
X16190476Y87709520D02*
X16285714Y87423808D01*
D10*
X16333333Y87423808D02*
X16190476Y87709520D01*
D10*
X15952381Y87995240D02*
X16000000Y87900000D01*
D10*
X15857143Y88090480D02*
X15952381Y87995240D01*
D10*
X15714286Y88090480D02*
X15857143Y88090480D01*
D10*
X15666667Y88042856D02*
X15714286Y88090480D01*
D10*
X15666667Y87900000D02*
X15666667Y88042856D01*
D10*
X15761905Y87614288D02*
X15666667Y87900000D01*
D10*
X15761905Y87519048D02*
X15761905Y87614288D01*
D10*
X15666667Y87423808D02*
X15761905Y87519048D01*
D10*
X15714286Y88042856D02*
X15761905Y88090480D01*
D10*
X15714286Y87900000D02*
X15714286Y88042856D01*
D10*
X15809524Y87614288D02*
X15714286Y87900000D01*
D10*
X15809524Y87519048D02*
X15809524Y87614288D01*
D10*
X15761905Y87471432D02*
X15809524Y87519048D01*
D10*
X15666667Y87423808D02*
X15761905Y87471432D01*
D10*
X15571429Y87423808D02*
X15666667Y87423808D01*
D10*
X15476190Y87471432D02*
X15571429Y87423808D01*
D10*
X15380952Y87566664D02*
X15476190Y87471432D01*
D10*
X15285714Y87757144D02*
X15380952Y87566664D01*
D10*
X15285714Y87757144D02*
X15190476Y88090480D01*
D10*
X15333333Y87566664D02*
X15285714Y87757144D01*
D10*
X15333333Y87471432D02*
X15333333Y87566664D01*
D10*
X15285714Y87423808D02*
X15333333Y87471432D01*
D10*
X15142857Y87423808D02*
X15285714Y87423808D01*
D10*
X15047619Y87519048D02*
X15142857Y87423808D01*
D10*
X15000000Y87614288D02*
X15047619Y87519048D01*
D10*
X15238095Y87757144D02*
X15142857Y88090480D01*
D10*
X15285714Y87566664D02*
X15238095Y87757144D01*
D10*
X15285714Y87471432D02*
X15285714Y87566664D01*
D10*
X15238095Y87423808D02*
X15285714Y87471432D01*
D10*
X14857143Y87423808D02*
X14571428Y88423808D01*
D10*
X14809524Y87423808D02*
X14523810Y88423808D01*
D10*
X14238095Y87995240D02*
X14190476Y88042856D01*
D10*
X14190476Y87947616D02*
X14238095Y87995240D01*
D10*
X14142857Y87995240D02*
X14190476Y87947616D01*
D10*
X14142857Y88042856D02*
X14142857Y87995240D01*
D10*
X14190476Y88090480D02*
X14142857Y88042856D01*
D10*
X14238095Y88090480D02*
X14190476Y88090480D01*
D10*
X14333334Y88042856D02*
X14238095Y88090480D01*
D10*
X14523810Y87852384D02*
X14333334Y88042856D01*
D10*
X14619048Y87804760D02*
X14523810Y87852384D01*
D10*
X14714286Y87804760D02*
X14619048Y87804760D01*
D10*
X14523810Y87757144D02*
X14619048Y87804760D01*
D10*
X14428572Y87471432D02*
X14523810Y87757144D01*
D10*
X14380952Y87423808D02*
X14428572Y87471432D01*
D10*
X14571428Y87757144D02*
X14619048Y87804760D01*
D10*
X14476190Y87471432D02*
X14571428Y87757144D01*
D10*
X14428572Y87423808D02*
X14476190Y87471432D01*
D10*
X14333334Y87423808D02*
X14428572Y87423808D01*
D10*
X14238095Y87471432D02*
X14333334Y87423808D01*
D10*
X14142857Y87614288D02*
X14238095Y87471432D01*
D10*
X14523810Y88423808D02*
X14714286Y88423808D01*
D10*
X13333334Y87757144D02*
X13238095Y88090480D01*
D10*
X13380952Y87566664D02*
X13333334Y87757144D01*
D10*
X13380952Y87471432D02*
X13380952Y87566664D01*
D10*
X13333334Y87423808D02*
X13380952Y87471432D01*
D10*
X13190476Y87423808D02*
X13333334Y87423808D01*
D10*
X13095238Y87519048D02*
X13190476Y87423808D01*
D10*
X13047619Y87614288D02*
X13095238Y87519048D01*
D10*
X13285714Y87757144D02*
X13190476Y88090480D01*
D10*
X13333334Y87566664D02*
X13285714Y87757144D01*
D10*
X13333334Y87471432D02*
X13333334Y87566664D01*
D10*
X13285714Y87423808D02*
X13333334Y87471432D01*
D10*
X13333334Y87900000D02*
X13333334Y87757144D01*
D10*
X13380952Y88042856D02*
X13333334Y87900000D01*
D10*
X13476190Y88090480D02*
X13380952Y88042856D01*
D10*
X13571428Y88090480D02*
X13476190Y88090480D01*
D10*
X13714286Y88042856D02*
X13571428Y88090480D01*
D10*
X13809524Y87900000D02*
X13714286Y88042856D01*
D10*
X13857143Y87757144D02*
X13809524Y87900000D01*
D10*
X13857143Y87614288D02*
X13857143Y87757144D01*
D10*
X13809524Y87519048D02*
X13857143Y87614288D01*
D10*
X13761905Y87471432D02*
X13809524Y87519048D01*
D10*
X13666667Y87423808D02*
X13761905Y87471432D01*
D10*
X13571428Y87423808D02*
X13666667Y87423808D01*
D10*
X13476190Y87471432D02*
X13571428Y87423808D01*
D10*
X13380952Y87614288D02*
X13476190Y87471432D01*
D10*
X13333334Y87757144D02*
X13380952Y87614288D01*
D10*
X13666667Y88042856D02*
X13571428Y88090480D01*
D10*
X13761905Y87900000D02*
X13666667Y88042856D01*
D10*
X13809524Y87757144D02*
X13761905Y87900000D01*
D10*
X13809524Y87566664D02*
X13809524Y87757144D01*
D10*
X13761905Y87471432D02*
X13809524Y87566664D01*
D10*
X12333334Y87947616D02*
X12333334Y87995240D01*
D10*
X12285714Y87947616D02*
X12333334Y87947616D01*
D10*
X12285714Y87995240D02*
X12285714Y87947616D01*
D10*
X12333334Y88042856D02*
X12285714Y87995240D01*
D10*
X12476190Y88090480D02*
X12333334Y88042856D01*
D10*
X12619048Y88090480D02*
X12476190Y88090480D01*
D10*
X12761905Y88042856D02*
X12619048Y88090480D01*
D10*
X12809524Y87995240D02*
X12761905Y88042856D01*
D10*
X12809524Y87900000D02*
X12809524Y87995240D01*
D10*
X12761905Y87852384D02*
X12809524Y87900000D01*
D10*
X12428572Y87661904D02*
X12761905Y87852384D01*
D10*
X12380952Y87614288D02*
X12428572Y87661904D01*
D10*
X12761905Y87900000D02*
X12809524Y87947616D01*
D10*
X12428572Y87709520D02*
X12761905Y87900000D01*
D10*
X12380952Y87661904D02*
X12428572Y87709520D01*
D10*
X12380952Y87519048D02*
X12380952Y87661904D01*
D10*
X12428572Y87471432D02*
X12380952Y87519048D01*
D10*
X12571428Y87423808D02*
X12428572Y87471432D01*
D10*
X12714286Y87423808D02*
X12571428Y87423808D01*
D10*
X12857143Y87471432D02*
X12714286Y87423808D01*
D10*
X12904762Y87519048D02*
X12857143Y87471432D01*
D10*
X12904762Y87566664D02*
X12904762Y87519048D01*
D10*
X12857143Y87566664D02*
X12904762Y87566664D01*
D10*
X12857143Y87519048D02*
X12857143Y87566664D01*
D10*
X11666667Y87423808D02*
X11380952Y88423808D01*
D10*
X11619048Y87423808D02*
X11333334Y88423808D01*
D10*
X11523810Y87804760D02*
X10714286Y88423808D01*
D10*
X11000000Y87423808D02*
X11190476Y87995240D01*
D10*
X11047619Y87423808D02*
X11238096Y87995240D01*
D10*
X11190476Y88423808D02*
X11523810Y88423808D01*
D10*
X10619048Y88423808D02*
X10904762Y88423808D01*
D10*
X11476190Y87423808D02*
X11809524Y87423808D01*
D10*
X10904762Y87423808D02*
X11190476Y87423808D01*
D10*
X10523810Y87471432D02*
X10476190Y87519048D01*
D10*
X10476190Y87423808D02*
X10523810Y87471432D01*
D10*
X10428572Y87471432D02*
X10476190Y87423808D01*
D10*
X10476190Y87519048D02*
X10428572Y87471432D01*
D10*
X16904762Y86495240D02*
X16952380Y86400000D01*
D10*
X16809524Y86590480D02*
X16904762Y86495240D01*
D10*
X16666667Y86590480D02*
X16809524Y86590480D01*
D10*
X16619048Y86542856D02*
X16666667Y86590480D01*
D10*
X16619048Y86447616D02*
X16619048Y86542856D01*
D10*
X16666667Y86257144D02*
X16619048Y86447616D01*
D10*
X16761905Y85923808D02*
X16666667Y86257144D01*
D10*
X16666667Y86542856D02*
X16714286Y86590480D01*
D10*
X16666667Y86447616D02*
X16666667Y86542856D01*
D10*
X16714286Y86257144D02*
X16666667Y86447616D01*
D10*
X16809524Y85923808D02*
X16714286Y86257144D01*
D10*
X16571429Y86447616D02*
X16666667Y86257144D01*
D10*
X16476190Y86542856D02*
X16571429Y86447616D01*
D10*
X16380952Y86590480D02*
X16476190Y86542856D01*
D10*
X16285714Y86590480D02*
X16380952Y86590480D01*
D10*
X16238095Y86542856D02*
X16285714Y86590480D01*
D10*
X16238095Y86495240D02*
X16238095Y86542856D01*
D10*
X16285714Y86447616D02*
X16238095Y86495240D01*
D10*
X16333333Y86495240D02*
X16285714Y86447616D01*
D10*
X16285714Y86542856D02*
X16333333Y86495240D01*
D10*
X15809524Y86209520D02*
X16000000Y86161904D01*
D10*
X15666667Y86257144D02*
X15809524Y86209520D01*
D10*
X15523810Y86352384D02*
X15666667Y86257144D01*
D10*
X15476190Y86447616D02*
X15523810Y86352384D01*
D10*
X15523810Y86542856D02*
X15476190Y86447616D01*
D10*
X15619048Y86590480D02*
X15523810Y86542856D01*
D10*
X15761905Y86590480D02*
X15619048Y86590480D01*
D10*
X15904762Y86542856D02*
X15761905Y86590480D01*
D10*
X16000000Y86400000D02*
X15904762Y86542856D01*
D10*
X16047619Y86257144D02*
X16000000Y86400000D01*
D10*
X16047619Y86114288D02*
X16047619Y86257144D01*
D10*
X16000000Y86019048D02*
X16047619Y86114288D01*
D10*
X15952381Y85971432D02*
X16000000Y86019048D01*
D10*
X15857143Y85923808D02*
X15952381Y85971432D01*
D10*
X15761905Y85923808D02*
X15857143Y85923808D01*
D10*
X15619048Y85971432D02*
X15761905Y85923808D01*
D10*
X15523810Y86066664D02*
X15619048Y85971432D01*
D10*
X15857143Y86542856D02*
X15761905Y86590480D01*
D10*
X15952381Y86400000D02*
X15857143Y86542856D01*
D10*
X16000000Y86257144D02*
X15952381Y86400000D01*
D10*
X16000000Y86066664D02*
X16000000Y86257144D01*
D10*
X15952381Y85971432D02*
X16000000Y86066664D01*
D10*
X15238095Y86495240D02*
X15285714Y86400000D01*
D10*
X15142857Y86590480D02*
X15238095Y86495240D01*
D10*
X15000000Y86590480D02*
X15142857Y86590480D01*
D10*
X14952381Y86542856D02*
X15000000Y86590480D01*
D10*
X14952381Y86400000D02*
X14952381Y86542856D01*
D10*
X15047619Y86114288D02*
X14952381Y86400000D01*
D10*
X15047619Y86019048D02*
X15047619Y86114288D01*
D10*
X14952381Y85923808D02*
X15047619Y86019048D01*
D10*
X15000000Y86542856D02*
X15047619Y86590480D01*
D10*
X15000000Y86400000D02*
X15000000Y86542856D01*
D10*
X15095238Y86114288D02*
X15000000Y86400000D01*
D10*
X15095238Y86019048D02*
X15095238Y86114288D01*
D10*
X15047619Y85971432D02*
X15095238Y86019048D01*
D10*
X14952381Y85923808D02*
X15047619Y85971432D01*
D10*
X14904762Y85923808D02*
X14952381Y85923808D01*
D10*
X14761905Y85971432D02*
X14904762Y85923808D01*
D10*
X14666667Y86066664D02*
X14761905Y85971432D01*
D10*
X14571428Y86209520D02*
X14666667Y86066664D01*
D10*
X14523810Y86400000D02*
X14571428Y86209520D01*
D10*
X14523810Y86590480D02*
X14523810Y86400000D01*
D10*
X14571428Y86590480D02*
X14523810Y86590480D01*
D10*
X14523810Y86495240D02*
X14571428Y86590480D01*
D10*
X14047619Y85923808D02*
X13809524Y86733336D01*
D10*
X14000000Y85923808D02*
X13714286Y86923808D01*
D10*
X13857143Y86780952D02*
X13714286Y86923808D01*
D10*
X14000000Y86685712D02*
X13857143Y86780952D01*
D10*
X14095238Y86638096D02*
X14000000Y86685712D01*
D10*
X13952381Y86685712D02*
X13761905Y86780952D01*
D10*
X14095238Y86638096D02*
X13952381Y86685712D01*
D10*
X16619048Y85185712D02*
X16666667Y85233336D01*
D10*
X16666667Y85138096D02*
X16619048Y85185712D01*
D10*
X16714286Y85185712D02*
X16666667Y85138096D01*
D10*
X16714286Y85233336D02*
X16714286Y85185712D01*
D10*
X16666667Y85328568D02*
X16714286Y85233336D01*
D10*
X16619048Y85376192D02*
X16666667Y85328568D01*
D10*
X16476190Y85423808D02*
X16619048Y85376192D01*
D10*
X16333333Y85423808D02*
X16476190Y85423808D01*
D10*
X16190476Y85376192D02*
X16333333Y85423808D01*
D10*
X16142857Y85280952D02*
X16190476Y85376192D01*
D10*
X16142857Y85185712D02*
X16142857Y85280952D01*
D10*
X16190476Y85090480D02*
X16142857Y85185712D01*
D10*
X16285714Y84995240D02*
X16190476Y85090480D01*
D10*
X16428571Y84900000D02*
X16285714Y84995240D01*
D10*
X16619048Y84804760D02*
X16428571Y84900000D01*
D10*
X16761905Y84709520D02*
X16619048Y84804760D01*
D10*
X16857142Y84614288D02*
X16761905Y84709520D01*
D10*
X16952380Y84423808D02*
X16857142Y84614288D01*
D10*
X16238095Y85376192D02*
X16333333Y85423808D01*
D10*
X16190476Y85280952D02*
X16238095Y85376192D01*
D10*
X16190476Y85185712D02*
X16190476Y85280952D01*
D10*
X16238095Y85090480D02*
X16190476Y85185712D01*
D10*
X16333333Y84995240D02*
X16238095Y85090480D01*
D10*
X16619048Y84804760D02*
X16333333Y84995240D01*
D10*
X16857142Y84566664D02*
X16904762Y84519048D01*
D10*
X16761905Y84566664D02*
X16857142Y84566664D01*
D10*
X16523810Y84471432D02*
X16761905Y84566664D01*
D10*
X16380952Y84471432D02*
X16523810Y84471432D01*
D10*
X16285714Y84519048D02*
X16380952Y84471432D01*
D10*
X16238095Y84614288D02*
X16285714Y84519048D01*
D10*
X16523810Y84423808D02*
X16761905Y84566664D01*
D10*
X16380952Y84423808D02*
X16523810Y84423808D01*
D10*
X16285714Y84471432D02*
X16380952Y84423808D01*
D10*
X16238095Y84614288D02*
X16285714Y84471432D01*
D10*
X15571429Y85376192D02*
X15428572Y85423808D01*
D10*
X15666667Y85280952D02*
X15571429Y85376192D01*
D10*
X15761905Y85138096D02*
X15666667Y85280952D01*
D10*
X15809524Y84995240D02*
X15761905Y85138096D01*
D10*
X15857143Y84804760D02*
X15809524Y84995240D01*
D10*
X15857143Y84661904D02*
X15857143Y84804760D01*
D10*
X15809524Y84519048D02*
X15857143Y84661904D01*
D10*
X15761905Y84471432D02*
X15809524Y84519048D01*
D10*
X15666667Y84423808D02*
X15761905Y84471432D01*
D10*
X15571429Y84423808D02*
X15666667Y84423808D01*
D10*
X15428572Y84471432D02*
X15571429Y84423808D01*
D10*
X15333333Y84566664D02*
X15428572Y84471432D01*
D10*
X15238095Y84709520D02*
X15333333Y84566664D01*
D10*
X15190476Y84852384D02*
X15238095Y84709520D01*
D10*
X15142857Y85042856D02*
X15190476Y84852384D01*
D10*
X15142857Y85185712D02*
X15142857Y85042856D01*
D10*
X15190476Y85328568D02*
X15142857Y85185712D01*
D10*
X15238095Y85376192D02*
X15190476Y85328568D01*
D10*
X15333333Y85423808D02*
X15238095Y85376192D01*
D10*
X15428572Y85423808D02*
X15333333Y85423808D01*
D10*
X15523810Y85376192D02*
X15428572Y85423808D01*
D10*
X15619048Y85280952D02*
X15523810Y85376192D01*
D10*
X15714286Y85138096D02*
X15619048Y85280952D01*
D10*
X15761905Y84995240D02*
X15714286Y85138096D01*
D10*
X15809524Y84804760D02*
X15761905Y84995240D01*
D10*
X15809524Y84661904D02*
X15809524Y84804760D01*
D10*
X15761905Y84519048D02*
X15809524Y84661904D01*
D10*
X15666667Y84423808D02*
X15761905Y84519048D01*
D10*
X15476190Y84471432D02*
X15571429Y84423808D01*
D10*
X15380952Y84566664D02*
X15476190Y84471432D01*
D10*
X15285714Y84709520D02*
X15380952Y84566664D01*
D10*
X15238095Y84852384D02*
X15285714Y84709520D01*
D10*
X15190476Y85042856D02*
X15238095Y84852384D01*
D10*
X15190476Y85185712D02*
X15190476Y85042856D01*
D10*
X15238095Y85328568D02*
X15190476Y85185712D01*
D10*
X15333333Y85423808D02*
X15238095Y85328568D01*
D10*
X14619048Y85185712D02*
X14666667Y85233336D01*
D10*
X14666667Y85138096D02*
X14619048Y85185712D01*
D10*
X14714286Y85185712D02*
X14666667Y85138096D01*
D10*
X14714286Y85233336D02*
X14714286Y85185712D01*
D10*
X14666667Y85328568D02*
X14714286Y85233336D01*
D10*
X14619048Y85376192D02*
X14666667Y85328568D01*
D10*
X14476190Y85423808D02*
X14619048Y85376192D01*
D10*
X14333334Y85423808D02*
X14476190Y85423808D01*
D10*
X14190476Y85376192D02*
X14333334Y85423808D01*
D10*
X14142857Y85280952D02*
X14190476Y85376192D01*
D10*
X14142857Y85185712D02*
X14142857Y85280952D01*
D10*
X14190476Y85090480D02*
X14142857Y85185712D01*
D10*
X14285714Y84995240D02*
X14190476Y85090480D01*
D10*
X14428572Y84900000D02*
X14285714Y84995240D01*
D10*
X14619048Y84804760D02*
X14428572Y84900000D01*
D10*
X14761905Y84709520D02*
X14619048Y84804760D01*
D10*
X14857143Y84614288D02*
X14761905Y84709520D01*
D10*
X14952381Y84423808D02*
X14857143Y84614288D01*
D10*
X14238095Y85376192D02*
X14333334Y85423808D01*
D10*
X14190476Y85280952D02*
X14238095Y85376192D01*
D10*
X14190476Y85185712D02*
X14190476Y85280952D01*
D10*
X14238095Y85090480D02*
X14190476Y85185712D01*
D10*
X14333334Y84995240D02*
X14238095Y85090480D01*
D10*
X14619048Y84804760D02*
X14333334Y84995240D01*
D10*
X14857143Y84566664D02*
X14904762Y84519048D01*
D10*
X14761905Y84566664D02*
X14857143Y84566664D01*
D10*
X14523810Y84471432D02*
X14761905Y84566664D01*
D10*
X14380952Y84471432D02*
X14523810Y84471432D01*
D10*
X14285714Y84519048D02*
X14380952Y84471432D01*
D10*
X14238095Y84614288D02*
X14285714Y84519048D01*
D10*
X14523810Y84423808D02*
X14761905Y84566664D01*
D10*
X14380952Y84423808D02*
X14523810Y84423808D01*
D10*
X14285714Y84471432D02*
X14380952Y84423808D01*
D10*
X14238095Y84614288D02*
X14285714Y84471432D01*
D10*
X13523810Y84423808D02*
X13238095Y85376192D01*
D10*
X13476190Y84423808D02*
X13190476Y85423808D01*
D10*
X13904762Y84709520D02*
X13190476Y85423808D01*
D10*
X13142857Y84709520D02*
X13904762Y84709520D01*
D10*
X11952381Y84852384D02*
X12809524Y84852384D01*
D10*
X11333334Y85376192D02*
X11190476Y85423808D01*
D10*
X11428572Y85280952D02*
X11333334Y85376192D01*
D10*
X11523810Y85138096D02*
X11428572Y85280952D01*
D10*
X11571428Y84995240D02*
X11523810Y85138096D01*
D10*
X11619048Y84804760D02*
X11571428Y84995240D01*
D10*
X11619048Y84661904D02*
X11619048Y84804760D01*
D10*
X11571428Y84519048D02*
X11619048Y84661904D01*
D10*
X11523810Y84471432D02*
X11571428Y84519048D01*
D10*
X11428572Y84423808D02*
X11523810Y84471432D01*
D10*
X11333334Y84423808D02*
X11428572Y84423808D01*
D10*
X11190476Y84471432D02*
X11333334Y84423808D01*
D10*
X11095238Y84566664D02*
X11190476Y84471432D01*
D10*
X11000000Y84709520D02*
X11095238Y84566664D01*
D10*
X10952381Y84852384D02*
X11000000Y84709520D01*
D10*
X10904762Y85042856D02*
X10952381Y84852384D01*
D10*
X10904762Y85185712D02*
X10904762Y85042856D01*
D10*
X10952381Y85328568D02*
X10904762Y85185712D01*
D10*
X11000000Y85376192D02*
X10952381Y85328568D01*
D10*
X11095238Y85423808D02*
X11000000Y85376192D01*
D10*
X11190476Y85423808D02*
X11095238Y85423808D01*
D10*
X11285714Y85376192D02*
X11190476Y85423808D01*
D10*
X11380952Y85280952D02*
X11285714Y85376192D01*
D10*
X11476190Y85138096D02*
X11380952Y85280952D01*
D10*
X11523810Y84995240D02*
X11476190Y85138096D01*
D10*
X11571428Y84804760D02*
X11523810Y84995240D01*
D10*
X11571428Y84661904D02*
X11571428Y84804760D01*
D10*
X11523810Y84519048D02*
X11571428Y84661904D01*
D10*
X11428572Y84423808D02*
X11523810Y84519048D01*
D10*
X11238096Y84471432D02*
X11333334Y84423808D01*
D10*
X11142857Y84566664D02*
X11238096Y84471432D01*
D10*
X11047619Y84709520D02*
X11142857Y84566664D01*
D10*
X11000000Y84852384D02*
X11047619Y84709520D01*
D10*
X10952381Y85042856D02*
X11000000Y84852384D01*
D10*
X10952381Y85185712D02*
X10952381Y85042856D01*
D10*
X11000000Y85328568D02*
X10952381Y85185712D01*
D10*
X11095238Y85423808D02*
X11000000Y85328568D01*
D10*
X10285714Y84423808D02*
X10000000Y85376192D01*
D10*
X10238096Y84423808D02*
X9952381Y85423808D01*
D10*
X10666667Y84709520D02*
X9952381Y85423808D01*
D10*
X9904762Y84709520D02*
X10666667Y84709520D01*
D10*
X8714286Y84852384D02*
X9571428Y84852384D01*
D10*
X8142857Y85185712D02*
X8190476Y85233336D01*
D10*
X8190476Y85138096D02*
X8142857Y85185712D01*
D10*
X8238095Y85185712D02*
X8190476Y85138096D01*
D10*
X8238095Y85233336D02*
X8238095Y85185712D01*
D10*
X8190476Y85328568D02*
X8238095Y85233336D01*
D10*
X8142857Y85376192D02*
X8190476Y85328568D01*
D10*
X8000000Y85423808D02*
X8142857Y85376192D01*
D10*
X7857143Y85423808D02*
X8000000Y85423808D01*
D10*
X7714286Y85376192D02*
X7857143Y85423808D01*
D10*
X7666667Y85280952D02*
X7714286Y85376192D01*
D10*
X7666667Y85185712D02*
X7666667Y85280952D01*
D10*
X7714286Y85090480D02*
X7666667Y85185712D01*
D10*
X7809524Y84995240D02*
X7714286Y85090480D01*
D10*
X7952381Y84900000D02*
X7809524Y84995240D01*
D10*
X8142857Y84804760D02*
X7952381Y84900000D01*
D10*
X8285714Y84709520D02*
X8142857Y84804760D01*
D10*
X8380953Y84614288D02*
X8285714Y84709520D01*
D10*
X8476191Y84423808D02*
X8380953Y84614288D01*
D10*
X7761905Y85376192D02*
X7857143Y85423808D01*
D10*
X7714286Y85280952D02*
X7761905Y85376192D01*
D10*
X7714286Y85185712D02*
X7714286Y85280952D01*
D10*
X7761905Y85090480D02*
X7714286Y85185712D01*
D10*
X7857143Y84995240D02*
X7761905Y85090480D01*
D10*
X8142857Y84804760D02*
X7857143Y84995240D01*
D10*
X8380953Y84566664D02*
X8428572Y84519048D01*
D10*
X8285714Y84566664D02*
X8380953Y84566664D01*
D10*
X8047619Y84471432D02*
X8285714Y84566664D01*
D10*
X7904762Y84471432D02*
X8047619Y84471432D01*
D10*
X7809524Y84519048D02*
X7904762Y84471432D01*
D10*
X7761905Y84614288D02*
X7809524Y84519048D01*
D10*
X8047619Y84423808D02*
X8285714Y84566664D01*
D10*
X7904762Y84423808D02*
X8047619Y84423808D01*
D10*
X7809524Y84471432D02*
X7904762Y84423808D01*
D10*
X7761905Y84614288D02*
X7809524Y84471432D01*
D10*
X7190476Y84423808D02*
X6952381Y85233336D01*
D10*
X7142857Y84423808D02*
X6857143Y85423808D01*
D10*
X7000000Y85280952D02*
X6857143Y85423808D01*
D10*
X7142857Y85185712D02*
X7000000Y85280952D01*
D10*
X7238095Y85138096D02*
X7142857Y85185712D01*
D10*
X7095238Y85185712D02*
X6904762Y85280952D01*
D10*
X7238095Y85138096D02*
X7095238Y85185712D01*
D10*
X82540224Y23523318D02*
X82825936Y22523318D01*
D10*
X82587848Y23523318D02*
X82873560Y22523318D01*
D10*
X83016416Y22523318D02*
X82683080Y22523318D01*
D10*
X83111656Y23523318D02*
X82397368Y23523318D01*
D10*
X83206888Y23237604D02*
X83111656Y23523318D01*
D10*
X83064032Y23523318D02*
X83206888Y23237604D01*
D10*
X83444984Y22951890D02*
X83397368Y23047128D01*
D10*
X83540224Y22856652D02*
X83444984Y22951890D01*
D10*
X83683080Y22856652D02*
X83540224Y22856652D01*
D10*
X83730704Y22904270D02*
X83683080Y22856652D01*
D10*
X83730704Y23047128D02*
X83730704Y22904270D01*
D10*
X83635464Y23332842D02*
X83730704Y23047128D01*
D10*
X83635464Y23428080D02*
X83635464Y23332842D01*
D10*
X83730704Y23523318D02*
X83635464Y23428080D01*
D10*
X83683080Y22904270D02*
X83635464Y22856652D01*
D10*
X83683080Y23047128D02*
X83683080Y22904270D01*
D10*
X83587848Y23332842D02*
X83683080Y23047128D01*
D10*
X83587848Y23428080D02*
X83587848Y23332842D01*
D10*
X83635464Y23475700D02*
X83587848Y23428080D01*
D10*
X83730704Y23523318D02*
X83635464Y23475700D01*
D10*
X83825936Y23523318D02*
X83730704Y23523318D01*
D10*
X83921176Y23475700D02*
X83825936Y23523318D01*
D10*
X84016416Y23380462D02*
X83921176Y23475700D01*
D10*
X84111656Y23189986D02*
X84016416Y23380462D01*
D10*
X84111656Y23189986D02*
X84206888Y22856652D01*
D10*
X84064032Y23380462D02*
X84111656Y23189986D01*
D10*
X84064032Y23475700D02*
X84064032Y23380462D01*
D10*
X84111656Y23523318D02*
X84064032Y23475700D01*
D10*
X84254512Y23523318D02*
X84111656Y23523318D01*
D10*
X84349752Y23428080D02*
X84254512Y23523318D01*
D10*
X84397368Y23332842D02*
X84349752Y23428080D01*
D10*
X84159272Y23189986D02*
X84254512Y22856652D01*
D10*
X84111656Y23380462D02*
X84159272Y23189986D01*
D10*
X84111656Y23475700D02*
X84111656Y23380462D01*
D10*
X84159272Y23523318D02*
X84111656Y23475700D01*
D10*
X84540224Y23523318D02*
X84825936Y22523318D01*
D10*
X84587848Y23523318D02*
X84873560Y22523318D01*
D10*
X85159272Y22951890D02*
X85206888Y22904270D01*
D10*
X85206888Y22999508D02*
X85159272Y22951890D01*
D10*
X85254512Y22951890D02*
X85206888Y22999508D01*
D10*
X85254512Y22904270D02*
X85254512Y22951890D01*
D10*
X85206888Y22856652D02*
X85254512Y22904270D01*
D10*
X85159272Y22856652D02*
X85206888Y22856652D01*
D10*
X85064032Y22904270D02*
X85159272Y22856652D01*
D10*
X84873560Y23094748D02*
X85064032Y22904270D01*
D10*
X84778320Y23142366D02*
X84873560Y23094748D01*
D10*
X84683080Y23142366D02*
X84778320Y23142366D01*
D10*
X84873560Y23189986D02*
X84778320Y23142366D01*
D10*
X84968800Y23475700D02*
X84873560Y23189986D01*
D10*
X85016416Y23523318D02*
X84968800Y23475700D01*
D10*
X84825936Y23189986D02*
X84778320Y23142366D01*
D10*
X84921176Y23475700D02*
X84825936Y23189986D01*
D10*
X84968800Y23523318D02*
X84921176Y23475700D01*
D10*
X85064032Y23523318D02*
X84968800Y23523318D01*
D10*
X85159272Y23475700D02*
X85064032Y23523318D01*
D10*
X85254512Y23332842D02*
X85159272Y23475700D01*
D10*
X84873560Y22523318D02*
X84683080Y22523318D01*
D10*
X86064032Y23189986D02*
X86159272Y22856652D01*
D10*
X86016416Y23380462D02*
X86064032Y23189986D01*
D10*
X86016416Y23475700D02*
X86016416Y23380462D01*
D10*
X86064032Y23523318D02*
X86016416Y23475700D01*
D10*
X86206888Y23523318D02*
X86064032Y23523318D01*
D10*
X86302128Y23428080D02*
X86206888Y23523318D01*
D10*
X86349752Y23332842D02*
X86302128Y23428080D01*
D10*
X86111656Y23189986D02*
X86206888Y22856652D01*
D10*
X86064032Y23380462D02*
X86111656Y23189986D01*
D10*
X86064032Y23475700D02*
X86064032Y23380462D01*
D10*
X86111656Y23523318D02*
X86064032Y23475700D01*
D10*
X86064032Y23047128D02*
X86064032Y23189986D01*
D10*
X86016416Y22904270D02*
X86064032Y23047128D01*
D10*
X85921176Y22856652D02*
X86016416Y22904270D01*
D10*
X85825936Y22856652D02*
X85921176Y22856652D01*
D10*
X85683080Y22904270D02*
X85825936Y22856652D01*
D10*
X85587848Y23047128D02*
X85683080Y22904270D01*
D10*
X85540224Y23189986D02*
X85587848Y23047128D01*
D10*
X85540224Y23332842D02*
X85540224Y23189986D01*
D10*
X85587848Y23428080D02*
X85540224Y23332842D01*
D10*
X85635464Y23475700D02*
X85587848Y23428080D01*
D10*
X85730704Y23523318D02*
X85635464Y23475700D01*
D10*
X85825936Y23523318D02*
X85730704Y23523318D01*
D10*
X85921176Y23475700D02*
X85825936Y23523318D01*
D10*
X86016416Y23332842D02*
X85921176Y23475700D01*
D10*
X86064032Y23189986D02*
X86016416Y23332842D01*
D10*
X85730704Y22904270D02*
X85825936Y22856652D01*
D10*
X85635464Y23047128D02*
X85730704Y22904270D01*
D10*
X85587848Y23189986D02*
X85635464Y23047128D01*
D10*
X85587848Y23380462D02*
X85587848Y23189986D01*
D10*
X85635464Y23475700D02*
X85587848Y23380462D01*
D10*
X87064032Y22999508D02*
X87064032Y22951890D01*
D10*
X87111656Y22999508D02*
X87064032Y22999508D01*
D10*
X87111656Y22951890D02*
X87111656Y22999508D01*
D10*
X87064032Y22904270D02*
X87111656Y22951890D01*
D10*
X86921176Y22856652D02*
X87064032Y22904270D01*
D10*
X86778320Y22856652D02*
X86921176Y22856652D01*
D10*
X86635464Y22904270D02*
X86778320Y22856652D01*
D10*
X86587840Y22951890D02*
X86635464Y22904270D01*
D10*
X86587840Y23047128D02*
X86587840Y22951890D01*
D10*
X86635464Y23094748D02*
X86587840Y23047128D01*
D10*
X86968800Y23285224D02*
X86635464Y23094748D01*
D10*
X87016416Y23332842D02*
X86968800Y23285224D01*
D10*
X86635464Y23047128D02*
X86587840Y22999508D01*
D10*
X86968800Y23237604D02*
X86635464Y23047128D01*
D10*
X87016416Y23285224D02*
X86968800Y23237604D01*
D10*
X87016416Y23428080D02*
X87016416Y23285224D01*
D10*
X86968800Y23475700D02*
X87016416Y23428080D01*
D10*
X86825936Y23523318D02*
X86968800Y23475700D01*
D10*
X86683080Y23523318D02*
X86825936Y23523318D01*
D10*
X86540224Y23475700D02*
X86683080Y23523318D01*
D10*
X86492608Y23428080D02*
X86540224Y23475700D01*
D10*
X86492608Y23380462D02*
X86492608Y23428080D01*
D10*
X86540224Y23380462D02*
X86492608Y23380462D01*
D10*
X86540224Y23428080D02*
X86540224Y23380462D01*
D10*
X87730704Y23523318D02*
X88016416Y22523318D01*
D10*
X87778320Y23523318D02*
X88064032Y22523318D01*
D10*
X87873560Y23142366D02*
X88683080Y22523318D01*
D10*
X88397368Y23523318D02*
X88206888Y22951890D01*
D10*
X88349752Y23523318D02*
X88159272Y22951890D01*
D10*
X88206888Y22523318D02*
X87873560Y22523318D01*
D10*
X88778320Y22523318D02*
X88492608Y22523318D01*
D10*
X87921176Y23523318D02*
X87587840Y23523318D01*
D10*
X88492608Y23523318D02*
X88206888Y23523318D01*
D10*
X88873560Y23475700D02*
X88921176Y23428080D01*
D10*
X88921176Y23523318D02*
X88873560Y23475700D01*
D10*
X88968800Y23475700D02*
X88921176Y23523318D01*
D10*
X88921176Y23428080D02*
X88968800Y23475700D01*
D10*
X82492608Y24451890D02*
X82444984Y24547128D01*
D10*
X82587848Y24356652D02*
X82492608Y24451890D01*
D10*
X82730704Y24356652D02*
X82587848Y24356652D01*
D10*
X82778320Y24404270D02*
X82730704Y24356652D01*
D10*
X82778320Y24499508D02*
X82778320Y24404270D01*
D10*
X82730704Y24689986D02*
X82778320Y24499508D01*
D10*
X82635464Y25023318D02*
X82730704Y24689986D01*
D10*
X82730704Y24404270D02*
X82683080Y24356652D01*
D10*
X82730704Y24499508D02*
X82730704Y24404270D01*
D10*
X82683080Y24689986D02*
X82730704Y24499508D01*
D10*
X82587848Y25023318D02*
X82683080Y24689986D01*
D10*
X82825936Y24499508D02*
X82730704Y24689986D01*
D10*
X82921176Y24404270D02*
X82825936Y24499508D01*
D10*
X83016416Y24356652D02*
X82921176Y24404270D01*
D10*
X83111656Y24356652D02*
X83016416Y24356652D01*
D10*
X83159272Y24404270D02*
X83111656Y24356652D01*
D10*
X83159272Y24451890D02*
X83159272Y24404270D01*
D10*
X83111656Y24499508D02*
X83159272Y24451890D01*
D10*
X83064032Y24451890D02*
X83111656Y24499508D01*
D10*
X83111656Y24404270D02*
X83064032Y24451890D01*
D10*
X83587848Y24737604D02*
X83397368Y24785224D01*
D10*
X83730704Y24689986D02*
X83587848Y24737604D01*
D10*
X83873560Y24594748D02*
X83730704Y24689986D01*
D10*
X83921176Y24499508D02*
X83873560Y24594748D01*
D10*
X83873560Y24404270D02*
X83921176Y24499508D01*
D10*
X83778320Y24356652D02*
X83873560Y24404270D01*
D10*
X83635464Y24356652D02*
X83778320Y24356652D01*
D10*
X83492608Y24404270D02*
X83635464Y24356652D01*
D10*
X83397368Y24547128D02*
X83492608Y24404270D01*
D10*
X83349752Y24689986D02*
X83397368Y24547128D01*
D10*
X83349752Y24832842D02*
X83349752Y24689986D01*
D10*
X83397368Y24928080D02*
X83349752Y24832842D01*
D10*
X83444984Y24975700D02*
X83397368Y24928080D01*
D10*
X83540224Y25023318D02*
X83444984Y24975700D01*
D10*
X83635464Y25023318D02*
X83540224Y25023318D01*
D10*
X83778320Y24975700D02*
X83635464Y25023318D01*
D10*
X83873560Y24880462D02*
X83778320Y24975700D01*
D10*
X83540224Y24404270D02*
X83635464Y24356652D01*
D10*
X83444984Y24547128D02*
X83540224Y24404270D01*
D10*
X83397368Y24689986D02*
X83444984Y24547128D01*
D10*
X83397368Y24880462D02*
X83397368Y24689986D01*
D10*
X83444984Y24975700D02*
X83397368Y24880462D01*
D10*
X84159272Y24451890D02*
X84111656Y24547128D01*
D10*
X84254512Y24356652D02*
X84159272Y24451890D01*
D10*
X84397368Y24356652D02*
X84254512Y24356652D01*
D10*
X84444984Y24404270D02*
X84397368Y24356652D01*
D10*
X84444984Y24547128D02*
X84444984Y24404270D01*
D10*
X84349752Y24832842D02*
X84444984Y24547128D01*
D10*
X84349752Y24928080D02*
X84349752Y24832842D01*
D10*
X84444984Y25023318D02*
X84349752Y24928080D01*
D10*
X84397368Y24404270D02*
X84349752Y24356652D01*
D10*
X84397368Y24547128D02*
X84397368Y24404270D01*
D10*
X84302128Y24832842D02*
X84397368Y24547128D01*
D10*
X84302128Y24928080D02*
X84302128Y24832842D01*
D10*
X84349752Y24975700D02*
X84302128Y24928080D01*
D10*
X84444984Y25023318D02*
X84349752Y24975700D01*
D10*
X84492608Y25023318D02*
X84444984Y25023318D01*
D10*
X84635464Y24975700D02*
X84492608Y25023318D01*
D10*
X84730704Y24880462D02*
X84635464Y24975700D01*
D10*
X84825936Y24737604D02*
X84730704Y24880462D01*
D10*
X84873560Y24547128D02*
X84825936Y24737604D01*
D10*
X84873560Y24356652D02*
X84873560Y24547128D01*
D10*
X84825936Y24356652D02*
X84873560Y24356652D01*
D10*
X84873560Y24451890D02*
X84825936Y24356652D01*
D10*
X85349752Y25023318D02*
X85587848Y24213794D01*
D10*
X85397368Y25023318D02*
X85683080Y24023318D01*
D10*
X85540224Y24166176D02*
X85683080Y24023318D01*
D10*
X85397368Y24261414D02*
X85540224Y24166176D01*
D10*
X85302128Y24309032D02*
X85397368Y24261414D01*
D10*
X85444984Y24261414D02*
X85635464Y24166176D01*
D10*
X85302128Y24309032D02*
X85444984Y24261414D01*
D10*
X82778320Y25761414D02*
X82730704Y25713794D01*
D10*
X82730704Y25809032D02*
X82778320Y25761414D01*
D10*
X82683080Y25761414D02*
X82730704Y25809032D01*
D10*
X82683080Y25713794D02*
X82683080Y25761414D01*
D10*
X82730704Y25618556D02*
X82683080Y25713794D01*
D10*
X82778320Y25570938D02*
X82730704Y25618556D01*
D10*
X82921176Y25523318D02*
X82778320Y25570938D01*
D10*
X83064032Y25523318D02*
X82921176Y25523318D01*
D10*
X83206888Y25570938D02*
X83064032Y25523318D01*
D10*
X83254512Y25666176D02*
X83206888Y25570938D01*
D10*
X83254512Y25761414D02*
X83254512Y25666176D01*
D10*
X83206888Y25856652D02*
X83254512Y25761414D01*
D10*
X83111656Y25951890D02*
X83206888Y25856652D01*
D10*
X82968800Y26047128D02*
X83111656Y25951890D01*
D10*
X82778320Y26142366D02*
X82968800Y26047128D01*
D10*
X82635464Y26237604D02*
X82778320Y26142366D01*
D10*
X82540224Y26332842D02*
X82635464Y26237604D01*
D10*
X82444984Y26523318D02*
X82540224Y26332842D01*
D10*
X83159272Y25570938D02*
X83064032Y25523318D01*
D10*
X83206888Y25666176D02*
X83159272Y25570938D01*
D10*
X83206888Y25761414D02*
X83206888Y25666176D01*
D10*
X83159272Y25856652D02*
X83206888Y25761414D01*
D10*
X83064032Y25951890D02*
X83159272Y25856652D01*
D10*
X82778320Y26142366D02*
X83064032Y25951890D01*
D10*
X82540224Y26380462D02*
X82492608Y26428080D01*
D10*
X82635464Y26380462D02*
X82540224Y26380462D01*
D10*
X82873560Y26475700D02*
X82635464Y26380462D01*
D10*
X83016416Y26475700D02*
X82873560Y26475700D01*
D10*
X83111656Y26428080D02*
X83016416Y26475700D01*
D10*
X83159272Y26332842D02*
X83111656Y26428080D01*
D10*
X82873560Y26523318D02*
X82635464Y26380462D01*
D10*
X83016416Y26523318D02*
X82873560Y26523318D01*
D10*
X83111656Y26475700D02*
X83016416Y26523318D01*
D10*
X83159272Y26332842D02*
X83111656Y26475700D01*
D10*
X83825936Y25570938D02*
X83968800Y25523318D01*
D10*
X83730704Y25666176D02*
X83825936Y25570938D01*
D10*
X83635464Y25809032D02*
X83730704Y25666176D01*
D10*
X83587848Y25951890D02*
X83635464Y25809032D01*
D10*
X83540224Y26142366D02*
X83587848Y25951890D01*
D10*
X83540224Y26285224D02*
X83540224Y26142366D01*
D10*
X83587848Y26428080D02*
X83540224Y26285224D01*
D10*
X83635464Y26475700D02*
X83587848Y26428080D01*
D10*
X83730704Y26523318D02*
X83635464Y26475700D01*
D10*
X83825936Y26523318D02*
X83730704Y26523318D01*
D10*
X83968800Y26475700D02*
X83825936Y26523318D01*
D10*
X84064032Y26380462D02*
X83968800Y26475700D01*
D10*
X84159272Y26237604D02*
X84064032Y26380462D01*
D10*
X84206888Y26094748D02*
X84159272Y26237604D01*
D10*
X84254512Y25904270D02*
X84206888Y26094748D01*
D10*
X84254512Y25761414D02*
X84254512Y25904270D01*
D10*
X84206888Y25618556D02*
X84254512Y25761414D01*
D10*
X84159272Y25570938D02*
X84206888Y25618556D01*
D10*
X84064032Y25523318D02*
X84159272Y25570938D01*
D10*
X83968800Y25523318D02*
X84064032Y25523318D01*
D10*
X83873560Y25570938D02*
X83968800Y25523318D01*
D10*
X83778320Y25666176D02*
X83873560Y25570938D01*
D10*
X83683080Y25809032D02*
X83778320Y25666176D01*
D10*
X83635464Y25951890D02*
X83683080Y25809032D01*
D10*
X83587848Y26142366D02*
X83635464Y25951890D01*
D10*
X83587848Y26285224D02*
X83587848Y26142366D01*
D10*
X83635464Y26428080D02*
X83587848Y26285224D01*
D10*
X83730704Y26523318D02*
X83635464Y26428080D01*
D10*
X83921176Y26475700D02*
X83825936Y26523318D01*
D10*
X84016416Y26380462D02*
X83921176Y26475700D01*
D10*
X84111656Y26237604D02*
X84016416Y26380462D01*
D10*
X84159272Y26094748D02*
X84111656Y26237604D01*
D10*
X84206888Y25904270D02*
X84159272Y26094748D01*
D10*
X84206888Y25761414D02*
X84206888Y25904270D01*
D10*
X84159272Y25618556D02*
X84206888Y25761414D01*
D10*
X84064032Y25523318D02*
X84159272Y25618556D01*
D10*
X84778320Y25761414D02*
X84730704Y25713794D01*
D10*
X84730704Y25809032D02*
X84778320Y25761414D01*
D10*
X84683080Y25761414D02*
X84730704Y25809032D01*
D10*
X84683080Y25713794D02*
X84683080Y25761414D01*
D10*
X84730704Y25618556D02*
X84683080Y25713794D01*
D10*
X84778320Y25570938D02*
X84730704Y25618556D01*
D10*
X84921176Y25523318D02*
X84778320Y25570938D01*
D10*
X85064032Y25523318D02*
X84921176Y25523318D01*
D10*
X85206888Y25570938D02*
X85064032Y25523318D01*
D10*
X85254512Y25666176D02*
X85206888Y25570938D01*
D10*
X85254512Y25761414D02*
X85254512Y25666176D01*
D10*
X85206888Y25856652D02*
X85254512Y25761414D01*
D10*
X85111656Y25951890D02*
X85206888Y25856652D01*
D10*
X84968800Y26047128D02*
X85111656Y25951890D01*
D10*
X84778320Y26142366D02*
X84968800Y26047128D01*
D10*
X84635464Y26237604D02*
X84778320Y26142366D01*
D10*
X84540224Y26332842D02*
X84635464Y26237604D01*
D10*
X84444984Y26523318D02*
X84540224Y26332842D01*
D10*
X85159272Y25570938D02*
X85064032Y25523318D01*
D10*
X85206888Y25666176D02*
X85159272Y25570938D01*
D10*
X85206888Y25761414D02*
X85206888Y25666176D01*
D10*
X85159272Y25856652D02*
X85206888Y25761414D01*
D10*
X85064032Y25951890D02*
X85159272Y25856652D01*
D10*
X84778320Y26142366D02*
X85064032Y25951890D01*
D10*
X84540224Y26380462D02*
X84492608Y26428080D01*
D10*
X84635464Y26380462D02*
X84540224Y26380462D01*
D10*
X84873560Y26475700D02*
X84635464Y26380462D01*
D10*
X85016416Y26475700D02*
X84873560Y26475700D01*
D10*
X85111656Y26428080D02*
X85016416Y26475700D01*
D10*
X85159272Y26332842D02*
X85111656Y26428080D01*
D10*
X84873560Y26523318D02*
X84635464Y26380462D01*
D10*
X85016416Y26523318D02*
X84873560Y26523318D01*
D10*
X85111656Y26475700D02*
X85016416Y26523318D01*
D10*
X85159272Y26332842D02*
X85111656Y26475700D01*
D10*
X85873560Y26523318D02*
X86159272Y25570938D01*
D10*
X85921176Y26523318D02*
X86206888Y25523318D01*
D10*
X85492608Y26237604D02*
X86206888Y25523318D01*
D10*
X86254512Y26237604D02*
X85492608Y26237604D01*
D10*
X87444984Y26094748D02*
X86587840Y26094748D01*
D10*
X88064032Y25570938D02*
X88206888Y25523318D01*
D10*
X87968800Y25666176D02*
X88064032Y25570938D01*
D10*
X87873560Y25809032D02*
X87968800Y25666176D01*
D10*
X87825936Y25951890D02*
X87873560Y25809032D01*
D10*
X87778320Y26142366D02*
X87825936Y25951890D01*
D10*
X87778320Y26285224D02*
X87778320Y26142366D01*
D10*
X87825936Y26428080D02*
X87778320Y26285224D01*
D10*
X87873560Y26475700D02*
X87825936Y26428080D01*
D10*
X87968800Y26523318D02*
X87873560Y26475700D01*
D10*
X88064032Y26523318D02*
X87968800Y26523318D01*
D10*
X88206888Y26475700D02*
X88064032Y26523318D01*
D10*
X88302128Y26380462D02*
X88206888Y26475700D01*
D10*
X88397368Y26237604D02*
X88302128Y26380462D01*
D10*
X88444984Y26094748D02*
X88397368Y26237604D01*
D10*
X88492608Y25904270D02*
X88444984Y26094748D01*
D10*
X88492608Y25761414D02*
X88492608Y25904270D01*
D10*
X88444984Y25618556D02*
X88492608Y25761414D01*
D10*
X88397368Y25570938D02*
X88444984Y25618556D01*
D10*
X88302128Y25523318D02*
X88397368Y25570938D01*
D10*
X88206888Y25523318D02*
X88302128Y25523318D01*
D10*
X88111656Y25570938D02*
X88206888Y25523318D01*
D10*
X88016416Y25666176D02*
X88111656Y25570938D01*
D10*
X87921176Y25809032D02*
X88016416Y25666176D01*
D10*
X87873560Y25951890D02*
X87921176Y25809032D01*
D10*
X87825936Y26142366D02*
X87873560Y25951890D01*
D10*
X87825936Y26285224D02*
X87825936Y26142366D01*
D10*
X87873560Y26428080D02*
X87825936Y26285224D01*
D10*
X87968800Y26523318D02*
X87873560Y26428080D01*
D10*
X88159272Y26475700D02*
X88064032Y26523318D01*
D10*
X88254512Y26380462D02*
X88159272Y26475700D01*
D10*
X88349752Y26237604D02*
X88254512Y26380462D01*
D10*
X88397368Y26094748D02*
X88349752Y26237604D01*
D10*
X88444984Y25904270D02*
X88397368Y26094748D01*
D10*
X88444984Y25761414D02*
X88444984Y25904270D01*
D10*
X88397368Y25618556D02*
X88444984Y25761414D01*
D10*
X88302128Y25523318D02*
X88397368Y25618556D01*
D10*
X89111656Y26523318D02*
X89397368Y25570938D01*
D10*
X89159272Y26523318D02*
X89444984Y25523318D01*
D10*
X88730704Y26237604D02*
X89444984Y25523318D01*
D10*
X89492608Y26237604D02*
X88730704Y26237604D01*
D10*
X90683080Y26094748D02*
X89825936Y26094748D01*
D10*
X91254512Y25761414D02*
X91206896Y25713794D01*
D10*
X91206896Y25809032D02*
X91254512Y25761414D01*
D10*
X91159272Y25761414D02*
X91206896Y25809032D01*
D10*
X91159272Y25713794D02*
X91159272Y25761414D01*
D10*
X91206896Y25618556D02*
X91159272Y25713794D01*
D10*
X91254512Y25570938D02*
X91206896Y25618556D01*
D10*
X91397368Y25523318D02*
X91254512Y25570938D01*
D10*
X91540224Y25523318D02*
X91397368Y25523318D01*
D10*
X91683080Y25570938D02*
X91540224Y25523318D01*
D10*
X91730704Y25666176D02*
X91683080Y25570938D01*
D10*
X91730704Y25761414D02*
X91730704Y25666176D01*
D10*
X91683080Y25856652D02*
X91730704Y25761414D01*
D10*
X91587840Y25951890D02*
X91683080Y25856652D01*
D10*
X91444984Y26047128D02*
X91587840Y25951890D01*
D10*
X91254512Y26142366D02*
X91444984Y26047128D01*
D10*
X91111656Y26237604D02*
X91254512Y26142366D01*
D10*
X91016416Y26332842D02*
X91111656Y26237604D01*
D10*
X90921176Y26523318D02*
X91016416Y26332842D01*
D10*
X91635464Y25570938D02*
X91540224Y25523318D01*
D10*
X91683080Y25666176D02*
X91635464Y25570938D01*
D10*
X91683080Y25761414D02*
X91683080Y25666176D01*
D10*
X91635464Y25856652D02*
X91683080Y25761414D01*
D10*
X91540224Y25951890D02*
X91635464Y25856652D01*
D10*
X91254512Y26142366D02*
X91540224Y25951890D01*
D10*
X91016416Y26380462D02*
X90968800Y26428080D01*
D10*
X91111656Y26380462D02*
X91016416Y26380462D01*
D10*
X91349752Y26475700D02*
X91111656Y26380462D01*
D10*
X91492608Y26475700D02*
X91349752Y26475700D01*
D10*
X91587840Y26428080D02*
X91492608Y26475700D01*
D10*
X91635464Y26332842D02*
X91587840Y26428080D01*
D10*
X91349752Y26523318D02*
X91111656Y26380462D01*
D10*
X91492608Y26523318D02*
X91349752Y26523318D01*
D10*
X91587840Y26475700D02*
X91492608Y26523318D01*
D10*
X91635464Y26332842D02*
X91587840Y26475700D01*
D10*
X92206896Y26523318D02*
X92444984Y25713794D01*
D10*
X92254512Y26523318D02*
X92540224Y25523318D01*
D10*
X92397368Y25666176D02*
X92540224Y25523318D01*
D10*
X92254512Y25761414D02*
X92397368Y25666176D01*
D10*
X92159272Y25809032D02*
X92254512Y25761414D01*
D10*
X92302128Y25761414D02*
X92492608Y25666176D01*
D10*
X92159272Y25809032D02*
X92302128Y25761414D01*
D10*
X15226190Y50457144D02*
X14226190Y50171428D01*
D10*
X15226190Y50409524D02*
X14226190Y50123808D01*
D10*
X14226190Y49980952D02*
X14226190Y50314284D01*
D10*
X15226190Y49885716D02*
X15226190Y50600000D01*
D10*
X14940476Y49790476D02*
X15226190Y49885716D01*
D10*
X15226190Y49933332D02*
X14940476Y49790476D01*
D10*
X14654762Y49552380D02*
X14750000Y49600000D01*
D10*
X14559524Y49457144D02*
X14654762Y49552380D01*
D10*
X14559524Y49314284D02*
X14559524Y49457144D01*
D10*
X14607143Y49266668D02*
X14559524Y49314284D01*
D10*
X14750000Y49266668D02*
X14607143Y49266668D01*
D10*
X15035714Y49361904D02*
X14750000Y49266668D01*
D10*
X15130952Y49361904D02*
X15035714Y49361904D01*
D10*
X15226190Y49266668D02*
X15130952Y49361904D01*
D10*
X14607143Y49314284D02*
X14559524Y49361904D01*
D10*
X14750000Y49314284D02*
X14607143Y49314284D01*
D10*
X15035714Y49409524D02*
X14750000Y49314284D01*
D10*
X15130952Y49409524D02*
X15035714Y49409524D01*
D10*
X15178571Y49361904D02*
X15130952Y49409524D01*
D10*
X15226190Y49266668D02*
X15178571Y49361904D01*
D10*
X15226190Y49171428D02*
X15226190Y49266668D01*
D10*
X15178571Y49076192D02*
X15226190Y49171428D01*
D10*
X15083333Y48980952D02*
X15178571Y49076192D01*
D10*
X14892857Y48885716D02*
X15083333Y48980952D01*
D10*
X14892857Y48885716D02*
X14559524Y48790476D01*
D10*
X15083333Y48933332D02*
X14892857Y48885716D01*
D10*
X15178571Y48933332D02*
X15083333Y48933332D01*
D10*
X15226190Y48885716D02*
X15178571Y48933332D01*
D10*
X15226190Y48742856D02*
X15226190Y48885716D01*
D10*
X15130952Y48647620D02*
X15226190Y48742856D01*
D10*
X15035714Y48600000D02*
X15130952Y48647620D01*
D10*
X14892857Y48838096D02*
X14559524Y48742856D01*
D10*
X15083333Y48885716D02*
X14892857Y48838096D01*
D10*
X15178571Y48885716D02*
X15083333Y48885716D01*
D10*
X15226190Y48838096D02*
X15178571Y48885716D01*
D10*
X15226190Y48457144D02*
X14226190Y48171428D01*
D10*
X15226190Y48409524D02*
X14226190Y48123808D01*
D10*
X14654762Y47838096D02*
X14607143Y47790476D01*
D10*
X14702381Y47790476D02*
X14654762Y47838096D01*
D10*
X14654762Y47742856D02*
X14702381Y47790476D01*
D10*
X14607143Y47742856D02*
X14654762Y47742856D01*
D10*
X14559524Y47790476D02*
X14607143Y47742856D01*
D10*
X14559524Y47838096D02*
X14559524Y47790476D01*
D10*
X14607143Y47933332D02*
X14559524Y47838096D01*
D10*
X14797619Y48123808D02*
X14607143Y47933332D01*
D10*
X14845238Y48219048D02*
X14797619Y48123808D01*
D10*
X14845238Y48314284D02*
X14845238Y48219048D01*
D10*
X14892857Y48123808D02*
X14845238Y48219048D01*
D10*
X15178571Y48028572D02*
X14892857Y48123808D01*
D10*
X15226190Y47980952D02*
X15178571Y48028572D01*
D10*
X14892857Y48171428D02*
X14845238Y48219048D01*
D10*
X15178571Y48076192D02*
X14892857Y48171428D01*
D10*
X15226190Y48028572D02*
X15178571Y48076192D01*
D10*
X15226190Y47933332D02*
X15226190Y48028572D01*
D10*
X15178571Y47838096D02*
X15226190Y47933332D01*
D10*
X15035714Y47742856D02*
X15178571Y47838096D01*
D10*
X14226190Y48123808D02*
X14226190Y48314284D01*
D10*
X14892857Y46933332D02*
X14559524Y46838096D01*
D10*
X15083333Y46980952D02*
X14892857Y46933332D01*
D10*
X15178571Y46980952D02*
X15083333Y46980952D01*
D10*
X15226190Y46933332D02*
X15178571Y46980952D01*
D10*
X15226190Y46790476D02*
X15226190Y46933332D01*
D10*
X15130952Y46695240D02*
X15226190Y46790476D01*
D10*
X15035714Y46647620D02*
X15130952Y46695240D01*
D10*
X14892857Y46885716D02*
X14559524Y46790476D01*
D10*
X15083333Y46933332D02*
X14892857Y46885716D01*
D10*
X15178571Y46933332D02*
X15083333Y46933332D01*
D10*
X15226190Y46885716D02*
X15178571Y46933332D01*
D10*
X14750000Y46933332D02*
X14892857Y46933332D01*
D10*
X14607143Y46980952D02*
X14750000Y46933332D01*
D10*
X14559524Y47076192D02*
X14607143Y46980952D01*
D10*
X14559524Y47171428D02*
X14559524Y47076192D01*
D10*
X14607143Y47314284D02*
X14559524Y47171428D01*
D10*
X14750000Y47409524D02*
X14607143Y47314284D01*
D10*
X14892857Y47457144D02*
X14750000Y47409524D01*
D10*
X15035714Y47457144D02*
X14892857Y47457144D01*
D10*
X15130952Y47409524D02*
X15035714Y47457144D01*
D10*
X15178571Y47361904D02*
X15130952Y47409524D01*
D10*
X15226190Y47266668D02*
X15178571Y47361904D01*
D10*
X15226190Y47171428D02*
X15226190Y47266668D01*
D10*
X15178571Y47076192D02*
X15226190Y47171428D01*
D10*
X15035714Y46980952D02*
X15178571Y47076192D01*
D10*
X14892857Y46933332D02*
X15035714Y46980952D01*
D10*
X14607143Y47266668D02*
X14559524Y47171428D01*
D10*
X14750000Y47361904D02*
X14607143Y47266668D01*
D10*
X14892857Y47409524D02*
X14750000Y47361904D01*
D10*
X15083333Y47409524D02*
X14892857Y47409524D01*
D10*
X15178571Y47361904D02*
X15083333Y47409524D01*
D10*
X14702381Y45933332D02*
X14654762Y45933332D01*
D10*
X14702381Y45885716D02*
X14702381Y45933332D01*
D10*
X14654762Y45885716D02*
X14702381Y45885716D01*
D10*
X14607143Y45933332D02*
X14654762Y45885716D01*
D10*
X14559524Y46076192D02*
X14607143Y45933332D01*
D10*
X14559524Y46219048D02*
X14559524Y46076192D01*
D10*
X14607143Y46361904D02*
X14559524Y46219048D01*
D10*
X14654762Y46409524D02*
X14607143Y46361904D01*
D10*
X14750000Y46409524D02*
X14654762Y46409524D01*
D10*
X14797619Y46361904D02*
X14750000Y46409524D01*
D10*
X14988095Y46028572D02*
X14797619Y46361904D01*
D10*
X15035714Y45980952D02*
X14988095Y46028572D01*
D10*
X14750000Y46361904D02*
X14702381Y46409524D01*
D10*
X14940476Y46028572D02*
X14750000Y46361904D01*
D10*
X14988095Y45980952D02*
X14940476Y46028572D01*
D10*
X15130952Y45980952D02*
X14988095Y45980952D01*
D10*
X15178571Y46028572D02*
X15130952Y45980952D01*
D10*
X15226190Y46171428D02*
X15178571Y46028572D01*
D10*
X15226190Y46314288D02*
X15226190Y46171428D01*
D10*
X15178571Y46457144D02*
X15226190Y46314288D01*
D10*
X15130952Y46504760D02*
X15178571Y46457144D01*
D10*
X15083333Y46504760D02*
X15130952Y46504760D01*
D10*
X15083333Y46457144D02*
X15083333Y46504760D01*
D10*
X15130952Y46457144D02*
X15083333Y46457144D01*
D10*
X15226190Y45266668D02*
X14226190Y44980952D01*
D10*
X15226190Y45219048D02*
X14226190Y44933332D01*
D10*
X14845238Y45123808D02*
X14226190Y44314288D01*
D10*
X15226190Y44600000D02*
X14654762Y44790476D01*
D10*
X15226190Y44647620D02*
X14654762Y44838096D01*
D10*
X14226190Y44790476D02*
X14226190Y45123808D01*
D10*
X14226190Y44219048D02*
X14226190Y44504760D01*
D10*
X15226190Y45076192D02*
X15226190Y45409524D01*
D10*
X15226190Y44504760D02*
X15226190Y44790476D01*
D10*
X15178571Y44123808D02*
X15130952Y44076192D01*
D10*
X15226190Y44076192D02*
X15178571Y44123808D01*
D10*
X15178571Y44028572D02*
X15226190Y44076192D01*
D10*
X15130952Y44076192D02*
X15178571Y44028572D01*
D10*
X16154762Y50504760D02*
X16250000Y50552380D01*
D10*
X16059524Y50409524D02*
X16154762Y50504760D01*
D10*
X16059524Y50266668D02*
X16059524Y50409524D01*
D10*
X16107143Y50219048D02*
X16059524Y50266668D01*
D10*
X16202381Y50219048D02*
X16107143Y50219048D01*
D10*
X16392857Y50266668D02*
X16202381Y50219048D01*
D10*
X16726190Y50361904D02*
X16392857Y50266668D01*
D10*
X16107143Y50266668D02*
X16059524Y50314284D01*
D10*
X16202381Y50266668D02*
X16107143Y50266668D01*
D10*
X16392857Y50314284D02*
X16202381Y50266668D01*
D10*
X16726190Y50409524D02*
X16392857Y50314284D01*
D10*
X16202381Y50171428D02*
X16392857Y50266668D01*
D10*
X16107143Y50076192D02*
X16202381Y50171428D01*
D10*
X16059524Y49980952D02*
X16107143Y50076192D01*
D10*
X16059524Y49885716D02*
X16059524Y49980952D01*
D10*
X16107143Y49838096D02*
X16059524Y49885716D01*
D10*
X16154762Y49838096D02*
X16107143Y49838096D01*
D10*
X16202381Y49885716D02*
X16154762Y49838096D01*
D10*
X16154762Y49933332D02*
X16202381Y49885716D01*
D10*
X16107143Y49885716D02*
X16154762Y49933332D01*
D10*
X16440476Y49409524D02*
X16488095Y49600000D01*
D10*
X16392857Y49266668D02*
X16440476Y49409524D01*
D10*
X16297619Y49123808D02*
X16392857Y49266668D01*
D10*
X16202381Y49076192D02*
X16297619Y49123808D01*
D10*
X16107143Y49123808D02*
X16202381Y49076192D01*
D10*
X16059524Y49219048D02*
X16107143Y49123808D01*
D10*
X16059524Y49361904D02*
X16059524Y49219048D01*
D10*
X16107143Y49504760D02*
X16059524Y49361904D01*
D10*
X16250000Y49600000D02*
X16107143Y49504760D01*
D10*
X16392857Y49647620D02*
X16250000Y49600000D01*
D10*
X16535714Y49647620D02*
X16392857Y49647620D01*
D10*
X16630952Y49600000D02*
X16535714Y49647620D01*
D10*
X16678571Y49552380D02*
X16630952Y49600000D01*
D10*
X16726190Y49457144D02*
X16678571Y49552380D01*
D10*
X16726190Y49361904D02*
X16726190Y49457144D01*
D10*
X16678571Y49219048D02*
X16726190Y49361904D01*
D10*
X16583333Y49123808D02*
X16678571Y49219048D01*
D10*
X16107143Y49457144D02*
X16059524Y49361904D01*
D10*
X16250000Y49552380D02*
X16107143Y49457144D01*
D10*
X16392857Y49600000D02*
X16250000Y49552380D01*
D10*
X16583333Y49600000D02*
X16392857Y49600000D01*
D10*
X16678571Y49552380D02*
X16583333Y49600000D01*
D10*
X16154762Y48838096D02*
X16250000Y48885716D01*
D10*
X16059524Y48742856D02*
X16154762Y48838096D01*
D10*
X16059524Y48600000D02*
X16059524Y48742856D01*
D10*
X16107143Y48552380D02*
X16059524Y48600000D01*
D10*
X16250000Y48552380D02*
X16107143Y48552380D01*
D10*
X16535714Y48647620D02*
X16250000Y48552380D01*
D10*
X16630952Y48647620D02*
X16535714Y48647620D01*
D10*
X16726190Y48552380D02*
X16630952Y48647620D01*
D10*
X16107143Y48600000D02*
X16059524Y48647620D01*
D10*
X16250000Y48600000D02*
X16107143Y48600000D01*
D10*
X16535714Y48695240D02*
X16250000Y48600000D01*
D10*
X16630952Y48695240D02*
X16535714Y48695240D01*
D10*
X16678571Y48647620D02*
X16630952Y48695240D01*
D10*
X16726190Y48552380D02*
X16678571Y48647620D01*
D10*
X16726190Y48504760D02*
X16726190Y48552380D01*
D10*
X16678571Y48361904D02*
X16726190Y48504760D01*
D10*
X16583333Y48266668D02*
X16678571Y48361904D01*
D10*
X16440476Y48171428D02*
X16583333Y48266668D01*
D10*
X16250000Y48123808D02*
X16440476Y48171428D01*
D10*
X16059524Y48123808D02*
X16250000Y48123808D01*
D10*
X16059524Y48171428D02*
X16059524Y48123808D01*
D10*
X16154762Y48123808D02*
X16059524Y48171428D01*
D10*
X16726190Y47647620D02*
X15916667Y47409524D01*
D10*
X16726190Y47600000D02*
X15726190Y47314284D01*
D10*
X15869048Y47457144D02*
X15726190Y47314284D01*
D10*
X15964286Y47600000D02*
X15869048Y47457144D01*
D10*
X16011905Y47695240D02*
X15964286Y47600000D01*
D10*
X15964286Y47552380D02*
X15869048Y47361904D01*
D10*
X16011905Y47695240D02*
X15964286Y47552380D01*
D10*
X17464286Y50219048D02*
X17416666Y50266668D01*
D10*
X17511904Y50266668D02*
X17464286Y50219048D01*
D10*
X17464286Y50314284D02*
X17511904Y50266668D01*
D10*
X17416666Y50314284D02*
X17464286Y50314284D01*
D10*
X17321428Y50266668D02*
X17416666Y50314284D01*
D10*
X17273810Y50219048D02*
X17321428Y50266668D01*
D10*
X17226190Y50076192D02*
X17273810Y50219048D01*
D10*
X17226190Y49933332D02*
X17226190Y50076192D01*
D10*
X17273810Y49790476D02*
X17226190Y49933332D01*
D10*
X17369048Y49742856D02*
X17273810Y49790476D01*
D10*
X17464286Y49742856D02*
X17369048Y49742856D01*
D10*
X17559524Y49790476D02*
X17464286Y49742856D01*
D10*
X17654762Y49885716D02*
X17559524Y49790476D01*
D10*
X17750000Y50028572D02*
X17654762Y49885716D01*
D10*
X17845238Y50219048D02*
X17750000Y50028572D01*
D10*
X17940476Y50361904D02*
X17845238Y50219048D01*
D10*
X18035714Y50457144D02*
X17940476Y50361904D01*
D10*
X18226190Y50552380D02*
X18035714Y50457144D01*
D10*
X17273810Y49838096D02*
X17226190Y49933332D01*
D10*
X17369048Y49790476D02*
X17273810Y49838096D01*
D10*
X17464286Y49790476D02*
X17369048Y49790476D01*
D10*
X17559524Y49838096D02*
X17464286Y49790476D01*
D10*
X17654762Y49933332D02*
X17559524Y49838096D01*
D10*
X17845238Y50219048D02*
X17654762Y49933332D01*
D10*
X18083334Y50457144D02*
X18130952Y50504760D01*
D10*
X18083334Y50361904D02*
X18083334Y50457144D01*
D10*
X18178572Y50123808D02*
X18083334Y50361904D01*
D10*
X18178572Y49980952D02*
X18178572Y50123808D01*
D10*
X18130952Y49885716D02*
X18178572Y49980952D01*
D10*
X18035714Y49838096D02*
X18130952Y49885716D01*
D10*
X18226190Y50123808D02*
X18083334Y50361904D01*
D10*
X18226190Y49980952D02*
X18226190Y50123808D01*
D10*
X18178572Y49885716D02*
X18226190Y49980952D01*
D10*
X18035714Y49838096D02*
X18178572Y49885716D01*
D10*
X17273810Y49171428D02*
X17226190Y49028572D01*
D10*
X17369048Y49266668D02*
X17273810Y49171428D01*
D10*
X17511904Y49361904D02*
X17369048Y49266668D01*
D10*
X17654762Y49409524D02*
X17511904Y49361904D01*
D10*
X17845238Y49457144D02*
X17654762Y49409524D01*
D10*
X17988096Y49457144D02*
X17845238Y49457144D01*
D10*
X18130952Y49409524D02*
X17988096Y49457144D01*
D10*
X18178572Y49361904D02*
X18130952Y49409524D01*
D10*
X18226190Y49266668D02*
X18178572Y49361904D01*
D10*
X18226190Y49171428D02*
X18226190Y49266668D01*
D10*
X18178572Y49028572D02*
X18226190Y49171428D01*
D10*
X18083334Y48933332D02*
X18178572Y49028572D01*
D10*
X17940476Y48838096D02*
X18083334Y48933332D01*
D10*
X17797620Y48790476D02*
X17940476Y48838096D01*
D10*
X17607142Y48742856D02*
X17797620Y48790476D01*
D10*
X17464286Y48742856D02*
X17607142Y48742856D01*
D10*
X17321428Y48790476D02*
X17464286Y48742856D01*
D10*
X17273810Y48838096D02*
X17321428Y48790476D01*
D10*
X17226190Y48933332D02*
X17273810Y48838096D01*
D10*
X17226190Y49028572D02*
X17226190Y48933332D01*
D10*
X17273810Y49123808D02*
X17226190Y49028572D01*
D10*
X17369048Y49219048D02*
X17273810Y49123808D01*
D10*
X17511904Y49314284D02*
X17369048Y49219048D01*
D10*
X17654762Y49361904D02*
X17511904Y49314284D01*
D10*
X17845238Y49409524D02*
X17654762Y49361904D01*
D10*
X17988096Y49409524D02*
X17845238Y49409524D01*
D10*
X18130952Y49361904D02*
X17988096Y49409524D01*
D10*
X18226190Y49266668D02*
X18130952Y49361904D01*
D10*
X18178572Y49076192D02*
X18226190Y49171428D01*
D10*
X18083334Y48980952D02*
X18178572Y49076192D01*
D10*
X17940476Y48885716D02*
X18083334Y48980952D01*
D10*
X17797620Y48838096D02*
X17940476Y48885716D01*
D10*
X17607142Y48790476D02*
X17797620Y48838096D01*
D10*
X17464286Y48790476D02*
X17607142Y48790476D01*
D10*
X17321428Y48838096D02*
X17464286Y48790476D01*
D10*
X17226190Y48933332D02*
X17321428Y48838096D01*
D10*
X17464286Y48219048D02*
X17416666Y48266668D01*
D10*
X17511904Y48266668D02*
X17464286Y48219048D01*
D10*
X17464286Y48314284D02*
X17511904Y48266668D01*
D10*
X17416666Y48314284D02*
X17464286Y48314284D01*
D10*
X17321428Y48266668D02*
X17416666Y48314284D01*
D10*
X17273810Y48219048D02*
X17321428Y48266668D01*
D10*
X17226190Y48076192D02*
X17273810Y48219048D01*
D10*
X17226190Y47933332D02*
X17226190Y48076192D01*
D10*
X17273810Y47790476D02*
X17226190Y47933332D01*
D10*
X17369048Y47742856D02*
X17273810Y47790476D01*
D10*
X17464286Y47742856D02*
X17369048Y47742856D01*
D10*
X17559524Y47790476D02*
X17464286Y47742856D01*
D10*
X17654762Y47885716D02*
X17559524Y47790476D01*
D10*
X17750000Y48028572D02*
X17654762Y47885716D01*
D10*
X17845238Y48219048D02*
X17750000Y48028572D01*
D10*
X17940476Y48361904D02*
X17845238Y48219048D01*
D10*
X18035714Y48457144D02*
X17940476Y48361904D01*
D10*
X18226190Y48552380D02*
X18035714Y48457144D01*
D10*
X17273810Y47838096D02*
X17226190Y47933332D01*
D10*
X17369048Y47790476D02*
X17273810Y47838096D01*
D10*
X17464286Y47790476D02*
X17369048Y47790476D01*
D10*
X17559524Y47838096D02*
X17464286Y47790476D01*
D10*
X17654762Y47933332D02*
X17559524Y47838096D01*
D10*
X17845238Y48219048D02*
X17654762Y47933332D01*
D10*
X18083334Y48457144D02*
X18130952Y48504760D01*
D10*
X18083334Y48361904D02*
X18083334Y48457144D01*
D10*
X18178572Y48123808D02*
X18083334Y48361904D01*
D10*
X18178572Y47980952D02*
X18178572Y48123808D01*
D10*
X18130952Y47885716D02*
X18178572Y47980952D01*
D10*
X18035714Y47838096D02*
X18130952Y47885716D01*
D10*
X18226190Y48123808D02*
X18083334Y48361904D01*
D10*
X18226190Y47980952D02*
X18226190Y48123808D01*
D10*
X18178572Y47885716D02*
X18226190Y47980952D01*
D10*
X18035714Y47838096D02*
X18178572Y47885716D01*
D10*
X18226190Y47123808D02*
X17273810Y46838096D01*
D10*
X18226190Y47076192D02*
X17226190Y46790476D01*
D10*
X17940476Y47504760D02*
X17226190Y46790476D01*
D10*
X17940476Y46742856D02*
X17940476Y47504760D01*
D10*
X17797620Y45552380D02*
X17797620Y46409524D01*
D10*
X17273810Y44933332D02*
X17226190Y44790476D01*
D10*
X17369048Y45028572D02*
X17273810Y44933332D01*
D10*
X17511904Y45123808D02*
X17369048Y45028572D01*
D10*
X17654762Y45171428D02*
X17511904Y45123808D01*
D10*
X17845238Y45219048D02*
X17654762Y45171428D01*
D10*
X17988096Y45219048D02*
X17845238Y45219048D01*
D10*
X18130952Y45171428D02*
X17988096Y45219048D01*
D10*
X18178572Y45123808D02*
X18130952Y45171428D01*
D10*
X18226190Y45028572D02*
X18178572Y45123808D01*
D10*
X18226190Y44933332D02*
X18226190Y45028572D01*
D10*
X18178572Y44790476D02*
X18226190Y44933332D01*
D10*
X18083334Y44695240D02*
X18178572Y44790476D01*
D10*
X17940476Y44600000D02*
X18083334Y44695240D01*
D10*
X17797620Y44552380D02*
X17940476Y44600000D01*
D10*
X17607142Y44504760D02*
X17797620Y44552380D01*
D10*
X17464286Y44504760D02*
X17607142Y44504760D01*
D10*
X17321428Y44552380D02*
X17464286Y44504760D01*
D10*
X17273810Y44600000D02*
X17321428Y44552380D01*
D10*
X17226190Y44695240D02*
X17273810Y44600000D01*
D10*
X17226190Y44790476D02*
X17226190Y44695240D01*
D10*
X17273810Y44885716D02*
X17226190Y44790476D01*
D10*
X17369048Y44980952D02*
X17273810Y44885716D01*
D10*
X17511904Y45076192D02*
X17369048Y44980952D01*
D10*
X17654762Y45123808D02*
X17511904Y45076192D01*
D10*
X17845238Y45171428D02*
X17654762Y45123808D01*
D10*
X17988096Y45171428D02*
X17845238Y45171428D01*
D10*
X18130952Y45123808D02*
X17988096Y45171428D01*
D10*
X18226190Y45028572D02*
X18130952Y45123808D01*
D10*
X18178572Y44838096D02*
X18226190Y44933332D01*
D10*
X18083334Y44742856D02*
X18178572Y44838096D01*
D10*
X17940476Y44647620D02*
X18083334Y44742856D01*
D10*
X17797620Y44600000D02*
X17940476Y44647620D01*
D10*
X17607142Y44552380D02*
X17797620Y44600000D01*
D10*
X17464286Y44552380D02*
X17607142Y44552380D01*
D10*
X17321428Y44600000D02*
X17464286Y44552380D01*
D10*
X17226190Y44695240D02*
X17321428Y44600000D01*
D10*
X18226190Y43885716D02*
X17273810Y43600000D01*
D10*
X18226190Y43838096D02*
X17226190Y43552380D01*
D10*
X17940476Y44266668D02*
X17226190Y43552380D01*
D10*
X17940476Y43504760D02*
X17940476Y44266668D01*
D10*
X17797620Y42314288D02*
X17797620Y43171428D01*
D10*
X17464286Y41742856D02*
X17416666Y41790476D01*
D10*
X17511904Y41790476D02*
X17464286Y41742856D01*
D10*
X17464286Y41838096D02*
X17511904Y41790476D01*
D10*
X17416666Y41838096D02*
X17464286Y41838096D01*
D10*
X17321428Y41790476D02*
X17416666Y41838096D01*
D10*
X17273810Y41742856D02*
X17321428Y41790476D01*
D10*
X17226190Y41600000D02*
X17273810Y41742856D01*
D10*
X17226190Y41457144D02*
X17226190Y41600000D01*
D10*
X17273810Y41314288D02*
X17226190Y41457144D01*
D10*
X17369048Y41266668D02*
X17273810Y41314288D01*
D10*
X17464286Y41266668D02*
X17369048Y41266668D01*
D10*
X17559524Y41314288D02*
X17464286Y41266668D01*
D10*
X17654762Y41409524D02*
X17559524Y41314288D01*
D10*
X17750000Y41552380D02*
X17654762Y41409524D01*
D10*
X17845238Y41742856D02*
X17750000Y41552380D01*
D10*
X17940476Y41885712D02*
X17845238Y41742856D01*
D10*
X18035714Y41980952D02*
X17940476Y41885712D01*
D10*
X18226190Y42076192D02*
X18035714Y41980952D01*
D10*
X17273810Y41361904D02*
X17226190Y41457144D01*
D10*
X17369048Y41314288D02*
X17273810Y41361904D01*
D10*
X17464286Y41314288D02*
X17369048Y41314288D01*
D10*
X17559524Y41361904D02*
X17464286Y41314288D01*
D10*
X17654762Y41457144D02*
X17559524Y41361904D01*
D10*
X17845238Y41742856D02*
X17654762Y41457144D01*
D10*
X18083334Y41980952D02*
X18130952Y42028572D01*
D10*
X18083334Y41885712D02*
X18083334Y41980952D01*
D10*
X18178572Y41647620D02*
X18083334Y41885712D01*
D10*
X18178572Y41504760D02*
X18178572Y41647620D01*
D10*
X18130952Y41409524D02*
X18178572Y41504760D01*
D10*
X18035714Y41361904D02*
X18130952Y41409524D01*
D10*
X18226190Y41647620D02*
X18083334Y41885712D01*
D10*
X18226190Y41504760D02*
X18226190Y41647620D01*
D10*
X18178572Y41409524D02*
X18226190Y41504760D01*
D10*
X18035714Y41361904D02*
X18178572Y41409524D01*
D10*
X18226190Y40790476D02*
X17416666Y40552380D01*
D10*
X18226190Y40742856D02*
X17226190Y40457144D01*
D10*
X17369048Y40600000D02*
X17226190Y40457144D01*
D10*
X17464286Y40742856D02*
X17369048Y40600000D01*
D10*
X17511904Y40838096D02*
X17464286Y40742856D01*
D10*
X17464286Y40695240D02*
X17369048Y40504760D01*
D10*
X17511904Y40838096D02*
X17464286Y40695240D01*
D10*
X22676190Y18057142D02*
X21676190Y17771428D01*
D10*
X22676190Y18009524D02*
X21676190Y17723810D01*
D10*
X21676190Y17580952D02*
X21676190Y17914286D01*
D10*
X22676190Y17485714D02*
X22676190Y18200000D01*
D10*
X22390476Y17390476D02*
X22676190Y17485714D01*
D10*
X22676190Y17533334D02*
X22390476Y17390476D01*
D10*
X22104762Y17152380D02*
X22200000Y17200000D01*
D10*
X22009524Y17057142D02*
X22104762Y17152380D01*
D10*
X22009524Y16914286D02*
X22009524Y17057142D01*
D10*
X22057142Y16866666D02*
X22009524Y16914286D01*
D10*
X22200000Y16866666D02*
X22057142Y16866666D01*
D10*
X22485714Y16961904D02*
X22200000Y16866666D01*
D10*
X22580952Y16961904D02*
X22485714Y16961904D01*
D10*
X22676190Y16866666D02*
X22580952Y16961904D01*
D10*
X22057142Y16914286D02*
X22009524Y16961904D01*
D10*
X22200000Y16914286D02*
X22057142Y16914286D01*
D10*
X22485714Y17009524D02*
X22200000Y16914286D01*
D10*
X22580952Y17009524D02*
X22485714Y17009524D01*
D10*
X22628572Y16961904D02*
X22580952Y17009524D01*
D10*
X22676190Y16866666D02*
X22628572Y16961904D01*
D10*
X22676190Y16771429D02*
X22676190Y16866666D01*
D10*
X22628572Y16676190D02*
X22676190Y16771429D01*
D10*
X22533334Y16580952D02*
X22628572Y16676190D01*
D10*
X22342858Y16485714D02*
X22533334Y16580952D01*
D10*
X22342858Y16485714D02*
X22009524Y16390476D01*
D10*
X22533334Y16533333D02*
X22342858Y16485714D01*
D10*
X22628572Y16533333D02*
X22533334Y16533333D01*
D10*
X22676190Y16485714D02*
X22628572Y16533333D01*
D10*
X22676190Y16342857D02*
X22676190Y16485714D01*
D10*
X22580952Y16247619D02*
X22676190Y16342857D01*
D10*
X22485714Y16200000D02*
X22580952Y16247619D01*
D10*
X22342858Y16438095D02*
X22009524Y16342857D01*
D10*
X22533334Y16485714D02*
X22342858Y16438095D01*
D10*
X22628572Y16485714D02*
X22533334Y16485714D01*
D10*
X22676190Y16438095D02*
X22628572Y16485714D01*
D10*
X22676190Y16057143D02*
X21676190Y15771428D01*
D10*
X22676190Y16009524D02*
X21676190Y15723810D01*
D10*
X22104762Y15438095D02*
X22057142Y15390476D01*
D10*
X22152380Y15390476D02*
X22104762Y15438095D01*
D10*
X22104762Y15342857D02*
X22152380Y15390476D01*
D10*
X22057142Y15342857D02*
X22104762Y15342857D01*
D10*
X22009524Y15390476D02*
X22057142Y15342857D01*
D10*
X22009524Y15438095D02*
X22009524Y15390476D01*
D10*
X22057142Y15533334D02*
X22009524Y15438095D01*
D10*
X22247620Y15723810D02*
X22057142Y15533334D01*
D10*
X22295238Y15819048D02*
X22247620Y15723810D01*
D10*
X22295238Y15914286D02*
X22295238Y15819048D01*
D10*
X22342858Y15723810D02*
X22295238Y15819048D01*
D10*
X22628572Y15628572D02*
X22342858Y15723810D01*
D10*
X22676190Y15580952D02*
X22628572Y15628572D01*
D10*
X22342858Y15771428D02*
X22295238Y15819048D01*
D10*
X22628572Y15676190D02*
X22342858Y15771428D01*
D10*
X22676190Y15628572D02*
X22628572Y15676190D01*
D10*
X22676190Y15533334D02*
X22676190Y15628572D01*
D10*
X22628572Y15438095D02*
X22676190Y15533334D01*
D10*
X22485714Y15342857D02*
X22628572Y15438095D01*
D10*
X21676190Y15723810D02*
X21676190Y15914286D01*
D10*
X22342858Y14533334D02*
X22009524Y14438095D01*
D10*
X22533334Y14580952D02*
X22342858Y14533334D01*
D10*
X22628572Y14580952D02*
X22533334Y14580952D01*
D10*
X22676190Y14533334D02*
X22628572Y14580952D01*
D10*
X22676190Y14390476D02*
X22676190Y14533334D01*
D10*
X22580952Y14295238D02*
X22676190Y14390476D01*
D10*
X22485714Y14247619D02*
X22580952Y14295238D01*
D10*
X22342858Y14485714D02*
X22009524Y14390476D01*
D10*
X22533334Y14533334D02*
X22342858Y14485714D01*
D10*
X22628572Y14533334D02*
X22533334Y14533334D01*
D10*
X22676190Y14485714D02*
X22628572Y14533334D01*
D10*
X22200000Y14533334D02*
X22342858Y14533334D01*
D10*
X22057142Y14580952D02*
X22200000Y14533334D01*
D10*
X22009524Y14676190D02*
X22057142Y14580952D01*
D10*
X22009524Y14771428D02*
X22009524Y14676190D01*
D10*
X22057142Y14914286D02*
X22009524Y14771428D01*
D10*
X22200000Y15009524D02*
X22057142Y14914286D01*
D10*
X22342858Y15057143D02*
X22200000Y15009524D01*
D10*
X22485714Y15057143D02*
X22342858Y15057143D01*
D10*
X22580952Y15009524D02*
X22485714Y15057143D01*
D10*
X22628572Y14961905D02*
X22580952Y15009524D01*
D10*
X22676190Y14866667D02*
X22628572Y14961905D01*
D10*
X22676190Y14771428D02*
X22676190Y14866667D01*
D10*
X22628572Y14676190D02*
X22676190Y14771428D01*
D10*
X22485714Y14580952D02*
X22628572Y14676190D01*
D10*
X22342858Y14533334D02*
X22485714Y14580952D01*
D10*
X22057142Y14866667D02*
X22009524Y14771428D01*
D10*
X22200000Y14961905D02*
X22057142Y14866667D01*
D10*
X22342858Y15009524D02*
X22200000Y14961905D01*
D10*
X22533334Y15009524D02*
X22342858Y15009524D01*
D10*
X22628572Y14961905D02*
X22533334Y15009524D01*
D10*
X22152380Y13533334D02*
X22104762Y13533334D01*
D10*
X22152380Y13485714D02*
X22152380Y13533334D01*
D10*
X22104762Y13485714D02*
X22152380Y13485714D01*
D10*
X22057142Y13533334D02*
X22104762Y13485714D01*
D10*
X22009524Y13676190D02*
X22057142Y13533334D01*
D10*
X22009524Y13819048D02*
X22009524Y13676190D01*
D10*
X22057142Y13961905D02*
X22009524Y13819048D01*
D10*
X22104762Y14009524D02*
X22057142Y13961905D01*
D10*
X22200000Y14009524D02*
X22104762Y14009524D01*
D10*
X22247620Y13961905D02*
X22200000Y14009524D01*
D10*
X22438096Y13628572D02*
X22247620Y13961905D01*
D10*
X22485714Y13580952D02*
X22438096Y13628572D01*
D10*
X22200000Y13961905D02*
X22152380Y14009524D01*
D10*
X22390476Y13628572D02*
X22200000Y13961905D01*
D10*
X22438096Y13580952D02*
X22390476Y13628572D01*
D10*
X22580952Y13580952D02*
X22438096Y13580952D01*
D10*
X22628572Y13628572D02*
X22580952Y13580952D01*
D10*
X22676190Y13771428D02*
X22628572Y13628572D01*
D10*
X22676190Y13914286D02*
X22676190Y13771428D01*
D10*
X22628572Y14057143D02*
X22676190Y13914286D01*
D10*
X22580952Y14104762D02*
X22628572Y14057143D01*
D10*
X22533334Y14104762D02*
X22580952Y14104762D01*
D10*
X22533334Y14057143D02*
X22533334Y14104762D01*
D10*
X22580952Y14057143D02*
X22533334Y14057143D01*
D10*
X22676190Y12866667D02*
X21676190Y12580952D01*
D10*
X22676190Y12819048D02*
X21676190Y12533334D01*
D10*
X22295238Y12723810D02*
X21676190Y11914286D01*
D10*
X22676190Y12200000D02*
X22104762Y12390476D01*
D10*
X22676190Y12247619D02*
X22104762Y12438096D01*
D10*
X21676190Y12390476D02*
X21676190Y12723810D01*
D10*
X21676190Y11819048D02*
X21676190Y12104762D01*
D10*
X22676190Y12676190D02*
X22676190Y13009524D01*
D10*
X22676190Y12104762D02*
X22676190Y12390476D01*
D10*
X22628572Y11723810D02*
X22580952Y11676190D01*
D10*
X22676190Y11676190D02*
X22628572Y11723810D01*
D10*
X22628572Y11628572D02*
X22676190Y11676190D01*
D10*
X22580952Y11676190D02*
X22628572Y11628572D01*
D10*
X23604762Y18104762D02*
X23700000Y18152380D01*
D10*
X23509524Y18009524D02*
X23604762Y18104762D01*
D10*
X23509524Y17866666D02*
X23509524Y18009524D01*
D10*
X23557142Y17819048D02*
X23509524Y17866666D01*
D10*
X23652380Y17819048D02*
X23557142Y17819048D01*
D10*
X23842858Y17866666D02*
X23652380Y17819048D01*
D10*
X24176190Y17961904D02*
X23842858Y17866666D01*
D10*
X23557142Y17866666D02*
X23509524Y17914286D01*
D10*
X23652380Y17866666D02*
X23557142Y17866666D01*
D10*
X23842858Y17914286D02*
X23652380Y17866666D01*
D10*
X24176190Y18009524D02*
X23842858Y17914286D01*
D10*
X23652380Y17771428D02*
X23842858Y17866666D01*
D10*
X23557142Y17676190D02*
X23652380Y17771428D01*
D10*
X23509524Y17580952D02*
X23557142Y17676190D01*
D10*
X23509524Y17485714D02*
X23509524Y17580952D01*
D10*
X23557142Y17438096D02*
X23509524Y17485714D01*
D10*
X23604762Y17438096D02*
X23557142Y17438096D01*
D10*
X23652380Y17485714D02*
X23604762Y17438096D01*
D10*
X23604762Y17533334D02*
X23652380Y17485714D01*
D10*
X23557142Y17485714D02*
X23604762Y17533334D01*
D10*
X23890476Y17009524D02*
X23938096Y17200000D01*
D10*
X23842858Y16866666D02*
X23890476Y17009524D01*
D10*
X23747620Y16723810D02*
X23842858Y16866666D01*
D10*
X23652380Y16676190D02*
X23747620Y16723810D01*
D10*
X23557142Y16723810D02*
X23652380Y16676190D01*
D10*
X23509524Y16819048D02*
X23557142Y16723810D01*
D10*
X23509524Y16961904D02*
X23509524Y16819048D01*
D10*
X23557142Y17104762D02*
X23509524Y16961904D01*
D10*
X23700000Y17200000D02*
X23557142Y17104762D01*
D10*
X23842858Y17247620D02*
X23700000Y17200000D01*
D10*
X23985714Y17247620D02*
X23842858Y17247620D01*
D10*
X24080952Y17200000D02*
X23985714Y17247620D01*
D10*
X24128572Y17152380D02*
X24080952Y17200000D01*
D10*
X24176190Y17057142D02*
X24128572Y17152380D01*
D10*
X24176190Y16961904D02*
X24176190Y17057142D01*
D10*
X24128572Y16819048D02*
X24176190Y16961904D01*
D10*
X24033334Y16723810D02*
X24128572Y16819048D01*
D10*
X23557142Y17057142D02*
X23509524Y16961904D01*
D10*
X23700000Y17152380D02*
X23557142Y17057142D01*
D10*
X23842858Y17200000D02*
X23700000Y17152380D01*
D10*
X24033334Y17200000D02*
X23842858Y17200000D01*
D10*
X24128572Y17152380D02*
X24033334Y17200000D01*
D10*
X23604762Y16438095D02*
X23700000Y16485714D01*
D10*
X23509524Y16342857D02*
X23604762Y16438095D01*
D10*
X23509524Y16200000D02*
X23509524Y16342857D01*
D10*
X23557142Y16152381D02*
X23509524Y16200000D01*
D10*
X23700000Y16152381D02*
X23557142Y16152381D01*
D10*
X23985714Y16247619D02*
X23700000Y16152381D01*
D10*
X24080952Y16247619D02*
X23985714Y16247619D01*
D10*
X24176190Y16152381D02*
X24080952Y16247619D01*
D10*
X23557142Y16200000D02*
X23509524Y16247619D01*
D10*
X23700000Y16200000D02*
X23557142Y16200000D01*
D10*
X23985714Y16295238D02*
X23700000Y16200000D01*
D10*
X24080952Y16295238D02*
X23985714Y16295238D01*
D10*
X24128572Y16247619D02*
X24080952Y16295238D01*
D10*
X24176190Y16152381D02*
X24128572Y16247619D01*
D10*
X24176190Y16104762D02*
X24176190Y16152381D01*
D10*
X24128572Y15961905D02*
X24176190Y16104762D01*
D10*
X24033334Y15866667D02*
X24128572Y15961905D01*
D10*
X23890476Y15771428D02*
X24033334Y15866667D01*
D10*
X23700000Y15723810D02*
X23890476Y15771428D01*
D10*
X23509524Y15723810D02*
X23700000Y15723810D01*
D10*
X23509524Y15771428D02*
X23509524Y15723810D01*
D10*
X23604762Y15723810D02*
X23509524Y15771428D01*
D10*
X24176190Y15247619D02*
X23366666Y15009524D01*
D10*
X24176190Y15200000D02*
X23176190Y14914286D01*
D10*
X23319048Y15057143D02*
X23176190Y14914286D01*
D10*
X23414286Y15200000D02*
X23319048Y15057143D01*
D10*
X23461904Y15295238D02*
X23414286Y15200000D01*
D10*
X23414286Y15152381D02*
X23319048Y14961905D01*
D10*
X23461904Y15295238D02*
X23414286Y15152381D01*
D10*
X24914286Y17819048D02*
X24866666Y17866666D01*
D10*
X24961904Y17866666D02*
X24914286Y17819048D01*
D10*
X24914286Y17914286D02*
X24961904Y17866666D01*
D10*
X24866666Y17914286D02*
X24914286Y17914286D01*
D10*
X24771428Y17866666D02*
X24866666Y17914286D01*
D10*
X24723810Y17819048D02*
X24771428Y17866666D01*
D10*
X24676190Y17676190D02*
X24723810Y17819048D01*
D10*
X24676190Y17533334D02*
X24676190Y17676190D01*
D10*
X24723810Y17390476D02*
X24676190Y17533334D01*
D10*
X24819048Y17342858D02*
X24723810Y17390476D01*
D10*
X24914286Y17342858D02*
X24819048Y17342858D01*
D10*
X25009524Y17390476D02*
X24914286Y17342858D01*
D10*
X25104762Y17485714D02*
X25009524Y17390476D01*
D10*
X25200000Y17628572D02*
X25104762Y17485714D01*
D10*
X25295238Y17819048D02*
X25200000Y17628572D01*
D10*
X25390476Y17961904D02*
X25295238Y17819048D01*
D10*
X25485714Y18057142D02*
X25390476Y17961904D01*
D10*
X25676190Y18152380D02*
X25485714Y18057142D01*
D10*
X24723810Y17438096D02*
X24676190Y17533334D01*
D10*
X24819048Y17390476D02*
X24723810Y17438096D01*
D10*
X24914286Y17390476D02*
X24819048Y17390476D01*
D10*
X25009524Y17438096D02*
X24914286Y17390476D01*
D10*
X25104762Y17533334D02*
X25009524Y17438096D01*
D10*
X25295238Y17819048D02*
X25104762Y17533334D01*
D10*
X25533334Y18057142D02*
X25580952Y18104762D01*
D10*
X25533334Y17961904D02*
X25533334Y18057142D01*
D10*
X25628572Y17723810D02*
X25533334Y17961904D01*
D10*
X25628572Y17580952D02*
X25628572Y17723810D01*
D10*
X25580952Y17485714D02*
X25628572Y17580952D01*
D10*
X25485714Y17438096D02*
X25580952Y17485714D01*
D10*
X25676190Y17723810D02*
X25533334Y17961904D01*
D10*
X25676190Y17580952D02*
X25676190Y17723810D01*
D10*
X25628572Y17485714D02*
X25676190Y17580952D01*
D10*
X25485714Y17438096D02*
X25628572Y17485714D01*
D10*
X24723810Y16771429D02*
X24676190Y16628572D01*
D10*
X24819048Y16866666D02*
X24723810Y16771429D01*
D10*
X24961904Y16961904D02*
X24819048Y16866666D01*
D10*
X25104762Y17009524D02*
X24961904Y16961904D01*
D10*
X25295238Y17057142D02*
X25104762Y17009524D01*
D10*
X25438096Y17057142D02*
X25295238Y17057142D01*
D10*
X25580952Y17009524D02*
X25438096Y17057142D01*
D10*
X25628572Y16961904D02*
X25580952Y17009524D01*
D10*
X25676190Y16866666D02*
X25628572Y16961904D01*
D10*
X25676190Y16771429D02*
X25676190Y16866666D01*
D10*
X25628572Y16628572D02*
X25676190Y16771429D01*
D10*
X25533334Y16533333D02*
X25628572Y16628572D01*
D10*
X25390476Y16438095D02*
X25533334Y16533333D01*
D10*
X25247620Y16390476D02*
X25390476Y16438095D01*
D10*
X25057142Y16342857D02*
X25247620Y16390476D01*
D10*
X24914286Y16342857D02*
X25057142Y16342857D01*
D10*
X24771428Y16390476D02*
X24914286Y16342857D01*
D10*
X24723810Y16438095D02*
X24771428Y16390476D01*
D10*
X24676190Y16533333D02*
X24723810Y16438095D01*
D10*
X24676190Y16628572D02*
X24676190Y16533333D01*
D10*
X24723810Y16723810D02*
X24676190Y16628572D01*
D10*
X24819048Y16819048D02*
X24723810Y16723810D01*
D10*
X24961904Y16914286D02*
X24819048Y16819048D01*
D10*
X25104762Y16961904D02*
X24961904Y16914286D01*
D10*
X25295238Y17009524D02*
X25104762Y16961904D01*
D10*
X25438096Y17009524D02*
X25295238Y17009524D01*
D10*
X25580952Y16961904D02*
X25438096Y17009524D01*
D10*
X25676190Y16866666D02*
X25580952Y16961904D01*
D10*
X25628572Y16676190D02*
X25676190Y16771429D01*
D10*
X25533334Y16580952D02*
X25628572Y16676190D01*
D10*
X25390476Y16485714D02*
X25533334Y16580952D01*
D10*
X25247620Y16438095D02*
X25390476Y16485714D01*
D10*
X25057142Y16390476D02*
X25247620Y16438095D01*
D10*
X24914286Y16390476D02*
X25057142Y16390476D01*
D10*
X24771428Y16438095D02*
X24914286Y16390476D01*
D10*
X24676190Y16533333D02*
X24771428Y16438095D01*
D10*
X24914286Y15819048D02*
X24866666Y15866667D01*
D10*
X24961904Y15866667D02*
X24914286Y15819048D01*
D10*
X24914286Y15914286D02*
X24961904Y15866667D01*
D10*
X24866666Y15914286D02*
X24914286Y15914286D01*
D10*
X24771428Y15866667D02*
X24866666Y15914286D01*
D10*
X24723810Y15819048D02*
X24771428Y15866667D01*
D10*
X24676190Y15676190D02*
X24723810Y15819048D01*
D10*
X24676190Y15533334D02*
X24676190Y15676190D01*
D10*
X24723810Y15390476D02*
X24676190Y15533334D01*
D10*
X24819048Y15342857D02*
X24723810Y15390476D01*
D10*
X24914286Y15342857D02*
X24819048Y15342857D01*
D10*
X25009524Y15390476D02*
X24914286Y15342857D01*
D10*
X25104762Y15485714D02*
X25009524Y15390476D01*
D10*
X25200000Y15628572D02*
X25104762Y15485714D01*
D10*
X25295238Y15819048D02*
X25200000Y15628572D01*
D10*
X25390476Y15961905D02*
X25295238Y15819048D01*
D10*
X25485714Y16057143D02*
X25390476Y15961905D01*
D10*
X25676190Y16152381D02*
X25485714Y16057143D01*
D10*
X24723810Y15438095D02*
X24676190Y15533334D01*
D10*
X24819048Y15390476D02*
X24723810Y15438095D01*
D10*
X24914286Y15390476D02*
X24819048Y15390476D01*
D10*
X25009524Y15438095D02*
X24914286Y15390476D01*
D10*
X25104762Y15533334D02*
X25009524Y15438095D01*
D10*
X25295238Y15819048D02*
X25104762Y15533334D01*
D10*
X25533334Y16057143D02*
X25580952Y16104762D01*
D10*
X25533334Y15961905D02*
X25533334Y16057143D01*
D10*
X25628572Y15723810D02*
X25533334Y15961905D01*
D10*
X25628572Y15580952D02*
X25628572Y15723810D01*
D10*
X25580952Y15485714D02*
X25628572Y15580952D01*
D10*
X25485714Y15438095D02*
X25580952Y15485714D01*
D10*
X25676190Y15723810D02*
X25533334Y15961905D01*
D10*
X25676190Y15580952D02*
X25676190Y15723810D01*
D10*
X25628572Y15485714D02*
X25676190Y15580952D01*
D10*
X25485714Y15438095D02*
X25628572Y15485714D01*
D10*
X25676190Y14723810D02*
X24723810Y14438095D01*
D10*
X25676190Y14676190D02*
X24676190Y14390476D01*
D10*
X25390476Y15104762D02*
X24676190Y14390476D01*
D10*
X25390476Y14342857D02*
X25390476Y15104762D01*
D10*
X25247620Y13152381D02*
X25247620Y14009524D01*
D10*
X24723810Y12533334D02*
X24676190Y12390476D01*
D10*
X24819048Y12628572D02*
X24723810Y12533334D01*
D10*
X24961904Y12723810D02*
X24819048Y12628572D01*
D10*
X25104762Y12771428D02*
X24961904Y12723810D01*
D10*
X25295238Y12819048D02*
X25104762Y12771428D01*
D10*
X25438096Y12819048D02*
X25295238Y12819048D01*
D10*
X25580952Y12771428D02*
X25438096Y12819048D01*
D10*
X25628572Y12723810D02*
X25580952Y12771428D01*
D10*
X25676190Y12628572D02*
X25628572Y12723810D01*
D10*
X25676190Y12533334D02*
X25676190Y12628572D01*
D10*
X25628572Y12390476D02*
X25676190Y12533334D01*
D10*
X25533334Y12295238D02*
X25628572Y12390476D01*
D10*
X25390476Y12200000D02*
X25533334Y12295238D01*
D10*
X25247620Y12152381D02*
X25390476Y12200000D01*
D10*
X25057142Y12104762D02*
X25247620Y12152381D01*
D10*
X24914286Y12104762D02*
X25057142Y12104762D01*
D10*
X24771428Y12152381D02*
X24914286Y12104762D01*
D10*
X24723810Y12200000D02*
X24771428Y12152381D01*
D10*
X24676190Y12295238D02*
X24723810Y12200000D01*
D10*
X24676190Y12390476D02*
X24676190Y12295238D01*
D10*
X24723810Y12485714D02*
X24676190Y12390476D01*
D10*
X24819048Y12580952D02*
X24723810Y12485714D01*
D10*
X24961904Y12676190D02*
X24819048Y12580952D01*
D10*
X25104762Y12723810D02*
X24961904Y12676190D01*
D10*
X25295238Y12771428D02*
X25104762Y12723810D01*
D10*
X25438096Y12771428D02*
X25295238Y12771428D01*
D10*
X25580952Y12723810D02*
X25438096Y12771428D01*
D10*
X25676190Y12628572D02*
X25580952Y12723810D01*
D10*
X25628572Y12438096D02*
X25676190Y12533334D01*
D10*
X25533334Y12342857D02*
X25628572Y12438096D01*
D10*
X25390476Y12247619D02*
X25533334Y12342857D01*
D10*
X25247620Y12200000D02*
X25390476Y12247619D01*
D10*
X25057142Y12152381D02*
X25247620Y12200000D01*
D10*
X24914286Y12152381D02*
X25057142Y12152381D01*
D10*
X24771428Y12200000D02*
X24914286Y12152381D01*
D10*
X24676190Y12295238D02*
X24771428Y12200000D01*
D10*
X25676190Y11485714D02*
X24723810Y11200000D01*
D10*
X25676190Y11438096D02*
X24676190Y11152381D01*
D10*
X25390476Y11866667D02*
X24676190Y11152381D01*
D10*
X25390476Y11104762D02*
X25390476Y11866667D01*
D10*
X25247620Y9914286D02*
X25247620Y10771428D01*
D10*
X24914286Y9342857D02*
X24866666Y9390476D01*
D10*
X24961904Y9390476D02*
X24914286Y9342857D01*
D10*
X24914286Y9438095D02*
X24961904Y9390476D01*
D10*
X24866666Y9438095D02*
X24914286Y9438095D01*
D10*
X24771428Y9390476D02*
X24866666Y9438095D01*
D10*
X24723810Y9342857D02*
X24771428Y9390476D01*
D10*
X24676190Y9200000D02*
X24723810Y9342857D01*
D10*
X24676190Y9057143D02*
X24676190Y9200000D01*
D10*
X24723810Y8914286D02*
X24676190Y9057143D01*
D10*
X24819048Y8866667D02*
X24723810Y8914286D01*
D10*
X24914286Y8866667D02*
X24819048Y8866667D01*
D10*
X25009524Y8914286D02*
X24914286Y8866667D01*
D10*
X25104762Y9009524D02*
X25009524Y8914286D01*
D10*
X25200000Y9152381D02*
X25104762Y9009524D01*
D10*
X25295238Y9342857D02*
X25200000Y9152381D01*
D10*
X25390476Y9485714D02*
X25295238Y9342857D01*
D10*
X25485714Y9580953D02*
X25390476Y9485714D01*
D10*
X25676190Y9676191D02*
X25485714Y9580953D01*
D10*
X24723810Y8961905D02*
X24676190Y9057143D01*
D10*
X24819048Y8914286D02*
X24723810Y8961905D01*
D10*
X24914286Y8914286D02*
X24819048Y8914286D01*
D10*
X25009524Y8961905D02*
X24914286Y8914286D01*
D10*
X25104762Y9057143D02*
X25009524Y8961905D01*
D10*
X25295238Y9342857D02*
X25104762Y9057143D01*
D10*
X25533334Y9580953D02*
X25580952Y9628572D01*
D10*
X25533334Y9485714D02*
X25533334Y9580953D01*
D10*
X25628572Y9247619D02*
X25533334Y9485714D01*
D10*
X25628572Y9104762D02*
X25628572Y9247619D01*
D10*
X25580952Y9009524D02*
X25628572Y9104762D01*
D10*
X25485714Y8961905D02*
X25580952Y9009524D01*
D10*
X25676190Y9247619D02*
X25533334Y9485714D01*
D10*
X25676190Y9104762D02*
X25676190Y9247619D01*
D10*
X25628572Y9009524D02*
X25676190Y9104762D01*
D10*
X25485714Y8961905D02*
X25628572Y9009524D01*
D10*
X25676190Y8390476D02*
X24866666Y8152381D01*
D10*
X25676190Y8342857D02*
X24676190Y8057143D01*
D10*
X24819048Y8200000D02*
X24676190Y8057143D01*
D10*
X24914286Y8342857D02*
X24819048Y8200000D01*
D10*
X24961904Y8438095D02*
X24914286Y8342857D01*
D10*
X24914286Y8295238D02*
X24819048Y8104762D01*
D10*
X24961904Y8438095D02*
X24914286Y8295238D01*
D10*
X50057144Y52323808D02*
X49771428Y53323808D01*
D10*
X50009524Y52323808D02*
X49723808Y53323808D01*
D10*
X49580952Y53323808D02*
X49914284Y53323808D01*
D10*
X49485716Y52323808D02*
X50200000Y52323808D01*
D10*
X49390476Y52609524D02*
X49485716Y52323808D01*
D10*
X49533332Y52323808D02*
X49390476Y52609524D01*
D10*
X49152380Y52895240D02*
X49200000Y52800000D01*
D10*
X49057144Y52990476D02*
X49152380Y52895240D01*
D10*
X48914284Y52990476D02*
X49057144Y52990476D01*
D10*
X48866668Y52942856D02*
X48914284Y52990476D01*
D10*
X48866668Y52800000D02*
X48866668Y52942856D01*
D10*
X48961904Y52514284D02*
X48866668Y52800000D01*
D10*
X48961904Y52419048D02*
X48961904Y52514284D01*
D10*
X48866668Y52323808D02*
X48961904Y52419048D01*
D10*
X48914284Y52942856D02*
X48961904Y52990476D01*
D10*
X48914284Y52800000D02*
X48914284Y52942856D01*
D10*
X49009524Y52514284D02*
X48914284Y52800000D01*
D10*
X49009524Y52419048D02*
X49009524Y52514284D01*
D10*
X48961904Y52371428D02*
X49009524Y52419048D01*
D10*
X48866668Y52323808D02*
X48961904Y52371428D01*
D10*
X48771428Y52323808D02*
X48866668Y52323808D01*
D10*
X48676192Y52371428D02*
X48771428Y52323808D01*
D10*
X48580952Y52466668D02*
X48676192Y52371428D01*
D10*
X48485716Y52657144D02*
X48580952Y52466668D01*
D10*
X48485716Y52657144D02*
X48390476Y52990476D01*
D10*
X48533332Y52466668D02*
X48485716Y52657144D01*
D10*
X48533332Y52371428D02*
X48533332Y52466668D01*
D10*
X48485716Y52323808D02*
X48533332Y52371428D01*
D10*
X48342856Y52323808D02*
X48485716Y52323808D01*
D10*
X48247620Y52419048D02*
X48342856Y52323808D01*
D10*
X48200000Y52514284D02*
X48247620Y52419048D01*
D10*
X48438096Y52657144D02*
X48342856Y52990476D01*
D10*
X48485716Y52466668D02*
X48438096Y52657144D01*
D10*
X48485716Y52371428D02*
X48485716Y52466668D01*
D10*
X48438096Y52323808D02*
X48485716Y52371428D01*
D10*
X48057144Y52323808D02*
X47771428Y53323808D01*
D10*
X48009524Y52323808D02*
X47723808Y53323808D01*
D10*
X47438096Y52895240D02*
X47390476Y52942856D01*
D10*
X47390476Y52847620D02*
X47438096Y52895240D01*
D10*
X47342856Y52895240D02*
X47390476Y52847620D01*
D10*
X47342856Y52942856D02*
X47342856Y52895240D01*
D10*
X47390476Y52990476D02*
X47342856Y52942856D01*
D10*
X47438096Y52990476D02*
X47390476Y52990476D01*
D10*
X47533332Y52942856D02*
X47438096Y52990476D01*
D10*
X47723808Y52752380D02*
X47533332Y52942856D01*
D10*
X47819048Y52704760D02*
X47723808Y52752380D01*
D10*
X47914284Y52704760D02*
X47819048Y52704760D01*
D10*
X47723808Y52657144D02*
X47819048Y52704760D01*
D10*
X47628572Y52371428D02*
X47723808Y52657144D01*
D10*
X47580952Y52323808D02*
X47628572Y52371428D01*
D10*
X47771428Y52657144D02*
X47819048Y52704760D01*
D10*
X47676192Y52371428D02*
X47771428Y52657144D01*
D10*
X47628572Y52323808D02*
X47676192Y52371428D01*
D10*
X47533332Y52323808D02*
X47628572Y52323808D01*
D10*
X47438096Y52371428D02*
X47533332Y52323808D01*
D10*
X47342856Y52514284D02*
X47438096Y52371428D01*
D10*
X47723808Y53323808D02*
X47914284Y53323808D01*
D10*
X46533332Y52657144D02*
X46438096Y52990476D01*
D10*
X46580952Y52466668D02*
X46533332Y52657144D01*
D10*
X46580952Y52371428D02*
X46580952Y52466668D01*
D10*
X46533332Y52323808D02*
X46580952Y52371428D01*
D10*
X46390476Y52323808D02*
X46533332Y52323808D01*
D10*
X46295240Y52419048D02*
X46390476Y52323808D01*
D10*
X46247620Y52514284D02*
X46295240Y52419048D01*
D10*
X46485716Y52657144D02*
X46390476Y52990476D01*
D10*
X46533332Y52466668D02*
X46485716Y52657144D01*
D10*
X46533332Y52371428D02*
X46533332Y52466668D01*
D10*
X46485716Y52323808D02*
X46533332Y52371428D01*
D10*
X46533332Y52800000D02*
X46533332Y52657144D01*
D10*
X46580952Y52942856D02*
X46533332Y52800000D01*
D10*
X46676192Y52990476D02*
X46580952Y52942856D01*
D10*
X46771428Y52990476D02*
X46676192Y52990476D01*
D10*
X46914284Y52942856D02*
X46771428Y52990476D01*
D10*
X47009524Y52800000D02*
X46914284Y52942856D01*
D10*
X47057144Y52657144D02*
X47009524Y52800000D01*
D10*
X47057144Y52514284D02*
X47057144Y52657144D01*
D10*
X47009524Y52419048D02*
X47057144Y52514284D01*
D10*
X46961904Y52371428D02*
X47009524Y52419048D01*
D10*
X46866668Y52323808D02*
X46961904Y52371428D01*
D10*
X46771428Y52323808D02*
X46866668Y52323808D01*
D10*
X46676192Y52371428D02*
X46771428Y52323808D01*
D10*
X46580952Y52514284D02*
X46676192Y52371428D01*
D10*
X46533332Y52657144D02*
X46580952Y52514284D01*
D10*
X46866668Y52942856D02*
X46771428Y52990476D01*
D10*
X46961904Y52800000D02*
X46866668Y52942856D01*
D10*
X47009524Y52657144D02*
X46961904Y52800000D01*
D10*
X47009524Y52466668D02*
X47009524Y52657144D01*
D10*
X46961904Y52371428D02*
X47009524Y52466668D01*
D10*
X45533332Y52847620D02*
X45533332Y52895240D01*
D10*
X45485716Y52847620D02*
X45533332Y52847620D01*
D10*
X45485716Y52895240D02*
X45485716Y52847620D01*
D10*
X45533332Y52942856D02*
X45485716Y52895240D01*
D10*
X45676192Y52990476D02*
X45533332Y52942856D01*
D10*
X45819048Y52990476D02*
X45676192Y52990476D01*
D10*
X45961904Y52942856D02*
X45819048Y52990476D01*
D10*
X46009524Y52895240D02*
X45961904Y52942856D01*
D10*
X46009524Y52800000D02*
X46009524Y52895240D01*
D10*
X45961904Y52752380D02*
X46009524Y52800000D01*
D10*
X45628572Y52561904D02*
X45961904Y52752380D01*
D10*
X45580952Y52514284D02*
X45628572Y52561904D01*
D10*
X45961904Y52800000D02*
X46009524Y52847620D01*
D10*
X45628572Y52609524D02*
X45961904Y52800000D01*
D10*
X45580952Y52561904D02*
X45628572Y52609524D01*
D10*
X45580952Y52419048D02*
X45580952Y52561904D01*
D10*
X45628572Y52371428D02*
X45580952Y52419048D01*
D10*
X45771428Y52323808D02*
X45628572Y52371428D01*
D10*
X45914288Y52323808D02*
X45771428Y52323808D01*
D10*
X46057144Y52371428D02*
X45914288Y52323808D01*
D10*
X46104760Y52419048D02*
X46057144Y52371428D01*
D10*
X46104760Y52466668D02*
X46104760Y52419048D01*
D10*
X46057144Y52466668D02*
X46104760Y52466668D01*
D10*
X46057144Y52419048D02*
X46057144Y52466668D01*
D10*
X44866668Y52323808D02*
X44580952Y53323808D01*
D10*
X44819048Y52323808D02*
X44533332Y53323808D01*
D10*
X44723808Y52704760D02*
X43914288Y53323808D01*
D10*
X44200000Y52323808D02*
X44390476Y52895240D01*
D10*
X44247620Y52323808D02*
X44438096Y52895240D01*
D10*
X44390476Y53323808D02*
X44723808Y53323808D01*
D10*
X43819048Y53323808D02*
X44104760Y53323808D01*
D10*
X44676192Y52323808D02*
X45009524Y52323808D01*
D10*
X44104760Y52323808D02*
X44390476Y52323808D01*
D10*
X43723808Y52371428D02*
X43676192Y52419048D01*
D10*
X43676192Y52323808D02*
X43723808Y52371428D01*
D10*
X43628572Y52371428D02*
X43676192Y52323808D01*
D10*
X43676192Y52419048D02*
X43628572Y52371428D01*
D10*
X50104760Y51395240D02*
X50152380Y51300000D01*
D10*
X50009524Y51490476D02*
X50104760Y51395240D01*
D10*
X49866668Y51490476D02*
X50009524Y51490476D01*
D10*
X49819048Y51442856D02*
X49866668Y51490476D01*
D10*
X49819048Y51347620D02*
X49819048Y51442856D01*
D10*
X49866668Y51157144D02*
X49819048Y51347620D01*
D10*
X49961904Y50823808D02*
X49866668Y51157144D01*
D10*
X49866668Y51442856D02*
X49914284Y51490476D01*
D10*
X49866668Y51347620D02*
X49866668Y51442856D01*
D10*
X49914284Y51157144D02*
X49866668Y51347620D01*
D10*
X50009524Y50823808D02*
X49914284Y51157144D01*
D10*
X49771428Y51347620D02*
X49866668Y51157144D01*
D10*
X49676192Y51442856D02*
X49771428Y51347620D01*
D10*
X49580952Y51490476D02*
X49676192Y51442856D01*
D10*
X49485716Y51490476D02*
X49580952Y51490476D01*
D10*
X49438096Y51442856D02*
X49485716Y51490476D01*
D10*
X49438096Y51395240D02*
X49438096Y51442856D01*
D10*
X49485716Y51347620D02*
X49438096Y51395240D01*
D10*
X49533332Y51395240D02*
X49485716Y51347620D01*
D10*
X49485716Y51442856D02*
X49533332Y51395240D01*
D10*
X49009524Y51109524D02*
X49200000Y51061904D01*
D10*
X48866668Y51157144D02*
X49009524Y51109524D01*
D10*
X48723808Y51252380D02*
X48866668Y51157144D01*
D10*
X48676192Y51347620D02*
X48723808Y51252380D01*
D10*
X48723808Y51442856D02*
X48676192Y51347620D01*
D10*
X48819048Y51490476D02*
X48723808Y51442856D01*
D10*
X48961904Y51490476D02*
X48819048Y51490476D01*
D10*
X49104760Y51442856D02*
X48961904Y51490476D01*
D10*
X49200000Y51300000D02*
X49104760Y51442856D01*
D10*
X49247620Y51157144D02*
X49200000Y51300000D01*
D10*
X49247620Y51014284D02*
X49247620Y51157144D01*
D10*
X49200000Y50919048D02*
X49247620Y51014284D01*
D10*
X49152380Y50871428D02*
X49200000Y50919048D01*
D10*
X49057144Y50823808D02*
X49152380Y50871428D01*
D10*
X48961904Y50823808D02*
X49057144Y50823808D01*
D10*
X48819048Y50871428D02*
X48961904Y50823808D01*
D10*
X48723808Y50966668D02*
X48819048Y50871428D01*
D10*
X49057144Y51442856D02*
X48961904Y51490476D01*
D10*
X49152380Y51300000D02*
X49057144Y51442856D01*
D10*
X49200000Y51157144D02*
X49152380Y51300000D01*
D10*
X49200000Y50966668D02*
X49200000Y51157144D01*
D10*
X49152380Y50871428D02*
X49200000Y50966668D01*
D10*
X48438096Y51395240D02*
X48485716Y51300000D01*
D10*
X48342856Y51490476D02*
X48438096Y51395240D01*
D10*
X48200000Y51490476D02*
X48342856Y51490476D01*
D10*
X48152380Y51442856D02*
X48200000Y51490476D01*
D10*
X48152380Y51300000D02*
X48152380Y51442856D01*
D10*
X48247620Y51014284D02*
X48152380Y51300000D01*
D10*
X48247620Y50919048D02*
X48247620Y51014284D01*
D10*
X48152380Y50823808D02*
X48247620Y50919048D01*
D10*
X48200000Y51442856D02*
X48247620Y51490476D01*
D10*
X48200000Y51300000D02*
X48200000Y51442856D01*
D10*
X48295240Y51014284D02*
X48200000Y51300000D01*
D10*
X48295240Y50919048D02*
X48295240Y51014284D01*
D10*
X48247620Y50871428D02*
X48295240Y50919048D01*
D10*
X48152380Y50823808D02*
X48247620Y50871428D01*
D10*
X48104760Y50823808D02*
X48152380Y50823808D01*
D10*
X47961904Y50871428D02*
X48104760Y50823808D01*
D10*
X47866668Y50966668D02*
X47961904Y50871428D01*
D10*
X47771428Y51109524D02*
X47866668Y50966668D01*
D10*
X47723808Y51300000D02*
X47771428Y51109524D01*
D10*
X47723808Y51490476D02*
X47723808Y51300000D01*
D10*
X47771428Y51490476D02*
X47723808Y51490476D01*
D10*
X47723808Y51395240D02*
X47771428Y51490476D01*
D10*
X47247620Y50823808D02*
X47009524Y51633332D01*
D10*
X47200000Y50823808D02*
X46914284Y51823808D01*
D10*
X47057144Y51680952D02*
X46914284Y51823808D01*
D10*
X47200000Y51585716D02*
X47057144Y51680952D01*
D10*
X47295240Y51538096D02*
X47200000Y51585716D01*
D10*
X47152380Y51585716D02*
X46961904Y51680952D01*
D10*
X47295240Y51538096D02*
X47152380Y51585716D01*
D10*
X49819048Y50085716D02*
X49866668Y50133332D01*
D10*
X49866668Y50038096D02*
X49819048Y50085716D01*
D10*
X49914284Y50085716D02*
X49866668Y50038096D01*
D10*
X49914284Y50133332D02*
X49914284Y50085716D01*
D10*
X49866668Y50228572D02*
X49914284Y50133332D01*
D10*
X49819048Y50276192D02*
X49866668Y50228572D01*
D10*
X49676192Y50323808D02*
X49819048Y50276192D01*
D10*
X49533332Y50323808D02*
X49676192Y50323808D01*
D10*
X49390476Y50276192D02*
X49533332Y50323808D01*
D10*
X49342856Y50180952D02*
X49390476Y50276192D01*
D10*
X49342856Y50085716D02*
X49342856Y50180952D01*
D10*
X49390476Y49990476D02*
X49342856Y50085716D01*
D10*
X49485716Y49895240D02*
X49390476Y49990476D01*
D10*
X49628572Y49800000D02*
X49485716Y49895240D01*
D10*
X49819048Y49704760D02*
X49628572Y49800000D01*
D10*
X49961904Y49609524D02*
X49819048Y49704760D01*
D10*
X50057144Y49514284D02*
X49961904Y49609524D01*
D10*
X50152380Y49323808D02*
X50057144Y49514284D01*
D10*
X49438096Y50276192D02*
X49533332Y50323808D01*
D10*
X49390476Y50180952D02*
X49438096Y50276192D01*
D10*
X49390476Y50085716D02*
X49390476Y50180952D01*
D10*
X49438096Y49990476D02*
X49390476Y50085716D01*
D10*
X49533332Y49895240D02*
X49438096Y49990476D01*
D10*
X49819048Y49704760D02*
X49533332Y49895240D01*
D10*
X50057144Y49466668D02*
X50104760Y49419048D01*
D10*
X49961904Y49466668D02*
X50057144Y49466668D01*
D10*
X49723808Y49371428D02*
X49961904Y49466668D01*
D10*
X49580952Y49371428D02*
X49723808Y49371428D01*
D10*
X49485716Y49419048D02*
X49580952Y49371428D01*
D10*
X49438096Y49514284D02*
X49485716Y49419048D01*
D10*
X49723808Y49323808D02*
X49961904Y49466668D01*
D10*
X49580952Y49323808D02*
X49723808Y49323808D01*
D10*
X49485716Y49371428D02*
X49580952Y49323808D01*
D10*
X49438096Y49514284D02*
X49485716Y49371428D01*
D10*
X48771428Y50276192D02*
X48628572Y50323808D01*
D10*
X48866668Y50180952D02*
X48771428Y50276192D01*
D10*
X48961904Y50038096D02*
X48866668Y50180952D01*
D10*
X49009524Y49895240D02*
X48961904Y50038096D01*
D10*
X49057144Y49704760D02*
X49009524Y49895240D01*
D10*
X49057144Y49561904D02*
X49057144Y49704760D01*
D10*
X49009524Y49419048D02*
X49057144Y49561904D01*
D10*
X48961904Y49371428D02*
X49009524Y49419048D01*
D10*
X48866668Y49323808D02*
X48961904Y49371428D01*
D10*
X48771428Y49323808D02*
X48866668Y49323808D01*
D10*
X48628572Y49371428D02*
X48771428Y49323808D01*
D10*
X48533332Y49466668D02*
X48628572Y49371428D01*
D10*
X48438096Y49609524D02*
X48533332Y49466668D01*
D10*
X48390476Y49752380D02*
X48438096Y49609524D01*
D10*
X48342856Y49942856D02*
X48390476Y49752380D01*
D10*
X48342856Y50085716D02*
X48342856Y49942856D01*
D10*
X48390476Y50228572D02*
X48342856Y50085716D01*
D10*
X48438096Y50276192D02*
X48390476Y50228572D01*
D10*
X48533332Y50323808D02*
X48438096Y50276192D01*
D10*
X48628572Y50323808D02*
X48533332Y50323808D01*
D10*
X48723808Y50276192D02*
X48628572Y50323808D01*
D10*
X48819048Y50180952D02*
X48723808Y50276192D01*
D10*
X48914284Y50038096D02*
X48819048Y50180952D01*
D10*
X48961904Y49895240D02*
X48914284Y50038096D01*
D10*
X49009524Y49704760D02*
X48961904Y49895240D01*
D10*
X49009524Y49561904D02*
X49009524Y49704760D01*
D10*
X48961904Y49419048D02*
X49009524Y49561904D01*
D10*
X48866668Y49323808D02*
X48961904Y49419048D01*
D10*
X48676192Y49371428D02*
X48771428Y49323808D01*
D10*
X48580952Y49466668D02*
X48676192Y49371428D01*
D10*
X48485716Y49609524D02*
X48580952Y49466668D01*
D10*
X48438096Y49752380D02*
X48485716Y49609524D01*
D10*
X48390476Y49942856D02*
X48438096Y49752380D01*
D10*
X48390476Y50085716D02*
X48390476Y49942856D01*
D10*
X48438096Y50228572D02*
X48390476Y50085716D01*
D10*
X48533332Y50323808D02*
X48438096Y50228572D01*
D10*
X47819048Y50085716D02*
X47866668Y50133332D01*
D10*
X47866668Y50038096D02*
X47819048Y50085716D01*
D10*
X47914284Y50085716D02*
X47866668Y50038096D01*
D10*
X47914284Y50133332D02*
X47914284Y50085716D01*
D10*
X47866668Y50228572D02*
X47914284Y50133332D01*
D10*
X47819048Y50276192D02*
X47866668Y50228572D01*
D10*
X47676192Y50323808D02*
X47819048Y50276192D01*
D10*
X47533332Y50323808D02*
X47676192Y50323808D01*
D10*
X47390476Y50276192D02*
X47533332Y50323808D01*
D10*
X47342856Y50180952D02*
X47390476Y50276192D01*
D10*
X47342856Y50085716D02*
X47342856Y50180952D01*
D10*
X47390476Y49990476D02*
X47342856Y50085716D01*
D10*
X47485716Y49895240D02*
X47390476Y49990476D01*
D10*
X47628572Y49800000D02*
X47485716Y49895240D01*
D10*
X47819048Y49704760D02*
X47628572Y49800000D01*
D10*
X47961904Y49609524D02*
X47819048Y49704760D01*
D10*
X48057144Y49514284D02*
X47961904Y49609524D01*
D10*
X48152380Y49323808D02*
X48057144Y49514284D01*
D10*
X47438096Y50276192D02*
X47533332Y50323808D01*
D10*
X47390476Y50180952D02*
X47438096Y50276192D01*
D10*
X47390476Y50085716D02*
X47390476Y50180952D01*
D10*
X47438096Y49990476D02*
X47390476Y50085716D01*
D10*
X47533332Y49895240D02*
X47438096Y49990476D01*
D10*
X47819048Y49704760D02*
X47533332Y49895240D01*
D10*
X48057144Y49466668D02*
X48104760Y49419048D01*
D10*
X47961904Y49466668D02*
X48057144Y49466668D01*
D10*
X47723808Y49371428D02*
X47961904Y49466668D01*
D10*
X47580952Y49371428D02*
X47723808Y49371428D01*
D10*
X47485716Y49419048D02*
X47580952Y49371428D01*
D10*
X47438096Y49514284D02*
X47485716Y49419048D01*
D10*
X47723808Y49323808D02*
X47961904Y49466668D01*
D10*
X47580952Y49323808D02*
X47723808Y49323808D01*
D10*
X47485716Y49371428D02*
X47580952Y49323808D01*
D10*
X47438096Y49514284D02*
X47485716Y49371428D01*
D10*
X46723808Y49323808D02*
X46438096Y50276192D01*
D10*
X46676192Y49323808D02*
X46390476Y50323808D01*
D10*
X47104760Y49609524D02*
X46390476Y50323808D01*
D10*
X46342856Y49609524D02*
X47104760Y49609524D01*
D10*
X45152380Y49752380D02*
X46009524Y49752380D01*
D10*
X44533332Y50276192D02*
X44390476Y50323808D01*
D10*
X44628572Y50180952D02*
X44533332Y50276192D01*
D10*
X44723808Y50038096D02*
X44628572Y50180952D01*
D10*
X44771428Y49895240D02*
X44723808Y50038096D01*
D10*
X44819048Y49704760D02*
X44771428Y49895240D01*
D10*
X44819048Y49561904D02*
X44819048Y49704760D01*
D10*
X44771428Y49419048D02*
X44819048Y49561904D01*
D10*
X44723808Y49371428D02*
X44771428Y49419048D01*
D10*
X44628572Y49323808D02*
X44723808Y49371428D01*
D10*
X44533332Y49323808D02*
X44628572Y49323808D01*
D10*
X44390476Y49371428D02*
X44533332Y49323808D01*
D10*
X44295240Y49466668D02*
X44390476Y49371428D01*
D10*
X44200000Y49609524D02*
X44295240Y49466668D01*
D10*
X44152380Y49752380D02*
X44200000Y49609524D01*
D10*
X44104760Y49942856D02*
X44152380Y49752380D01*
D10*
X44104760Y50085716D02*
X44104760Y49942856D01*
D10*
X44152380Y50228572D02*
X44104760Y50085716D01*
D10*
X44200000Y50276192D02*
X44152380Y50228572D01*
D10*
X44295240Y50323808D02*
X44200000Y50276192D01*
D10*
X44390476Y50323808D02*
X44295240Y50323808D01*
D10*
X44485716Y50276192D02*
X44390476Y50323808D01*
D10*
X44580952Y50180952D02*
X44485716Y50276192D01*
D10*
X44676192Y50038096D02*
X44580952Y50180952D01*
D10*
X44723808Y49895240D02*
X44676192Y50038096D01*
D10*
X44771428Y49704760D02*
X44723808Y49895240D01*
D10*
X44771428Y49561904D02*
X44771428Y49704760D01*
D10*
X44723808Y49419048D02*
X44771428Y49561904D01*
D10*
X44628572Y49323808D02*
X44723808Y49419048D01*
D10*
X44438096Y49371428D02*
X44533332Y49323808D01*
D10*
X44342856Y49466668D02*
X44438096Y49371428D01*
D10*
X44247620Y49609524D02*
X44342856Y49466668D01*
D10*
X44200000Y49752380D02*
X44247620Y49609524D01*
D10*
X44152380Y49942856D02*
X44200000Y49752380D01*
D10*
X44152380Y50085716D02*
X44152380Y49942856D01*
D10*
X44200000Y50228572D02*
X44152380Y50085716D01*
D10*
X44295240Y50323808D02*
X44200000Y50228572D01*
D10*
X43485716Y49323808D02*
X43200000Y50276192D01*
D10*
X43438096Y49323808D02*
X43152380Y50323808D01*
D10*
X43866668Y49609524D02*
X43152380Y50323808D01*
D10*
X43104760Y49609524D02*
X43866668Y49609524D01*
D10*
X41914288Y49752380D02*
X42771428Y49752380D01*
D10*
X41342856Y50085716D02*
X41390476Y50133332D01*
D10*
X41390476Y50038096D02*
X41342856Y50085716D01*
D10*
X41438096Y50085716D02*
X41390476Y50038096D01*
D10*
X41438096Y50133332D02*
X41438096Y50085716D01*
D10*
X41390476Y50228572D02*
X41438096Y50133332D01*
D10*
X41342856Y50276192D02*
X41390476Y50228572D01*
D10*
X41200000Y50323808D02*
X41342856Y50276192D01*
D10*
X41057144Y50323808D02*
X41200000Y50323808D01*
D10*
X40914288Y50276192D02*
X41057144Y50323808D01*
D10*
X40866668Y50180952D02*
X40914288Y50276192D01*
D10*
X40866668Y50085716D02*
X40866668Y50180952D01*
D10*
X40914288Y49990476D02*
X40866668Y50085716D01*
D10*
X41009524Y49895240D02*
X40914288Y49990476D01*
D10*
X41152380Y49800000D02*
X41009524Y49895240D01*
D10*
X41342856Y49704760D02*
X41152380Y49800000D01*
D10*
X41485712Y49609524D02*
X41342856Y49704760D01*
D10*
X41580952Y49514284D02*
X41485712Y49609524D01*
D10*
X41676192Y49323808D02*
X41580952Y49514284D01*
D10*
X40961904Y50276192D02*
X41057144Y50323808D01*
D10*
X40914288Y50180952D02*
X40961904Y50276192D01*
D10*
X40914288Y50085716D02*
X40914288Y50180952D01*
D10*
X40961904Y49990476D02*
X40914288Y50085716D01*
D10*
X41057144Y49895240D02*
X40961904Y49990476D01*
D10*
X41342856Y49704760D02*
X41057144Y49895240D01*
D10*
X41580952Y49466668D02*
X41628572Y49419048D01*
D10*
X41485712Y49466668D02*
X41580952Y49466668D01*
D10*
X41247620Y49371428D02*
X41485712Y49466668D01*
D10*
X41104760Y49371428D02*
X41247620Y49371428D01*
D10*
X41009524Y49419048D02*
X41104760Y49371428D01*
D10*
X40961904Y49514284D02*
X41009524Y49419048D01*
D10*
X41247620Y49323808D02*
X41485712Y49466668D01*
D10*
X41104760Y49323808D02*
X41247620Y49323808D01*
D10*
X41009524Y49371428D02*
X41104760Y49323808D01*
D10*
X40961904Y49514284D02*
X41009524Y49371428D01*
D10*
X40390476Y49323808D02*
X40152380Y50133332D01*
D10*
X40342856Y49323808D02*
X40057144Y50323808D01*
D10*
X40200000Y50180952D02*
X40057144Y50323808D01*
D10*
X40342856Y50085716D02*
X40200000Y50180952D01*
D10*
X40438096Y50038096D02*
X40342856Y50085716D01*
D10*
X40295240Y50085716D02*
X40104760Y50180952D01*
D10*
X40438096Y50038096D02*
X40295240Y50085716D01*
D10*
X86323808Y66942856D02*
X87323808Y67228568D01*
D10*
X86323808Y66990476D02*
X87323808Y67276192D01*
D10*
X87323808Y67419048D02*
X87323808Y67085716D01*
D10*
X86323808Y67514288D02*
X86323808Y66800000D01*
D10*
X86609520Y67609520D02*
X86323808Y67514288D01*
D10*
X86323808Y67466664D02*
X86609520Y67609520D01*
D10*
X86895240Y67847616D02*
X86800000Y67800000D01*
D10*
X86990480Y67942856D02*
X86895240Y67847616D01*
D10*
X86990480Y68085712D02*
X86990480Y67942856D01*
D10*
X86942856Y68133336D02*
X86990480Y68085712D01*
D10*
X86800000Y68133336D02*
X86942856Y68133336D01*
D10*
X86514288Y68038096D02*
X86800000Y68133336D01*
D10*
X86419048Y68038096D02*
X86514288Y68038096D01*
D10*
X86323808Y68133336D02*
X86419048Y68038096D01*
D10*
X86942856Y68085712D02*
X86990480Y68038096D01*
D10*
X86800000Y68085712D02*
X86942856Y68085712D01*
D10*
X86514288Y67990480D02*
X86800000Y68085712D01*
D10*
X86419048Y67990480D02*
X86514288Y67990480D01*
D10*
X86371432Y68038096D02*
X86419048Y67990480D01*
D10*
X86323808Y68133336D02*
X86371432Y68038096D01*
D10*
X86323808Y68228568D02*
X86323808Y68133336D01*
D10*
X86371432Y68323808D02*
X86323808Y68228568D01*
D10*
X86466664Y68419048D02*
X86371432Y68323808D01*
D10*
X86657144Y68514288D02*
X86466664Y68419048D01*
D10*
X86657144Y68514288D02*
X86990480Y68609520D01*
D10*
X86466664Y68466664D02*
X86657144Y68514288D01*
D10*
X86371432Y68466664D02*
X86466664Y68466664D01*
D10*
X86323808Y68514288D02*
X86371432Y68466664D01*
D10*
X86323808Y68657144D02*
X86323808Y68514288D01*
D10*
X86419048Y68752384D02*
X86323808Y68657144D01*
D10*
X86514288Y68800000D02*
X86419048Y68752384D01*
D10*
X86657144Y68561904D02*
X86990480Y68657144D01*
D10*
X86466664Y68514288D02*
X86657144Y68561904D01*
D10*
X86371432Y68514288D02*
X86466664Y68514288D01*
D10*
X86323808Y68561904D02*
X86371432Y68514288D01*
D10*
X86323808Y68942856D02*
X87323808Y69228568D01*
D10*
X86323808Y68990480D02*
X87323808Y69276192D01*
D10*
X86895240Y69561904D02*
X86942856Y69609520D01*
D10*
X86847616Y69609520D02*
X86895240Y69561904D01*
D10*
X86895240Y69657144D02*
X86847616Y69609520D01*
D10*
X86942856Y69657144D02*
X86895240Y69657144D01*
D10*
X86990480Y69609520D02*
X86942856Y69657144D01*
D10*
X86990480Y69561904D02*
X86990480Y69609520D01*
D10*
X86942856Y69466664D02*
X86990480Y69561904D01*
D10*
X86752384Y69276192D02*
X86942856Y69466664D01*
D10*
X86704760Y69180952D02*
X86752384Y69276192D01*
D10*
X86704760Y69085712D02*
X86704760Y69180952D01*
D10*
X86657144Y69276192D02*
X86704760Y69180952D01*
D10*
X86371432Y69371432D02*
X86657144Y69276192D01*
D10*
X86323808Y69419048D02*
X86371432Y69371432D01*
D10*
X86657144Y69228568D02*
X86704760Y69180952D01*
D10*
X86371432Y69323808D02*
X86657144Y69228568D01*
D10*
X86323808Y69371432D02*
X86371432Y69323808D01*
D10*
X86323808Y69466664D02*
X86323808Y69371432D01*
D10*
X86371432Y69561904D02*
X86323808Y69466664D01*
D10*
X86514288Y69657144D02*
X86371432Y69561904D01*
D10*
X87323808Y69276192D02*
X87323808Y69085712D01*
D10*
X86657144Y70466664D02*
X86990480Y70561904D01*
D10*
X86466664Y70419048D02*
X86657144Y70466664D01*
D10*
X86371432Y70419048D02*
X86466664Y70419048D01*
D10*
X86323808Y70466664D02*
X86371432Y70419048D01*
D10*
X86323808Y70609520D02*
X86323808Y70466664D01*
D10*
X86419048Y70704760D02*
X86323808Y70609520D01*
D10*
X86514288Y70752384D02*
X86419048Y70704760D01*
D10*
X86657144Y70514288D02*
X86990480Y70609520D01*
D10*
X86466664Y70466664D02*
X86657144Y70514288D01*
D10*
X86371432Y70466664D02*
X86466664Y70466664D01*
D10*
X86323808Y70514288D02*
X86371432Y70466664D01*
D10*
X86800000Y70466664D02*
X86657144Y70466664D01*
D10*
X86942856Y70419048D02*
X86800000Y70466664D01*
D10*
X86990480Y70323808D02*
X86942856Y70419048D01*
D10*
X86990480Y70228568D02*
X86990480Y70323808D01*
D10*
X86942856Y70085712D02*
X86990480Y70228568D01*
D10*
X86800000Y69990480D02*
X86942856Y70085712D01*
D10*
X86657144Y69942856D02*
X86800000Y69990480D01*
D10*
X86514288Y69942856D02*
X86657144Y69942856D01*
D10*
X86419048Y69990480D02*
X86514288Y69942856D01*
D10*
X86371432Y70038096D02*
X86419048Y69990480D01*
D10*
X86323808Y70133336D02*
X86371432Y70038096D01*
D10*
X86323808Y70228568D02*
X86323808Y70133336D01*
D10*
X86371432Y70323808D02*
X86323808Y70228568D01*
D10*
X86514288Y70419048D02*
X86371432Y70323808D01*
D10*
X86657144Y70466664D02*
X86514288Y70419048D01*
D10*
X86942856Y70133336D02*
X86990480Y70228568D01*
D10*
X86800000Y70038096D02*
X86942856Y70133336D01*
D10*
X86657144Y69990480D02*
X86800000Y70038096D01*
D10*
X86466664Y69990480D02*
X86657144Y69990480D01*
D10*
X86371432Y70038096D02*
X86466664Y69990480D01*
D10*
X86847616Y71466664D02*
X86895240Y71466664D01*
D10*
X86847616Y71514288D02*
X86847616Y71466664D01*
D10*
X86895240Y71514288D02*
X86847616Y71514288D01*
D10*
X86942856Y71466664D02*
X86895240Y71514288D01*
D10*
X86990480Y71323808D02*
X86942856Y71466664D01*
D10*
X86990480Y71180952D02*
X86990480Y71323808D01*
D10*
X86942856Y71038096D02*
X86990480Y71180952D01*
D10*
X86895240Y70990480D02*
X86942856Y71038096D01*
D10*
X86800000Y70990480D02*
X86895240Y70990480D01*
D10*
X86752384Y71038096D02*
X86800000Y70990480D01*
D10*
X86561904Y71371432D02*
X86752384Y71038096D01*
D10*
X86514288Y71419048D02*
X86561904Y71371432D01*
D10*
X86800000Y71038096D02*
X86847616Y70990480D01*
D10*
X86609520Y71371432D02*
X86800000Y71038096D01*
D10*
X86561904Y71419048D02*
X86609520Y71371432D01*
D10*
X86419048Y71419048D02*
X86561904Y71419048D01*
D10*
X86371432Y71371432D02*
X86419048Y71419048D01*
D10*
X86323808Y71228568D02*
X86371432Y71371432D01*
D10*
X86323808Y71085712D02*
X86323808Y71228568D01*
D10*
X86371432Y70942856D02*
X86323808Y71085712D01*
D10*
X86419048Y70895240D02*
X86371432Y70942856D01*
D10*
X86466664Y70895240D02*
X86419048Y70895240D01*
D10*
X86466664Y70942856D02*
X86466664Y70895240D01*
D10*
X86419048Y70942856D02*
X86466664Y70942856D01*
D10*
X86323808Y72133336D02*
X87323808Y72419048D01*
D10*
X86323808Y72180952D02*
X87323808Y72466664D01*
D10*
X86704760Y72276192D02*
X87323808Y73085712D01*
D10*
X86323808Y72800000D02*
X86895240Y72609520D01*
D10*
X86323808Y72752384D02*
X86895240Y72561904D01*
D10*
X87323808Y72609520D02*
X87323808Y72276192D01*
D10*
X87323808Y73180952D02*
X87323808Y72895240D01*
D10*
X86323808Y72323808D02*
X86323808Y71990480D01*
D10*
X86323808Y72895240D02*
X86323808Y72609520D01*
D10*
X86371432Y73276192D02*
X86419048Y73323808D01*
D10*
X86323808Y73323808D02*
X86371432Y73276192D01*
D10*
X86371432Y73371432D02*
X86323808Y73323808D01*
D10*
X86419048Y73323808D02*
X86371432Y73371432D01*
D10*
X85395240Y66895240D02*
X85300000Y66847620D01*
D10*
X85490480Y66990476D02*
X85395240Y66895240D01*
D10*
X85490480Y67133336D02*
X85490480Y66990476D01*
D10*
X85442856Y67180952D02*
X85490480Y67133336D01*
D10*
X85347616Y67180952D02*
X85442856Y67180952D01*
D10*
X85157144Y67133336D02*
X85347616Y67180952D01*
D10*
X84823808Y67038096D02*
X85157144Y67133336D01*
D10*
X85442856Y67133336D02*
X85490480Y67085716D01*
D10*
X85347616Y67133336D02*
X85442856Y67133336D01*
D10*
X85157144Y67085716D02*
X85347616Y67133336D01*
D10*
X84823808Y66990476D02*
X85157144Y67085716D01*
D10*
X85347616Y67228568D02*
X85157144Y67133336D01*
D10*
X85442856Y67323808D02*
X85347616Y67228568D01*
D10*
X85490480Y67419048D02*
X85442856Y67323808D01*
D10*
X85490480Y67514288D02*
X85490480Y67419048D01*
D10*
X85442856Y67561904D02*
X85490480Y67514288D01*
D10*
X85395240Y67561904D02*
X85442856Y67561904D01*
D10*
X85347616Y67514288D02*
X85395240Y67561904D01*
D10*
X85395240Y67466664D02*
X85347616Y67514288D01*
D10*
X85442856Y67514288D02*
X85395240Y67466664D01*
D10*
X85109520Y67990480D02*
X85061904Y67800000D01*
D10*
X85157144Y68133336D02*
X85109520Y67990480D01*
D10*
X85252384Y68276192D02*
X85157144Y68133336D01*
D10*
X85347616Y68323808D02*
X85252384Y68276192D01*
D10*
X85442856Y68276192D02*
X85347616Y68323808D01*
D10*
X85490480Y68180952D02*
X85442856Y68276192D01*
D10*
X85490480Y68038096D02*
X85490480Y68180952D01*
D10*
X85442856Y67895240D02*
X85490480Y68038096D01*
D10*
X85300000Y67800000D02*
X85442856Y67895240D01*
D10*
X85157144Y67752384D02*
X85300000Y67800000D01*
D10*
X85014288Y67752384D02*
X85157144Y67752384D01*
D10*
X84919048Y67800000D02*
X85014288Y67752384D01*
D10*
X84871432Y67847616D02*
X84919048Y67800000D01*
D10*
X84823808Y67942856D02*
X84871432Y67847616D01*
D10*
X84823808Y68038096D02*
X84823808Y67942856D01*
D10*
X84871432Y68180952D02*
X84823808Y68038096D01*
D10*
X84966664Y68276192D02*
X84871432Y68180952D01*
D10*
X85442856Y67942856D02*
X85490480Y68038096D01*
D10*
X85300000Y67847616D02*
X85442856Y67942856D01*
D10*
X85157144Y67800000D02*
X85300000Y67847616D01*
D10*
X84966664Y67800000D02*
X85157144Y67800000D01*
D10*
X84871432Y67847616D02*
X84966664Y67800000D01*
D10*
X85395240Y68561904D02*
X85300000Y68514288D01*
D10*
X85490480Y68657144D02*
X85395240Y68561904D01*
D10*
X85490480Y68800000D02*
X85490480Y68657144D01*
D10*
X85442856Y68847616D02*
X85490480Y68800000D01*
D10*
X85300000Y68847616D02*
X85442856Y68847616D01*
D10*
X85014288Y68752384D02*
X85300000Y68847616D01*
D10*
X84919048Y68752384D02*
X85014288Y68752384D01*
D10*
X84823808Y68847616D02*
X84919048Y68752384D01*
D10*
X85442856Y68800000D02*
X85490480Y68752384D01*
D10*
X85300000Y68800000D02*
X85442856Y68800000D01*
D10*
X85014288Y68704760D02*
X85300000Y68800000D01*
D10*
X84919048Y68704760D02*
X85014288Y68704760D01*
D10*
X84871432Y68752384D02*
X84919048Y68704760D01*
D10*
X84823808Y68847616D02*
X84871432Y68752384D01*
D10*
X84823808Y68895240D02*
X84823808Y68847616D01*
D10*
X84871432Y69038096D02*
X84823808Y68895240D01*
D10*
X84966664Y69133336D02*
X84871432Y69038096D01*
D10*
X85109520Y69228568D02*
X84966664Y69133336D01*
D10*
X85300000Y69276192D02*
X85109520Y69228568D01*
D10*
X85490480Y69276192D02*
X85300000Y69276192D01*
D10*
X85490480Y69228568D02*
X85490480Y69276192D01*
D10*
X85395240Y69276192D02*
X85490480Y69228568D01*
D10*
X84823808Y69752384D02*
X85633336Y69990480D01*
D10*
X84823808Y69800000D02*
X85823808Y70085712D01*
D10*
X85680952Y69942856D02*
X85823808Y70085712D01*
D10*
X85585712Y69800000D02*
X85680952Y69942856D01*
D10*
X85538096Y69704760D02*
X85585712Y69800000D01*
D10*
X85585712Y69847616D02*
X85680952Y70038096D01*
D10*
X85538096Y69704760D02*
X85585712Y69847616D01*
D10*
X84085712Y67180952D02*
X84133336Y67133336D01*
D10*
X84038096Y67133336D02*
X84085712Y67180952D01*
D10*
X84085712Y67085716D02*
X84038096Y67133336D01*
D10*
X84133336Y67085716D02*
X84085712Y67085716D01*
D10*
X84228568Y67133336D02*
X84133336Y67085716D01*
D10*
X84276192Y67180952D02*
X84228568Y67133336D01*
D10*
X84323808Y67323808D02*
X84276192Y67180952D01*
D10*
X84323808Y67466664D02*
X84323808Y67323808D01*
D10*
X84276192Y67609520D02*
X84323808Y67466664D01*
D10*
X84180952Y67657144D02*
X84276192Y67609520D01*
D10*
X84085712Y67657144D02*
X84180952Y67657144D01*
D10*
X83990480Y67609520D02*
X84085712Y67657144D01*
D10*
X83895240Y67514288D02*
X83990480Y67609520D01*
D10*
X83800000Y67371432D02*
X83895240Y67514288D01*
D10*
X83704760Y67180952D02*
X83800000Y67371432D01*
D10*
X83609520Y67038096D02*
X83704760Y67180952D01*
D10*
X83514288Y66942856D02*
X83609520Y67038096D01*
D10*
X83323808Y66847620D02*
X83514288Y66942856D01*
D10*
X84276192Y67561904D02*
X84323808Y67466664D01*
D10*
X84180952Y67609520D02*
X84276192Y67561904D01*
D10*
X84085712Y67609520D02*
X84180952Y67609520D01*
D10*
X83990480Y67561904D02*
X84085712Y67609520D01*
D10*
X83895240Y67466664D02*
X83990480Y67561904D01*
D10*
X83704760Y67180952D02*
X83895240Y67466664D01*
D10*
X83466664Y66942856D02*
X83419048Y66895240D01*
D10*
X83466664Y67038096D02*
X83466664Y66942856D01*
D10*
X83371432Y67276192D02*
X83466664Y67038096D01*
D10*
X83371432Y67419048D02*
X83371432Y67276192D01*
D10*
X83419048Y67514288D02*
X83371432Y67419048D01*
D10*
X83514288Y67561904D02*
X83419048Y67514288D01*
D10*
X83323808Y67276192D02*
X83466664Y67038096D01*
D10*
X83323808Y67419048D02*
X83323808Y67276192D01*
D10*
X83371432Y67514288D02*
X83323808Y67419048D01*
D10*
X83514288Y67561904D02*
X83371432Y67514288D01*
D10*
X84276192Y68228568D02*
X84323808Y68371432D01*
D10*
X84180952Y68133336D02*
X84276192Y68228568D01*
D10*
X84038096Y68038096D02*
X84180952Y68133336D01*
D10*
X83895240Y67990480D02*
X84038096Y68038096D01*
D10*
X83704760Y67942856D02*
X83895240Y67990480D01*
D10*
X83561904Y67942856D02*
X83704760Y67942856D01*
D10*
X83419048Y67990480D02*
X83561904Y67942856D01*
D10*
X83371432Y68038096D02*
X83419048Y67990480D01*
D10*
X83323808Y68133336D02*
X83371432Y68038096D01*
D10*
X83323808Y68228568D02*
X83323808Y68133336D01*
D10*
X83371432Y68371432D02*
X83323808Y68228568D01*
D10*
X83466664Y68466664D02*
X83371432Y68371432D01*
D10*
X83609520Y68561904D02*
X83466664Y68466664D01*
D10*
X83752384Y68609520D02*
X83609520Y68561904D01*
D10*
X83942856Y68657144D02*
X83752384Y68609520D01*
D10*
X84085712Y68657144D02*
X83942856Y68657144D01*
D10*
X84228568Y68609520D02*
X84085712Y68657144D01*
D10*
X84276192Y68561904D02*
X84228568Y68609520D01*
D10*
X84323808Y68466664D02*
X84276192Y68561904D01*
D10*
X84323808Y68371432D02*
X84323808Y68466664D01*
D10*
X84276192Y68276192D02*
X84323808Y68371432D01*
D10*
X84180952Y68180952D02*
X84276192Y68276192D01*
D10*
X84038096Y68085712D02*
X84180952Y68180952D01*
D10*
X83895240Y68038096D02*
X84038096Y68085712D01*
D10*
X83704760Y67990480D02*
X83895240Y68038096D01*
D10*
X83561904Y67990480D02*
X83704760Y67990480D01*
D10*
X83419048Y68038096D02*
X83561904Y67990480D01*
D10*
X83323808Y68133336D02*
X83419048Y68038096D01*
D10*
X83371432Y68323808D02*
X83323808Y68228568D01*
D10*
X83466664Y68419048D02*
X83371432Y68323808D01*
D10*
X83609520Y68514288D02*
X83466664Y68419048D01*
D10*
X83752384Y68561904D02*
X83609520Y68514288D01*
D10*
X83942856Y68609520D02*
X83752384Y68561904D01*
D10*
X84085712Y68609520D02*
X83942856Y68609520D01*
D10*
X84228568Y68561904D02*
X84085712Y68609520D01*
D10*
X84323808Y68466664D02*
X84228568Y68561904D01*
D10*
X84085712Y69180952D02*
X84133336Y69133336D01*
D10*
X84038096Y69133336D02*
X84085712Y69180952D01*
D10*
X84085712Y69085712D02*
X84038096Y69133336D01*
D10*
X84133336Y69085712D02*
X84085712Y69085712D01*
D10*
X84228568Y69133336D02*
X84133336Y69085712D01*
D10*
X84276192Y69180952D02*
X84228568Y69133336D01*
D10*
X84323808Y69323808D02*
X84276192Y69180952D01*
D10*
X84323808Y69466664D02*
X84323808Y69323808D01*
D10*
X84276192Y69609520D02*
X84323808Y69466664D01*
D10*
X84180952Y69657144D02*
X84276192Y69609520D01*
D10*
X84085712Y69657144D02*
X84180952Y69657144D01*
D10*
X83990480Y69609520D02*
X84085712Y69657144D01*
D10*
X83895240Y69514288D02*
X83990480Y69609520D01*
D10*
X83800000Y69371432D02*
X83895240Y69514288D01*
D10*
X83704760Y69180952D02*
X83800000Y69371432D01*
D10*
X83609520Y69038096D02*
X83704760Y69180952D01*
D10*
X83514288Y68942856D02*
X83609520Y69038096D01*
D10*
X83323808Y68847616D02*
X83514288Y68942856D01*
D10*
X84276192Y69561904D02*
X84323808Y69466664D01*
D10*
X84180952Y69609520D02*
X84276192Y69561904D01*
D10*
X84085712Y69609520D02*
X84180952Y69609520D01*
D10*
X83990480Y69561904D02*
X84085712Y69609520D01*
D10*
X83895240Y69466664D02*
X83990480Y69561904D01*
D10*
X83704760Y69180952D02*
X83895240Y69466664D01*
D10*
X83466664Y68942856D02*
X83419048Y68895240D01*
D10*
X83466664Y69038096D02*
X83466664Y68942856D01*
D10*
X83371432Y69276192D02*
X83466664Y69038096D01*
D10*
X83371432Y69419048D02*
X83371432Y69276192D01*
D10*
X83419048Y69514288D02*
X83371432Y69419048D01*
D10*
X83514288Y69561904D02*
X83419048Y69514288D01*
D10*
X83323808Y69276192D02*
X83466664Y69038096D01*
D10*
X83323808Y69419048D02*
X83323808Y69276192D01*
D10*
X83371432Y69514288D02*
X83323808Y69419048D01*
D10*
X83514288Y69561904D02*
X83371432Y69514288D01*
D10*
X83323808Y70276192D02*
X84276192Y70561904D01*
D10*
X83323808Y70323808D02*
X84323808Y70609520D01*
D10*
X83609520Y69895240D02*
X84323808Y70609520D01*
D10*
X83609520Y70657144D02*
X83609520Y69895240D01*
D10*
X83752384Y71847616D02*
X83752384Y70990480D01*
D10*
X84276192Y72466664D02*
X84323808Y72609520D01*
D10*
X84180952Y72371432D02*
X84276192Y72466664D01*
D10*
X84038096Y72276192D02*
X84180952Y72371432D01*
D10*
X83895240Y72228568D02*
X84038096Y72276192D01*
D10*
X83704760Y72180952D02*
X83895240Y72228568D01*
D10*
X83561904Y72180952D02*
X83704760Y72180952D01*
D10*
X83419048Y72228568D02*
X83561904Y72180952D01*
D10*
X83371432Y72276192D02*
X83419048Y72228568D01*
D10*
X83323808Y72371432D02*
X83371432Y72276192D01*
D10*
X83323808Y72466664D02*
X83323808Y72371432D01*
D10*
X83371432Y72609520D02*
X83323808Y72466664D01*
D10*
X83466664Y72704760D02*
X83371432Y72609520D01*
D10*
X83609520Y72800000D02*
X83466664Y72704760D01*
D10*
X83752384Y72847616D02*
X83609520Y72800000D01*
D10*
X83942856Y72895240D02*
X83752384Y72847616D01*
D10*
X84085712Y72895240D02*
X83942856Y72895240D01*
D10*
X84228568Y72847616D02*
X84085712Y72895240D01*
D10*
X84276192Y72800000D02*
X84228568Y72847616D01*
D10*
X84323808Y72704760D02*
X84276192Y72800000D01*
D10*
X84323808Y72609520D02*
X84323808Y72704760D01*
D10*
X84276192Y72514288D02*
X84323808Y72609520D01*
D10*
X84180952Y72419048D02*
X84276192Y72514288D01*
D10*
X84038096Y72323808D02*
X84180952Y72419048D01*
D10*
X83895240Y72276192D02*
X84038096Y72323808D01*
D10*
X83704760Y72228568D02*
X83895240Y72276192D01*
D10*
X83561904Y72228568D02*
X83704760Y72228568D01*
D10*
X83419048Y72276192D02*
X83561904Y72228568D01*
D10*
X83323808Y72371432D02*
X83419048Y72276192D01*
D10*
X83371432Y72561904D02*
X83323808Y72466664D01*
D10*
X83466664Y72657144D02*
X83371432Y72561904D01*
D10*
X83609520Y72752384D02*
X83466664Y72657144D01*
D10*
X83752384Y72800000D02*
X83609520Y72752384D01*
D10*
X83942856Y72847616D02*
X83752384Y72800000D01*
D10*
X84085712Y72847616D02*
X83942856Y72847616D01*
D10*
X84228568Y72800000D02*
X84085712Y72847616D01*
D10*
X84323808Y72704760D02*
X84228568Y72800000D01*
D10*
X83323808Y73514288D02*
X84276192Y73800000D01*
D10*
X83323808Y73561904D02*
X84323808Y73847616D01*
D10*
X83609520Y73133336D02*
X84323808Y73847616D01*
D10*
X83609520Y73895240D02*
X83609520Y73133336D01*
D10*
X83752384Y75085712D02*
X83752384Y74228568D01*
D10*
X84085712Y75657144D02*
X84133336Y75609520D01*
D10*
X84038096Y75609520D02*
X84085712Y75657144D01*
D10*
X84085712Y75561904D02*
X84038096Y75609520D01*
D10*
X84133336Y75561904D02*
X84085712Y75561904D01*
D10*
X84228568Y75609520D02*
X84133336Y75561904D01*
D10*
X84276192Y75657144D02*
X84228568Y75609520D01*
D10*
X84323808Y75800000D02*
X84276192Y75657144D01*
D10*
X84323808Y75942856D02*
X84323808Y75800000D01*
D10*
X84276192Y76085712D02*
X84323808Y75942856D01*
D10*
X84180952Y76133336D02*
X84276192Y76085712D01*
D10*
X84085712Y76133336D02*
X84180952Y76133336D01*
D10*
X83990480Y76085712D02*
X84085712Y76133336D01*
D10*
X83895240Y75990480D02*
X83990480Y76085712D01*
D10*
X83800000Y75847616D02*
X83895240Y75990480D01*
D10*
X83704760Y75657144D02*
X83800000Y75847616D01*
D10*
X83609520Y75514288D02*
X83704760Y75657144D01*
D10*
X83514288Y75419048D02*
X83609520Y75514288D01*
D10*
X83323808Y75323808D02*
X83514288Y75419048D01*
D10*
X84276192Y76038096D02*
X84323808Y75942856D01*
D10*
X84180952Y76085712D02*
X84276192Y76038096D01*
D10*
X84085712Y76085712D02*
X84180952Y76085712D01*
D10*
X83990480Y76038096D02*
X84085712Y76085712D01*
D10*
X83895240Y75942856D02*
X83990480Y76038096D01*
D10*
X83704760Y75657144D02*
X83895240Y75942856D01*
D10*
X83466664Y75419048D02*
X83419048Y75371424D01*
D10*
X83466664Y75514288D02*
X83466664Y75419048D01*
D10*
X83371432Y75752384D02*
X83466664Y75514288D01*
D10*
X83371432Y75895240D02*
X83371432Y75752384D01*
D10*
X83419048Y75990480D02*
X83371432Y75895240D01*
D10*
X83514288Y76038096D02*
X83419048Y75990480D01*
D10*
X83323808Y75752384D02*
X83466664Y75514288D01*
D10*
X83323808Y75895240D02*
X83323808Y75752384D01*
D10*
X83371432Y75990480D02*
X83323808Y75895240D01*
D10*
X83514288Y76038096D02*
X83371432Y75990480D01*
D10*
X83323808Y76609520D02*
X84133336Y76847616D01*
D10*
X83323808Y76657144D02*
X84323808Y76942856D01*
D10*
X84180952Y76800000D02*
X84323808Y76942856D01*
D10*
X84085712Y76657144D02*
X84180952Y76800000D01*
D10*
X84038096Y76561904D02*
X84085712Y76657144D01*
D10*
X84085712Y76704760D02*
X84180952Y76895240D01*
D10*
X84038096Y76561904D02*
X84085712Y76704760D01*
D10*
X59142856Y13576190D02*
X59428572Y12576190D01*
D10*
X59190476Y13576190D02*
X59476192Y12576190D01*
D10*
X59619048Y12576190D02*
X59285716Y12576190D01*
D10*
X59714284Y13576190D02*
X59000000Y13576190D01*
D10*
X59809524Y13290476D02*
X59714284Y13576190D01*
D10*
X59666668Y13576190D02*
X59809524Y13290476D01*
D10*
X60047620Y13004762D02*
X60000000Y13100000D01*
D10*
X60142856Y12909524D02*
X60047620Y13004762D01*
D10*
X60285716Y12909524D02*
X60142856Y12909524D01*
D10*
X60333332Y12957143D02*
X60285716Y12909524D01*
D10*
X60333332Y13100000D02*
X60333332Y12957143D01*
D10*
X60238096Y13385714D02*
X60333332Y13100000D01*
D10*
X60238096Y13480952D02*
X60238096Y13385714D01*
D10*
X60333332Y13576190D02*
X60238096Y13480952D01*
D10*
X60285716Y12957143D02*
X60238096Y12909524D01*
D10*
X60285716Y13100000D02*
X60285716Y12957143D01*
D10*
X60190476Y13385714D02*
X60285716Y13100000D01*
D10*
X60190476Y13480952D02*
X60190476Y13385714D01*
D10*
X60238096Y13528571D02*
X60190476Y13480952D01*
D10*
X60333332Y13576190D02*
X60238096Y13528571D01*
D10*
X60428572Y13576190D02*
X60333332Y13576190D01*
D10*
X60523808Y13528571D02*
X60428572Y13576190D01*
D10*
X60619048Y13433333D02*
X60523808Y13528571D01*
D10*
X60714284Y13242857D02*
X60619048Y13433333D01*
D10*
X60714284Y13242857D02*
X60809524Y12909524D01*
D10*
X60666668Y13433333D02*
X60714284Y13242857D01*
D10*
X60666668Y13528571D02*
X60666668Y13433333D01*
D10*
X60714284Y13576190D02*
X60666668Y13528571D01*
D10*
X60857144Y13576190D02*
X60714284Y13576190D01*
D10*
X60952380Y13480952D02*
X60857144Y13576190D01*
D10*
X61000000Y13385714D02*
X60952380Y13480952D01*
D10*
X60761904Y13242857D02*
X60857144Y12909524D01*
D10*
X60714284Y13433333D02*
X60761904Y13242857D01*
D10*
X60714284Y13528571D02*
X60714284Y13433333D01*
D10*
X60761904Y13576190D02*
X60714284Y13528571D01*
D10*
X61142856Y13576190D02*
X61428572Y12576190D01*
D10*
X61190476Y13576190D02*
X61476192Y12576190D01*
D10*
X61761904Y13004762D02*
X61809524Y12957143D01*
D10*
X61809524Y13052381D02*
X61761904Y13004762D01*
D10*
X61857144Y13004762D02*
X61809524Y13052381D01*
D10*
X61857144Y12957143D02*
X61857144Y13004762D01*
D10*
X61809524Y12909524D02*
X61857144Y12957143D01*
D10*
X61761904Y12909524D02*
X61809524Y12909524D01*
D10*
X61666668Y12957143D02*
X61761904Y12909524D01*
D10*
X61476192Y13147619D02*
X61666668Y12957143D01*
D10*
X61380952Y13195238D02*
X61476192Y13147619D01*
D10*
X61285716Y13195238D02*
X61380952Y13195238D01*
D10*
X61476192Y13242857D02*
X61380952Y13195238D01*
D10*
X61571428Y13528571D02*
X61476192Y13242857D01*
D10*
X61619048Y13576190D02*
X61571428Y13528571D01*
D10*
X61428572Y13242857D02*
X61380952Y13195238D01*
D10*
X61523808Y13528571D02*
X61428572Y13242857D01*
D10*
X61571428Y13576190D02*
X61523808Y13528571D01*
D10*
X61666668Y13576190D02*
X61571428Y13576190D01*
D10*
X61761904Y13528571D02*
X61666668Y13576190D01*
D10*
X61857144Y13385714D02*
X61761904Y13528571D01*
D10*
X61476192Y12576190D02*
X61285716Y12576190D01*
D10*
X62666668Y13242857D02*
X62761904Y12909524D01*
D10*
X62619048Y13433333D02*
X62666668Y13242857D01*
D10*
X62619048Y13528571D02*
X62619048Y13433333D01*
D10*
X62666668Y13576190D02*
X62619048Y13528571D01*
D10*
X62809524Y13576190D02*
X62666668Y13576190D01*
D10*
X62904760Y13480952D02*
X62809524Y13576190D01*
D10*
X62952380Y13385714D02*
X62904760Y13480952D01*
D10*
X62714284Y13242857D02*
X62809524Y12909524D01*
D10*
X62666668Y13433333D02*
X62714284Y13242857D01*
D10*
X62666668Y13528571D02*
X62666668Y13433333D01*
D10*
X62714284Y13576190D02*
X62666668Y13528571D01*
D10*
X62666668Y13100000D02*
X62666668Y13242857D01*
D10*
X62619048Y12957143D02*
X62666668Y13100000D01*
D10*
X62523808Y12909524D02*
X62619048Y12957143D01*
D10*
X62428572Y12909524D02*
X62523808Y12909524D01*
D10*
X62285716Y12957143D02*
X62428572Y12909524D01*
D10*
X62190476Y13100000D02*
X62285716Y12957143D01*
D10*
X62142856Y13242857D02*
X62190476Y13100000D01*
D10*
X62142856Y13385714D02*
X62142856Y13242857D01*
D10*
X62190476Y13480952D02*
X62142856Y13385714D01*
D10*
X62238096Y13528571D02*
X62190476Y13480952D01*
D10*
X62333332Y13576190D02*
X62238096Y13528571D01*
D10*
X62428572Y13576190D02*
X62333332Y13576190D01*
D10*
X62523808Y13528571D02*
X62428572Y13576190D01*
D10*
X62619048Y13385714D02*
X62523808Y13528571D01*
D10*
X62666668Y13242857D02*
X62619048Y13385714D01*
D10*
X62333332Y12957143D02*
X62428572Y12909524D01*
D10*
X62238096Y13100000D02*
X62333332Y12957143D01*
D10*
X62190476Y13242857D02*
X62238096Y13100000D01*
D10*
X62190476Y13433333D02*
X62190476Y13242857D01*
D10*
X62238096Y13528571D02*
X62190476Y13433333D01*
D10*
X63666668Y13052381D02*
X63666668Y13004762D01*
D10*
X63714284Y13052381D02*
X63666668Y13052381D01*
D10*
X63714284Y13004762D02*
X63714284Y13052381D01*
D10*
X63666668Y12957143D02*
X63714284Y13004762D01*
D10*
X63523808Y12909524D02*
X63666668Y12957143D01*
D10*
X63380952Y12909524D02*
X63523808Y12909524D01*
D10*
X63238096Y12957143D02*
X63380952Y12909524D01*
D10*
X63190476Y13004762D02*
X63238096Y12957143D01*
D10*
X63190476Y13100000D02*
X63190476Y13004762D01*
D10*
X63238096Y13147619D02*
X63190476Y13100000D01*
D10*
X63571428Y13338095D02*
X63238096Y13147619D01*
D10*
X63619048Y13385714D02*
X63571428Y13338095D01*
D10*
X63238096Y13100000D02*
X63190476Y13052381D01*
D10*
X63571428Y13290476D02*
X63238096Y13100000D01*
D10*
X63619048Y13338095D02*
X63571428Y13290476D01*
D10*
X63619048Y13480952D02*
X63619048Y13338095D01*
D10*
X63571428Y13528571D02*
X63619048Y13480952D01*
D10*
X63428572Y13576190D02*
X63571428Y13528571D01*
D10*
X63285712Y13576190D02*
X63428572Y13576190D01*
D10*
X63142856Y13528571D02*
X63285712Y13576190D01*
D10*
X63095240Y13480952D02*
X63142856Y13528571D01*
D10*
X63095240Y13433333D02*
X63095240Y13480952D01*
D10*
X63142856Y13433333D02*
X63095240Y13433333D01*
D10*
X63142856Y13480952D02*
X63142856Y13433333D01*
D10*
X64333332Y13576190D02*
X64619048Y12576190D01*
D10*
X64380952Y13576190D02*
X64666668Y12576190D01*
D10*
X64476192Y13195238D02*
X65285712Y12576190D01*
D10*
X65000000Y13576190D02*
X64809524Y13004762D01*
D10*
X64952380Y13576190D02*
X64761904Y13004762D01*
D10*
X64809524Y12576190D02*
X64476192Y12576190D01*
D10*
X65380952Y12576190D02*
X65095240Y12576190D01*
D10*
X64523808Y13576190D02*
X64190476Y13576190D01*
D10*
X65095240Y13576190D02*
X64809524Y13576190D01*
D10*
X65476192Y13528571D02*
X65523808Y13480952D01*
D10*
X65523808Y13576190D02*
X65476192Y13528571D01*
D10*
X65571428Y13528571D02*
X65523808Y13576190D01*
D10*
X65523808Y13480952D02*
X65571428Y13528571D01*
D10*
X59095240Y14504762D02*
X59047620Y14600000D01*
D10*
X59190476Y14409524D02*
X59095240Y14504762D01*
D10*
X59333332Y14409524D02*
X59190476Y14409524D01*
D10*
X59380952Y14457143D02*
X59333332Y14409524D01*
D10*
X59380952Y14552381D02*
X59380952Y14457143D01*
D10*
X59333332Y14742857D02*
X59380952Y14552381D01*
D10*
X59238096Y15076190D02*
X59333332Y14742857D01*
D10*
X59333332Y14457143D02*
X59285716Y14409524D01*
D10*
X59333332Y14552381D02*
X59333332Y14457143D01*
D10*
X59285716Y14742857D02*
X59333332Y14552381D01*
D10*
X59190476Y15076190D02*
X59285716Y14742857D01*
D10*
X59428572Y14552381D02*
X59333332Y14742857D01*
D10*
X59523808Y14457143D02*
X59428572Y14552381D01*
D10*
X59619048Y14409524D02*
X59523808Y14457143D01*
D10*
X59714284Y14409524D02*
X59619048Y14409524D01*
D10*
X59761904Y14457143D02*
X59714284Y14409524D01*
D10*
X59761904Y14504762D02*
X59761904Y14457143D01*
D10*
X59714284Y14552381D02*
X59761904Y14504762D01*
D10*
X59666668Y14504762D02*
X59714284Y14552381D01*
D10*
X59714284Y14457143D02*
X59666668Y14504762D01*
D10*
X60190476Y14790476D02*
X60000000Y14838095D01*
D10*
X60333332Y14742857D02*
X60190476Y14790476D01*
D10*
X60476192Y14647619D02*
X60333332Y14742857D01*
D10*
X60523808Y14552381D02*
X60476192Y14647619D01*
D10*
X60476192Y14457143D02*
X60523808Y14552381D01*
D10*
X60380952Y14409524D02*
X60476192Y14457143D01*
D10*
X60238096Y14409524D02*
X60380952Y14409524D01*
D10*
X60095240Y14457143D02*
X60238096Y14409524D01*
D10*
X60000000Y14600000D02*
X60095240Y14457143D01*
D10*
X59952380Y14742857D02*
X60000000Y14600000D01*
D10*
X59952380Y14885714D02*
X59952380Y14742857D01*
D10*
X60000000Y14980952D02*
X59952380Y14885714D01*
D10*
X60047620Y15028571D02*
X60000000Y14980952D01*
D10*
X60142856Y15076190D02*
X60047620Y15028571D01*
D10*
X60238096Y15076190D02*
X60142856Y15076190D01*
D10*
X60380952Y15028571D02*
X60238096Y15076190D01*
D10*
X60476192Y14933333D02*
X60380952Y15028571D01*
D10*
X60142856Y14457143D02*
X60238096Y14409524D01*
D10*
X60047620Y14600000D02*
X60142856Y14457143D01*
D10*
X60000000Y14742857D02*
X60047620Y14600000D01*
D10*
X60000000Y14933333D02*
X60000000Y14742857D01*
D10*
X60047620Y15028571D02*
X60000000Y14933333D01*
D10*
X60761904Y14504762D02*
X60714284Y14600000D01*
D10*
X60857144Y14409524D02*
X60761904Y14504762D01*
D10*
X61000000Y14409524D02*
X60857144Y14409524D01*
D10*
X61047620Y14457143D02*
X61000000Y14409524D01*
D10*
X61047620Y14600000D02*
X61047620Y14457143D01*
D10*
X60952380Y14885714D02*
X61047620Y14600000D01*
D10*
X60952380Y14980952D02*
X60952380Y14885714D01*
D10*
X61047620Y15076190D02*
X60952380Y14980952D01*
D10*
X61000000Y14457143D02*
X60952380Y14409524D01*
D10*
X61000000Y14600000D02*
X61000000Y14457143D01*
D10*
X60904760Y14885714D02*
X61000000Y14600000D01*
D10*
X60904760Y14980952D02*
X60904760Y14885714D01*
D10*
X60952380Y15028571D02*
X60904760Y14980952D01*
D10*
X61047620Y15076190D02*
X60952380Y15028571D01*
D10*
X61095240Y15076190D02*
X61047620Y15076190D01*
D10*
X61238096Y15028571D02*
X61095240Y15076190D01*
D10*
X61333332Y14933333D02*
X61238096Y15028571D01*
D10*
X61428572Y14790476D02*
X61333332Y14933333D01*
D10*
X61476192Y14600000D02*
X61428572Y14790476D01*
D10*
X61476192Y14409524D02*
X61476192Y14600000D01*
D10*
X61428572Y14409524D02*
X61476192Y14409524D01*
D10*
X61476192Y14504762D02*
X61428572Y14409524D01*
D10*
X61952380Y15076190D02*
X62190476Y14266667D01*
D10*
X62000000Y15076190D02*
X62285716Y14076190D01*
D10*
X62142856Y14219048D02*
X62285716Y14076190D01*
D10*
X62000000Y14314286D02*
X62142856Y14219048D01*
D10*
X61904760Y14361905D02*
X62000000Y14314286D01*
D10*
X62047620Y14314286D02*
X62238096Y14219048D01*
D10*
X61904760Y14361905D02*
X62047620Y14314286D01*
D10*
X59380952Y15814286D02*
X59333332Y15766667D01*
D10*
X59333332Y15861905D02*
X59380952Y15814286D01*
D10*
X59285716Y15814286D02*
X59333332Y15861905D01*
D10*
X59285716Y15766667D02*
X59285716Y15814286D01*
D10*
X59333332Y15671429D02*
X59285716Y15766667D01*
D10*
X59380952Y15623810D02*
X59333332Y15671429D01*
D10*
X59523808Y15576190D02*
X59380952Y15623810D01*
D10*
X59666668Y15576190D02*
X59523808Y15576190D01*
D10*
X59809524Y15623810D02*
X59666668Y15576190D01*
D10*
X59857144Y15719048D02*
X59809524Y15623810D01*
D10*
X59857144Y15814286D02*
X59857144Y15719048D01*
D10*
X59809524Y15909524D02*
X59857144Y15814286D01*
D10*
X59714284Y16004762D02*
X59809524Y15909524D01*
D10*
X59571428Y16100000D02*
X59714284Y16004762D01*
D10*
X59380952Y16195238D02*
X59571428Y16100000D01*
D10*
X59238096Y16290476D02*
X59380952Y16195238D01*
D10*
X59142856Y16385714D02*
X59238096Y16290476D01*
D10*
X59047620Y16576190D02*
X59142856Y16385714D01*
D10*
X59761904Y15623810D02*
X59666668Y15576190D01*
D10*
X59809524Y15719048D02*
X59761904Y15623810D01*
D10*
X59809524Y15814286D02*
X59809524Y15719048D01*
D10*
X59761904Y15909524D02*
X59809524Y15814286D01*
D10*
X59666668Y16004762D02*
X59761904Y15909524D01*
D10*
X59380952Y16195238D02*
X59666668Y16004762D01*
D10*
X59142856Y16433333D02*
X59095240Y16480952D01*
D10*
X59238096Y16433333D02*
X59142856Y16433333D01*
D10*
X59476192Y16528571D02*
X59238096Y16433333D01*
D10*
X59619048Y16528571D02*
X59476192Y16528571D01*
D10*
X59714284Y16480952D02*
X59619048Y16528571D01*
D10*
X59761904Y16385714D02*
X59714284Y16480952D01*
D10*
X59476192Y16576190D02*
X59238096Y16433333D01*
D10*
X59619048Y16576190D02*
X59476192Y16576190D01*
D10*
X59714284Y16528571D02*
X59619048Y16576190D01*
D10*
X59761904Y16385714D02*
X59714284Y16528571D01*
D10*
X60428572Y15623810D02*
X60571428Y15576190D01*
D10*
X60333332Y15719048D02*
X60428572Y15623810D01*
D10*
X60238096Y15861905D02*
X60333332Y15719048D01*
D10*
X60190476Y16004762D02*
X60238096Y15861905D01*
D10*
X60142856Y16195238D02*
X60190476Y16004762D01*
D10*
X60142856Y16338095D02*
X60142856Y16195238D01*
D10*
X60190476Y16480952D02*
X60142856Y16338095D01*
D10*
X60238096Y16528571D02*
X60190476Y16480952D01*
D10*
X60333332Y16576190D02*
X60238096Y16528571D01*
D10*
X60428572Y16576190D02*
X60333332Y16576190D01*
D10*
X60571428Y16528571D02*
X60428572Y16576190D01*
D10*
X60666668Y16433333D02*
X60571428Y16528571D01*
D10*
X60761904Y16290476D02*
X60666668Y16433333D01*
D10*
X60809524Y16147619D02*
X60761904Y16290476D01*
D10*
X60857144Y15957143D02*
X60809524Y16147619D01*
D10*
X60857144Y15814286D02*
X60857144Y15957143D01*
D10*
X60809524Y15671429D02*
X60857144Y15814286D01*
D10*
X60761904Y15623810D02*
X60809524Y15671429D01*
D10*
X60666668Y15576190D02*
X60761904Y15623810D01*
D10*
X60571428Y15576190D02*
X60666668Y15576190D01*
D10*
X60476192Y15623810D02*
X60571428Y15576190D01*
D10*
X60380952Y15719048D02*
X60476192Y15623810D01*
D10*
X60285716Y15861905D02*
X60380952Y15719048D01*
D10*
X60238096Y16004762D02*
X60285716Y15861905D01*
D10*
X60190476Y16195238D02*
X60238096Y16004762D01*
D10*
X60190476Y16338095D02*
X60190476Y16195238D01*
D10*
X60238096Y16480952D02*
X60190476Y16338095D01*
D10*
X60333332Y16576190D02*
X60238096Y16480952D01*
D10*
X60523808Y16528571D02*
X60428572Y16576190D01*
D10*
X60619048Y16433333D02*
X60523808Y16528571D01*
D10*
X60714284Y16290476D02*
X60619048Y16433333D01*
D10*
X60761904Y16147619D02*
X60714284Y16290476D01*
D10*
X60809524Y15957143D02*
X60761904Y16147619D01*
D10*
X60809524Y15814286D02*
X60809524Y15957143D01*
D10*
X60761904Y15671429D02*
X60809524Y15814286D01*
D10*
X60666668Y15576190D02*
X60761904Y15671429D01*
D10*
X61380952Y15814286D02*
X61333332Y15766667D01*
D10*
X61333332Y15861905D02*
X61380952Y15814286D01*
D10*
X61285716Y15814286D02*
X61333332Y15861905D01*
D10*
X61285716Y15766667D02*
X61285716Y15814286D01*
D10*
X61333332Y15671429D02*
X61285716Y15766667D01*
D10*
X61380952Y15623810D02*
X61333332Y15671429D01*
D10*
X61523808Y15576190D02*
X61380952Y15623810D01*
D10*
X61666668Y15576190D02*
X61523808Y15576190D01*
D10*
X61809524Y15623810D02*
X61666668Y15576190D01*
D10*
X61857144Y15719048D02*
X61809524Y15623810D01*
D10*
X61857144Y15814286D02*
X61857144Y15719048D01*
D10*
X61809524Y15909524D02*
X61857144Y15814286D01*
D10*
X61714284Y16004762D02*
X61809524Y15909524D01*
D10*
X61571428Y16100000D02*
X61714284Y16004762D01*
D10*
X61380952Y16195238D02*
X61571428Y16100000D01*
D10*
X61238096Y16290476D02*
X61380952Y16195238D01*
D10*
X61142856Y16385714D02*
X61238096Y16290476D01*
D10*
X61047620Y16576190D02*
X61142856Y16385714D01*
D10*
X61761904Y15623810D02*
X61666668Y15576190D01*
D10*
X61809524Y15719048D02*
X61761904Y15623810D01*
D10*
X61809524Y15814286D02*
X61809524Y15719048D01*
D10*
X61761904Y15909524D02*
X61809524Y15814286D01*
D10*
X61666668Y16004762D02*
X61761904Y15909524D01*
D10*
X61380952Y16195238D02*
X61666668Y16004762D01*
D10*
X61142856Y16433333D02*
X61095240Y16480952D01*
D10*
X61238096Y16433333D02*
X61142856Y16433333D01*
D10*
X61476192Y16528571D02*
X61238096Y16433333D01*
D10*
X61619048Y16528571D02*
X61476192Y16528571D01*
D10*
X61714284Y16480952D02*
X61619048Y16528571D01*
D10*
X61761904Y16385714D02*
X61714284Y16480952D01*
D10*
X61476192Y16576190D02*
X61238096Y16433333D01*
D10*
X61619048Y16576190D02*
X61476192Y16576190D01*
D10*
X61714284Y16528571D02*
X61619048Y16576190D01*
D10*
X61761904Y16385714D02*
X61714284Y16528571D01*
D10*
X62476192Y16576190D02*
X62761904Y15623810D01*
D10*
X62523808Y16576190D02*
X62809524Y15576190D01*
D10*
X62095240Y16290476D02*
X62809524Y15576190D01*
D10*
X62857144Y16290476D02*
X62095240Y16290476D01*
D10*
X64047620Y16147619D02*
X63190476Y16147619D01*
D10*
X64666668Y15623810D02*
X64809524Y15576190D01*
D10*
X64571428Y15719048D02*
X64666668Y15623810D01*
D10*
X64476192Y15861905D02*
X64571428Y15719048D01*
D10*
X64428572Y16004762D02*
X64476192Y15861905D01*
D10*
X64380952Y16195238D02*
X64428572Y16004762D01*
D10*
X64380952Y16338095D02*
X64380952Y16195238D01*
D10*
X64428572Y16480952D02*
X64380952Y16338095D01*
D10*
X64476192Y16528571D02*
X64428572Y16480952D01*
D10*
X64571428Y16576190D02*
X64476192Y16528571D01*
D10*
X64666668Y16576190D02*
X64571428Y16576190D01*
D10*
X64809524Y16528571D02*
X64666668Y16576190D01*
D10*
X64904760Y16433333D02*
X64809524Y16528571D01*
D10*
X65000000Y16290476D02*
X64904760Y16433333D01*
D10*
X65047620Y16147619D02*
X65000000Y16290476D01*
D10*
X65095240Y15957143D02*
X65047620Y16147619D01*
D10*
X65095240Y15814286D02*
X65095240Y15957143D01*
D10*
X65047620Y15671429D02*
X65095240Y15814286D01*
D10*
X65000000Y15623810D02*
X65047620Y15671429D01*
D10*
X64904760Y15576190D02*
X65000000Y15623810D01*
D10*
X64809524Y15576190D02*
X64904760Y15576190D01*
D10*
X64714284Y15623810D02*
X64809524Y15576190D01*
D10*
X64619048Y15719048D02*
X64714284Y15623810D01*
D10*
X64523808Y15861905D02*
X64619048Y15719048D01*
D10*
X64476192Y16004762D02*
X64523808Y15861905D01*
D10*
X64428572Y16195238D02*
X64476192Y16004762D01*
D10*
X64428572Y16338095D02*
X64428572Y16195238D01*
D10*
X64476192Y16480952D02*
X64428572Y16338095D01*
D10*
X64571428Y16576190D02*
X64476192Y16480952D01*
D10*
X64761904Y16528571D02*
X64666668Y16576190D01*
D10*
X64857144Y16433333D02*
X64761904Y16528571D01*
D10*
X64952380Y16290476D02*
X64857144Y16433333D01*
D10*
X65000000Y16147619D02*
X64952380Y16290476D01*
D10*
X65047620Y15957143D02*
X65000000Y16147619D01*
D10*
X65047620Y15814286D02*
X65047620Y15957143D01*
D10*
X65000000Y15671429D02*
X65047620Y15814286D01*
D10*
X64904760Y15576190D02*
X65000000Y15671429D01*
D10*
X65714284Y16576190D02*
X66000000Y15623810D01*
D10*
X65761904Y16576190D02*
X66047620Y15576190D01*
D10*
X65333332Y16290476D02*
X66047620Y15576190D01*
D10*
X66095240Y16290476D02*
X65333332Y16290476D01*
D10*
X67285712Y16147619D02*
X66428572Y16147619D01*
D10*
X67857144Y15814286D02*
X67809520Y15766667D01*
D10*
X67809520Y15861905D02*
X67857144Y15814286D01*
D10*
X67761904Y15814286D02*
X67809520Y15861905D01*
D10*
X67761904Y15766667D02*
X67761904Y15814286D01*
D10*
X67809520Y15671429D02*
X67761904Y15766667D01*
D10*
X67857144Y15623810D02*
X67809520Y15671429D01*
D10*
X68000000Y15576190D02*
X67857144Y15623810D01*
D10*
X68142856Y15576190D02*
X68000000Y15576190D01*
D10*
X68285712Y15623810D02*
X68142856Y15576190D01*
D10*
X68333336Y15719048D02*
X68285712Y15623810D01*
D10*
X68333336Y15814286D02*
X68333336Y15719048D01*
D10*
X68285712Y15909524D02*
X68333336Y15814286D01*
D10*
X68190480Y16004762D02*
X68285712Y15909524D01*
D10*
X68047616Y16100000D02*
X68190480Y16004762D01*
D10*
X67857144Y16195238D02*
X68047616Y16100000D01*
D10*
X67714288Y16290476D02*
X67857144Y16195238D01*
D10*
X67619048Y16385714D02*
X67714288Y16290476D01*
D10*
X67523808Y16576190D02*
X67619048Y16385714D01*
D10*
X68238096Y15623810D02*
X68142856Y15576190D01*
D10*
X68285712Y15719048D02*
X68238096Y15623810D01*
D10*
X68285712Y15814286D02*
X68285712Y15719048D01*
D10*
X68238096Y15909524D02*
X68285712Y15814286D01*
D10*
X68142856Y16004762D02*
X68238096Y15909524D01*
D10*
X67857144Y16195238D02*
X68142856Y16004762D01*
D10*
X67619048Y16433333D02*
X67571424Y16480952D01*
D10*
X67714288Y16433333D02*
X67619048Y16433333D01*
D10*
X67952384Y16528571D02*
X67714288Y16433333D01*
D10*
X68095240Y16528571D02*
X67952384Y16528571D01*
D10*
X68190480Y16480952D02*
X68095240Y16528571D01*
D10*
X68238096Y16385714D02*
X68190480Y16480952D01*
D10*
X67952384Y16576190D02*
X67714288Y16433333D01*
D10*
X68095240Y16576190D02*
X67952384Y16576190D01*
D10*
X68190480Y16528571D02*
X68095240Y16576190D01*
D10*
X68238096Y16385714D02*
X68190480Y16528571D01*
D10*
X68809520Y16576190D02*
X69047616Y15766667D01*
D10*
X68857144Y16576190D02*
X69142856Y15576190D01*
D10*
X69000000Y15719048D02*
X69142856Y15576190D01*
D10*
X68857144Y15814286D02*
X69000000Y15719048D01*
D10*
X68761904Y15861905D02*
X68857144Y15814286D01*
D10*
X68904760Y15814286D02*
X69095240Y15719048D01*
D10*
X68761904Y15861905D02*
X68904760Y15814286D01*
D10*
X56942856Y71676192D02*
X57228572Y70676192D01*
D10*
X56990476Y71676192D02*
X57276192Y70676192D01*
D10*
X57419048Y70676192D02*
X57085716Y70676192D01*
D10*
X57514284Y71676192D02*
X56800000Y71676192D01*
D10*
X57609524Y71390480D02*
X57514284Y71676192D01*
D10*
X57466668Y71676192D02*
X57609524Y71390480D01*
D10*
X57847620Y71104760D02*
X57800000Y71200000D01*
D10*
X57942856Y71009520D02*
X57847620Y71104760D01*
D10*
X58085716Y71009520D02*
X57942856Y71009520D01*
D10*
X58133332Y71057144D02*
X58085716Y71009520D01*
D10*
X58133332Y71200000D02*
X58133332Y71057144D01*
D10*
X58038096Y71485712D02*
X58133332Y71200000D01*
D10*
X58038096Y71580952D02*
X58038096Y71485712D01*
D10*
X58133332Y71676192D02*
X58038096Y71580952D01*
D10*
X58085716Y71057144D02*
X58038096Y71009520D01*
D10*
X58085716Y71200000D02*
X58085716Y71057144D01*
D10*
X57990476Y71485712D02*
X58085716Y71200000D01*
D10*
X57990476Y71580952D02*
X57990476Y71485712D01*
D10*
X58038096Y71628568D02*
X57990476Y71580952D01*
D10*
X58133332Y71676192D02*
X58038096Y71628568D01*
D10*
X58228572Y71676192D02*
X58133332Y71676192D01*
D10*
X58323808Y71628568D02*
X58228572Y71676192D01*
D10*
X58419048Y71533336D02*
X58323808Y71628568D01*
D10*
X58514284Y71342856D02*
X58419048Y71533336D01*
D10*
X58514284Y71342856D02*
X58609524Y71009520D01*
D10*
X58466668Y71533336D02*
X58514284Y71342856D01*
D10*
X58466668Y71628568D02*
X58466668Y71533336D01*
D10*
X58514284Y71676192D02*
X58466668Y71628568D01*
D10*
X58657144Y71676192D02*
X58514284Y71676192D01*
D10*
X58752380Y71580952D02*
X58657144Y71676192D01*
D10*
X58800000Y71485712D02*
X58752380Y71580952D01*
D10*
X58561904Y71342856D02*
X58657144Y71009520D01*
D10*
X58514284Y71533336D02*
X58561904Y71342856D01*
D10*
X58514284Y71628568D02*
X58514284Y71533336D01*
D10*
X58561904Y71676192D02*
X58514284Y71628568D01*
D10*
X58942856Y71676192D02*
X59228572Y70676192D01*
D10*
X58990476Y71676192D02*
X59276192Y70676192D01*
D10*
X59561904Y71104760D02*
X59609524Y71057144D01*
D10*
X59609524Y71152384D02*
X59561904Y71104760D01*
D10*
X59657144Y71104760D02*
X59609524Y71152384D01*
D10*
X59657144Y71057144D02*
X59657144Y71104760D01*
D10*
X59609524Y71009520D02*
X59657144Y71057144D01*
D10*
X59561904Y71009520D02*
X59609524Y71009520D01*
D10*
X59466668Y71057144D02*
X59561904Y71009520D01*
D10*
X59276192Y71247616D02*
X59466668Y71057144D01*
D10*
X59180952Y71295240D02*
X59276192Y71247616D01*
D10*
X59085716Y71295240D02*
X59180952Y71295240D01*
D10*
X59276192Y71342856D02*
X59180952Y71295240D01*
D10*
X59371428Y71628568D02*
X59276192Y71342856D01*
D10*
X59419048Y71676192D02*
X59371428Y71628568D01*
D10*
X59228572Y71342856D02*
X59180952Y71295240D01*
D10*
X59323808Y71628568D02*
X59228572Y71342856D01*
D10*
X59371428Y71676192D02*
X59323808Y71628568D01*
D10*
X59466668Y71676192D02*
X59371428Y71676192D01*
D10*
X59561904Y71628568D02*
X59466668Y71676192D01*
D10*
X59657144Y71485712D02*
X59561904Y71628568D01*
D10*
X59276192Y70676192D02*
X59085716Y70676192D01*
D10*
X60466668Y71342856D02*
X60561904Y71009520D01*
D10*
X60419048Y71533336D02*
X60466668Y71342856D01*
D10*
X60419048Y71628568D02*
X60419048Y71533336D01*
D10*
X60466668Y71676192D02*
X60419048Y71628568D01*
D10*
X60609524Y71676192D02*
X60466668Y71676192D01*
D10*
X60704760Y71580952D02*
X60609524Y71676192D01*
D10*
X60752380Y71485712D02*
X60704760Y71580952D01*
D10*
X60514284Y71342856D02*
X60609524Y71009520D01*
D10*
X60466668Y71533336D02*
X60514284Y71342856D01*
D10*
X60466668Y71628568D02*
X60466668Y71533336D01*
D10*
X60514284Y71676192D02*
X60466668Y71628568D01*
D10*
X60466668Y71200000D02*
X60466668Y71342856D01*
D10*
X60419048Y71057144D02*
X60466668Y71200000D01*
D10*
X60323808Y71009520D02*
X60419048Y71057144D01*
D10*
X60228572Y71009520D02*
X60323808Y71009520D01*
D10*
X60085716Y71057144D02*
X60228572Y71009520D01*
D10*
X59990476Y71200000D02*
X60085716Y71057144D01*
D10*
X59942856Y71342856D02*
X59990476Y71200000D01*
D10*
X59942856Y71485712D02*
X59942856Y71342856D01*
D10*
X59990476Y71580952D02*
X59942856Y71485712D01*
D10*
X60038096Y71628568D02*
X59990476Y71580952D01*
D10*
X60133332Y71676192D02*
X60038096Y71628568D01*
D10*
X60228572Y71676192D02*
X60133332Y71676192D01*
D10*
X60323808Y71628568D02*
X60228572Y71676192D01*
D10*
X60419048Y71485712D02*
X60323808Y71628568D01*
D10*
X60466668Y71342856D02*
X60419048Y71485712D01*
D10*
X60133332Y71057144D02*
X60228572Y71009520D01*
D10*
X60038096Y71200000D02*
X60133332Y71057144D01*
D10*
X59990476Y71342856D02*
X60038096Y71200000D01*
D10*
X59990476Y71533336D02*
X59990476Y71342856D01*
D10*
X60038096Y71628568D02*
X59990476Y71533336D01*
D10*
X61466668Y71152384D02*
X61466668Y71104760D01*
D10*
X61514284Y71152384D02*
X61466668Y71152384D01*
D10*
X61514284Y71104760D02*
X61514284Y71152384D01*
D10*
X61466668Y71057144D02*
X61514284Y71104760D01*
D10*
X61323808Y71009520D02*
X61466668Y71057144D01*
D10*
X61180952Y71009520D02*
X61323808Y71009520D01*
D10*
X61038096Y71057144D02*
X61180952Y71009520D01*
D10*
X60990476Y71104760D02*
X61038096Y71057144D01*
D10*
X60990476Y71200000D02*
X60990476Y71104760D01*
D10*
X61038096Y71247616D02*
X60990476Y71200000D01*
D10*
X61371428Y71438096D02*
X61038096Y71247616D01*
D10*
X61419048Y71485712D02*
X61371428Y71438096D01*
D10*
X61038096Y71200000D02*
X60990476Y71152384D01*
D10*
X61371428Y71390480D02*
X61038096Y71200000D01*
D10*
X61419048Y71438096D02*
X61371428Y71390480D01*
D10*
X61419048Y71580952D02*
X61419048Y71438096D01*
D10*
X61371428Y71628568D02*
X61419048Y71580952D01*
D10*
X61228572Y71676192D02*
X61371428Y71628568D01*
D10*
X61085712Y71676192D02*
X61228572Y71676192D01*
D10*
X60942856Y71628568D02*
X61085712Y71676192D01*
D10*
X60895240Y71580952D02*
X60942856Y71628568D01*
D10*
X60895240Y71533336D02*
X60895240Y71580952D01*
D10*
X60942856Y71533336D02*
X60895240Y71533336D01*
D10*
X60942856Y71580952D02*
X60942856Y71533336D01*
D10*
X62133332Y71676192D02*
X62419048Y70676192D01*
D10*
X62180952Y71676192D02*
X62466668Y70676192D01*
D10*
X62276192Y71295240D02*
X63085712Y70676192D01*
D10*
X62800000Y71676192D02*
X62609524Y71104760D01*
D10*
X62752380Y71676192D02*
X62561904Y71104760D01*
D10*
X62609524Y70676192D02*
X62276192Y70676192D01*
D10*
X63180952Y70676192D02*
X62895240Y70676192D01*
D10*
X62323808Y71676192D02*
X61990476Y71676192D01*
D10*
X62895240Y71676192D02*
X62609524Y71676192D01*
D10*
X63276192Y71628568D02*
X63323808Y71580952D01*
D10*
X63323808Y71676192D02*
X63276192Y71628568D01*
D10*
X63371428Y71628568D02*
X63323808Y71676192D01*
D10*
X63323808Y71580952D02*
X63371428Y71628568D01*
D10*
X56895240Y72604760D02*
X56847620Y72700000D01*
D10*
X56990476Y72509520D02*
X56895240Y72604760D01*
D10*
X57133332Y72509520D02*
X56990476Y72509520D01*
D10*
X57180952Y72557144D02*
X57133332Y72509520D01*
D10*
X57180952Y72652384D02*
X57180952Y72557144D01*
D10*
X57133332Y72842856D02*
X57180952Y72652384D01*
D10*
X57038096Y73176192D02*
X57133332Y72842856D01*
D10*
X57133332Y72557144D02*
X57085716Y72509520D01*
D10*
X57133332Y72652384D02*
X57133332Y72557144D01*
D10*
X57085716Y72842856D02*
X57133332Y72652384D01*
D10*
X56990476Y73176192D02*
X57085716Y72842856D01*
D10*
X57228572Y72652384D02*
X57133332Y72842856D01*
D10*
X57323808Y72557144D02*
X57228572Y72652384D01*
D10*
X57419048Y72509520D02*
X57323808Y72557144D01*
D10*
X57514284Y72509520D02*
X57419048Y72509520D01*
D10*
X57561904Y72557144D02*
X57514284Y72509520D01*
D10*
X57561904Y72604760D02*
X57561904Y72557144D01*
D10*
X57514284Y72652384D02*
X57561904Y72604760D01*
D10*
X57466668Y72604760D02*
X57514284Y72652384D01*
D10*
X57514284Y72557144D02*
X57466668Y72604760D01*
D10*
X57990476Y72890480D02*
X57800000Y72938096D01*
D10*
X58133332Y72842856D02*
X57990476Y72890480D01*
D10*
X58276192Y72747616D02*
X58133332Y72842856D01*
D10*
X58323808Y72652384D02*
X58276192Y72747616D01*
D10*
X58276192Y72557144D02*
X58323808Y72652384D01*
D10*
X58180952Y72509520D02*
X58276192Y72557144D01*
D10*
X58038096Y72509520D02*
X58180952Y72509520D01*
D10*
X57895240Y72557144D02*
X58038096Y72509520D01*
D10*
X57800000Y72700000D02*
X57895240Y72557144D01*
D10*
X57752380Y72842856D02*
X57800000Y72700000D01*
D10*
X57752380Y72985712D02*
X57752380Y72842856D01*
D10*
X57800000Y73080952D02*
X57752380Y72985712D01*
D10*
X57847620Y73128568D02*
X57800000Y73080952D01*
D10*
X57942856Y73176192D02*
X57847620Y73128568D01*
D10*
X58038096Y73176192D02*
X57942856Y73176192D01*
D10*
X58180952Y73128568D02*
X58038096Y73176192D01*
D10*
X58276192Y73033336D02*
X58180952Y73128568D01*
D10*
X57942856Y72557144D02*
X58038096Y72509520D01*
D10*
X57847620Y72700000D02*
X57942856Y72557144D01*
D10*
X57800000Y72842856D02*
X57847620Y72700000D01*
D10*
X57800000Y73033336D02*
X57800000Y72842856D01*
D10*
X57847620Y73128568D02*
X57800000Y73033336D01*
D10*
X58561904Y72604760D02*
X58514284Y72700000D01*
D10*
X58657144Y72509520D02*
X58561904Y72604760D01*
D10*
X58800000Y72509520D02*
X58657144Y72509520D01*
D10*
X58847620Y72557144D02*
X58800000Y72509520D01*
D10*
X58847620Y72700000D02*
X58847620Y72557144D01*
D10*
X58752380Y72985712D02*
X58847620Y72700000D01*
D10*
X58752380Y73080952D02*
X58752380Y72985712D01*
D10*
X58847620Y73176192D02*
X58752380Y73080952D01*
D10*
X58800000Y72557144D02*
X58752380Y72509520D01*
D10*
X58800000Y72700000D02*
X58800000Y72557144D01*
D10*
X58704760Y72985712D02*
X58800000Y72700000D01*
D10*
X58704760Y73080952D02*
X58704760Y72985712D01*
D10*
X58752380Y73128568D02*
X58704760Y73080952D01*
D10*
X58847620Y73176192D02*
X58752380Y73128568D01*
D10*
X58895240Y73176192D02*
X58847620Y73176192D01*
D10*
X59038096Y73128568D02*
X58895240Y73176192D01*
D10*
X59133332Y73033336D02*
X59038096Y73128568D01*
D10*
X59228572Y72890480D02*
X59133332Y73033336D01*
D10*
X59276192Y72700000D02*
X59228572Y72890480D01*
D10*
X59276192Y72509520D02*
X59276192Y72700000D01*
D10*
X59228572Y72509520D02*
X59276192Y72509520D01*
D10*
X59276192Y72604760D02*
X59228572Y72509520D01*
D10*
X59752380Y73176192D02*
X59990476Y72366664D01*
D10*
X59800000Y73176192D02*
X60085716Y72176192D01*
D10*
X59942856Y72319048D02*
X60085716Y72176192D01*
D10*
X59800000Y72414288D02*
X59942856Y72319048D01*
D10*
X59704760Y72461904D02*
X59800000Y72414288D01*
D10*
X59847620Y72414288D02*
X60038096Y72319048D01*
D10*
X59704760Y72461904D02*
X59847620Y72414288D01*
D10*
X57180952Y73914288D02*
X57133332Y73866664D01*
D10*
X57133332Y73961904D02*
X57180952Y73914288D01*
D10*
X57085716Y73914288D02*
X57133332Y73961904D01*
D10*
X57085716Y73866664D02*
X57085716Y73914288D01*
D10*
X57133332Y73771432D02*
X57085716Y73866664D01*
D10*
X57180952Y73723808D02*
X57133332Y73771432D01*
D10*
X57323808Y73676192D02*
X57180952Y73723808D01*
D10*
X57466668Y73676192D02*
X57323808Y73676192D01*
D10*
X57609524Y73723808D02*
X57466668Y73676192D01*
D10*
X57657144Y73819048D02*
X57609524Y73723808D01*
D10*
X57657144Y73914288D02*
X57657144Y73819048D01*
D10*
X57609524Y74009520D02*
X57657144Y73914288D01*
D10*
X57514284Y74104760D02*
X57609524Y74009520D01*
D10*
X57371428Y74200000D02*
X57514284Y74104760D01*
D10*
X57180952Y74295240D02*
X57371428Y74200000D01*
D10*
X57038096Y74390480D02*
X57180952Y74295240D01*
D10*
X56942856Y74485712D02*
X57038096Y74390480D01*
D10*
X56847620Y74676192D02*
X56942856Y74485712D01*
D10*
X57561904Y73723808D02*
X57466668Y73676192D01*
D10*
X57609524Y73819048D02*
X57561904Y73723808D01*
D10*
X57609524Y73914288D02*
X57609524Y73819048D01*
D10*
X57561904Y74009520D02*
X57609524Y73914288D01*
D10*
X57466668Y74104760D02*
X57561904Y74009520D01*
D10*
X57180952Y74295240D02*
X57466668Y74104760D01*
D10*
X56942856Y74533336D02*
X56895240Y74580952D01*
D10*
X57038096Y74533336D02*
X56942856Y74533336D01*
D10*
X57276192Y74628568D02*
X57038096Y74533336D01*
D10*
X57419048Y74628568D02*
X57276192Y74628568D01*
D10*
X57514284Y74580952D02*
X57419048Y74628568D01*
D10*
X57561904Y74485712D02*
X57514284Y74580952D01*
D10*
X57276192Y74676192D02*
X57038096Y74533336D01*
D10*
X57419048Y74676192D02*
X57276192Y74676192D01*
D10*
X57514284Y74628568D02*
X57419048Y74676192D01*
D10*
X57561904Y74485712D02*
X57514284Y74628568D01*
D10*
X58228572Y73723808D02*
X58371428Y73676192D01*
D10*
X58133332Y73819048D02*
X58228572Y73723808D01*
D10*
X58038096Y73961904D02*
X58133332Y73819048D01*
D10*
X57990476Y74104760D02*
X58038096Y73961904D01*
D10*
X57942856Y74295240D02*
X57990476Y74104760D01*
D10*
X57942856Y74438096D02*
X57942856Y74295240D01*
D10*
X57990476Y74580952D02*
X57942856Y74438096D01*
D10*
X58038096Y74628568D02*
X57990476Y74580952D01*
D10*
X58133332Y74676192D02*
X58038096Y74628568D01*
D10*
X58228572Y74676192D02*
X58133332Y74676192D01*
D10*
X58371428Y74628568D02*
X58228572Y74676192D01*
D10*
X58466668Y74533336D02*
X58371428Y74628568D01*
D10*
X58561904Y74390480D02*
X58466668Y74533336D01*
D10*
X58609524Y74247616D02*
X58561904Y74390480D01*
D10*
X58657144Y74057144D02*
X58609524Y74247616D01*
D10*
X58657144Y73914288D02*
X58657144Y74057144D01*
D10*
X58609524Y73771432D02*
X58657144Y73914288D01*
D10*
X58561904Y73723808D02*
X58609524Y73771432D01*
D10*
X58466668Y73676192D02*
X58561904Y73723808D01*
D10*
X58371428Y73676192D02*
X58466668Y73676192D01*
D10*
X58276192Y73723808D02*
X58371428Y73676192D01*
D10*
X58180952Y73819048D02*
X58276192Y73723808D01*
D10*
X58085716Y73961904D02*
X58180952Y73819048D01*
D10*
X58038096Y74104760D02*
X58085716Y73961904D01*
D10*
X57990476Y74295240D02*
X58038096Y74104760D01*
D10*
X57990476Y74438096D02*
X57990476Y74295240D01*
D10*
X58038096Y74580952D02*
X57990476Y74438096D01*
D10*
X58133332Y74676192D02*
X58038096Y74580952D01*
D10*
X58323808Y74628568D02*
X58228572Y74676192D01*
D10*
X58419048Y74533336D02*
X58323808Y74628568D01*
D10*
X58514284Y74390480D02*
X58419048Y74533336D01*
D10*
X58561904Y74247616D02*
X58514284Y74390480D01*
D10*
X58609524Y74057144D02*
X58561904Y74247616D01*
D10*
X58609524Y73914288D02*
X58609524Y74057144D01*
D10*
X58561904Y73771432D02*
X58609524Y73914288D01*
D10*
X58466668Y73676192D02*
X58561904Y73771432D01*
D10*
X59180952Y73914288D02*
X59133332Y73866664D01*
D10*
X59133332Y73961904D02*
X59180952Y73914288D01*
D10*
X59085716Y73914288D02*
X59133332Y73961904D01*
D10*
X59085716Y73866664D02*
X59085716Y73914288D01*
D10*
X59133332Y73771432D02*
X59085716Y73866664D01*
D10*
X59180952Y73723808D02*
X59133332Y73771432D01*
D10*
X59323808Y73676192D02*
X59180952Y73723808D01*
D10*
X59466668Y73676192D02*
X59323808Y73676192D01*
D10*
X59609524Y73723808D02*
X59466668Y73676192D01*
D10*
X59657144Y73819048D02*
X59609524Y73723808D01*
D10*
X59657144Y73914288D02*
X59657144Y73819048D01*
D10*
X59609524Y74009520D02*
X59657144Y73914288D01*
D10*
X59514284Y74104760D02*
X59609524Y74009520D01*
D10*
X59371428Y74200000D02*
X59514284Y74104760D01*
D10*
X59180952Y74295240D02*
X59371428Y74200000D01*
D10*
X59038096Y74390480D02*
X59180952Y74295240D01*
D10*
X58942856Y74485712D02*
X59038096Y74390480D01*
D10*
X58847620Y74676192D02*
X58942856Y74485712D01*
D10*
X59561904Y73723808D02*
X59466668Y73676192D01*
D10*
X59609524Y73819048D02*
X59561904Y73723808D01*
D10*
X59609524Y73914288D02*
X59609524Y73819048D01*
D10*
X59561904Y74009520D02*
X59609524Y73914288D01*
D10*
X59466668Y74104760D02*
X59561904Y74009520D01*
D10*
X59180952Y74295240D02*
X59466668Y74104760D01*
D10*
X58942856Y74533336D02*
X58895240Y74580952D01*
D10*
X59038096Y74533336D02*
X58942856Y74533336D01*
D10*
X59276192Y74628568D02*
X59038096Y74533336D01*
D10*
X59419048Y74628568D02*
X59276192Y74628568D01*
D10*
X59514284Y74580952D02*
X59419048Y74628568D01*
D10*
X59561904Y74485712D02*
X59514284Y74580952D01*
D10*
X59276192Y74676192D02*
X59038096Y74533336D01*
D10*
X59419048Y74676192D02*
X59276192Y74676192D01*
D10*
X59514284Y74628568D02*
X59419048Y74676192D01*
D10*
X59561904Y74485712D02*
X59514284Y74628568D01*
D10*
X60276192Y74676192D02*
X60561904Y73723808D01*
D10*
X60323808Y74676192D02*
X60609524Y73676192D01*
D10*
X59895240Y74390480D02*
X60609524Y73676192D01*
D10*
X60657144Y74390480D02*
X59895240Y74390480D01*
D10*
X61847620Y74247616D02*
X60990476Y74247616D01*
D10*
X62466668Y73723808D02*
X62609524Y73676192D01*
D10*
X62371428Y73819048D02*
X62466668Y73723808D01*
D10*
X62276192Y73961904D02*
X62371428Y73819048D01*
D10*
X62228572Y74104760D02*
X62276192Y73961904D01*
D10*
X62180952Y74295240D02*
X62228572Y74104760D01*
D10*
X62180952Y74438096D02*
X62180952Y74295240D01*
D10*
X62228572Y74580952D02*
X62180952Y74438096D01*
D10*
X62276192Y74628568D02*
X62228572Y74580952D01*
D10*
X62371428Y74676192D02*
X62276192Y74628568D01*
D10*
X62466668Y74676192D02*
X62371428Y74676192D01*
D10*
X62609524Y74628568D02*
X62466668Y74676192D01*
D10*
X62704760Y74533336D02*
X62609524Y74628568D01*
D10*
X62800000Y74390480D02*
X62704760Y74533336D01*
D10*
X62847620Y74247616D02*
X62800000Y74390480D01*
D10*
X62895240Y74057144D02*
X62847620Y74247616D01*
D10*
X62895240Y73914288D02*
X62895240Y74057144D01*
D10*
X62847620Y73771432D02*
X62895240Y73914288D01*
D10*
X62800000Y73723808D02*
X62847620Y73771432D01*
D10*
X62704760Y73676192D02*
X62800000Y73723808D01*
D10*
X62609524Y73676192D02*
X62704760Y73676192D01*
D10*
X62514284Y73723808D02*
X62609524Y73676192D01*
D10*
X62419048Y73819048D02*
X62514284Y73723808D01*
D10*
X62323808Y73961904D02*
X62419048Y73819048D01*
D10*
X62276192Y74104760D02*
X62323808Y73961904D01*
D10*
X62228572Y74295240D02*
X62276192Y74104760D01*
D10*
X62228572Y74438096D02*
X62228572Y74295240D01*
D10*
X62276192Y74580952D02*
X62228572Y74438096D01*
D10*
X62371428Y74676192D02*
X62276192Y74580952D01*
D10*
X62561904Y74628568D02*
X62466668Y74676192D01*
D10*
X62657144Y74533336D02*
X62561904Y74628568D01*
D10*
X62752380Y74390480D02*
X62657144Y74533336D01*
D10*
X62800000Y74247616D02*
X62752380Y74390480D01*
D10*
X62847620Y74057144D02*
X62800000Y74247616D01*
D10*
X62847620Y73914288D02*
X62847620Y74057144D01*
D10*
X62800000Y73771432D02*
X62847620Y73914288D01*
D10*
X62704760Y73676192D02*
X62800000Y73771432D01*
D10*
X63514284Y74676192D02*
X63800000Y73723808D01*
D10*
X63561904Y74676192D02*
X63847620Y73676192D01*
D10*
X63133332Y74390480D02*
X63847620Y73676192D01*
D10*
X63895240Y74390480D02*
X63133332Y74390480D01*
D10*
X65085712Y74247616D02*
X64228572Y74247616D01*
D10*
X65657144Y73914288D02*
X65609524Y73866664D01*
D10*
X65609524Y73961904D02*
X65657144Y73914288D01*
D10*
X65561904Y73914288D02*
X65609524Y73961904D01*
D10*
X65561904Y73866664D02*
X65561904Y73914288D01*
D10*
X65609524Y73771432D02*
X65561904Y73866664D01*
D10*
X65657144Y73723808D02*
X65609524Y73771432D01*
D10*
X65800000Y73676192D02*
X65657144Y73723808D01*
D10*
X65942856Y73676192D02*
X65800000Y73676192D01*
D10*
X66085712Y73723808D02*
X65942856Y73676192D01*
D10*
X66133332Y73819048D02*
X66085712Y73723808D01*
D10*
X66133332Y73914288D02*
X66133332Y73819048D01*
D10*
X66085712Y74009520D02*
X66133332Y73914288D01*
D10*
X65990476Y74104760D02*
X66085712Y74009520D01*
D10*
X65847620Y74200000D02*
X65990476Y74104760D01*
D10*
X65657144Y74295240D02*
X65847620Y74200000D01*
D10*
X65514288Y74390480D02*
X65657144Y74295240D01*
D10*
X65419048Y74485712D02*
X65514288Y74390480D01*
D10*
X65323808Y74676192D02*
X65419048Y74485712D01*
D10*
X66038096Y73723808D02*
X65942856Y73676192D01*
D10*
X66085712Y73819048D02*
X66038096Y73723808D01*
D10*
X66085712Y73914288D02*
X66085712Y73819048D01*
D10*
X66038096Y74009520D02*
X66085712Y73914288D01*
D10*
X65942856Y74104760D02*
X66038096Y74009520D01*
D10*
X65657144Y74295240D02*
X65942856Y74104760D01*
D10*
X65419048Y74533336D02*
X65371428Y74580952D01*
D10*
X65514288Y74533336D02*
X65419048Y74533336D01*
D10*
X65752380Y74628568D02*
X65514288Y74533336D01*
D10*
X65895240Y74628568D02*
X65752380Y74628568D01*
D10*
X65990476Y74580952D02*
X65895240Y74628568D01*
D10*
X66038096Y74485712D02*
X65990476Y74580952D01*
D10*
X65752380Y74676192D02*
X65514288Y74533336D01*
D10*
X65895240Y74676192D02*
X65752380Y74676192D01*
D10*
X65990476Y74628568D02*
X65895240Y74676192D01*
D10*
X66038096Y74485712D02*
X65990476Y74628568D01*
D10*
X66609524Y74676192D02*
X66847620Y73866664D01*
D10*
X66657144Y74676192D02*
X66942856Y73676192D01*
D10*
X66800000Y73819048D02*
X66942856Y73676192D01*
D10*
X66657144Y73914288D02*
X66800000Y73819048D01*
D10*
X66561904Y73961904D02*
X66657144Y73914288D01*
D10*
X66704760Y73914288D02*
X66895240Y73819048D01*
D10*
X66561904Y73961904D02*
X66704760Y73914288D01*
G75*
M02*
