%FSLAX46Y46*%
%MOMM*%
%AMPS13*
1,1,1.200000,0.000000,0.000000*
%
%ADD13PS13*%
%AMPS19*
1,1,1.200000,0.000000,0.000000*
%
%ADD19PS19*%
%AMPS16*
1,1,1.200000,0.000000,0.000000*
%
%ADD16PS16*%
%AMPS22*
1,1,1.200000,0.000000,0.000000*
%
%ADD22PS22*%
%AMPS12*
1,1,2.200000,0.000000,0.000000*
%
%ADD12PS12*%
%AMPS18*
1,1,2.200000,0.000000,0.000000*
%
%ADD18PS18*%
%AMPS15*
1,1,2.200000,0.000000,0.000000*
%
%ADD15PS15*%
%AMPS21*
1,1,2.200000,0.000000,0.000000*
%
%ADD21PS21*%
%AMPS14*
1,1,0.750000,0.000000,0.000000*
%
%ADD14PS14*%
%AMPS20*
1,1,0.750000,0.000000,0.000000*
%
%ADD20PS20*%
%AMPS17*
1,1,0.750000,0.000000,0.000000*
%
%ADD17PS17*%
%AMPS23*
1,1,0.750000,0.000000,0.000000*
%
%ADD23PS23*%
%AMPS10*
1,1,2.200000,0.000000,0.000000*
%
%ADD10PS10*%
%AMPS11*
1,1,3.000000,0.000000,0.000000*
%
%ADD11PS11*%
G01*
%LPD*%
G01*
%LPD*%
G75*
D10*
X2500000Y97500000D03*
D10*
X2500000Y2500000D03*
D10*
X97500000Y2500000D03*
D10*
X97500000Y92000000D03*
D11*
X3850000Y7500000D03*
D11*
X96150000Y7500000D03*
D11*
X3850000Y92500000D03*
D11*
X96150000Y87000000D03*
D12*
X73950000Y90050000D03*
D13*
X75900000Y65500000D03*
D13*
X74600000Y65500000D03*
D12*
X69950000Y90050000D03*
D13*
X74600000Y68600000D03*
D12*
X64800000Y89600000D03*
D12*
X58200000Y89800000D03*
D13*
X75900000Y68600000D03*
D14*
X91100000Y83800000D03*
D14*
X91100000Y82500000D03*
D12*
X23750000Y92150000D03*
D13*
X25700000Y67600000D03*
D13*
X24400000Y67600000D03*
D12*
X19750000Y92150000D03*
D13*
X24400000Y70700000D03*
D12*
X14600000Y91700000D03*
D12*
X8000000Y91900000D03*
D13*
X25700000Y70700000D03*
D14*
X40900000Y85900000D03*
D14*
X40900000Y84600000D03*
D15*
X75647367Y18797127D03*
D16*
X73697367Y43347127D03*
D16*
X74997367Y43347127D03*
D15*
X79647367Y18797127D03*
D16*
X74997367Y40247127D03*
D15*
X84797367Y19247127D03*
D15*
X91397367Y19047127D03*
D16*
X73697367Y40247127D03*
D17*
X58497367Y25047127D03*
D17*
X58497367Y26347127D03*
D18*
X10500000Y57350000D03*
D19*
X35050000Y59300000D03*
D19*
X35050000Y58000000D03*
D18*
X10500000Y53350000D03*
D19*
X31950000Y58000000D03*
D18*
X10950000Y48200000D03*
D18*
X10750000Y41600000D03*
D19*
X31950000Y59300000D03*
D20*
X16750000Y74500000D03*
D20*
X18050000Y74500000D03*
D18*
X17950000Y24950000D03*
D19*
X42500000Y26900000D03*
D19*
X42500000Y25600000D03*
D18*
X17950000Y20950000D03*
D19*
X39400000Y25600000D03*
D18*
X18400000Y15800000D03*
D18*
X18200000Y9200000D03*
D19*
X39400000Y26900000D03*
D20*
X24200000Y42100000D03*
D20*
X25500000Y42100000D03*
D12*
X56950000Y57050000D03*
D13*
X58900000Y32500000D03*
D13*
X57600000Y32500000D03*
D12*
X52950000Y57050000D03*
D13*
X57600000Y35600000D03*
D12*
X47800000Y56600000D03*
D12*
X41200000Y56800000D03*
D13*
X58900000Y35600000D03*
D14*
X74100000Y50800000D03*
D14*
X74100000Y49500000D03*
D21*
X91050000Y60050000D03*
D22*
X66500000Y58100000D03*
D22*
X66500000Y59400000D03*
D21*
X91050000Y64050000D03*
D22*
X69600000Y59400000D03*
D21*
X90600000Y69200000D03*
D21*
X90800000Y75800000D03*
D22*
X69600000Y58100000D03*
D23*
X84800000Y42900000D03*
D23*
X83500000Y42900000D03*
D15*
X52250000Y8850000D03*
D16*
X50300000Y33400000D03*
D16*
X51600000Y33400000D03*
D15*
X56250000Y8850000D03*
D16*
X51600000Y30300000D03*
D15*
X61400000Y9300000D03*
D15*
X68000000Y9100000D03*
D16*
X50300000Y30300000D03*
D17*
X35100000Y15100000D03*
D17*
X35100000Y16400000D03*
D15*
X50050000Y66950000D03*
D16*
X48100000Y91500000D03*
D16*
X49400000Y91500000D03*
D15*
X54050000Y66950000D03*
D16*
X49400000Y88400000D03*
D15*
X59200000Y67400000D03*
D15*
X65800000Y67200000D03*
D16*
X48100000Y88400000D03*
D17*
X32900000Y73200000D03*
D17*
X32900000Y74500000D03*
M02*
