%FSLAX46Y46*%
%MOMM*%
%ADD11C,1.000000*%
%AMPS13*
1,1,1.000000,0.000000,0.000000*
%
%ADD13PS13*%
%AMPS19*
1,1,1.000000,0.000000,0.000000*
%
%ADD19PS19*%
%AMPS16*
1,1,1.000000,0.000000,0.000000*
%
%ADD16PS16*%
%AMPS22*
1,1,1.000000,0.000000,0.000000*
%
%ADD22PS22*%
%AMPS12*
1,1,2.000000,0.000000,0.000000*
%
%ADD12PS12*%
%AMPS18*
1,1,2.000000,0.000000,0.000000*
%
%ADD18PS18*%
%AMPS15*
1,1,2.000000,0.000000,0.000000*
%
%ADD15PS15*%
%AMPS21*
1,1,2.000000,0.000000,0.000000*
%
%ADD21PS21*%
%AMPS14*
1,1,0.550000,0.000000,0.000000*
%
%ADD14PS14*%
%AMPS20*
1,1,0.550000,0.000000,0.000000*
%
%ADD20PS20*%
%AMPS17*
1,1,0.550000,0.000000,0.000000*
%
%ADD17PS17*%
%AMPS23*
1,1,0.550000,0.000000,0.000000*
%
%ADD23PS23*%
%AMPS10*
1,1,1.000000,0.000000,0.000000*
%
%ADD10PS10*%
G01*
%LPD*%
G36*
X99790000Y110000D02*
X99829004Y117920D01*
X99861829Y140425D01*
X99883277Y173952D01*
X99890000Y210000D01*
X99890000Y99790000D01*
X99882080Y99829004D01*
X99859575Y99861829D01*
X99826048Y99883277D01*
X99790000Y99890000D01*
X210000Y99890000D01*
X170996Y99882080D01*
X138171Y99859575D01*
X116723Y99826048D01*
X110000Y99790000D01*
X110000Y351422D01*
X117920Y312418D01*
X140425Y279593D01*
X173952Y258145D01*
X213188Y251473D01*
X251919Y260632D01*
X280711Y280711D01*
X258732Y247531D01*
X251435Y208406D01*
X259975Y169534D01*
X283001Y137071D01*
X316865Y116161D01*
X351422Y110000D01*
X99790000Y110000D01*
D02*
G37*
%LPC*%
G36*
X2527224Y95995729D02*
X2472776Y95995729D01*
X2379633Y96000306D01*
X2325475Y96005640D01*
X2233240Y96019321D01*
X2179815Y96029948D01*
X2089397Y96052596D01*
X2037265Y96068410D01*
X1949504Y96099812D01*
X1899182Y96120656D01*
X1814912Y96160513D01*
X1766876Y96186189D01*
X1686914Y96234115D01*
X1641634Y96264371D01*
X1566754Y96319906D01*
X1524642Y96354466D01*
X1455580Y96417061D01*
X1417061Y96455580D01*
X1354466Y96524642D01*
X1319906Y96566754D01*
X1264371Y96641634D01*
X1234115Y96686914D01*
X1186189Y96766876D01*
X1160513Y96814912D01*
X1120656Y96899182D01*
X1099812Y96949504D01*
X1068410Y97037265D01*
X1052596Y97089397D01*
X1029948Y97179815D01*
X1019321Y97233240D01*
X1005640Y97325475D01*
X1000306Y97379633D01*
X995729Y97472776D01*
X995729Y97527224D01*
X1000306Y97620367D01*
X1005640Y97674525D01*
X1019321Y97766760D01*
X1029948Y97820185D01*
X1052596Y97910603D01*
X1068410Y97962735D01*
X1099812Y98050496D01*
X1120656Y98100818D01*
X1160513Y98185088D01*
X1186189Y98233124D01*
X1234115Y98313086D01*
X1264371Y98358366D01*
X1319906Y98433246D01*
X1354466Y98475358D01*
X1417061Y98544420D01*
X1455580Y98582939D01*
X1524642Y98645534D01*
X1566754Y98680094D01*
X1641634Y98735629D01*
X1686914Y98765885D01*
X1766876Y98813811D01*
X1814912Y98839487D01*
X1899182Y98879344D01*
X1949504Y98900188D01*
X2037265Y98931590D01*
X2089397Y98947404D01*
X2179815Y98970052D01*
X2233240Y98980679D01*
X2325475Y98994360D01*
X2379633Y98999694D01*
X2472776Y99004271D01*
X2527224Y99004271D01*
X2620367Y98999694D01*
X2674525Y98994360D01*
X2766760Y98980679D01*
X2820185Y98970052D01*
X2910603Y98947404D01*
X2962735Y98931590D01*
X3050496Y98900188D01*
X3100818Y98879344D01*
X3185088Y98839487D01*
X3233124Y98813811D01*
X3313086Y98765885D01*
X3358366Y98735629D01*
X3433246Y98680094D01*
X3475358Y98645534D01*
X3544420Y98582939D01*
X3582939Y98544420D01*
X3645534Y98475358D01*
X3680094Y98433246D01*
X3735629Y98358366D01*
X3765885Y98313086D01*
X3813811Y98233124D01*
X3839487Y98185088D01*
X3879344Y98100818D01*
X3900188Y98050496D01*
X3931590Y97962735D01*
X3947404Y97910603D01*
X3970052Y97820185D01*
X3980679Y97766760D01*
X3994360Y97674525D01*
X3999694Y97620367D01*
X4004271Y97527224D01*
X4004271Y97472776D01*
X3999694Y97379633D01*
X3994360Y97325475D01*
X3980679Y97233240D01*
X3970052Y97179815D01*
X3947404Y97089397D01*
X3931590Y97037265D01*
X3900188Y96949504D01*
X3879344Y96899182D01*
X3839487Y96814912D01*
X3813811Y96766876D01*
X3765885Y96686914D01*
X3735629Y96641634D01*
X3680094Y96566754D01*
X3645534Y96524642D01*
X3582939Y96455580D01*
X3544420Y96417061D01*
X3475358Y96354466D01*
X3433246Y96319906D01*
X3358366Y96264371D01*
X3313086Y96234115D01*
X3233124Y96186189D01*
X3185088Y96160513D01*
X3100818Y96120656D01*
X3050496Y96099812D01*
X2962735Y96068410D01*
X2910603Y96052596D01*
X2820185Y96029948D01*
X2766760Y96019321D01*
X2674525Y96005640D01*
X2620367Y96000306D01*
X2527224Y95995729D01*
D02*
G37*
%LPC*%
G36*
X4970711Y4970711D02*
X4992690Y5003891D01*
X5000000Y5041422D01*
X5000000Y6287137D01*
X4992080Y6326141D01*
X4969575Y6358966D01*
X4936048Y6380414D01*
X4896812Y6387086D01*
X4858081Y6377927D01*
X4836561Y6364439D01*
X4763895Y6304804D01*
X4728428Y6278501D01*
X4642352Y6220986D01*
X4604479Y6198286D01*
X4513163Y6149477D01*
X4473256Y6130602D01*
X4377611Y6090985D01*
X4336045Y6076111D01*
X4236937Y6046047D01*
X4194126Y6035324D01*
X4092587Y6015127D01*
X4048891Y6008645D01*
X3945895Y5998499D01*
X3901763Y5996331D01*
X3798237Y5996331D01*
X3754105Y5998499D01*
X3651109Y6008645D01*
X3607413Y6015127D01*
X3505874Y6035324D01*
X3463063Y6046047D01*
X3363955Y6076111D01*
X3322389Y6090985D01*
X3226744Y6130602D01*
X3186837Y6149477D01*
X3095521Y6198286D01*
X3057648Y6220986D01*
X2971572Y6278501D01*
X2936105Y6304804D01*
X2856060Y6370494D01*
X2823357Y6400135D01*
X2750135Y6473357D01*
X2720494Y6506060D01*
X2654804Y6586105D01*
X2628501Y6621572D01*
X2570986Y6707648D01*
X2548286Y6745521D01*
X2499477Y6836837D01*
X2480602Y6876744D01*
X2440985Y6972389D01*
X2426111Y7013955D01*
X2396047Y7113063D01*
X2385324Y7155874D01*
X2365127Y7257413D01*
X2358645Y7301109D01*
X2348499Y7404105D01*
X2346331Y7448237D01*
X2346331Y7551763D01*
X2348499Y7595895D01*
X2358645Y7698891D01*
X2365127Y7742587D01*
X2385324Y7844126D01*
X2396047Y7886937D01*
X2426111Y7986045D01*
X2440985Y8027611D01*
X2480602Y8123256D01*
X2499477Y8163163D01*
X2548286Y8254479D01*
X2570986Y8292352D01*
X2628501Y8378428D01*
X2654804Y8413895D01*
X2720494Y8493940D01*
X2750135Y8526643D01*
X2823357Y8599865D01*
X2856060Y8629506D01*
X2936105Y8695196D01*
X2971572Y8721499D01*
X3057648Y8779014D01*
X3095521Y8801714D01*
X3186837Y8850523D01*
X3226744Y8869398D01*
X3322389Y8909015D01*
X3363955Y8923889D01*
X3463063Y8953953D01*
X3505874Y8964676D01*
X3607413Y8984873D01*
X3651109Y8991355D01*
X3754105Y9001501D01*
X3798237Y9003669D01*
X3901763Y9003669D01*
X3945895Y9001501D01*
X4048891Y8991355D01*
X4092587Y8984873D01*
X4194126Y8964676D01*
X4236937Y8953953D01*
X4336045Y8923889D01*
X4377611Y8909015D01*
X4473256Y8869398D01*
X4513163Y8850523D01*
X4604479Y8801714D01*
X4642352Y8779014D01*
X4728428Y8721499D01*
X4763895Y8695196D01*
X4836561Y8635561D01*
X4871736Y8616940D01*
X4911388Y8613514D01*
X4949236Y8625824D01*
X4979285Y8651921D01*
X4996775Y8687671D01*
X5000000Y8712863D01*
X5000000Y82322016D01*
X4992080Y82361020D01*
X4969575Y82393845D01*
X4942228Y82410224D01*
X4896060Y82472069D01*
X4890000Y82508303D01*
X4890000Y87984383D01*
X4914524Y88060982D01*
X4959821Y88094797D01*
X4986338Y88124476D01*
X5000000Y88174931D01*
X5000000Y88622016D01*
X4992080Y88661020D01*
X4969575Y88693845D01*
X4942228Y88710224D01*
X4896060Y88772069D01*
X4890000Y88808303D01*
X4890000Y91199664D01*
X4882080Y91238668D01*
X4859575Y91271493D01*
X4826048Y91292941D01*
X4786812Y91299613D01*
X4748081Y91290454D01*
X4730435Y91279988D01*
X4728440Y91278509D01*
X4642352Y91220986D01*
X4604479Y91198286D01*
X4513163Y91149477D01*
X4473256Y91130602D01*
X4377611Y91090985D01*
X4336045Y91076111D01*
X4236937Y91046047D01*
X4194126Y91035324D01*
X4092587Y91015127D01*
X4048891Y91008645D01*
X3945895Y90998499D01*
X3901763Y90996331D01*
X3798237Y90996331D01*
X3754105Y90998499D01*
X3651109Y91008645D01*
X3607413Y91015127D01*
X3505874Y91035324D01*
X3463063Y91046047D01*
X3363955Y91076111D01*
X3322389Y91090985D01*
X3226744Y91130602D01*
X3186837Y91149477D01*
X3095521Y91198286D01*
X3057648Y91220986D01*
X2971572Y91278501D01*
X2936105Y91304804D01*
X2856060Y91370494D01*
X2823357Y91400135D01*
X2750135Y91473357D01*
X2720494Y91506060D01*
X2654804Y91586105D01*
X2628501Y91621572D01*
X2570986Y91707648D01*
X2548286Y91745521D01*
X2499477Y91836837D01*
X2480602Y91876744D01*
X2440985Y91972389D01*
X2426111Y92013955D01*
X2396047Y92113063D01*
X2385324Y92155874D01*
X2365127Y92257413D01*
X2358645Y92301109D01*
X2348499Y92404105D01*
X2346331Y92448237D01*
X2346331Y92551763D01*
X2348499Y92595895D01*
X2358645Y92698891D01*
X2365127Y92742587D01*
X2385324Y92844126D01*
X2396047Y92886937D01*
X2426111Y92986045D01*
X2440985Y93027611D01*
X2480602Y93123256D01*
X2499477Y93163163D01*
X2548286Y93254479D01*
X2570986Y93292352D01*
X2628501Y93378428D01*
X2654804Y93413895D01*
X2720494Y93493940D01*
X2750135Y93526643D01*
X2823357Y93599865D01*
X2856060Y93629506D01*
X2936105Y93695196D01*
X2971572Y93721499D01*
X3057648Y93779014D01*
X3095521Y93801714D01*
X3186837Y93850523D01*
X3226744Y93869398D01*
X3322389Y93909015D01*
X3363955Y93923889D01*
X3463063Y93953953D01*
X3505874Y93964676D01*
X3607413Y93984873D01*
X3651109Y93991355D01*
X3754105Y94001501D01*
X3798237Y94003669D01*
X3901763Y94003669D01*
X3945895Y94001501D01*
X4048891Y93991355D01*
X4092587Y93984873D01*
X4194126Y93964676D01*
X4236937Y93953953D01*
X4336045Y93923889D01*
X4377611Y93909015D01*
X4473256Y93869398D01*
X4513163Y93850523D01*
X4604479Y93801714D01*
X4642352Y93779014D01*
X4728440Y93721491D01*
X4730435Y93720012D01*
X4766481Y93703141D01*
X4806254Y93701666D01*
X4843451Y93715820D01*
X4872182Y93743361D01*
X4887895Y93779928D01*
X4890000Y93800336D01*
X4890000Y94984383D01*
X4914524Y95060982D01*
X4972069Y95103940D01*
X5008303Y95110000D01*
X11184383Y95110000D01*
X11260982Y95085476D01*
X11294797Y95040179D01*
X11324476Y95013662D01*
X11374931Y95000000D01*
X11822016Y95000000D01*
X11861020Y95007920D01*
X11893845Y95030425D01*
X11910224Y95057772D01*
X11972069Y95103940D01*
X12008303Y95110000D01*
X26484383Y95110000D01*
X26560982Y95085476D01*
X26594797Y95040179D01*
X26624476Y95013662D01*
X26674931Y95000000D01*
X27122016Y95000000D01*
X27161020Y95007920D01*
X27193845Y95030425D01*
X27210224Y95057772D01*
X27272069Y95103940D01*
X27308303Y95110000D01*
X29484383Y95110000D01*
X29560982Y95085476D01*
X29594797Y95040179D01*
X29624476Y95013662D01*
X29674931Y95000000D01*
X94989949Y95000000D01*
X94998603Y94998243D01*
X95000000Y94990754D01*
X95000000Y88212863D01*
X95007920Y88173859D01*
X95030425Y88141034D01*
X95063952Y88119586D01*
X95103188Y88112914D01*
X95141919Y88122073D01*
X95163439Y88135561D01*
X95236105Y88195196D01*
X95271572Y88221499D01*
X95357648Y88279014D01*
X95395521Y88301714D01*
X95486837Y88350523D01*
X95526744Y88369398D01*
X95622389Y88409015D01*
X95663955Y88423889D01*
X95763063Y88453953D01*
X95805874Y88464676D01*
X95907413Y88484873D01*
X95951109Y88491355D01*
X96054105Y88501501D01*
X96098237Y88503669D01*
X96201763Y88503669D01*
X96245895Y88501501D01*
X96348891Y88491355D01*
X96392587Y88484873D01*
X96494126Y88464676D01*
X96536937Y88453953D01*
X96636045Y88423889D01*
X96677611Y88409015D01*
X96773256Y88369398D01*
X96813163Y88350523D01*
X96904479Y88301714D01*
X96942352Y88279014D01*
X97028428Y88221499D01*
X97063895Y88195196D01*
X97143940Y88129506D01*
X97176643Y88099865D01*
X97249865Y88026643D01*
X97279506Y87993940D01*
X97345196Y87913895D01*
X97371499Y87878428D01*
X97429014Y87792352D01*
X97451714Y87754479D01*
X97500523Y87663163D01*
X97519398Y87623256D01*
X97559015Y87527611D01*
X97573889Y87486045D01*
X97603953Y87386937D01*
X97614676Y87344126D01*
X97634873Y87242587D01*
X97641355Y87198891D01*
X97651501Y87095895D01*
X97653669Y87051763D01*
X97653669Y86948237D01*
X97651501Y86904105D01*
X97641355Y86801109D01*
X97634873Y86757413D01*
X97614676Y86655874D01*
X97603953Y86613063D01*
X97573889Y86513955D01*
X97559015Y86472389D01*
X97519398Y86376744D01*
X97500523Y86336837D01*
X97451714Y86245521D01*
X97429014Y86207648D01*
X97371499Y86121572D01*
X97345196Y86086105D01*
X97279506Y86006060D01*
X97249865Y85973357D01*
X97176643Y85900135D01*
X97143940Y85870494D01*
X97063895Y85804804D01*
X97028428Y85778501D01*
X96942352Y85720986D01*
X96904479Y85698286D01*
X96813163Y85649477D01*
X96773256Y85630602D01*
X96677611Y85590985D01*
X96636045Y85576111D01*
X96536937Y85546047D01*
X96494126Y85535324D01*
X96392587Y85515127D01*
X96348891Y85508645D01*
X96245895Y85498499D01*
X96201763Y85496331D01*
X96098237Y85496331D01*
X96054105Y85498499D01*
X95951109Y85508645D01*
X95907413Y85515127D01*
X95805874Y85535324D01*
X95763063Y85546047D01*
X95663955Y85576111D01*
X95622389Y85590985D01*
X95526744Y85630602D01*
X95486837Y85649477D01*
X95395521Y85698286D01*
X95357648Y85720986D01*
X95271572Y85778501D01*
X95236105Y85804804D01*
X95163439Y85864439D01*
X95128264Y85883060D01*
X95088612Y85886486D01*
X95050764Y85874176D01*
X95020715Y85848079D01*
X95003225Y85812329D01*
X95000000Y85787137D01*
X95000000Y8712863D01*
X95007920Y8673859D01*
X95030425Y8641034D01*
X95063952Y8619586D01*
X95103188Y8612914D01*
X95141919Y8622073D01*
X95163439Y8635561D01*
X95236105Y8695196D01*
X95271572Y8721499D01*
X95357648Y8779014D01*
X95395521Y8801714D01*
X95486837Y8850523D01*
X95526744Y8869398D01*
X95622389Y8909015D01*
X95663955Y8923889D01*
X95763063Y8953953D01*
X95805874Y8964676D01*
X95907413Y8984873D01*
X95951109Y8991355D01*
X96054105Y9001501D01*
X96098237Y9003669D01*
X96201763Y9003669D01*
X96245895Y9001501D01*
X96348891Y8991355D01*
X96392587Y8984873D01*
X96494126Y8964676D01*
X96536937Y8953953D01*
X96636045Y8923889D01*
X96677611Y8909015D01*
X96773256Y8869398D01*
X96813163Y8850523D01*
X96904479Y8801714D01*
X96942352Y8779014D01*
X97028428Y8721499D01*
X97063895Y8695196D01*
X97143940Y8629506D01*
X97176643Y8599865D01*
X97249865Y8526643D01*
X97279506Y8493940D01*
X97345196Y8413895D01*
X97371499Y8378428D01*
X97429014Y8292352D01*
X97451714Y8254479D01*
X97500523Y8163163D01*
X97519398Y8123256D01*
X97559015Y8027611D01*
X97573889Y7986045D01*
X97603953Y7886937D01*
X97614676Y7844126D01*
X97634873Y7742587D01*
X97641355Y7698891D01*
X97651501Y7595895D01*
X97653669Y7551763D01*
X97653669Y7448237D01*
X97651501Y7404105D01*
X97641355Y7301109D01*
X97634873Y7257413D01*
X97614676Y7155874D01*
X97603953Y7113063D01*
X97573889Y7013955D01*
X97559015Y6972389D01*
X97519398Y6876744D01*
X97500523Y6836837D01*
X97451714Y6745521D01*
X97429014Y6707648D01*
X97371499Y6621572D01*
X97345196Y6586105D01*
X97279506Y6506060D01*
X97249865Y6473357D01*
X97176643Y6400135D01*
X97143940Y6370494D01*
X97063895Y6304804D01*
X97028428Y6278501D01*
X96942352Y6220986D01*
X96904479Y6198286D01*
X96813163Y6149477D01*
X96773256Y6130602D01*
X96677611Y6090985D01*
X96636045Y6076111D01*
X96536937Y6046047D01*
X96494126Y6035324D01*
X96392587Y6015127D01*
X96348891Y6008645D01*
X96245895Y5998499D01*
X96201763Y5996331D01*
X96098237Y5996331D01*
X96054105Y5998499D01*
X95951109Y6008645D01*
X95907413Y6015127D01*
X95805874Y6035324D01*
X95763063Y6046047D01*
X95663955Y6076111D01*
X95622389Y6090985D01*
X95526744Y6130602D01*
X95486837Y6149477D01*
X95395521Y6198286D01*
X95357648Y6220986D01*
X95271572Y6278501D01*
X95236105Y6304804D01*
X95163439Y6364439D01*
X95128264Y6383060D01*
X95088612Y6386486D01*
X95050764Y6374176D01*
X95020715Y6348079D01*
X95003225Y6312329D01*
X95000000Y6287137D01*
X95000000Y5010051D01*
X94998243Y5001397D01*
X94990754Y5000000D01*
X5041422Y5000000D01*
X5002418Y4992080D01*
X4970711Y4970711D01*
D02*
G37*
%LPC*%
G36*
X97527224Y90495729D02*
X97472776Y90495729D01*
X97379633Y90500306D01*
X97325475Y90505640D01*
X97233240Y90519321D01*
X97179815Y90529948D01*
X97089397Y90552596D01*
X97037265Y90568410D01*
X96949504Y90599812D01*
X96899182Y90620656D01*
X96814912Y90660513D01*
X96766876Y90686189D01*
X96686914Y90734115D01*
X96641634Y90764371D01*
X96566754Y90819906D01*
X96524642Y90854466D01*
X96455580Y90917061D01*
X96417061Y90955580D01*
X96354466Y91024642D01*
X96319906Y91066754D01*
X96264371Y91141634D01*
X96234115Y91186914D01*
X96186189Y91266876D01*
X96160513Y91314912D01*
X96120656Y91399182D01*
X96099812Y91449504D01*
X96068410Y91537265D01*
X96052596Y91589397D01*
X96029948Y91679815D01*
X96019321Y91733240D01*
X96005640Y91825475D01*
X96000306Y91879633D01*
X95995729Y91972776D01*
X95995729Y92027224D01*
X96000306Y92120367D01*
X96005640Y92174525D01*
X96019321Y92266760D01*
X96029948Y92320185D01*
X96052596Y92410603D01*
X96068410Y92462735D01*
X96099812Y92550496D01*
X96120656Y92600818D01*
X96160513Y92685088D01*
X96186189Y92733124D01*
X96234115Y92813086D01*
X96264371Y92858366D01*
X96319906Y92933246D01*
X96354466Y92975358D01*
X96417061Y93044420D01*
X96455580Y93082939D01*
X96524642Y93145534D01*
X96566754Y93180094D01*
X96641634Y93235629D01*
X96686914Y93265885D01*
X96766876Y93313811D01*
X96814912Y93339487D01*
X96899182Y93379344D01*
X96949504Y93400188D01*
X97037265Y93431590D01*
X97089397Y93447404D01*
X97179815Y93470052D01*
X97233240Y93480679D01*
X97325475Y93494360D01*
X97379633Y93499694D01*
X97472776Y93504271D01*
X97527224Y93504271D01*
X97620367Y93499694D01*
X97674525Y93494360D01*
X97766760Y93480679D01*
X97820185Y93470052D01*
X97910603Y93447404D01*
X97962735Y93431590D01*
X98050496Y93400188D01*
X98100818Y93379344D01*
X98185088Y93339487D01*
X98233124Y93313811D01*
X98313086Y93265885D01*
X98358366Y93235629D01*
X98433246Y93180094D01*
X98475358Y93145534D01*
X98544420Y93082939D01*
X98582939Y93044420D01*
X98645534Y92975358D01*
X98680094Y92933246D01*
X98735629Y92858366D01*
X98765885Y92813086D01*
X98813811Y92733124D01*
X98839487Y92685088D01*
X98879344Y92600818D01*
X98900188Y92550496D01*
X98931590Y92462735D01*
X98947404Y92410603D01*
X98970052Y92320185D01*
X98980679Y92266760D01*
X98994360Y92174525D01*
X98999694Y92120367D01*
X99004271Y92027224D01*
X99004271Y91972776D01*
X98999694Y91879633D01*
X98994360Y91825475D01*
X98980679Y91733240D01*
X98970052Y91679815D01*
X98947404Y91589397D01*
X98931590Y91537265D01*
X98900188Y91449504D01*
X98879344Y91399182D01*
X98839487Y91314912D01*
X98813811Y91266876D01*
X98765885Y91186914D01*
X98735629Y91141634D01*
X98680094Y91066754D01*
X98645534Y91024642D01*
X98582939Y90955580D01*
X98544420Y90917061D01*
X98475358Y90854466D01*
X98433246Y90819906D01*
X98358366Y90764371D01*
X98313086Y90734115D01*
X98233124Y90686189D01*
X98185088Y90660513D01*
X98100818Y90620656D01*
X98050496Y90599812D01*
X97962735Y90568410D01*
X97910603Y90552596D01*
X97820185Y90529948D01*
X97766760Y90519321D01*
X97674525Y90505640D01*
X97620367Y90500306D01*
X97527224Y90495729D01*
D02*
G37*
%LPC*%
G36*
X97527224Y995729D02*
X97472776Y995729D01*
X97379633Y1000306D01*
X97325475Y1005640D01*
X97233240Y1019321D01*
X97179815Y1029948D01*
X97089397Y1052596D01*
X97037265Y1068410D01*
X96949504Y1099812D01*
X96899182Y1120656D01*
X96814912Y1160513D01*
X96766876Y1186189D01*
X96686914Y1234115D01*
X96641634Y1264371D01*
X96566754Y1319906D01*
X96524642Y1354466D01*
X96455580Y1417061D01*
X96417061Y1455580D01*
X96354466Y1524642D01*
X96319906Y1566754D01*
X96264371Y1641634D01*
X96234115Y1686914D01*
X96186189Y1766876D01*
X96160513Y1814912D01*
X96120656Y1899182D01*
X96099812Y1949504D01*
X96068410Y2037265D01*
X96052596Y2089397D01*
X96029948Y2179815D01*
X96019321Y2233240D01*
X96005640Y2325475D01*
X96000306Y2379633D01*
X95995729Y2472776D01*
X95995729Y2527224D01*
X96000306Y2620367D01*
X96005640Y2674525D01*
X96019321Y2766760D01*
X96029948Y2820185D01*
X96052596Y2910603D01*
X96068410Y2962735D01*
X96099812Y3050496D01*
X96120656Y3100818D01*
X96160513Y3185088D01*
X96186189Y3233124D01*
X96234115Y3313086D01*
X96264371Y3358366D01*
X96319906Y3433246D01*
X96354466Y3475358D01*
X96417061Y3544420D01*
X96455580Y3582939D01*
X96524642Y3645534D01*
X96566754Y3680094D01*
X96641634Y3735629D01*
X96686914Y3765885D01*
X96766876Y3813811D01*
X96814912Y3839487D01*
X96899182Y3879344D01*
X96949504Y3900188D01*
X97037265Y3931590D01*
X97089397Y3947404D01*
X97179815Y3970052D01*
X97233240Y3980679D01*
X97325475Y3994360D01*
X97379633Y3999694D01*
X97472776Y4004271D01*
X97527224Y4004271D01*
X97620367Y3999694D01*
X97674525Y3994360D01*
X97766760Y3980679D01*
X97820185Y3970052D01*
X97910603Y3947404D01*
X97962735Y3931590D01*
X98050496Y3900188D01*
X98100818Y3879344D01*
X98185088Y3839487D01*
X98233124Y3813811D01*
X98313086Y3765885D01*
X98358366Y3735629D01*
X98433246Y3680094D01*
X98475358Y3645534D01*
X98544420Y3582939D01*
X98582939Y3544420D01*
X98645534Y3475358D01*
X98680094Y3433246D01*
X98735629Y3358366D01*
X98765885Y3313086D01*
X98813811Y3233124D01*
X98839487Y3185088D01*
X98879344Y3100818D01*
X98900188Y3050496D01*
X98931590Y2962735D01*
X98947404Y2910603D01*
X98970052Y2820185D01*
X98980679Y2766760D01*
X98994360Y2674525D01*
X98999694Y2620367D01*
X99004271Y2527224D01*
X99004271Y2472776D01*
X98999694Y2379633D01*
X98994360Y2325475D01*
X98980679Y2233240D01*
X98970052Y2179815D01*
X98947404Y2089397D01*
X98931590Y2037265D01*
X98900188Y1949504D01*
X98879344Y1899182D01*
X98839487Y1814912D01*
X98813811Y1766876D01*
X98765885Y1686914D01*
X98735629Y1641634D01*
X98680094Y1566754D01*
X98645534Y1524642D01*
X98582939Y1455580D01*
X98544420Y1417061D01*
X98475358Y1354466D01*
X98433246Y1319906D01*
X98358366Y1264371D01*
X98313086Y1234115D01*
X98233124Y1186189D01*
X98185088Y1160513D01*
X98100818Y1120656D01*
X98050496Y1099812D01*
X97962735Y1068410D01*
X97910603Y1052596D01*
X97820185Y1029948D01*
X97766760Y1019321D01*
X97674525Y1005640D01*
X97620367Y1000306D01*
X97527224Y995729D01*
D02*
G37*
%LPC*%
G36*
X2527224Y995729D02*
X2472776Y995729D01*
X2379633Y1000306D01*
X2325475Y1005640D01*
X2233240Y1019321D01*
X2179815Y1029948D01*
X2089397Y1052596D01*
X2037265Y1068410D01*
X1949504Y1099812D01*
X1899182Y1120656D01*
X1814912Y1160513D01*
X1766876Y1186189D01*
X1686914Y1234115D01*
X1641634Y1264371D01*
X1566754Y1319906D01*
X1524641Y1354467D01*
X1505920Y1371435D01*
X1471701Y1391761D01*
X1432266Y1397130D01*
X1393859Y1386692D01*
X1368052Y1368052D01*
X1390031Y1401232D01*
X1397328Y1440357D01*
X1388788Y1479229D01*
X1371435Y1505920D01*
X1354467Y1524641D01*
X1319906Y1566754D01*
X1264371Y1641634D01*
X1234115Y1686914D01*
X1186189Y1766876D01*
X1160513Y1814912D01*
X1120656Y1899182D01*
X1099812Y1949504D01*
X1068410Y2037265D01*
X1052596Y2089397D01*
X1029948Y2179815D01*
X1019321Y2233240D01*
X1005640Y2325475D01*
X1000306Y2379633D01*
X995729Y2472776D01*
X995729Y2527224D01*
X1000306Y2620367D01*
X1005640Y2674525D01*
X1019321Y2766760D01*
X1029948Y2820185D01*
X1052596Y2910603D01*
X1068410Y2962735D01*
X1099812Y3050496D01*
X1120656Y3100818D01*
X1160513Y3185088D01*
X1186189Y3233124D01*
X1234115Y3313086D01*
X1264371Y3358366D01*
X1319906Y3433246D01*
X1354466Y3475358D01*
X1417061Y3544420D01*
X1455580Y3582939D01*
X1524642Y3645534D01*
X1566754Y3680094D01*
X1641634Y3735629D01*
X1686914Y3765885D01*
X1766876Y3813811D01*
X1814912Y3839487D01*
X1899182Y3879344D01*
X1949504Y3900188D01*
X2037265Y3931590D01*
X2089397Y3947404D01*
X2179815Y3970052D01*
X2233240Y3980679D01*
X2325475Y3994360D01*
X2379633Y3999694D01*
X2472776Y4004271D01*
X2527224Y4004271D01*
X2620367Y3999694D01*
X2674525Y3994360D01*
X2766760Y3980679D01*
X2820185Y3970052D01*
X2910603Y3947404D01*
X2962735Y3931590D01*
X3050496Y3900188D01*
X3100818Y3879344D01*
X3185088Y3839487D01*
X3233124Y3813811D01*
X3313086Y3765885D01*
X3358366Y3735629D01*
X3433246Y3680094D01*
X3475359Y3645533D01*
X3494080Y3628565D01*
X3528299Y3608239D01*
X3567734Y3602870D01*
X3606141Y3613308D01*
X3631948Y3631948D01*
X3609969Y3598768D01*
X3602672Y3559643D01*
X3611212Y3520771D01*
X3628565Y3494080D01*
X3645533Y3475359D01*
X3680094Y3433246D01*
X3735629Y3358366D01*
X3765885Y3313086D01*
X3813811Y3233124D01*
X3839487Y3185088D01*
X3879344Y3100818D01*
X3900188Y3050496D01*
X3931590Y2962735D01*
X3947404Y2910603D01*
X3970052Y2820185D01*
X3980679Y2766760D01*
X3994360Y2674525D01*
X3999694Y2620367D01*
X4004271Y2527224D01*
X4004271Y2472776D01*
X3999694Y2379633D01*
X3994360Y2325475D01*
X3980679Y2233240D01*
X3970052Y2179815D01*
X3947404Y2089397D01*
X3931590Y2037265D01*
X3900188Y1949504D01*
X3879344Y1899182D01*
X3839487Y1814912D01*
X3813811Y1766876D01*
X3765885Y1686914D01*
X3735629Y1641634D01*
X3680094Y1566754D01*
X3645534Y1524642D01*
X3582939Y1455580D01*
X3544420Y1417061D01*
X3475358Y1354466D01*
X3433246Y1319906D01*
X3358366Y1264371D01*
X3313086Y1234115D01*
X3233124Y1186189D01*
X3185088Y1160513D01*
X3100818Y1120656D01*
X3050496Y1099812D01*
X2962735Y1068410D01*
X2910603Y1052596D01*
X2820185Y1029948D01*
X2766760Y1019321D01*
X2674525Y1005640D01*
X2620367Y1000306D01*
X2527224Y995729D01*
D02*
G37*
%LPD*%
G01*
%LPD*%
D11*
X70600000Y83800000D02*
X72400000Y83800000D01*
D11*
X75900000Y68600000D02*
X74600000Y68600000D01*
D11*
X74600000Y68600000D02*
X74600000Y81600000D01*
D11*
X20400000Y85900000D02*
X22200000Y85900000D01*
D11*
X25700000Y70700000D02*
X24400000Y70700000D01*
D11*
X24400000Y70700000D02*
X24400000Y83700000D01*
D11*
X78997367Y25047127D02*
X77197367Y25047127D01*
D11*
X73697367Y40247127D02*
X74997367Y40247127D01*
D11*
X74997367Y40247127D02*
X74997367Y27247127D01*
D11*
X16750000Y54000000D02*
X16750000Y55800000D01*
D11*
X31950000Y59300000D02*
X31950000Y58000000D01*
D11*
X31950000Y58000000D02*
X18950000Y58000000D01*
D11*
X24200000Y21600000D02*
X24200000Y23400000D01*
D11*
X39400000Y26900000D02*
X39400000Y25600000D01*
D11*
X39400000Y25600000D02*
X26400000Y25600000D01*
D11*
X53600000Y50800000D02*
X55400000Y50800000D01*
D11*
X58900000Y35600000D02*
X57600000Y35600000D01*
D11*
X57600000Y35600000D02*
X57600000Y48600000D01*
D11*
X84800000Y63400000D02*
X84800000Y61600000D01*
D11*
X69600000Y58100000D02*
X69600000Y59400000D01*
D11*
X69600000Y59400000D02*
X82600000Y59400000D01*
D11*
X55600000Y15100000D02*
X53800000Y15100000D01*
D11*
X50300000Y30300000D02*
X51600000Y30300000D01*
D11*
X51600000Y30300000D02*
X51600000Y17300000D01*
D11*
X53400000Y73200000D02*
X51600000Y73200000D01*
D11*
X48100000Y88400000D02*
X49400000Y88400000D01*
D11*
X49400000Y88400000D02*
X49400000Y75400000D01*
G75*
D11*
G03*
X74600000Y81600000D02*
X72400000Y83800000I-2200000J0D01*
D11*
G03*
X64800000Y89600000D02*
X70600000Y83800000I5800001J1D01*
D11*
G03*
X24400000Y83700000D02*
X22200000Y85900000I-2200000J0D01*
D11*
G03*
X14600000Y91700000D02*
X20400000Y85900000I5800001J1D01*
D11*
G03*
X74997367Y27247127D02*
X77197367Y25047127I2200000J0D01*
D11*
G03*
X84797367Y19247127D02*
X78997367Y25047127I-5800001J-1D01*
D11*
G03*
X18950000Y58000000D02*
X16750000Y55800000I0J-2200000D01*
D11*
G03*
X10950000Y48200000D02*
X16750000Y54000000I-1J5800001D01*
D11*
G03*
X26400000Y25600000D02*
X24200000Y23400000I0J-2200000D01*
D11*
G03*
X18400000Y15800000D02*
X24200000Y21600000I-1J5800001D01*
D11*
G03*
X57600000Y48600000D02*
X55400000Y50800000I-2200000J0D01*
D11*
G03*
X47800000Y56600000D02*
X53600000Y50800000I5800001J1D01*
D11*
G03*
X82600000Y59400000D02*
X84800000Y61600000I0J2200000D01*
D11*
G03*
X90600000Y69200000D02*
X84800000Y63400000I1J-5800001D01*
D11*
G03*
X51600000Y17300000D02*
X53800000Y15100000I2200000J0D01*
D11*
G03*
X61400000Y9300000D02*
X55600000Y15100000I-5800001J-1D01*
D11*
G03*
X49400000Y75400000D02*
X51600000Y73200000I2200000J0D01*
D11*
G03*
X59200000Y67400000D02*
X53400000Y73200000I-5800001J-1D01*
D10*
X3850000Y7500000D03*
D10*
X96150000Y7500000D03*
D10*
X3850000Y92500000D03*
D10*
X96150000Y87000000D03*
D12*
X73950000Y90050000D03*
D13*
X75900000Y65500000D03*
D13*
X74600000Y65500000D03*
D12*
X69950000Y90050000D03*
D13*
X74600000Y68600000D03*
D12*
X64800000Y89600000D03*
D12*
X58200000Y89800000D03*
D13*
X75900000Y68600000D03*
D14*
X91100000Y83800000D03*
D14*
X91100000Y82500000D03*
D12*
X23750000Y92150000D03*
D13*
X25700000Y67600000D03*
D13*
X24400000Y67600000D03*
D12*
X19750000Y92150000D03*
D13*
X24400000Y70700000D03*
D12*
X14600000Y91700000D03*
D12*
X8000000Y91900000D03*
D13*
X25700000Y70700000D03*
D14*
X40900000Y85900000D03*
D14*
X40900000Y84600000D03*
D15*
X75647367Y18797127D03*
D16*
X73697367Y43347127D03*
D16*
X74997367Y43347127D03*
D15*
X79647367Y18797127D03*
D16*
X74997367Y40247127D03*
D15*
X84797367Y19247127D03*
D15*
X91397367Y19047127D03*
D16*
X73697367Y40247127D03*
D17*
X58497367Y25047127D03*
D17*
X58497367Y26347127D03*
D18*
X10500000Y57350000D03*
D19*
X35050000Y59300000D03*
D19*
X35050000Y58000000D03*
D18*
X10500000Y53350000D03*
D19*
X31950000Y58000000D03*
D18*
X10950000Y48200000D03*
D18*
X10750000Y41600000D03*
D19*
X31950000Y59300000D03*
D20*
X16750000Y74500000D03*
D20*
X18050000Y74500000D03*
D18*
X17950000Y24950000D03*
D19*
X42500000Y26900000D03*
D19*
X42500000Y25600000D03*
D18*
X17950000Y20950000D03*
D19*
X39400000Y25600000D03*
D18*
X18400000Y15800000D03*
D18*
X18200000Y9200000D03*
D19*
X39400000Y26900000D03*
D20*
X24200000Y42100000D03*
D20*
X25500000Y42100000D03*
D12*
X56950000Y57050000D03*
D13*
X58900000Y32500000D03*
D13*
X57600000Y32500000D03*
D12*
X52950000Y57050000D03*
D13*
X57600000Y35600000D03*
D12*
X47800000Y56600000D03*
D12*
X41200000Y56800000D03*
D13*
X58900000Y35600000D03*
D14*
X74100000Y50800000D03*
D14*
X74100000Y49500000D03*
D21*
X91050000Y60050000D03*
D22*
X66500000Y58100000D03*
D22*
X66500000Y59400000D03*
D21*
X91050000Y64050000D03*
D22*
X69600000Y59400000D03*
D21*
X90600000Y69200000D03*
D21*
X90800000Y75800000D03*
D22*
X69600000Y58100000D03*
D23*
X84800000Y42900000D03*
D23*
X83500000Y42900000D03*
D15*
X52250000Y8850000D03*
D16*
X50300000Y33400000D03*
D16*
X51600000Y33400000D03*
D15*
X56250000Y8850000D03*
D16*
X51600000Y30300000D03*
D15*
X61400000Y9300000D03*
D15*
X68000000Y9100000D03*
D16*
X50300000Y30300000D03*
D17*
X35100000Y15100000D03*
D17*
X35100000Y16400000D03*
D15*
X50050000Y66950000D03*
D16*
X48100000Y91500000D03*
D16*
X49400000Y91500000D03*
D15*
X54050000Y66950000D03*
D16*
X49400000Y88400000D03*
D15*
X59200000Y67400000D03*
D15*
X65800000Y67200000D03*
D16*
X48100000Y88400000D03*
D17*
X32900000Y73200000D03*
D17*
X32900000Y74500000D03*
M02*
