%FSLAX46Y46*%
%MOMM*%
%AMPS17*
21,1,1.000000,1.000000,0.000000,0.000000,0.000000*
%
%ADD17PS17*%
%AMPS36*
21,1,1.650000,2.200000,0.000000,0.000000,90.000000*
%
%ADD36PS36*%
%AMPS35*
21,1,1.650000,2.200000,0.000000,0.000000,270.000000*
%
%ADD35PS35*%
%AMPS14*
21,1,0.800000,1.700000,0.000000,0.000000,90.000000*
%
%ADD14PS14*%
%AMPS15*
21,1,0.800000,1.700000,0.000000,0.000000,270.000000*
%
%ADD15PS15*%
%AMPS18*
21,1,1.450000,1.950000,0.000000,0.000000,90.000000*
%
%ADD18PS18*%
%AMPS34*
21,1,1.000000,1.700000,0.000000,0.000000,90.000000*
%
%ADD34PS34*%
%AMPS19*
21,1,3.700000,1.950000,0.000000,0.000000,90.000000*
%
%ADD19PS19*%
%AMPS27*
21,1,1.600000,1.400000,0.000000,0.000000,90.000000*
%
%ADD27PS27*%
%AMPS37*
1,1,0.550000,0.000000,0.000000*
%
%ADD37PS37*%
%AMPS33*
1,1,0.560000,-0.220000,0.195000*
1,1,0.560000,0.220000,-0.195000*
1,1,0.560000,0.220000,0.195000*
1,1,0.560000,-0.220000,-0.195000*
21,1,1.000000,0.390000,0.000000,0.000000,0.000000*
21,1,0.440000,0.950000,0.000000,0.000000,0.000000*
%
%ADD33PS33*%
%AMPS20*
1,1,0.560000,-0.195000,-0.220000*
1,1,0.560000,0.195000,0.220000*
1,1,0.560000,-0.195000,0.220000*
1,1,0.560000,0.195000,-0.220000*
21,1,1.000000,0.390000,0.000000,0.000000,90.000000*
21,1,0.440000,0.950000,0.000000,0.000000,90.000000*
%
%ADD20PS20*%
%AMPS12*
1,1,0.560000,0.195000,0.220000*
1,1,0.560000,-0.195000,-0.220000*
1,1,0.560000,0.195000,-0.220000*
1,1,0.560000,-0.195000,0.220000*
21,1,1.000000,0.390000,0.000000,0.000000,270.000000*
21,1,0.440000,0.950000,0.000000,0.000000,270.000000*
%
%ADD12PS12*%
%AMPS10*
1,1,0.700000,-0.250000,0.375000*
1,1,0.700000,0.250000,-0.375000*
1,1,0.700000,0.250000,0.375000*
1,1,0.700000,-0.250000,-0.375000*
21,1,1.200000,0.750000,0.000000,0.000000,0.000000*
21,1,0.500000,1.450000,0.000000,0.000000,0.000000*
%
%ADD10PS10*%
%AMPS30*
1,1,0.700000,0.250000,-0.375000*
1,1,0.700000,-0.250000,0.375000*
1,1,0.700000,-0.250000,-0.375000*
1,1,0.700000,0.250000,0.375000*
21,1,1.200000,0.750000,0.000000,0.000000,180.000000*
21,1,0.500000,1.450000,0.000000,0.000000,180.000000*
%
%ADD30PS30*%
%AMPS11*
1,1,0.700000,0.375000,0.250000*
1,1,0.700000,-0.375000,-0.250000*
1,1,0.700000,0.375000,-0.250000*
1,1,0.700000,-0.375000,0.250000*
21,1,1.200000,0.750000,0.000000,0.000000,270.000000*
21,1,0.500000,1.450000,0.000000,0.000000,270.000000*
%
%ADD11PS11*%
%AMPS32*
1,1,0.440000,-0.130000,0.330000*
1,1,0.440000,0.130000,-0.330000*
1,1,0.440000,0.130000,0.330000*
1,1,0.440000,-0.130000,-0.330000*
21,1,0.700000,0.660000,0.000000,0.000000,0.000000*
21,1,0.260000,1.100000,0.000000,0.000000,0.000000*
%
%ADD32PS32*%
%AMPS13*
1,1,0.440000,-0.330000,-0.130000*
1,1,0.440000,0.330000,0.130000*
1,1,0.440000,-0.330000,0.130000*
1,1,0.440000,0.330000,-0.130000*
21,1,0.700000,0.660000,0.000000,0.000000,90.000000*
21,1,0.260000,1.100000,0.000000,0.000000,90.000000*
%
%ADD13PS13*%
%AMPS29*
1,1,0.440000,0.130000,-0.330000*
1,1,0.440000,-0.130000,0.330000*
1,1,0.440000,-0.130000,-0.330000*
1,1,0.440000,0.130000,0.330000*
21,1,0.700000,0.660000,0.000000,0.000000,180.000000*
21,1,0.260000,1.100000,0.000000,0.000000,180.000000*
%
%ADD29PS29*%
%AMPS16*
1,1,0.440000,0.330000,0.130000*
1,1,0.440000,-0.330000,-0.130000*
1,1,0.440000,0.330000,-0.130000*
1,1,0.440000,-0.330000,0.130000*
21,1,0.700000,0.660000,0.000000,0.000000,270.000000*
21,1,0.260000,1.100000,0.000000,0.000000,270.000000*
%
%ADD16PS16*%
%AMPS23*
1,1,0.325000,-0.387500,0.077500*
1,1,0.325000,0.387500,-0.077500*
1,1,0.325000,0.387500,0.077500*
1,1,0.325000,-0.387500,-0.077500*
21,1,1.100000,0.155000,0.000000,0.000000,0.000000*
21,1,0.775000,0.480000,0.000000,0.000000,0.000000*
%
%ADD23PS23*%
%AMPS21*
1,1,0.325000,-0.077500,-0.387500*
1,1,0.325000,0.077500,0.387500*
1,1,0.325000,-0.077500,0.387500*
1,1,0.325000,0.077500,-0.387500*
21,1,1.100000,0.155000,0.000000,0.000000,90.000000*
21,1,0.775000,0.480000,0.000000,0.000000,90.000000*
%
%ADD21PS21*%
%AMPS22*
1,1,0.325000,0.387500,-0.077500*
1,1,0.325000,-0.387500,0.077500*
1,1,0.325000,-0.387500,-0.077500*
1,1,0.325000,0.387500,0.077500*
21,1,1.100000,0.155000,0.000000,0.000000,180.000000*
21,1,0.775000,0.480000,0.000000,0.000000,180.000000*
%
%ADD22PS22*%
%AMPS24*
1,1,0.325000,0.077500,0.387500*
1,1,0.325000,-0.077500,-0.387500*
1,1,0.325000,0.077500,-0.387500*
1,1,0.325000,-0.077500,0.387500*
21,1,1.100000,0.155000,0.000000,0.000000,270.000000*
21,1,0.775000,0.480000,0.000000,0.000000,270.000000*
%
%ADD24PS24*%
%AMPS25*
21,1,4.299999,4.299999,0.000000,0.000000,180.000000*
%
%ADD25PS25*%
%AMPS28*
1,1,2.740000,0.000000,0.000000*
%
%ADD28PS28*%
%AMPS31*
1,1,2.740000,0.000000,0.000000*
%
%ADD31PS31*%
%AMPS26*
1,1,2.740000,0.000000,0.000000*
%
%ADD26PS26*%
G01*
%LPD*%
G36*
X59480785Y29554910D02*
X59500000Y29750000D01*
X59480785Y29945090D01*
X59423879Y30132683D01*
X59331469Y30305570D01*
X59207106Y30457106D01*
X59055570Y30581469D01*
X58882683Y30673879D01*
X58695090Y30730785D01*
X58500000Y30750000D01*
X58304910Y30730785D01*
X58117317Y30673879D01*
X57944430Y30581469D01*
X57792894Y30457106D01*
X57668531Y30305570D01*
X57576121Y30132683D01*
X57519215Y29945090D01*
X57500000Y29750000D01*
X57519215Y29554910D01*
X57576121Y29367317D01*
X57668531Y29194430D01*
X57792894Y29042894D01*
X57944430Y28918531D01*
X58117317Y28826121D01*
X58304910Y28769215D01*
X58500000Y28750000D01*
X58695090Y28769215D01*
X58882683Y28826121D01*
X59055570Y28918531D01*
X59207106Y29042894D01*
X59331469Y29194430D01*
X59423879Y29367317D01*
X59480785Y29554910D01*
D02*
G37*
G36*
X32480785Y54804910D02*
X32500000Y55000000D01*
X32480785Y55195090D01*
X32423879Y55382683D01*
X32331469Y55555570D01*
X32207106Y55707106D01*
X32055570Y55831469D01*
X31882683Y55923879D01*
X31695090Y55980785D01*
X31500000Y56000000D01*
X31304910Y55980785D01*
X31117317Y55923879D01*
X30944430Y55831469D01*
X30792894Y55707106D01*
X30668531Y55555570D01*
X30576121Y55382683D01*
X30519215Y55195090D01*
X30500000Y55000000D01*
X30519215Y54804910D01*
X30576121Y54617317D01*
X30668531Y54444430D01*
X30792894Y54292894D01*
X30944430Y54168531D01*
X31117317Y54076121D01*
X31304910Y54019215D01*
X31500000Y54000000D01*
X31695090Y54019215D01*
X31882683Y54076121D01*
X32055570Y54168531D01*
X32207106Y54292894D01*
X32331469Y54444430D01*
X32423879Y54617317D01*
X32480785Y54804910D01*
D02*
G37*
G36*
X89480785Y29554910D02*
X89500000Y29750000D01*
X89480785Y29945090D01*
X89423879Y30132683D01*
X89331469Y30305570D01*
X89207106Y30457106D01*
X89055570Y30581469D01*
X88882683Y30673879D01*
X88695090Y30730785D01*
X88500000Y30750000D01*
X88304910Y30730785D01*
X88117317Y30673879D01*
X87944430Y30581469D01*
X87792894Y30457106D01*
X87668531Y30305570D01*
X87576121Y30132683D01*
X87519215Y29945090D01*
X87500000Y29750000D01*
X87519215Y29554910D01*
X87576121Y29367317D01*
X87668531Y29194430D01*
X87792894Y29042894D01*
X87944430Y28918531D01*
X88117317Y28826121D01*
X88304910Y28769215D01*
X88500000Y28750000D01*
X88695090Y28769215D01*
X88882683Y28826121D01*
X89055570Y28918531D01*
X89207106Y29042894D01*
X89331469Y29194430D01*
X89423879Y29367317D01*
X89480785Y29554910D01*
D02*
G37*
G36*
X62480785Y54804910D02*
X62500000Y55000000D01*
X62480785Y55195090D01*
X62423879Y55382683D01*
X62331469Y55555570D01*
X62207106Y55707106D01*
X62055570Y55831469D01*
X61882683Y55923879D01*
X61695090Y55980785D01*
X61500000Y56000000D01*
X61304910Y55980785D01*
X61117317Y55923879D01*
X60944430Y55831469D01*
X60792894Y55707106D01*
X60668531Y55555570D01*
X60576121Y55382683D01*
X60519215Y55195090D01*
X60500000Y55000000D01*
X60519215Y54804910D01*
X60576121Y54617317D01*
X60668531Y54444430D01*
X60792894Y54292894D01*
X60944430Y54168531D01*
X61117317Y54076121D01*
X61304910Y54019215D01*
X61500000Y54000000D01*
X61695090Y54019215D01*
X61882683Y54076121D01*
X62055570Y54168531D01*
X62207106Y54292894D01*
X62331469Y54444430D01*
X62423879Y54617317D01*
X62480785Y54804910D01*
D02*
G37*
G36*
X89480785Y1304910D02*
X89500000Y1500000D01*
X89480785Y1695090D01*
X89423879Y1882683D01*
X89331469Y2055570D01*
X89207106Y2207106D01*
X89055570Y2331469D01*
X88882683Y2423879D01*
X88695090Y2480785D01*
X88500000Y2500000D01*
X88304910Y2480785D01*
X88117317Y2423879D01*
X87944430Y2331469D01*
X87792894Y2207106D01*
X87668531Y2055570D01*
X87576121Y1882683D01*
X87519215Y1695090D01*
X87500000Y1500000D01*
X87519215Y1304910D01*
X87576121Y1117317D01*
X87668531Y944430D01*
X87792894Y792894D01*
X87944430Y668531D01*
X88117317Y576121D01*
X88304910Y519215D01*
X88500000Y500000D01*
X88695090Y519215D01*
X88882683Y576121D01*
X89055570Y668531D01*
X89207106Y792894D01*
X89331469Y944430D01*
X89423879Y1117317D01*
X89480785Y1304910D01*
D02*
G37*
G36*
X62480785Y26554910D02*
X62500000Y26750000D01*
X62480785Y26945090D01*
X62423879Y27132683D01*
X62331469Y27305570D01*
X62207106Y27457106D01*
X62055570Y27581469D01*
X61882683Y27673879D01*
X61695090Y27730785D01*
X61500000Y27750000D01*
X61304910Y27730785D01*
X61117317Y27673879D01*
X60944430Y27581469D01*
X60792894Y27457106D01*
X60668531Y27305570D01*
X60576121Y27132683D01*
X60519215Y26945090D01*
X60500000Y26750000D01*
X60519215Y26554910D01*
X60576121Y26367317D01*
X60668531Y26194430D01*
X60792894Y26042894D01*
X60944430Y25918531D01*
X61117317Y25826121D01*
X61304910Y25769215D01*
X61500000Y25750000D01*
X61695090Y25769215D01*
X61882683Y25826121D01*
X62055570Y25918531D01*
X62207106Y26042894D01*
X62331469Y26194430D01*
X62423879Y26367317D01*
X62480785Y26554910D01*
D02*
G37*
G36*
X59480785Y57804910D02*
X59500000Y58000000D01*
X59480785Y58195090D01*
X59423879Y58382683D01*
X59331469Y58555570D01*
X59207106Y58707106D01*
X59055570Y58831469D01*
X58882683Y58923879D01*
X58695090Y58980785D01*
X58500000Y59000000D01*
X58304910Y58980785D01*
X58117317Y58923879D01*
X57944430Y58831469D01*
X57792894Y58707106D01*
X57668531Y58555570D01*
X57576121Y58382683D01*
X57519215Y58195090D01*
X57500000Y58000000D01*
X57519215Y57804910D01*
X57576121Y57617317D01*
X57668531Y57444430D01*
X57792894Y57292894D01*
X57944430Y57168531D01*
X58117317Y57076121D01*
X58304910Y57019215D01*
X58500000Y57000000D01*
X58695090Y57019215D01*
X58882683Y57076121D01*
X59055570Y57168531D01*
X59207106Y57292894D01*
X59331469Y57444430D01*
X59423879Y57617317D01*
X59480785Y57804910D01*
D02*
G37*
G36*
X32480785Y83054910D02*
X32500000Y83250000D01*
X32480785Y83445090D01*
X32423879Y83632683D01*
X32331469Y83805570D01*
X32207106Y83957106D01*
X32055570Y84081469D01*
X31882683Y84173879D01*
X31695090Y84230785D01*
X31500000Y84250000D01*
X31304910Y84230785D01*
X31117317Y84173879D01*
X30944430Y84081469D01*
X30792894Y83957106D01*
X30668531Y83805570D01*
X30576121Y83632683D01*
X30519215Y83445090D01*
X30500000Y83250000D01*
X30519215Y83054910D01*
X30576121Y82867317D01*
X30668531Y82694430D01*
X30792894Y82542894D01*
X30944430Y82418531D01*
X31117317Y82326121D01*
X31304910Y82269215D01*
X31500000Y82250000D01*
X31695090Y82269215D01*
X31882683Y82326121D01*
X32055570Y82418531D01*
X32207106Y82542894D01*
X32331469Y82694430D01*
X32423879Y82867317D01*
X32480785Y83054910D01*
D02*
G37*
G36*
X29480785Y57804910D02*
X29500000Y58000000D01*
X29480785Y58195090D01*
X29423879Y58382683D01*
X29331469Y58555570D01*
X29207106Y58707106D01*
X29055570Y58831469D01*
X28882683Y58923879D01*
X28695090Y58980785D01*
X28500000Y59000000D01*
X28304910Y58980785D01*
X28117317Y58923879D01*
X27944430Y58831469D01*
X27792894Y58707106D01*
X27668531Y58555570D01*
X27576121Y58382683D01*
X27519215Y58195090D01*
X27500000Y58000000D01*
X27519215Y57804910D01*
X27576121Y57617317D01*
X27668531Y57444430D01*
X27792894Y57292894D01*
X27944430Y57168531D01*
X28117317Y57076121D01*
X28304910Y57019215D01*
X28500000Y57000000D01*
X28695090Y57019215D01*
X28882683Y57076121D01*
X29055570Y57168531D01*
X29207106Y57292894D01*
X29331469Y57444430D01*
X29423879Y57617317D01*
X29480785Y57804910D01*
D02*
G37*
G36*
X2480785Y83054910D02*
X2500000Y83250000D01*
X2480785Y83445090D01*
X2423879Y83632683D01*
X2331469Y83805570D01*
X2207106Y83957106D01*
X2055570Y84081469D01*
X1882683Y84173879D01*
X1695090Y84230785D01*
X1500000Y84250000D01*
X1304910Y84230785D01*
X1117317Y84173879D01*
X944430Y84081469D01*
X792894Y83957106D01*
X668531Y83805570D01*
X576121Y83632683D01*
X519215Y83445090D01*
X500000Y83250000D01*
X519215Y83054910D01*
X576121Y82867317D01*
X668531Y82694430D01*
X792894Y82542894D01*
X944430Y82418531D01*
X1117317Y82326121D01*
X1304910Y82269215D01*
X1500000Y82250000D01*
X1695090Y82269215D01*
X1882683Y82326121D01*
X2055570Y82418531D01*
X2207106Y82542894D01*
X2331469Y82694430D01*
X2423879Y82867317D01*
X2480785Y83054910D01*
D02*
G37*
G36*
X29480785Y29554910D02*
X29500000Y29750000D01*
X29480785Y29945090D01*
X29423879Y30132683D01*
X29331469Y30305570D01*
X29207106Y30457106D01*
X29055570Y30581469D01*
X28882683Y30673879D01*
X28695090Y30730785D01*
X28500000Y30750000D01*
X28304910Y30730785D01*
X28117317Y30673879D01*
X27944430Y30581469D01*
X27792894Y30457106D01*
X27668531Y30305570D01*
X27576121Y30132683D01*
X27519215Y29945090D01*
X27500000Y29750000D01*
X27519215Y29554910D01*
X27576121Y29367317D01*
X27668531Y29194430D01*
X27792894Y29042894D01*
X27944430Y28918531D01*
X28117317Y28826121D01*
X28304910Y28769215D01*
X28500000Y28750000D01*
X28695090Y28769215D01*
X28882683Y28826121D01*
X29055570Y28918531D01*
X29207106Y29042894D01*
X29331469Y29194430D01*
X29423879Y29367317D01*
X29480785Y29554910D01*
D02*
G37*
G36*
X2480785Y54804910D02*
X2500000Y55000000D01*
X2480785Y55195090D01*
X2423879Y55382683D01*
X2331469Y55555570D01*
X2207106Y55707106D01*
X2055570Y55831469D01*
X1882683Y55923879D01*
X1695090Y55980785D01*
X1500000Y56000000D01*
X1304910Y55980785D01*
X1117317Y55923879D01*
X944430Y55831469D01*
X792894Y55707106D01*
X668531Y55555570D01*
X576121Y55382683D01*
X519215Y55195090D01*
X500000Y55000000D01*
X519215Y54804910D01*
X576121Y54617317D01*
X668531Y54444430D01*
X792894Y54292894D01*
X944430Y54168531D01*
X1117317Y54076121D01*
X1304910Y54019215D01*
X1500000Y54000000D01*
X1695090Y54019215D01*
X1882683Y54076121D01*
X2055570Y54168531D01*
X2207106Y54292894D01*
X2331469Y54444430D01*
X2423879Y54617317D01*
X2480785Y54804910D01*
D02*
G37*
G36*
X59480785Y1304910D02*
X59500000Y1500000D01*
X59480785Y1695090D01*
X59423879Y1882683D01*
X59331469Y2055570D01*
X59207106Y2207106D01*
X59055570Y2331469D01*
X58882683Y2423879D01*
X58695090Y2480785D01*
X58500000Y2500000D01*
X58304910Y2480785D01*
X58117317Y2423879D01*
X57944430Y2331469D01*
X57792894Y2207106D01*
X57668531Y2055570D01*
X57576121Y1882683D01*
X57519215Y1695090D01*
X57500000Y1500000D01*
X57519215Y1304910D01*
X57576121Y1117317D01*
X57668531Y944430D01*
X57792894Y792894D01*
X57944430Y668531D01*
X58117317Y576121D01*
X58304910Y519215D01*
X58500000Y500000D01*
X58695090Y519215D01*
X58882683Y576121D01*
X59055570Y668531D01*
X59207106Y792894D01*
X59331469Y944430D01*
X59423879Y1117317D01*
X59480785Y1304910D01*
D02*
G37*
G36*
X32480785Y26554910D02*
X32500000Y26750000D01*
X32480785Y26945090D01*
X32423879Y27132683D01*
X32331469Y27305570D01*
X32207106Y27457106D01*
X32055570Y27581469D01*
X31882683Y27673879D01*
X31695090Y27730785D01*
X31500000Y27750000D01*
X31304910Y27730785D01*
X31117317Y27673879D01*
X30944430Y27581469D01*
X30792894Y27457106D01*
X30668531Y27305570D01*
X30576121Y27132683D01*
X30519215Y26945090D01*
X30500000Y26750000D01*
X30519215Y26554910D01*
X30576121Y26367317D01*
X30668531Y26194430D01*
X30792894Y26042894D01*
X30944430Y25918531D01*
X31117317Y25826121D01*
X31304910Y25769215D01*
X31500000Y25750000D01*
X31695090Y25769215D01*
X31882683Y25826121D01*
X32055570Y25918531D01*
X32207106Y26042894D01*
X32331469Y26194430D01*
X32423879Y26367317D01*
X32480785Y26554910D01*
D02*
G37*
G36*
X29480785Y1304910D02*
X29500000Y1500000D01*
X29480785Y1695090D01*
X29423879Y1882683D01*
X29331469Y2055570D01*
X29207106Y2207106D01*
X29055570Y2331469D01*
X28882683Y2423879D01*
X28695090Y2480785D01*
X28500000Y2500000D01*
X28304910Y2480785D01*
X28117317Y2423879D01*
X27944430Y2331469D01*
X27792894Y2207106D01*
X27668531Y2055570D01*
X27576121Y1882683D01*
X27519215Y1695090D01*
X27500000Y1500000D01*
X27519215Y1304910D01*
X27576121Y1117317D01*
X27668531Y944430D01*
X27792894Y792894D01*
X27944430Y668531D01*
X28117317Y576121D01*
X28304910Y519215D01*
X28500000Y500000D01*
X28695090Y519215D01*
X28882683Y576121D01*
X29055570Y668531D01*
X29207106Y792894D01*
X29331469Y944430D01*
X29423879Y1117317D01*
X29480785Y1304910D01*
D02*
G37*
G36*
X2480785Y26554910D02*
X2500000Y26750000D01*
X2480785Y26945090D01*
X2423879Y27132683D01*
X2331469Y27305570D01*
X2207106Y27457106D01*
X2055570Y27581469D01*
X1882683Y27673879D01*
X1695090Y27730785D01*
X1500000Y27750000D01*
X1304910Y27730785D01*
X1117317Y27673879D01*
X944430Y27581469D01*
X792894Y27457106D01*
X668531Y27305570D01*
X576121Y27132683D01*
X519215Y26945090D01*
X500000Y26750000D01*
X519215Y26554910D01*
X576121Y26367317D01*
X668531Y26194430D01*
X792894Y26042894D01*
X944430Y25918531D01*
X1117317Y25826121D01*
X1304910Y25769215D01*
X1500000Y25750000D01*
X1695090Y25769215D01*
X1882683Y25826121D01*
X2055570Y25918531D01*
X2207106Y26042894D01*
X2331469Y26194430D01*
X2423879Y26367317D01*
X2480785Y26554910D01*
D02*
G37*
G36*
X89480785Y57804910D02*
X89500000Y58000000D01*
X89480785Y58195090D01*
X89423879Y58382683D01*
X89331469Y58555570D01*
X89207106Y58707106D01*
X89055570Y58831469D01*
X88882683Y58923879D01*
X88695090Y58980785D01*
X88500000Y59000000D01*
X88304910Y58980785D01*
X88117317Y58923879D01*
X87944430Y58831469D01*
X87792894Y58707106D01*
X87668531Y58555570D01*
X87576121Y58382683D01*
X87519215Y58195090D01*
X87500000Y58000000D01*
X87519215Y57804910D01*
X87576121Y57617317D01*
X87668531Y57444430D01*
X87792894Y57292894D01*
X87944430Y57168531D01*
X88117317Y57076121D01*
X88304910Y57019215D01*
X88500000Y57000000D01*
X88695090Y57019215D01*
X88882683Y57076121D01*
X89055570Y57168531D01*
X89207106Y57292894D01*
X89331469Y57444430D01*
X89423879Y57617317D01*
X89480785Y57804910D01*
D02*
G37*
G36*
X62480785Y83054910D02*
X62500000Y83250000D01*
X62480785Y83445090D01*
X62423879Y83632683D01*
X62331469Y83805570D01*
X62207106Y83957106D01*
X62055570Y84081469D01*
X61882683Y84173879D01*
X61695090Y84230785D01*
X61500000Y84250000D01*
X61304910Y84230785D01*
X61117317Y84173879D01*
X60944430Y84081469D01*
X60792894Y83957106D01*
X60668531Y83805570D01*
X60576121Y83632683D01*
X60519215Y83445090D01*
X60500000Y83250000D01*
X60519215Y83054910D01*
X60576121Y82867317D01*
X60668531Y82694430D01*
X60792894Y82542894D01*
X60944430Y82418531D01*
X61117317Y82326121D01*
X61304910Y82269215D01*
X61500000Y82250000D01*
X61695090Y82269215D01*
X61882683Y82326121D01*
X62055570Y82418531D01*
X62207106Y82542894D01*
X62331469Y82694430D01*
X62423879Y82867317D01*
X62480785Y83054910D01*
D02*
G37*
G01*
%LPD*%
G75*
D10*
X43000056Y53249992D03*
D10*
X45000056Y53249992D03*
D11*
X42999992Y51278710D03*
D11*
X42999992Y49278710D03*
D12*
X41250000Y35250000D03*
D12*
X41250000Y36750000D03*
D13*
X48500000Y51595000D03*
D13*
X48500000Y53095000D03*
D14*
X55700000Y52865000D03*
D14*
X55700000Y55405000D03*
D15*
X50300000Y52865000D03*
D14*
X55700000Y51595000D03*
D14*
X55700000Y54135000D03*
D15*
X50300000Y55405000D03*
D15*
X50300000Y54135000D03*
D15*
X50300000Y51595000D03*
D16*
X42750000Y35750000D03*
D16*
X42750000Y34250000D03*
D12*
X32250000Y33250000D03*
D12*
X32250000Y34750000D03*
D12*
X39750000Y35250000D03*
D12*
X39750000Y36750000D03*
D17*
X41700000Y32750000D03*
D17*
X43300000Y32750000D03*
D18*
X40800000Y54050000D03*
D18*
X40800000Y51750000D03*
D18*
X40800000Y49450000D03*
D19*
X34700000Y51750000D03*
D20*
X37750000Y47000000D03*
D20*
X37750000Y45500000D03*
D21*
X36750000Y38437500D03*
D22*
X41062500Y43250000D03*
D22*
X41062500Y40250000D03*
D23*
X35437500Y43250000D03*
D22*
X41062500Y42250000D03*
D21*
X39750000Y38437500D03*
D23*
X35437500Y40750000D03*
D21*
X40250000Y38437500D03*
D21*
X38250000Y38437500D03*
D24*
X38750000Y44062500D03*
D24*
X39750000Y44062500D03*
D24*
X39250000Y44062500D03*
D21*
X39250000Y38437500D03*
D23*
X35437500Y40250000D03*
D21*
X38750000Y38437500D03*
D22*
X41062500Y41750000D03*
D22*
X41062500Y39750000D03*
D23*
X35437500Y39750000D03*
D23*
X35437500Y41750000D03*
D21*
X36250000Y38437500D03*
D22*
X41062500Y41250000D03*
D23*
X35437500Y42250000D03*
D22*
X41062500Y39250000D03*
D23*
X35437500Y41250000D03*
D23*
X35437500Y39250000D03*
D21*
X37250000Y38437500D03*
D24*
X37250000Y44062500D03*
D22*
X41062500Y42750000D03*
D24*
X36750000Y44062500D03*
D24*
X38250000Y44062500D03*
D22*
X41062500Y40750000D03*
D24*
X37750000Y44062500D03*
D23*
X35437500Y42750000D03*
D24*
X40250000Y44062500D03*
D24*
X36250000Y44062500D03*
D25*
X38250000Y41250000D03*
D21*
X37750000Y38437500D03*
D20*
X37250000Y34250000D03*
D20*
X37250000Y32750000D03*
D26*
X32000000Y30250000D03*
D27*
X33950000Y35100000D03*
D27*
X33950000Y32900000D03*
D27*
X35550000Y32900000D03*
D27*
X35550000Y35100000D03*
D28*
X52250000Y30500000D03*
D29*
X33500000Y39750000D03*
D29*
X32000000Y39750000D03*
D20*
X39000000Y47000000D03*
D20*
X39000000Y45500000D03*
D30*
X42249944Y46750008D03*
D30*
X40249944Y46750008D03*
D31*
X38500000Y30250000D03*
D29*
X38500000Y35750000D03*
D29*
X37000000Y35750000D03*
D13*
X36000000Y45500000D03*
D13*
X36000000Y47000000D03*
D12*
X34250000Y45500000D03*
D12*
X34250000Y47000000D03*
D32*
X32750000Y38250000D03*
D32*
X34250000Y38250000D03*
D28*
X43750000Y30500000D03*
D13*
X47000000Y51595000D03*
D13*
X47000000Y53095000D03*
D13*
X39750000Y32500000D03*
D13*
X39750000Y34000000D03*
D20*
X33250000Y43750000D03*
D20*
X33250000Y42250000D03*
D33*
X51750000Y50000000D03*
D33*
X50250000Y50000000D03*
D20*
X42500000Y43500000D03*
D20*
X42500000Y42000000D03*
D28*
X47750000Y30500000D03*
D34*
X50200000Y45745000D03*
D34*
X50200000Y41345000D03*
D34*
X50200000Y44645000D03*
D34*
X50200000Y38045000D03*
D34*
X50200000Y43545000D03*
D35*
X47600000Y34375000D03*
D34*
X50200000Y39145000D03*
D36*
X55900000Y34375000D03*
D34*
X50200000Y42445000D03*
D34*
X50200000Y40245000D03*
D35*
X47600000Y48125000D03*
D36*
X55900000Y48125000D03*
D37*
X48250000Y43500000D03*
D37*
X51000000Y33250000D03*
D37*
X38250000Y42150000D03*
D37*
X49150000Y42445000D03*
D37*
X39150000Y40350000D03*
D37*
X47000000Y53750000D03*
D37*
X48500000Y53750000D03*
D37*
X34250000Y42750000D03*
D37*
X40000000Y43000000D03*
D37*
X34250000Y40500000D03*
D37*
X33549989Y41000000D03*
D37*
X44000000Y49250000D03*
D37*
X56000000Y49500000D03*
D37*
X37895000Y34250000D03*
D37*
X38500000Y32000000D03*
D37*
X48250000Y45750000D03*
D37*
X39150000Y41250000D03*
D37*
X49500000Y50000000D03*
D37*
X42000000Y36750000D03*
D37*
X37350000Y40350000D03*
D37*
X43250000Y42000000D03*
D37*
X40250000Y45250000D03*
D37*
X38250000Y41250000D03*
D37*
X42250000Y45750000D03*
D37*
X39150000Y42150000D03*
D37*
X35000000Y38250000D03*
D37*
X31780025Y40500000D03*
D37*
X34250000Y44750000D03*
D37*
X42500000Y44250000D03*
D37*
X39750000Y34500000D03*
D37*
X37000000Y45500000D03*
D37*
X38250000Y40350000D03*
D37*
X54500000Y34375000D03*
D37*
X37350000Y41250000D03*
D37*
X38375000Y47000000D03*
D37*
X49150000Y43545000D03*
D37*
X49100000Y34375000D03*
D37*
X49150000Y38045000D03*
D37*
X45000000Y52000000D03*
D37*
X34000000Y42000000D03*
D37*
X49150000Y41345000D03*
D37*
X49150000Y39145000D03*
D37*
X49150000Y40250000D03*
D37*
X33500000Y36500000D03*
D37*
X44750000Y45000000D03*
D37*
X41250000Y34500000D03*
D37*
X52674944Y52675008D03*
D37*
X32250000Y36500000D03*
D37*
X37350000Y42150000D03*
D37*
X44000000Y51250000D03*
D10*
X73000056Y53249992D03*
D10*
X75000056Y53249992D03*
D11*
X72999992Y51278710D03*
D11*
X72999992Y49278710D03*
D12*
X71250000Y35250000D03*
D12*
X71250000Y36750000D03*
D13*
X78500000Y51595000D03*
D13*
X78500000Y53095000D03*
D14*
X85700000Y52865000D03*
D14*
X85700000Y55405000D03*
D15*
X80300000Y52865000D03*
D14*
X85700000Y51595000D03*
D14*
X85700000Y54135000D03*
D15*
X80300000Y55405000D03*
D15*
X80300000Y54135000D03*
D15*
X80300000Y51595000D03*
D16*
X72750000Y35750000D03*
D16*
X72750000Y34250000D03*
D12*
X62250000Y33250000D03*
D12*
X62250000Y34750000D03*
D12*
X69750000Y35250000D03*
D12*
X69750000Y36750000D03*
D17*
X71700000Y32750000D03*
D17*
X73300000Y32750000D03*
D18*
X70800000Y54050000D03*
D18*
X70800000Y51750000D03*
D18*
X70800000Y49450000D03*
D19*
X64700000Y51750000D03*
D20*
X67750000Y47000000D03*
D20*
X67750000Y45500000D03*
D21*
X66750000Y38437500D03*
D22*
X71062500Y43250000D03*
D22*
X71062500Y40250000D03*
D23*
X65437500Y43250000D03*
D22*
X71062500Y42250000D03*
D21*
X69750000Y38437500D03*
D23*
X65437500Y40750000D03*
D21*
X70250000Y38437500D03*
D21*
X68250000Y38437500D03*
D24*
X68750000Y44062500D03*
D24*
X69750000Y44062500D03*
D24*
X69250000Y44062500D03*
D21*
X69250000Y38437500D03*
D23*
X65437500Y40250000D03*
D21*
X68750000Y38437500D03*
D22*
X71062500Y41750000D03*
D22*
X71062500Y39750000D03*
D23*
X65437500Y39750000D03*
D23*
X65437500Y41750000D03*
D21*
X66250000Y38437500D03*
D22*
X71062500Y41250000D03*
D23*
X65437500Y42250000D03*
D22*
X71062500Y39250000D03*
D23*
X65437500Y41250000D03*
D23*
X65437500Y39250000D03*
D21*
X67250000Y38437500D03*
D24*
X67250000Y44062500D03*
D22*
X71062500Y42750000D03*
D24*
X66750000Y44062500D03*
D24*
X68250000Y44062500D03*
D22*
X71062500Y40750000D03*
D24*
X67750000Y44062500D03*
D23*
X65437500Y42750000D03*
D24*
X70250000Y44062500D03*
D24*
X66250000Y44062500D03*
D25*
X68250000Y41250000D03*
D21*
X67750000Y38437500D03*
D20*
X67250000Y34250000D03*
D20*
X67250000Y32750000D03*
D26*
X62000000Y30250000D03*
D27*
X63950000Y35100000D03*
D27*
X63950000Y32900000D03*
D27*
X65550000Y32900000D03*
D27*
X65550000Y35100000D03*
D28*
X82250000Y30500000D03*
D29*
X63500000Y39750000D03*
D29*
X62000000Y39750000D03*
D20*
X69000000Y47000000D03*
D20*
X69000000Y45500000D03*
D30*
X72249944Y46750008D03*
D30*
X70249944Y46750008D03*
D31*
X68500000Y30250000D03*
D29*
X68500000Y35750000D03*
D29*
X67000000Y35750000D03*
D13*
X66000000Y45500000D03*
D13*
X66000000Y47000000D03*
D12*
X64250000Y45500000D03*
D12*
X64250000Y47000000D03*
D32*
X62750000Y38250000D03*
D32*
X64250000Y38250000D03*
D28*
X73750000Y30500000D03*
D13*
X77000000Y51595000D03*
D13*
X77000000Y53095000D03*
D13*
X69750000Y32500000D03*
D13*
X69750000Y34000000D03*
D20*
X63250000Y43750000D03*
D20*
X63250000Y42250000D03*
D33*
X81750000Y50000000D03*
D33*
X80250000Y50000000D03*
D20*
X72500000Y43500000D03*
D20*
X72500000Y42000000D03*
D28*
X77750000Y30500000D03*
D34*
X80200000Y45745000D03*
D34*
X80200000Y41345000D03*
D34*
X80200000Y44645000D03*
D34*
X80200000Y38045000D03*
D34*
X80200000Y43545000D03*
D35*
X77600000Y34375000D03*
D34*
X80200000Y39145000D03*
D36*
X85900000Y34375000D03*
D34*
X80200000Y42445000D03*
D34*
X80200000Y40245000D03*
D35*
X77600000Y48125000D03*
D36*
X85900000Y48125000D03*
D37*
X78250000Y43500000D03*
D37*
X81000000Y33250000D03*
D37*
X68250000Y42150000D03*
D37*
X79150000Y42445000D03*
D37*
X69150000Y40350000D03*
D37*
X77000000Y53750000D03*
D37*
X78500000Y53750000D03*
D37*
X64250000Y42750000D03*
D37*
X70000000Y43000000D03*
D37*
X64250000Y40500000D03*
D37*
X63549989Y41000000D03*
D37*
X74000000Y49250000D03*
D37*
X86000000Y49500000D03*
D37*
X67895000Y34250000D03*
D37*
X68500000Y32000000D03*
D37*
X78250000Y45750000D03*
D37*
X69150000Y41250000D03*
D37*
X79500000Y50000000D03*
D37*
X72000000Y36750000D03*
D37*
X67350000Y40350000D03*
D37*
X73250000Y42000000D03*
D37*
X70250000Y45250000D03*
D37*
X68250000Y41250000D03*
D37*
X72250000Y45750000D03*
D37*
X69150000Y42150000D03*
D37*
X65000000Y38250000D03*
D37*
X61780025Y40500000D03*
D37*
X64250000Y44750000D03*
D37*
X72500000Y44250000D03*
D37*
X69750000Y34500000D03*
D37*
X67000000Y45500000D03*
D37*
X68250000Y40350000D03*
D37*
X84500000Y34375000D03*
D37*
X67350000Y41250000D03*
D37*
X68375000Y47000000D03*
D37*
X79150000Y43545000D03*
D37*
X79100000Y34375000D03*
D37*
X79150000Y38045000D03*
D37*
X75000000Y52000000D03*
D37*
X64000000Y42000000D03*
D37*
X79150000Y41345000D03*
D37*
X79150000Y39145000D03*
D37*
X79150000Y40250000D03*
D37*
X63500000Y36500000D03*
D37*
X74750000Y45000000D03*
D37*
X71250000Y34500000D03*
D37*
X82674944Y52675008D03*
D37*
X62250000Y36500000D03*
D37*
X67350000Y42150000D03*
D37*
X74000000Y51250000D03*
D10*
X73000056Y24999992D03*
D10*
X75000056Y24999992D03*
D11*
X72999992Y23028710D03*
D11*
X72999992Y21028710D03*
D12*
X71250000Y7000000D03*
D12*
X71250000Y8500000D03*
D13*
X78500000Y23345000D03*
D13*
X78500000Y24845000D03*
D14*
X85700000Y24615000D03*
D14*
X85700000Y27155000D03*
D15*
X80300000Y24615000D03*
D14*
X85700000Y23345000D03*
D14*
X85700000Y25885000D03*
D15*
X80300000Y27155000D03*
D15*
X80300000Y25885000D03*
D15*
X80300000Y23345000D03*
D16*
X72750000Y7500000D03*
D16*
X72750000Y6000000D03*
D12*
X62250000Y5000000D03*
D12*
X62250000Y6500000D03*
D12*
X69750000Y7000000D03*
D12*
X69750000Y8500000D03*
D17*
X71700000Y4500000D03*
D17*
X73300000Y4500000D03*
D18*
X70800000Y25800000D03*
D18*
X70800000Y23500000D03*
D18*
X70800000Y21200000D03*
D19*
X64700000Y23500000D03*
D20*
X67750000Y18750000D03*
D20*
X67750000Y17250000D03*
D21*
X66750000Y10187500D03*
D22*
X71062500Y15000000D03*
D22*
X71062500Y12000000D03*
D23*
X65437500Y15000000D03*
D22*
X71062500Y14000000D03*
D21*
X69750000Y10187500D03*
D23*
X65437500Y12500000D03*
D21*
X70250000Y10187500D03*
D21*
X68250000Y10187500D03*
D24*
X68750000Y15812500D03*
D24*
X69750000Y15812500D03*
D24*
X69250000Y15812500D03*
D21*
X69250000Y10187500D03*
D23*
X65437500Y12000000D03*
D21*
X68750000Y10187500D03*
D22*
X71062500Y13500000D03*
D22*
X71062500Y11500000D03*
D23*
X65437500Y11500000D03*
D23*
X65437500Y13500000D03*
D21*
X66250000Y10187500D03*
D22*
X71062500Y13000000D03*
D23*
X65437500Y14000000D03*
D22*
X71062500Y11000000D03*
D23*
X65437500Y13000000D03*
D23*
X65437500Y11000000D03*
D21*
X67250000Y10187500D03*
D24*
X67250000Y15812500D03*
D22*
X71062500Y14500000D03*
D24*
X66750000Y15812500D03*
D24*
X68250000Y15812500D03*
D22*
X71062500Y12500000D03*
D24*
X67750000Y15812500D03*
D23*
X65437500Y14500000D03*
D24*
X70250000Y15812500D03*
D24*
X66250000Y15812500D03*
D25*
X68250000Y13000000D03*
D21*
X67750000Y10187500D03*
D20*
X67250000Y6000000D03*
D20*
X67250000Y4500000D03*
D26*
X62000000Y2000000D03*
D27*
X63950000Y6850000D03*
D27*
X63950000Y4650000D03*
D27*
X65550000Y4650000D03*
D27*
X65550000Y6850000D03*
D28*
X82250000Y2250000D03*
D29*
X63500000Y11500000D03*
D29*
X62000000Y11500000D03*
D20*
X69000000Y18750000D03*
D20*
X69000000Y17250000D03*
D30*
X72249944Y18500008D03*
D30*
X70249944Y18500008D03*
D31*
X68500000Y2000000D03*
D29*
X68500000Y7500000D03*
D29*
X67000000Y7500000D03*
D13*
X66000000Y17250000D03*
D13*
X66000000Y18750000D03*
D12*
X64250000Y17250000D03*
D12*
X64250000Y18750000D03*
D32*
X62750000Y10000000D03*
D32*
X64250000Y10000000D03*
D28*
X73750000Y2250000D03*
D13*
X77000000Y23345000D03*
D13*
X77000000Y24845000D03*
D13*
X69750000Y4250000D03*
D13*
X69750000Y5750000D03*
D20*
X63250000Y15500000D03*
D20*
X63250000Y14000000D03*
D33*
X81750000Y21750000D03*
D33*
X80250000Y21750000D03*
D20*
X72500000Y15250000D03*
D20*
X72500000Y13750000D03*
D28*
X77750000Y2250000D03*
D34*
X80200000Y17495000D03*
D34*
X80200000Y13095000D03*
D34*
X80200000Y16395000D03*
D34*
X80200000Y9795000D03*
D34*
X80200000Y15295000D03*
D35*
X77600000Y6125000D03*
D34*
X80200000Y10895000D03*
D36*
X85900000Y6125000D03*
D34*
X80200000Y14195000D03*
D34*
X80200000Y11995000D03*
D35*
X77600000Y19875000D03*
D36*
X85900000Y19875000D03*
D37*
X78250000Y15250000D03*
D37*
X81000000Y5000000D03*
D37*
X68250000Y13900000D03*
D37*
X79150000Y14195000D03*
D37*
X69150000Y12100000D03*
D37*
X77000000Y25500000D03*
D37*
X78500000Y25500000D03*
D37*
X64250000Y14500000D03*
D37*
X70000000Y14750000D03*
D37*
X64250000Y12250000D03*
D37*
X63549989Y12750000D03*
D37*
X74000000Y21000000D03*
D37*
X86000000Y21250000D03*
D37*
X67895000Y6000000D03*
D37*
X68500000Y3750000D03*
D37*
X78250000Y17500000D03*
D37*
X69150000Y13000000D03*
D37*
X79500000Y21750000D03*
D37*
X72000000Y8500000D03*
D37*
X67350000Y12100000D03*
D37*
X73250000Y13750000D03*
D37*
X70250000Y17000000D03*
D37*
X68250000Y13000000D03*
D37*
X72250000Y17500000D03*
D37*
X69150000Y13900000D03*
D37*
X65000000Y10000000D03*
D37*
X61780025Y12250000D03*
D37*
X64250000Y16500000D03*
D37*
X72500000Y16000000D03*
D37*
X69750000Y6250000D03*
D37*
X67000000Y17250000D03*
D37*
X68250000Y12100000D03*
D37*
X84500000Y6125000D03*
D37*
X67350000Y13000000D03*
D37*
X68375000Y18750000D03*
D37*
X79150000Y15295000D03*
D37*
X79100000Y6125000D03*
D37*
X79150000Y9795000D03*
D37*
X75000000Y23750000D03*
D37*
X64000000Y13750000D03*
D37*
X79150000Y13095000D03*
D37*
X79150000Y10895000D03*
D37*
X79150000Y12000000D03*
D37*
X63500000Y8250000D03*
D37*
X74750000Y16750000D03*
D37*
X71250000Y6250000D03*
D37*
X82674944Y24425008D03*
D37*
X62250000Y8250000D03*
D37*
X67350000Y13900000D03*
D37*
X74000000Y23000000D03*
D10*
X43000056Y81499992D03*
D10*
X45000056Y81499992D03*
D11*
X42999992Y79528710D03*
D11*
X42999992Y77528710D03*
D12*
X41250000Y63500000D03*
D12*
X41250000Y65000000D03*
D13*
X48500000Y79845000D03*
D13*
X48500000Y81345000D03*
D14*
X55700000Y81115000D03*
D14*
X55700000Y83655000D03*
D15*
X50300000Y81115000D03*
D14*
X55700000Y79845000D03*
D14*
X55700000Y82385000D03*
D15*
X50300000Y83655000D03*
D15*
X50300000Y82385000D03*
D15*
X50300000Y79845000D03*
D16*
X42750000Y64000000D03*
D16*
X42750000Y62500000D03*
D12*
X32250000Y61500000D03*
D12*
X32250000Y63000000D03*
D12*
X39750000Y63500000D03*
D12*
X39750000Y65000000D03*
D17*
X41700000Y61000000D03*
D17*
X43300000Y61000000D03*
D18*
X40800000Y82300000D03*
D18*
X40800000Y80000000D03*
D18*
X40800000Y77700000D03*
D19*
X34700000Y80000000D03*
D20*
X37750000Y75250000D03*
D20*
X37750000Y73750000D03*
D21*
X36750000Y66687500D03*
D22*
X41062500Y71500000D03*
D22*
X41062500Y68500000D03*
D23*
X35437500Y71500000D03*
D22*
X41062500Y70500000D03*
D21*
X39750000Y66687500D03*
D23*
X35437500Y69000000D03*
D21*
X40250000Y66687500D03*
D21*
X38250000Y66687500D03*
D24*
X38750000Y72312500D03*
D24*
X39750000Y72312500D03*
D24*
X39250000Y72312500D03*
D21*
X39250000Y66687500D03*
D23*
X35437500Y68500000D03*
D21*
X38750000Y66687500D03*
D22*
X41062500Y70000000D03*
D22*
X41062500Y68000000D03*
D23*
X35437500Y68000000D03*
D23*
X35437500Y70000000D03*
D21*
X36250000Y66687500D03*
D22*
X41062500Y69500000D03*
D23*
X35437500Y70500000D03*
D22*
X41062500Y67500000D03*
D23*
X35437500Y69500000D03*
D23*
X35437500Y67500000D03*
D21*
X37250000Y66687500D03*
D24*
X37250000Y72312500D03*
D22*
X41062500Y71000000D03*
D24*
X36750000Y72312500D03*
D24*
X38250000Y72312500D03*
D22*
X41062500Y69000000D03*
D24*
X37750000Y72312500D03*
D23*
X35437500Y71000000D03*
D24*
X40250000Y72312500D03*
D24*
X36250000Y72312500D03*
D25*
X38250000Y69500000D03*
D21*
X37750000Y66687500D03*
D20*
X37250000Y62500000D03*
D20*
X37250000Y61000000D03*
D26*
X32000000Y58500000D03*
D27*
X33950000Y63350000D03*
D27*
X33950000Y61150000D03*
D27*
X35550000Y61150000D03*
D27*
X35550000Y63350000D03*
D28*
X52250000Y58750000D03*
D29*
X33500000Y68000000D03*
D29*
X32000000Y68000000D03*
D20*
X39000000Y75250000D03*
D20*
X39000000Y73750000D03*
D30*
X42249944Y75000008D03*
D30*
X40249944Y75000008D03*
D31*
X38500000Y58500000D03*
D29*
X38500000Y64000000D03*
D29*
X37000000Y64000000D03*
D13*
X36000000Y73750000D03*
D13*
X36000000Y75250000D03*
D12*
X34250000Y73750000D03*
D12*
X34250000Y75250000D03*
D32*
X32750000Y66500000D03*
D32*
X34250000Y66500000D03*
D28*
X43750000Y58750000D03*
D13*
X47000000Y79845000D03*
D13*
X47000000Y81345000D03*
D13*
X39750000Y60750000D03*
D13*
X39750000Y62250000D03*
D20*
X33250000Y72000000D03*
D20*
X33250000Y70500000D03*
D33*
X51750000Y78250000D03*
D33*
X50250000Y78250000D03*
D20*
X42500000Y71750000D03*
D20*
X42500000Y70250000D03*
D28*
X47750000Y58750000D03*
D34*
X50200000Y73995000D03*
D34*
X50200000Y69595000D03*
D34*
X50200000Y72895000D03*
D34*
X50200000Y66295000D03*
D34*
X50200000Y71795000D03*
D35*
X47600000Y62625000D03*
D34*
X50200000Y67395000D03*
D36*
X55900000Y62625000D03*
D34*
X50200000Y70695000D03*
D34*
X50200000Y68495000D03*
D35*
X47600000Y76375000D03*
D36*
X55900000Y76375000D03*
D37*
X48250000Y71750000D03*
D37*
X51000000Y61500000D03*
D37*
X38250000Y70400000D03*
D37*
X49150000Y70695000D03*
D37*
X39150000Y68600000D03*
D37*
X47000000Y82000000D03*
D37*
X48500000Y82000000D03*
D37*
X34250000Y71000000D03*
D37*
X40000000Y71250000D03*
D37*
X34250000Y68750000D03*
D37*
X33549989Y69250000D03*
D37*
X44000000Y77500000D03*
D37*
X56000000Y77750000D03*
D37*
X37895000Y62500000D03*
D37*
X38500000Y60250000D03*
D37*
X48250000Y74000000D03*
D37*
X39150000Y69500000D03*
D37*
X49500000Y78250000D03*
D37*
X42000000Y65000000D03*
D37*
X37350000Y68600000D03*
D37*
X43250000Y70250000D03*
D37*
X40250000Y73500000D03*
D37*
X38250000Y69500000D03*
D37*
X42250000Y74000000D03*
D37*
X39150000Y70400000D03*
D37*
X35000000Y66500000D03*
D37*
X31780025Y68750000D03*
D37*
X34250000Y73000000D03*
D37*
X42500000Y72500000D03*
D37*
X39750000Y62750000D03*
D37*
X37000000Y73750000D03*
D37*
X38250000Y68600000D03*
D37*
X54500000Y62625000D03*
D37*
X37350000Y69500000D03*
D37*
X38375000Y75250000D03*
D37*
X49150000Y71795000D03*
D37*
X49100000Y62625000D03*
D37*
X49150000Y66295000D03*
D37*
X45000000Y80250000D03*
D37*
X34000000Y70250000D03*
D37*
X49150000Y69595000D03*
D37*
X49150000Y67395000D03*
D37*
X49150000Y68500000D03*
D37*
X33500000Y64750000D03*
D37*
X44750000Y73250000D03*
D37*
X41250000Y62750000D03*
D37*
X52674944Y80925008D03*
D37*
X32250000Y64750000D03*
D37*
X37350000Y70400000D03*
D37*
X44000000Y79500000D03*
D10*
X13000056Y81499992D03*
D10*
X15000056Y81499992D03*
D11*
X12999992Y79528710D03*
D11*
X12999992Y77528710D03*
D12*
X11250000Y63500000D03*
D12*
X11250000Y65000000D03*
D13*
X18500000Y79845000D03*
D13*
X18500000Y81345000D03*
D14*
X25700000Y81115000D03*
D14*
X25700000Y83655000D03*
D15*
X20300000Y81115000D03*
D14*
X25700000Y79845000D03*
D14*
X25700000Y82385000D03*
D15*
X20300000Y83655000D03*
D15*
X20300000Y82385000D03*
D15*
X20300000Y79845000D03*
D16*
X12750000Y64000000D03*
D16*
X12750000Y62500000D03*
D12*
X2250000Y61500000D03*
D12*
X2250000Y63000000D03*
D12*
X9750000Y63500000D03*
D12*
X9750000Y65000000D03*
D17*
X11700000Y61000000D03*
D17*
X13300000Y61000000D03*
D18*
X10800000Y82300000D03*
D18*
X10800000Y80000000D03*
D18*
X10800000Y77700000D03*
D19*
X4700000Y80000000D03*
D20*
X7750000Y75250000D03*
D20*
X7750000Y73750000D03*
D21*
X6750000Y66687500D03*
D22*
X11062500Y71500000D03*
D22*
X11062500Y68500000D03*
D23*
X5437500Y71500000D03*
D22*
X11062500Y70500000D03*
D21*
X9750000Y66687500D03*
D23*
X5437500Y69000000D03*
D21*
X10250000Y66687500D03*
D21*
X8250000Y66687500D03*
D24*
X8750000Y72312500D03*
D24*
X9750000Y72312500D03*
D24*
X9250000Y72312500D03*
D21*
X9250000Y66687500D03*
D23*
X5437500Y68500000D03*
D21*
X8750000Y66687500D03*
D22*
X11062500Y70000000D03*
D22*
X11062500Y68000000D03*
D23*
X5437500Y68000000D03*
D23*
X5437500Y70000000D03*
D21*
X6250000Y66687500D03*
D22*
X11062500Y69500000D03*
D23*
X5437500Y70500000D03*
D22*
X11062500Y67500000D03*
D23*
X5437500Y69500000D03*
D23*
X5437500Y67500000D03*
D21*
X7250000Y66687500D03*
D24*
X7250000Y72312500D03*
D22*
X11062500Y71000000D03*
D24*
X6750000Y72312500D03*
D24*
X8250000Y72312500D03*
D22*
X11062500Y69000000D03*
D24*
X7750000Y72312500D03*
D23*
X5437500Y71000000D03*
D24*
X10250000Y72312500D03*
D24*
X6250000Y72312500D03*
D25*
X8250000Y69500000D03*
D21*
X7750000Y66687500D03*
D20*
X7250000Y62500000D03*
D20*
X7250000Y61000000D03*
D26*
X2000000Y58500000D03*
D27*
X3950000Y63350000D03*
D27*
X3950000Y61150000D03*
D27*
X5550000Y61150000D03*
D27*
X5550000Y63350000D03*
D28*
X22250000Y58750000D03*
D29*
X3500000Y68000000D03*
D29*
X2000000Y68000000D03*
D20*
X9000000Y75250000D03*
D20*
X9000000Y73750000D03*
D30*
X12249944Y75000008D03*
D30*
X10249944Y75000008D03*
D31*
X8500000Y58500000D03*
D29*
X8500000Y64000000D03*
D29*
X7000000Y64000000D03*
D13*
X6000000Y73750000D03*
D13*
X6000000Y75250000D03*
D12*
X4250000Y73750000D03*
D12*
X4250000Y75250000D03*
D32*
X2750000Y66500000D03*
D32*
X4250000Y66500000D03*
D28*
X13750000Y58750000D03*
D13*
X17000000Y79845000D03*
D13*
X17000000Y81345000D03*
D13*
X9750000Y60750000D03*
D13*
X9750000Y62250000D03*
D20*
X3250000Y72000000D03*
D20*
X3250000Y70500000D03*
D33*
X21750000Y78250000D03*
D33*
X20250000Y78250000D03*
D20*
X12500000Y71750000D03*
D20*
X12500000Y70250000D03*
D28*
X17750000Y58750000D03*
D34*
X20200000Y73995000D03*
D34*
X20200000Y69595000D03*
D34*
X20200000Y72895000D03*
D34*
X20200000Y66295000D03*
D34*
X20200000Y71795000D03*
D35*
X17600000Y62625000D03*
D34*
X20200000Y67395000D03*
D36*
X25900000Y62625000D03*
D34*
X20200000Y70695000D03*
D34*
X20200000Y68495000D03*
D35*
X17600000Y76375000D03*
D36*
X25900000Y76375000D03*
D37*
X18250000Y71750000D03*
D37*
X21000000Y61500000D03*
D37*
X8250000Y70400000D03*
D37*
X19150000Y70695000D03*
D37*
X9150000Y68600000D03*
D37*
X17000000Y82000000D03*
D37*
X18500000Y82000000D03*
D37*
X4250000Y71000000D03*
D37*
X10000000Y71250000D03*
D37*
X4250000Y68750000D03*
D37*
X3549989Y69250000D03*
D37*
X14000000Y77500000D03*
D37*
X26000000Y77750000D03*
D37*
X7895000Y62500000D03*
D37*
X8500000Y60250000D03*
D37*
X18250000Y74000000D03*
D37*
X9150000Y69500000D03*
D37*
X19500000Y78250000D03*
D37*
X12000000Y65000000D03*
D37*
X7350000Y68600000D03*
D37*
X13250000Y70250000D03*
D37*
X10250000Y73500000D03*
D37*
X8250000Y69500000D03*
D37*
X12250000Y74000000D03*
D37*
X9150000Y70400000D03*
D37*
X5000000Y66500000D03*
D37*
X1780025Y68750000D03*
D37*
X4250000Y73000000D03*
D37*
X12500000Y72500000D03*
D37*
X9750000Y62750000D03*
D37*
X7000000Y73750000D03*
D37*
X8250000Y68600000D03*
D37*
X24500000Y62625000D03*
D37*
X7350000Y69500000D03*
D37*
X8375000Y75250000D03*
D37*
X19150000Y71795000D03*
D37*
X19100000Y62625000D03*
D37*
X19150000Y66295000D03*
D37*
X15000000Y80250000D03*
D37*
X4000000Y70250000D03*
D37*
X19150000Y69595000D03*
D37*
X19150000Y67395000D03*
D37*
X19150000Y68500000D03*
D37*
X3500000Y64750000D03*
D37*
X14750000Y73250000D03*
D37*
X11250000Y62750000D03*
D37*
X22674944Y80925008D03*
D37*
X2250000Y64750000D03*
D37*
X7350000Y70400000D03*
D37*
X14000000Y79500000D03*
D10*
X13000056Y53249992D03*
D10*
X15000056Y53249992D03*
D11*
X12999992Y51278710D03*
D11*
X12999992Y49278710D03*
D12*
X11250000Y35250000D03*
D12*
X11250000Y36750000D03*
D13*
X18500000Y51595000D03*
D13*
X18500000Y53095000D03*
D14*
X25700000Y52865000D03*
D14*
X25700000Y55405000D03*
D15*
X20300000Y52865000D03*
D14*
X25700000Y51595000D03*
D14*
X25700000Y54135000D03*
D15*
X20300000Y55405000D03*
D15*
X20300000Y54135000D03*
D15*
X20300000Y51595000D03*
D16*
X12750000Y35750000D03*
D16*
X12750000Y34250000D03*
D12*
X2250000Y33250000D03*
D12*
X2250000Y34750000D03*
D12*
X9750000Y35250000D03*
D12*
X9750000Y36750000D03*
D17*
X11700000Y32750000D03*
D17*
X13300000Y32750000D03*
D18*
X10800000Y54050000D03*
D18*
X10800000Y51750000D03*
D18*
X10800000Y49450000D03*
D19*
X4700000Y51750000D03*
D20*
X7750000Y47000000D03*
D20*
X7750000Y45500000D03*
D21*
X6750000Y38437500D03*
D22*
X11062500Y43250000D03*
D22*
X11062500Y40250000D03*
D23*
X5437500Y43250000D03*
D22*
X11062500Y42250000D03*
D21*
X9750000Y38437500D03*
D23*
X5437500Y40750000D03*
D21*
X10250000Y38437500D03*
D21*
X8250000Y38437500D03*
D24*
X8750000Y44062500D03*
D24*
X9750000Y44062500D03*
D24*
X9250000Y44062500D03*
D21*
X9250000Y38437500D03*
D23*
X5437500Y40250000D03*
D21*
X8750000Y38437500D03*
D22*
X11062500Y41750000D03*
D22*
X11062500Y39750000D03*
D23*
X5437500Y39750000D03*
D23*
X5437500Y41750000D03*
D21*
X6250000Y38437500D03*
D22*
X11062500Y41250000D03*
D23*
X5437500Y42250000D03*
D22*
X11062500Y39250000D03*
D23*
X5437500Y41250000D03*
D23*
X5437500Y39250000D03*
D21*
X7250000Y38437500D03*
D24*
X7250000Y44062500D03*
D22*
X11062500Y42750000D03*
D24*
X6750000Y44062500D03*
D24*
X8250000Y44062500D03*
D22*
X11062500Y40750000D03*
D24*
X7750000Y44062500D03*
D23*
X5437500Y42750000D03*
D24*
X10250000Y44062500D03*
D24*
X6250000Y44062500D03*
D25*
X8250000Y41250000D03*
D21*
X7750000Y38437500D03*
D20*
X7250000Y34250000D03*
D20*
X7250000Y32750000D03*
D26*
X2000000Y30250000D03*
D27*
X3950000Y35100000D03*
D27*
X3950000Y32900000D03*
D27*
X5550000Y32900000D03*
D27*
X5550000Y35100000D03*
D28*
X22250000Y30500000D03*
D29*
X3500000Y39750000D03*
D29*
X2000000Y39750000D03*
D20*
X9000000Y47000000D03*
D20*
X9000000Y45500000D03*
D30*
X12249944Y46750008D03*
D30*
X10249944Y46750008D03*
D31*
X8500000Y30250000D03*
D29*
X8500000Y35750000D03*
D29*
X7000000Y35750000D03*
D13*
X6000000Y45500000D03*
D13*
X6000000Y47000000D03*
D12*
X4250000Y45500000D03*
D12*
X4250000Y47000000D03*
D32*
X2750000Y38250000D03*
D32*
X4250000Y38250000D03*
D28*
X13750000Y30500000D03*
D13*
X17000000Y51595000D03*
D13*
X17000000Y53095000D03*
D13*
X9750000Y32500000D03*
D13*
X9750000Y34000000D03*
D20*
X3250000Y43750000D03*
D20*
X3250000Y42250000D03*
D33*
X21750000Y50000000D03*
D33*
X20250000Y50000000D03*
D20*
X12500000Y43500000D03*
D20*
X12500000Y42000000D03*
D28*
X17750000Y30500000D03*
D34*
X20200000Y45745000D03*
D34*
X20200000Y41345000D03*
D34*
X20200000Y44645000D03*
D34*
X20200000Y38045000D03*
D34*
X20200000Y43545000D03*
D35*
X17600000Y34375000D03*
D34*
X20200000Y39145000D03*
D36*
X25900000Y34375000D03*
D34*
X20200000Y42445000D03*
D34*
X20200000Y40245000D03*
D35*
X17600000Y48125000D03*
D36*
X25900000Y48125000D03*
D37*
X18250000Y43500000D03*
D37*
X21000000Y33250000D03*
D37*
X8250000Y42150000D03*
D37*
X19150000Y42445000D03*
D37*
X9150000Y40350000D03*
D37*
X17000000Y53750000D03*
D37*
X18500000Y53750000D03*
D37*
X4250000Y42750000D03*
D37*
X10000000Y43000000D03*
D37*
X4250000Y40500000D03*
D37*
X3549989Y41000000D03*
D37*
X14000000Y49250000D03*
D37*
X26000000Y49500000D03*
D37*
X7895000Y34250000D03*
D37*
X8500000Y32000000D03*
D37*
X18250000Y45750000D03*
D37*
X9150000Y41250000D03*
D37*
X19500000Y50000000D03*
D37*
X12000000Y36750000D03*
D37*
X7350000Y40350000D03*
D37*
X13250000Y42000000D03*
D37*
X10250000Y45250000D03*
D37*
X8250000Y41250000D03*
D37*
X12250000Y45750000D03*
D37*
X9150000Y42150000D03*
D37*
X5000000Y38250000D03*
D37*
X1780025Y40500000D03*
D37*
X4250000Y44750000D03*
D37*
X12500000Y44250000D03*
D37*
X9750000Y34500000D03*
D37*
X7000000Y45500000D03*
D37*
X8250000Y40350000D03*
D37*
X24500000Y34375000D03*
D37*
X7350000Y41250000D03*
D37*
X8375000Y47000000D03*
D37*
X19150000Y43545000D03*
D37*
X19100000Y34375000D03*
D37*
X19150000Y38045000D03*
D37*
X15000000Y52000000D03*
D37*
X4000000Y42000000D03*
D37*
X19150000Y41345000D03*
D37*
X19150000Y39145000D03*
D37*
X19150000Y40250000D03*
D37*
X3500000Y36500000D03*
D37*
X14750000Y45000000D03*
D37*
X11250000Y34500000D03*
D37*
X22674944Y52675008D03*
D37*
X2250000Y36500000D03*
D37*
X7350000Y42150000D03*
D37*
X14000000Y51250000D03*
D10*
X43000056Y24999992D03*
D10*
X45000056Y24999992D03*
D11*
X42999992Y23028710D03*
D11*
X42999992Y21028710D03*
D12*
X41250000Y7000000D03*
D12*
X41250000Y8500000D03*
D13*
X48500000Y23345000D03*
D13*
X48500000Y24845000D03*
D14*
X55700000Y24615000D03*
D14*
X55700000Y27155000D03*
D15*
X50300000Y24615000D03*
D14*
X55700000Y23345000D03*
D14*
X55700000Y25885000D03*
D15*
X50300000Y27155000D03*
D15*
X50300000Y25885000D03*
D15*
X50300000Y23345000D03*
D16*
X42750000Y7500000D03*
D16*
X42750000Y6000000D03*
D12*
X32250000Y5000000D03*
D12*
X32250000Y6500000D03*
D12*
X39750000Y7000000D03*
D12*
X39750000Y8500000D03*
D17*
X41700000Y4500000D03*
D17*
X43300000Y4500000D03*
D18*
X40800000Y25800000D03*
D18*
X40800000Y23500000D03*
D18*
X40800000Y21200000D03*
D19*
X34700000Y23500000D03*
D20*
X37750000Y18750000D03*
D20*
X37750000Y17250000D03*
D21*
X36750000Y10187500D03*
D22*
X41062500Y15000000D03*
D22*
X41062500Y12000000D03*
D23*
X35437500Y15000000D03*
D22*
X41062500Y14000000D03*
D21*
X39750000Y10187500D03*
D23*
X35437500Y12500000D03*
D21*
X40250000Y10187500D03*
D21*
X38250000Y10187500D03*
D24*
X38750000Y15812500D03*
D24*
X39750000Y15812500D03*
D24*
X39250000Y15812500D03*
D21*
X39250000Y10187500D03*
D23*
X35437500Y12000000D03*
D21*
X38750000Y10187500D03*
D22*
X41062500Y13500000D03*
D22*
X41062500Y11500000D03*
D23*
X35437500Y11500000D03*
D23*
X35437500Y13500000D03*
D21*
X36250000Y10187500D03*
D22*
X41062500Y13000000D03*
D23*
X35437500Y14000000D03*
D22*
X41062500Y11000000D03*
D23*
X35437500Y13000000D03*
D23*
X35437500Y11000000D03*
D21*
X37250000Y10187500D03*
D24*
X37250000Y15812500D03*
D22*
X41062500Y14500000D03*
D24*
X36750000Y15812500D03*
D24*
X38250000Y15812500D03*
D22*
X41062500Y12500000D03*
D24*
X37750000Y15812500D03*
D23*
X35437500Y14500000D03*
D24*
X40250000Y15812500D03*
D24*
X36250000Y15812500D03*
D25*
X38250000Y13000000D03*
D21*
X37750000Y10187500D03*
D20*
X37250000Y6000000D03*
D20*
X37250000Y4500000D03*
D26*
X32000000Y2000000D03*
D27*
X33950000Y6850000D03*
D27*
X33950000Y4650000D03*
D27*
X35550000Y4650000D03*
D27*
X35550000Y6850000D03*
D28*
X52250000Y2250000D03*
D29*
X33500000Y11500000D03*
D29*
X32000000Y11500000D03*
D20*
X39000000Y18750000D03*
D20*
X39000000Y17250000D03*
D30*
X42249944Y18500008D03*
D30*
X40249944Y18500008D03*
D31*
X38500000Y2000000D03*
D29*
X38500000Y7500000D03*
D29*
X37000000Y7500000D03*
D13*
X36000000Y17250000D03*
D13*
X36000000Y18750000D03*
D12*
X34250000Y17250000D03*
D12*
X34250000Y18750000D03*
D32*
X32750000Y10000000D03*
D32*
X34250000Y10000000D03*
D28*
X43750000Y2250000D03*
D13*
X47000000Y23345000D03*
D13*
X47000000Y24845000D03*
D13*
X39750000Y4250000D03*
D13*
X39750000Y5750000D03*
D20*
X33250000Y15500000D03*
D20*
X33250000Y14000000D03*
D33*
X51750000Y21750000D03*
D33*
X50250000Y21750000D03*
D20*
X42500000Y15250000D03*
D20*
X42500000Y13750000D03*
D28*
X47750000Y2250000D03*
D34*
X50200000Y17495000D03*
D34*
X50200000Y13095000D03*
D34*
X50200000Y16395000D03*
D34*
X50200000Y9795000D03*
D34*
X50200000Y15295000D03*
D35*
X47600000Y6125000D03*
D34*
X50200000Y10895000D03*
D36*
X55900000Y6125000D03*
D34*
X50200000Y14195000D03*
D34*
X50200000Y11995000D03*
D35*
X47600000Y19875000D03*
D36*
X55900000Y19875000D03*
D37*
X48250000Y15250000D03*
D37*
X51000000Y5000000D03*
D37*
X38250000Y13900000D03*
D37*
X49150000Y14195000D03*
D37*
X39150000Y12100000D03*
D37*
X47000000Y25500000D03*
D37*
X48500000Y25500000D03*
D37*
X34250000Y14500000D03*
D37*
X40000000Y14750000D03*
D37*
X34250000Y12250000D03*
D37*
X33549989Y12750000D03*
D37*
X44000000Y21000000D03*
D37*
X56000000Y21250000D03*
D37*
X37895000Y6000000D03*
D37*
X38500000Y3750000D03*
D37*
X48250000Y17500000D03*
D37*
X39150000Y13000000D03*
D37*
X49500000Y21750000D03*
D37*
X42000000Y8500000D03*
D37*
X37350000Y12100000D03*
D37*
X43250000Y13750000D03*
D37*
X40250000Y17000000D03*
D37*
X38250000Y13000000D03*
D37*
X42250000Y17500000D03*
D37*
X39150000Y13900000D03*
D37*
X35000000Y10000000D03*
D37*
X31780025Y12250000D03*
D37*
X34250000Y16500000D03*
D37*
X42500000Y16000000D03*
D37*
X39750000Y6250000D03*
D37*
X37000000Y17250000D03*
D37*
X38250000Y12100000D03*
D37*
X54500000Y6125000D03*
D37*
X37350000Y13000000D03*
D37*
X38375000Y18750000D03*
D37*
X49150000Y15295000D03*
D37*
X49100000Y6125000D03*
D37*
X49150000Y9795000D03*
D37*
X45000000Y23750000D03*
D37*
X34000000Y13750000D03*
D37*
X49150000Y13095000D03*
D37*
X49150000Y10895000D03*
D37*
X49150000Y12000000D03*
D37*
X33500000Y8250000D03*
D37*
X44750000Y16750000D03*
D37*
X41250000Y6250000D03*
D37*
X52674944Y24425008D03*
D37*
X32250000Y8250000D03*
D37*
X37350000Y13900000D03*
D37*
X44000000Y23000000D03*
D10*
X13000056Y24999992D03*
D10*
X15000056Y24999992D03*
D11*
X12999992Y23028710D03*
D11*
X12999992Y21028710D03*
D12*
X11250000Y7000000D03*
D12*
X11250000Y8500000D03*
D13*
X18500000Y23345000D03*
D13*
X18500000Y24845000D03*
D14*
X25700000Y24615000D03*
D14*
X25700000Y27155000D03*
D15*
X20300000Y24615000D03*
D14*
X25700000Y23345000D03*
D14*
X25700000Y25885000D03*
D15*
X20300000Y27155000D03*
D15*
X20300000Y25885000D03*
D15*
X20300000Y23345000D03*
D16*
X12750000Y7500000D03*
D16*
X12750000Y6000000D03*
D12*
X2250000Y5000000D03*
D12*
X2250000Y6500000D03*
D12*
X9750000Y7000000D03*
D12*
X9750000Y8500000D03*
D17*
X11700000Y4500000D03*
D17*
X13300000Y4500000D03*
D18*
X10800000Y25800000D03*
D18*
X10800000Y23500000D03*
D18*
X10800000Y21200000D03*
D19*
X4700000Y23500000D03*
D20*
X7750000Y18750000D03*
D20*
X7750000Y17250000D03*
D21*
X6750000Y10187500D03*
D22*
X11062500Y15000000D03*
D22*
X11062500Y12000000D03*
D23*
X5437500Y15000000D03*
D22*
X11062500Y14000000D03*
D21*
X9750000Y10187500D03*
D23*
X5437500Y12500000D03*
D21*
X10250000Y10187500D03*
D21*
X8250000Y10187500D03*
D24*
X8750000Y15812500D03*
D24*
X9750000Y15812500D03*
D24*
X9250000Y15812500D03*
D21*
X9250000Y10187500D03*
D23*
X5437500Y12000000D03*
D21*
X8750000Y10187500D03*
D22*
X11062500Y13500000D03*
D22*
X11062500Y11500000D03*
D23*
X5437500Y11500000D03*
D23*
X5437500Y13500000D03*
D21*
X6250000Y10187500D03*
D22*
X11062500Y13000000D03*
D23*
X5437500Y14000000D03*
D22*
X11062500Y11000000D03*
D23*
X5437500Y13000000D03*
D23*
X5437500Y11000000D03*
D21*
X7250000Y10187500D03*
D24*
X7250000Y15812500D03*
D22*
X11062500Y14500000D03*
D24*
X6750000Y15812500D03*
D24*
X8250000Y15812500D03*
D22*
X11062500Y12500000D03*
D24*
X7750000Y15812500D03*
D23*
X5437500Y14500000D03*
D24*
X10250000Y15812500D03*
D24*
X6250000Y15812500D03*
D25*
X8250000Y13000000D03*
D21*
X7750000Y10187500D03*
D20*
X7250000Y6000000D03*
D20*
X7250000Y4500000D03*
D26*
X2000000Y2000000D03*
D27*
X3950000Y6850000D03*
D27*
X3950000Y4650000D03*
D27*
X5550000Y4650000D03*
D27*
X5550000Y6850000D03*
D28*
X22250000Y2250000D03*
D29*
X3500000Y11500000D03*
D29*
X2000000Y11500000D03*
D20*
X9000000Y18750000D03*
D20*
X9000000Y17250000D03*
D30*
X12249944Y18500008D03*
D30*
X10249944Y18500008D03*
D31*
X8500000Y2000000D03*
D29*
X8500000Y7500000D03*
D29*
X7000000Y7500000D03*
D13*
X6000000Y17250000D03*
D13*
X6000000Y18750000D03*
D12*
X4250000Y17250000D03*
D12*
X4250000Y18750000D03*
D32*
X2750000Y10000000D03*
D32*
X4250000Y10000000D03*
D28*
X13750000Y2250000D03*
D13*
X17000000Y23345000D03*
D13*
X17000000Y24845000D03*
D13*
X9750000Y4250000D03*
D13*
X9750000Y5750000D03*
D20*
X3250000Y15500000D03*
D20*
X3250000Y14000000D03*
D33*
X21750000Y21750000D03*
D33*
X20250000Y21750000D03*
D20*
X12500000Y15250000D03*
D20*
X12500000Y13750000D03*
D28*
X17750000Y2250000D03*
D34*
X20200000Y17495000D03*
D34*
X20200000Y13095000D03*
D34*
X20200000Y16395000D03*
D34*
X20200000Y9795000D03*
D34*
X20200000Y15295000D03*
D35*
X17600000Y6125000D03*
D34*
X20200000Y10895000D03*
D36*
X25900000Y6125000D03*
D34*
X20200000Y14195000D03*
D34*
X20200000Y11995000D03*
D35*
X17600000Y19875000D03*
D36*
X25900000Y19875000D03*
D37*
X18250000Y15250000D03*
D37*
X21000000Y5000000D03*
D37*
X8250000Y13900000D03*
D37*
X19150000Y14195000D03*
D37*
X9150000Y12100000D03*
D37*
X17000000Y25500000D03*
D37*
X18500000Y25500000D03*
D37*
X4250000Y14500000D03*
D37*
X10000000Y14750000D03*
D37*
X4250000Y12250000D03*
D37*
X3549989Y12750000D03*
D37*
X14000000Y21000000D03*
D37*
X26000000Y21250000D03*
D37*
X7895000Y6000000D03*
D37*
X8500000Y3750000D03*
D37*
X18250000Y17500000D03*
D37*
X9150000Y13000000D03*
D37*
X19500000Y21750000D03*
D37*
X12000000Y8500000D03*
D37*
X7350000Y12100000D03*
D37*
X13250000Y13750000D03*
D37*
X10250000Y17000000D03*
D37*
X8250000Y13000000D03*
D37*
X12250000Y17500000D03*
D37*
X9150000Y13900000D03*
D37*
X5000000Y10000000D03*
D37*
X1780025Y12250000D03*
D37*
X4250000Y16500000D03*
D37*
X12500000Y16000000D03*
D37*
X9750000Y6250000D03*
D37*
X7000000Y17250000D03*
D37*
X8250000Y12100000D03*
D37*
X24500000Y6125000D03*
D37*
X7350000Y13000000D03*
D37*
X8375000Y18750000D03*
D37*
X19150000Y15295000D03*
D37*
X19100000Y6125000D03*
D37*
X19150000Y9795000D03*
D37*
X15000000Y23750000D03*
D37*
X4000000Y13750000D03*
D37*
X19150000Y13095000D03*
D37*
X19150000Y10895000D03*
D37*
X19150000Y12000000D03*
D37*
X3500000Y8250000D03*
D37*
X14750000Y16750000D03*
D37*
X11250000Y6250000D03*
D37*
X22674944Y24425008D03*
D37*
X2250000Y8250000D03*
D37*
X7350000Y13900000D03*
D37*
X14000000Y23000000D03*
D10*
X73000056Y81499992D03*
D10*
X75000056Y81499992D03*
D11*
X72999992Y79528710D03*
D11*
X72999992Y77528710D03*
D12*
X71250000Y63500000D03*
D12*
X71250000Y65000000D03*
D13*
X78500000Y79845000D03*
D13*
X78500000Y81345000D03*
D14*
X85700000Y81115000D03*
D14*
X85700000Y83655000D03*
D15*
X80300000Y81115000D03*
D14*
X85700000Y79845000D03*
D14*
X85700000Y82385000D03*
D15*
X80300000Y83655000D03*
D15*
X80300000Y82385000D03*
D15*
X80300000Y79845000D03*
D16*
X72750000Y64000000D03*
D16*
X72750000Y62500000D03*
D12*
X62250000Y61500000D03*
D12*
X62250000Y63000000D03*
D12*
X69750000Y63500000D03*
D12*
X69750000Y65000000D03*
D17*
X71700000Y61000000D03*
D17*
X73300000Y61000000D03*
D18*
X70800000Y82300000D03*
D18*
X70800000Y80000000D03*
D18*
X70800000Y77700000D03*
D19*
X64700000Y80000000D03*
D20*
X67750000Y75250000D03*
D20*
X67750000Y73750000D03*
D21*
X66750000Y66687500D03*
D22*
X71062500Y71500000D03*
D22*
X71062500Y68500000D03*
D23*
X65437500Y71500000D03*
D22*
X71062500Y70500000D03*
D21*
X69750000Y66687500D03*
D23*
X65437500Y69000000D03*
D21*
X70250000Y66687500D03*
D21*
X68250000Y66687500D03*
D24*
X68750000Y72312500D03*
D24*
X69750000Y72312500D03*
D24*
X69250000Y72312500D03*
D21*
X69250000Y66687500D03*
D23*
X65437500Y68500000D03*
D21*
X68750000Y66687500D03*
D22*
X71062500Y70000000D03*
D22*
X71062500Y68000000D03*
D23*
X65437500Y68000000D03*
D23*
X65437500Y70000000D03*
D21*
X66250000Y66687500D03*
D22*
X71062500Y69500000D03*
D23*
X65437500Y70500000D03*
D22*
X71062500Y67500000D03*
D23*
X65437500Y69500000D03*
D23*
X65437500Y67500000D03*
D21*
X67250000Y66687500D03*
D24*
X67250000Y72312500D03*
D22*
X71062500Y71000000D03*
D24*
X66750000Y72312500D03*
D24*
X68250000Y72312500D03*
D22*
X71062500Y69000000D03*
D24*
X67750000Y72312500D03*
D23*
X65437500Y71000000D03*
D24*
X70250000Y72312500D03*
D24*
X66250000Y72312500D03*
D25*
X68250000Y69500000D03*
D21*
X67750000Y66687500D03*
D20*
X67250000Y62500000D03*
D20*
X67250000Y61000000D03*
D26*
X62000000Y58500000D03*
D27*
X63950000Y63350000D03*
D27*
X63950000Y61150000D03*
D27*
X65550000Y61150000D03*
D27*
X65550000Y63350000D03*
D28*
X82250000Y58750000D03*
D29*
X63500000Y68000000D03*
D29*
X62000000Y68000000D03*
D20*
X69000000Y75250000D03*
D20*
X69000000Y73750000D03*
D30*
X72249944Y75000008D03*
D30*
X70249944Y75000008D03*
D31*
X68500000Y58500000D03*
D29*
X68500000Y64000000D03*
D29*
X67000000Y64000000D03*
D13*
X66000000Y73750000D03*
D13*
X66000000Y75250000D03*
D12*
X64250000Y73750000D03*
D12*
X64250000Y75250000D03*
D32*
X62750000Y66500000D03*
D32*
X64250000Y66500000D03*
D28*
X73750000Y58750000D03*
D13*
X77000000Y79845000D03*
D13*
X77000000Y81345000D03*
D13*
X69750000Y60750000D03*
D13*
X69750000Y62250000D03*
D20*
X63250000Y72000000D03*
D20*
X63250000Y70500000D03*
D33*
X81750000Y78250000D03*
D33*
X80250000Y78250000D03*
D20*
X72500000Y71750000D03*
D20*
X72500000Y70250000D03*
D28*
X77750000Y58750000D03*
D34*
X80200000Y73995000D03*
D34*
X80200000Y69595000D03*
D34*
X80200000Y72895000D03*
D34*
X80200000Y66295000D03*
D34*
X80200000Y71795000D03*
D35*
X77600000Y62625000D03*
D34*
X80200000Y67395000D03*
D36*
X85900000Y62625000D03*
D34*
X80200000Y70695000D03*
D34*
X80200000Y68495000D03*
D35*
X77600000Y76375000D03*
D36*
X85900000Y76375000D03*
D37*
X78250000Y71750000D03*
D37*
X81000000Y61500000D03*
D37*
X68250000Y70400000D03*
D37*
X79150000Y70695000D03*
D37*
X69150000Y68600000D03*
D37*
X77000000Y82000000D03*
D37*
X78500000Y82000000D03*
D37*
X64250000Y71000000D03*
D37*
X70000000Y71250000D03*
D37*
X64250000Y68750000D03*
D37*
X63549989Y69250000D03*
D37*
X74000000Y77500000D03*
D37*
X86000000Y77750000D03*
D37*
X67895000Y62500000D03*
D37*
X68500000Y60250000D03*
D37*
X78250000Y74000000D03*
D37*
X69150000Y69500000D03*
D37*
X79500000Y78250000D03*
D37*
X72000000Y65000000D03*
D37*
X67350000Y68600000D03*
D37*
X73250000Y70250000D03*
D37*
X70250000Y73500000D03*
D37*
X68250000Y69500000D03*
D37*
X72250000Y74000000D03*
D37*
X69150000Y70400000D03*
D37*
X65000000Y66500000D03*
D37*
X61780025Y68750000D03*
D37*
X64250000Y73000000D03*
D37*
X72500000Y72500000D03*
D37*
X69750000Y62750000D03*
D37*
X67000000Y73750000D03*
D37*
X68250000Y68600000D03*
D37*
X84500000Y62625000D03*
D37*
X67350000Y69500000D03*
D37*
X68375000Y75250000D03*
D37*
X79150000Y71795000D03*
D37*
X79100000Y62625000D03*
D37*
X79150000Y66295000D03*
D37*
X75000000Y80250000D03*
D37*
X64000000Y70250000D03*
D37*
X79150000Y69595000D03*
D37*
X79150000Y67395000D03*
D37*
X79150000Y68500000D03*
D37*
X63500000Y64750000D03*
D37*
X74750000Y73250000D03*
D37*
X71250000Y62750000D03*
D37*
X82674944Y80925008D03*
D37*
X62250000Y64750000D03*
D37*
X67350000Y70400000D03*
D37*
X74000000Y79500000D03*
M02*
