%FSLAX46Y46*%
%MOMM*%
%AMPS10*
1,1,0.550000,0.000000,0.000000*
%
%ADD10PS10*%
G01*
%LPD*%
G01*
%LPD*%
G75*
D10*
X48250000Y43500000D03*
D10*
X51000000Y33250000D03*
D10*
X38250000Y42150000D03*
D10*
X49150000Y42445000D03*
D10*
X39150000Y40350000D03*
D10*
X47000000Y53750000D03*
D10*
X48500000Y53750000D03*
D10*
X34250000Y42750000D03*
D10*
X40000000Y43000000D03*
D10*
X34250000Y40500000D03*
D10*
X33549989Y41000000D03*
D10*
X44000000Y49250000D03*
D10*
X56000000Y49500000D03*
D10*
X37895000Y34250000D03*
D10*
X38500000Y32000000D03*
D10*
X48250000Y45750000D03*
D10*
X39150000Y41250000D03*
D10*
X49500000Y50000000D03*
D10*
X42000000Y36750000D03*
D10*
X37350000Y40350000D03*
D10*
X43250000Y42000000D03*
D10*
X40250000Y45250000D03*
D10*
X38250000Y41250000D03*
D10*
X42250000Y45750000D03*
D10*
X39150000Y42150000D03*
D10*
X35000000Y38250000D03*
D10*
X31780025Y40500000D03*
D10*
X34250000Y44750000D03*
D10*
X42500000Y44250000D03*
D10*
X39750000Y34500000D03*
D10*
X37000000Y45500000D03*
D10*
X38250000Y40350000D03*
D10*
X54500000Y34375000D03*
D10*
X37350000Y41250000D03*
D10*
X38375000Y47000000D03*
D10*
X49150000Y43545000D03*
D10*
X49100000Y34375000D03*
D10*
X49150000Y38045000D03*
D10*
X45000000Y52000000D03*
D10*
X34000000Y42000000D03*
D10*
X49150000Y41345000D03*
D10*
X49150000Y39145000D03*
D10*
X49150000Y40250000D03*
D10*
X33500000Y36500000D03*
D10*
X44750000Y45000000D03*
D10*
X41250000Y34500000D03*
D10*
X52674944Y52675008D03*
D10*
X32250000Y36500000D03*
D10*
X37350000Y42150000D03*
D10*
X44000000Y51250000D03*
D10*
X78250000Y43500000D03*
D10*
X81000000Y33250000D03*
D10*
X68250000Y42150000D03*
D10*
X79150000Y42445000D03*
D10*
X69150000Y40350000D03*
D10*
X77000000Y53750000D03*
D10*
X78500000Y53750000D03*
D10*
X64250000Y42750000D03*
D10*
X70000000Y43000000D03*
D10*
X64250000Y40500000D03*
D10*
X63549989Y41000000D03*
D10*
X74000000Y49250000D03*
D10*
X86000000Y49500000D03*
D10*
X67895000Y34250000D03*
D10*
X68500000Y32000000D03*
D10*
X78250000Y45750000D03*
D10*
X69150000Y41250000D03*
D10*
X79500000Y50000000D03*
D10*
X72000000Y36750000D03*
D10*
X67350000Y40350000D03*
D10*
X73250000Y42000000D03*
D10*
X70250000Y45250000D03*
D10*
X68250000Y41250000D03*
D10*
X72250000Y45750000D03*
D10*
X69150000Y42150000D03*
D10*
X65000000Y38250000D03*
D10*
X61780025Y40500000D03*
D10*
X64250000Y44750000D03*
D10*
X72500000Y44250000D03*
D10*
X69750000Y34500000D03*
D10*
X67000000Y45500000D03*
D10*
X68250000Y40350000D03*
D10*
X84500000Y34375000D03*
D10*
X67350000Y41250000D03*
D10*
X68375000Y47000000D03*
D10*
X79150000Y43545000D03*
D10*
X79100000Y34375000D03*
D10*
X79150000Y38045000D03*
D10*
X75000000Y52000000D03*
D10*
X64000000Y42000000D03*
D10*
X79150000Y41345000D03*
D10*
X79150000Y39145000D03*
D10*
X79150000Y40250000D03*
D10*
X63500000Y36500000D03*
D10*
X74750000Y45000000D03*
D10*
X71250000Y34500000D03*
D10*
X82674944Y52675008D03*
D10*
X62250000Y36500000D03*
D10*
X67350000Y42150000D03*
D10*
X74000000Y51250000D03*
D10*
X78250000Y15250000D03*
D10*
X81000000Y5000000D03*
D10*
X68250000Y13900000D03*
D10*
X79150000Y14195000D03*
D10*
X69150000Y12100000D03*
D10*
X77000000Y25500000D03*
D10*
X78500000Y25500000D03*
D10*
X64250000Y14500000D03*
D10*
X70000000Y14750000D03*
D10*
X64250000Y12250000D03*
D10*
X63549989Y12750000D03*
D10*
X74000000Y21000000D03*
D10*
X86000000Y21250000D03*
D10*
X67895000Y6000000D03*
D10*
X68500000Y3750000D03*
D10*
X78250000Y17500000D03*
D10*
X69150000Y13000000D03*
D10*
X79500000Y21750000D03*
D10*
X72000000Y8500000D03*
D10*
X67350000Y12100000D03*
D10*
X73250000Y13750000D03*
D10*
X70250000Y17000000D03*
D10*
X68250000Y13000000D03*
D10*
X72250000Y17500000D03*
D10*
X69150000Y13900000D03*
D10*
X65000000Y10000000D03*
D10*
X61780025Y12250000D03*
D10*
X64250000Y16500000D03*
D10*
X72500000Y16000000D03*
D10*
X69750000Y6250000D03*
D10*
X67000000Y17250000D03*
D10*
X68250000Y12100000D03*
D10*
X84500000Y6125000D03*
D10*
X67350000Y13000000D03*
D10*
X68375000Y18750000D03*
D10*
X79150000Y15295000D03*
D10*
X79100000Y6125000D03*
D10*
X79150000Y9795000D03*
D10*
X75000000Y23750000D03*
D10*
X64000000Y13750000D03*
D10*
X79150000Y13095000D03*
D10*
X79150000Y10895000D03*
D10*
X79150000Y12000000D03*
D10*
X63500000Y8250000D03*
D10*
X74750000Y16750000D03*
D10*
X71250000Y6250000D03*
D10*
X82674944Y24425008D03*
D10*
X62250000Y8250000D03*
D10*
X67350000Y13900000D03*
D10*
X74000000Y23000000D03*
D10*
X48250000Y71750000D03*
D10*
X51000000Y61500000D03*
D10*
X38250000Y70400000D03*
D10*
X49150000Y70695000D03*
D10*
X39150000Y68600000D03*
D10*
X47000000Y82000000D03*
D10*
X48500000Y82000000D03*
D10*
X34250000Y71000000D03*
D10*
X40000000Y71250000D03*
D10*
X34250000Y68750000D03*
D10*
X33549989Y69250000D03*
D10*
X44000000Y77500000D03*
D10*
X56000000Y77750000D03*
D10*
X37895000Y62500000D03*
D10*
X38500000Y60250000D03*
D10*
X48250000Y74000000D03*
D10*
X39150000Y69500000D03*
D10*
X49500000Y78250000D03*
D10*
X42000000Y65000000D03*
D10*
X37350000Y68600000D03*
D10*
X43250000Y70250000D03*
D10*
X40250000Y73500000D03*
D10*
X38250000Y69500000D03*
D10*
X42250000Y74000000D03*
D10*
X39150000Y70400000D03*
D10*
X35000000Y66500000D03*
D10*
X31780025Y68750000D03*
D10*
X34250000Y73000000D03*
D10*
X42500000Y72500000D03*
D10*
X39750000Y62750000D03*
D10*
X37000000Y73750000D03*
D10*
X38250000Y68600000D03*
D10*
X54500000Y62625000D03*
D10*
X37350000Y69500000D03*
D10*
X38375000Y75250000D03*
D10*
X49150000Y71795000D03*
D10*
X49100000Y62625000D03*
D10*
X49150000Y66295000D03*
D10*
X45000000Y80250000D03*
D10*
X34000000Y70250000D03*
D10*
X49150000Y69595000D03*
D10*
X49150000Y67395000D03*
D10*
X49150000Y68500000D03*
D10*
X33500000Y64750000D03*
D10*
X44750000Y73250000D03*
D10*
X41250000Y62750000D03*
D10*
X52674944Y80925008D03*
D10*
X32250000Y64750000D03*
D10*
X37350000Y70400000D03*
D10*
X44000000Y79500000D03*
D10*
X18250000Y71750000D03*
D10*
X21000000Y61500000D03*
D10*
X8250000Y70400000D03*
D10*
X19150000Y70695000D03*
D10*
X9150000Y68600000D03*
D10*
X17000000Y82000000D03*
D10*
X18500000Y82000000D03*
D10*
X4250000Y71000000D03*
D10*
X10000000Y71250000D03*
D10*
X4250000Y68750000D03*
D10*
X3549989Y69250000D03*
D10*
X14000000Y77500000D03*
D10*
X26000000Y77750000D03*
D10*
X7895000Y62500000D03*
D10*
X8500000Y60250000D03*
D10*
X18250000Y74000000D03*
D10*
X9150000Y69500000D03*
D10*
X19500000Y78250000D03*
D10*
X12000000Y65000000D03*
D10*
X7350000Y68600000D03*
D10*
X13250000Y70250000D03*
D10*
X10250000Y73500000D03*
D10*
X8250000Y69500000D03*
D10*
X12250000Y74000000D03*
D10*
X9150000Y70400000D03*
D10*
X5000000Y66500000D03*
D10*
X1780025Y68750000D03*
D10*
X4250000Y73000000D03*
D10*
X12500000Y72500000D03*
D10*
X9750000Y62750000D03*
D10*
X7000000Y73750000D03*
D10*
X8250000Y68600000D03*
D10*
X24500000Y62625000D03*
D10*
X7350000Y69500000D03*
D10*
X8375000Y75250000D03*
D10*
X19150000Y71795000D03*
D10*
X19100000Y62625000D03*
D10*
X19150000Y66295000D03*
D10*
X15000000Y80250000D03*
D10*
X4000000Y70250000D03*
D10*
X19150000Y69595000D03*
D10*
X19150000Y67395000D03*
D10*
X19150000Y68500000D03*
D10*
X3500000Y64750000D03*
D10*
X14750000Y73250000D03*
D10*
X11250000Y62750000D03*
D10*
X22674944Y80925008D03*
D10*
X2250000Y64750000D03*
D10*
X7350000Y70400000D03*
D10*
X14000000Y79500000D03*
D10*
X18250000Y43500000D03*
D10*
X21000000Y33250000D03*
D10*
X8250000Y42150000D03*
D10*
X19150000Y42445000D03*
D10*
X9150000Y40350000D03*
D10*
X17000000Y53750000D03*
D10*
X18500000Y53750000D03*
D10*
X4250000Y42750000D03*
D10*
X10000000Y43000000D03*
D10*
X4250000Y40500000D03*
D10*
X3549989Y41000000D03*
D10*
X14000000Y49250000D03*
D10*
X26000000Y49500000D03*
D10*
X7895000Y34250000D03*
D10*
X8500000Y32000000D03*
D10*
X18250000Y45750000D03*
D10*
X9150000Y41250000D03*
D10*
X19500000Y50000000D03*
D10*
X12000000Y36750000D03*
D10*
X7350000Y40350000D03*
D10*
X13250000Y42000000D03*
D10*
X10250000Y45250000D03*
D10*
X8250000Y41250000D03*
D10*
X12250000Y45750000D03*
D10*
X9150000Y42150000D03*
D10*
X5000000Y38250000D03*
D10*
X1780025Y40500000D03*
D10*
X4250000Y44750000D03*
D10*
X12500000Y44250000D03*
D10*
X9750000Y34500000D03*
D10*
X7000000Y45500000D03*
D10*
X8250000Y40350000D03*
D10*
X24500000Y34375000D03*
D10*
X7350000Y41250000D03*
D10*
X8375000Y47000000D03*
D10*
X19150000Y43545000D03*
D10*
X19100000Y34375000D03*
D10*
X19150000Y38045000D03*
D10*
X15000000Y52000000D03*
D10*
X4000000Y42000000D03*
D10*
X19150000Y41345000D03*
D10*
X19150000Y39145000D03*
D10*
X19150000Y40250000D03*
D10*
X3500000Y36500000D03*
D10*
X14750000Y45000000D03*
D10*
X11250000Y34500000D03*
D10*
X22674944Y52675008D03*
D10*
X2250000Y36500000D03*
D10*
X7350000Y42150000D03*
D10*
X14000000Y51250000D03*
D10*
X48250000Y15250000D03*
D10*
X51000000Y5000000D03*
D10*
X38250000Y13900000D03*
D10*
X49150000Y14195000D03*
D10*
X39150000Y12100000D03*
D10*
X47000000Y25500000D03*
D10*
X48500000Y25500000D03*
D10*
X34250000Y14500000D03*
D10*
X40000000Y14750000D03*
D10*
X34250000Y12250000D03*
D10*
X33549989Y12750000D03*
D10*
X44000000Y21000000D03*
D10*
X56000000Y21250000D03*
D10*
X37895000Y6000000D03*
D10*
X38500000Y3750000D03*
D10*
X48250000Y17500000D03*
D10*
X39150000Y13000000D03*
D10*
X49500000Y21750000D03*
D10*
X42000000Y8500000D03*
D10*
X37350000Y12100000D03*
D10*
X43250000Y13750000D03*
D10*
X40250000Y17000000D03*
D10*
X38250000Y13000000D03*
D10*
X42250000Y17500000D03*
D10*
X39150000Y13900000D03*
D10*
X35000000Y10000000D03*
D10*
X31780025Y12250000D03*
D10*
X34250000Y16500000D03*
D10*
X42500000Y16000000D03*
D10*
X39750000Y6250000D03*
D10*
X37000000Y17250000D03*
D10*
X38250000Y12100000D03*
D10*
X54500000Y6125000D03*
D10*
X37350000Y13000000D03*
D10*
X38375000Y18750000D03*
D10*
X49150000Y15295000D03*
D10*
X49100000Y6125000D03*
D10*
X49150000Y9795000D03*
D10*
X45000000Y23750000D03*
D10*
X34000000Y13750000D03*
D10*
X49150000Y13095000D03*
D10*
X49150000Y10895000D03*
D10*
X49150000Y12000000D03*
D10*
X33500000Y8250000D03*
D10*
X44750000Y16750000D03*
D10*
X41250000Y6250000D03*
D10*
X52674944Y24425008D03*
D10*
X32250000Y8250000D03*
D10*
X37350000Y13900000D03*
D10*
X44000000Y23000000D03*
D10*
X18250000Y15250000D03*
D10*
X21000000Y5000000D03*
D10*
X8250000Y13900000D03*
D10*
X19150000Y14195000D03*
D10*
X9150000Y12100000D03*
D10*
X17000000Y25500000D03*
D10*
X18500000Y25500000D03*
D10*
X4250000Y14500000D03*
D10*
X10000000Y14750000D03*
D10*
X4250000Y12250000D03*
D10*
X3549989Y12750000D03*
D10*
X14000000Y21000000D03*
D10*
X26000000Y21250000D03*
D10*
X7895000Y6000000D03*
D10*
X8500000Y3750000D03*
D10*
X18250000Y17500000D03*
D10*
X9150000Y13000000D03*
D10*
X19500000Y21750000D03*
D10*
X12000000Y8500000D03*
D10*
X7350000Y12100000D03*
D10*
X13250000Y13750000D03*
D10*
X10250000Y17000000D03*
D10*
X8250000Y13000000D03*
D10*
X12250000Y17500000D03*
D10*
X9150000Y13900000D03*
D10*
X5000000Y10000000D03*
D10*
X1780025Y12250000D03*
D10*
X4250000Y16500000D03*
D10*
X12500000Y16000000D03*
D10*
X9750000Y6250000D03*
D10*
X7000000Y17250000D03*
D10*
X8250000Y12100000D03*
D10*
X24500000Y6125000D03*
D10*
X7350000Y13000000D03*
D10*
X8375000Y18750000D03*
D10*
X19150000Y15295000D03*
D10*
X19100000Y6125000D03*
D10*
X19150000Y9795000D03*
D10*
X15000000Y23750000D03*
D10*
X4000000Y13750000D03*
D10*
X19150000Y13095000D03*
D10*
X19150000Y10895000D03*
D10*
X19150000Y12000000D03*
D10*
X3500000Y8250000D03*
D10*
X14750000Y16750000D03*
D10*
X11250000Y6250000D03*
D10*
X22674944Y24425008D03*
D10*
X2250000Y8250000D03*
D10*
X7350000Y13900000D03*
D10*
X14000000Y23000000D03*
D10*
X78250000Y71750000D03*
D10*
X81000000Y61500000D03*
D10*
X68250000Y70400000D03*
D10*
X79150000Y70695000D03*
D10*
X69150000Y68600000D03*
D10*
X77000000Y82000000D03*
D10*
X78500000Y82000000D03*
D10*
X64250000Y71000000D03*
D10*
X70000000Y71250000D03*
D10*
X64250000Y68750000D03*
D10*
X63549989Y69250000D03*
D10*
X74000000Y77500000D03*
D10*
X86000000Y77750000D03*
D10*
X67895000Y62500000D03*
D10*
X68500000Y60250000D03*
D10*
X78250000Y74000000D03*
D10*
X69150000Y69500000D03*
D10*
X79500000Y78250000D03*
D10*
X72000000Y65000000D03*
D10*
X67350000Y68600000D03*
D10*
X73250000Y70250000D03*
D10*
X70250000Y73500000D03*
D10*
X68250000Y69500000D03*
D10*
X72250000Y74000000D03*
D10*
X69150000Y70400000D03*
D10*
X65000000Y66500000D03*
D10*
X61780025Y68750000D03*
D10*
X64250000Y73000000D03*
D10*
X72500000Y72500000D03*
D10*
X69750000Y62750000D03*
D10*
X67000000Y73750000D03*
D10*
X68250000Y68600000D03*
D10*
X84500000Y62625000D03*
D10*
X67350000Y69500000D03*
D10*
X68375000Y75250000D03*
D10*
X79150000Y71795000D03*
D10*
X79100000Y62625000D03*
D10*
X79150000Y66295000D03*
D10*
X75000000Y80250000D03*
D10*
X64000000Y70250000D03*
D10*
X79150000Y69595000D03*
D10*
X79150000Y67395000D03*
D10*
X79150000Y68500000D03*
D10*
X63500000Y64750000D03*
D10*
X74750000Y73250000D03*
D10*
X71250000Y62750000D03*
D10*
X82674944Y80925008D03*
D10*
X62250000Y64750000D03*
D10*
X67350000Y70400000D03*
D10*
X74000000Y79500000D03*
M02*
