M48
FMAT,2
METRIC,TZ
T1C0.350
%
G90
G05
M71
T1
X48.250Y43.500
X51.000Y33.250
X38.250Y42.150
X49.150Y42.445
X39.150Y40.350
X47.000Y53.750
X48.500Y53.750
X34.250Y42.750
X40.000Y43.000
X34.250Y40.500
X33.550Y41.000
X44.000Y49.250
X56.000Y49.500
X37.895Y34.250
X38.500Y32.000
X48.250Y45.750
X39.150Y41.250
X49.500Y50.000
X42.000Y36.750
X37.350Y40.350
X43.250Y42.000
X40.250Y45.250
X38.250Y41.250
X42.250Y45.750
X39.150Y42.150
X35.000Y38.250
X31.780Y40.500
X34.250Y44.750
X42.500Y44.250
X39.750Y34.500
X37.000Y45.500
X38.250Y40.350
X54.500Y34.375
X37.350Y41.250
X38.375Y47.000
X49.150Y43.545
X49.100Y34.375
X49.150Y38.045
X45.000Y52.000
X34.000Y42.000
X49.150Y41.345
X49.150Y39.145
X49.150Y40.250
X33.500Y36.500
X44.750Y45.000
X41.250Y34.500
X52.675Y52.675
X32.250Y36.500
X37.350Y42.150
X44.000Y51.250
X78.250Y43.500
X81.000Y33.250
X68.250Y42.150
X79.150Y42.445
X69.150Y40.350
X77.000Y53.750
X78.500Y53.750
X64.250Y42.750
X70.000Y43.000
X64.250Y40.500
X63.550Y41.000
X74.000Y49.250
X86.000Y49.500
X67.895Y34.250
X68.500Y32.000
X78.250Y45.750
X69.150Y41.250
X79.500Y50.000
X72.000Y36.750
X67.350Y40.350
X73.250Y42.000
X70.250Y45.250
X68.250Y41.250
X72.250Y45.750
X69.150Y42.150
X65.000Y38.250
X61.780Y40.500
X64.250Y44.750
X72.500Y44.250
X69.750Y34.500
X67.000Y45.500
X68.250Y40.350
X84.500Y34.375
X67.350Y41.250
X68.375Y47.000
X79.150Y43.545
X79.100Y34.375
X79.150Y38.045
X75.000Y52.000
X64.000Y42.000
X79.150Y41.345
X79.150Y39.145
X79.150Y40.250
X63.500Y36.500
X74.750Y45.000
X71.250Y34.500
X82.675Y52.675
X62.250Y36.500
X67.350Y42.150
X74.000Y51.250
X78.250Y15.250
X81.000Y5.000
X68.250Y13.900
X79.150Y14.195
X69.150Y12.100
X77.000Y25.500
X78.500Y25.500
X64.250Y14.500
X70.000Y14.750
X64.250Y12.250
X63.550Y12.750
X74.000Y21.000
X86.000Y21.250
X67.895Y6.000
X68.500Y3.750
X78.250Y17.500
X69.150Y13.000
X79.500Y21.750
X72.000Y8.500
X67.350Y12.100
X73.250Y13.750
X70.250Y17.000
X68.250Y13.000
X72.250Y17.500
X69.150Y13.900
X65.000Y10.000
X61.780Y12.250
X64.250Y16.500
X72.500Y16.000
X69.750Y6.250
X67.000Y17.250
X68.250Y12.100
X84.500Y6.125
X67.350Y13.000
X68.375Y18.750
X79.150Y15.295
X79.100Y6.125
X79.150Y9.795
X75.000Y23.750
X64.000Y13.750
X79.150Y13.095
X79.150Y10.895
X79.150Y12.000
X63.500Y8.250
X74.750Y16.750
X71.250Y6.250
X82.675Y24.425
X62.250Y8.250
X67.350Y13.900
X74.000Y23.000
X48.250Y71.750
X51.000Y61.500
X38.250Y70.400
X49.150Y70.695
X39.150Y68.600
X47.000Y82.000
X48.500Y82.000
X34.250Y71.000
X40.000Y71.250
X34.250Y68.750
X33.550Y69.250
X44.000Y77.500
X56.000Y77.750
X37.895Y62.500
X38.500Y60.250
X48.250Y74.000
X39.150Y69.500
X49.500Y78.250
X42.000Y65.000
X37.350Y68.600
X43.250Y70.250
X40.250Y73.500
X38.250Y69.500
X42.250Y74.000
X39.150Y70.400
X35.000Y66.500
X31.780Y68.750
X34.250Y73.000
X42.500Y72.500
X39.750Y62.750
X37.000Y73.750
X38.250Y68.600
X54.500Y62.625
X37.350Y69.500
X38.375Y75.250
X49.150Y71.795
X49.100Y62.625
X49.150Y66.295
X45.000Y80.250
X34.000Y70.250
X49.150Y69.595
X49.150Y67.395
X49.150Y68.500
X33.500Y64.750
X44.750Y73.250
X41.250Y62.750
X52.675Y80.925
X32.250Y64.750
X37.350Y70.400
X44.000Y79.500
X18.250Y71.750
X21.000Y61.500
X8.250Y70.400
X19.150Y70.695
X9.150Y68.600
X17.000Y82.000
X18.500Y82.000
X4.250Y71.000
X10.000Y71.250
X4.250Y68.750
X3.550Y69.250
X14.000Y77.500
X26.000Y77.750
X7.895Y62.500
X8.500Y60.250
X18.250Y74.000
X9.150Y69.500
X19.500Y78.250
X12.000Y65.000
X7.350Y68.600
X13.250Y70.250
X10.250Y73.500
X8.250Y69.500
X12.250Y74.000
X9.150Y70.400
X5.000Y66.500
X1.780Y68.750
X4.250Y73.000
X12.500Y72.500
X9.750Y62.750
X7.000Y73.750
X8.250Y68.600
X24.500Y62.625
X7.350Y69.500
X8.375Y75.250
X19.150Y71.795
X19.100Y62.625
X19.150Y66.295
X15.000Y80.250
X4.000Y70.250
X19.150Y69.595
X19.150Y67.395
X19.150Y68.500
X3.500Y64.750
X14.750Y73.250
X11.250Y62.750
X22.675Y80.925
X2.250Y64.750
X7.350Y70.400
X14.000Y79.500
X18.250Y43.500
X21.000Y33.250
X8.250Y42.150
X19.150Y42.445
X9.150Y40.350
X17.000Y53.750
X18.500Y53.750
X4.250Y42.750
X10.000Y43.000
X4.250Y40.500
X3.550Y41.000
X14.000Y49.250
X26.000Y49.500
X7.895Y34.250
X8.500Y32.000
X18.250Y45.750
X9.150Y41.250
X19.500Y50.000
X12.000Y36.750
X7.350Y40.350
X13.250Y42.000
X10.250Y45.250
X8.250Y41.250
X12.250Y45.750
X9.150Y42.150
X5.000Y38.250
X1.780Y40.500
X4.250Y44.750
X12.500Y44.250
X9.750Y34.500
X7.000Y45.500
X8.250Y40.350
X24.500Y34.375
X7.350Y41.250
X8.375Y47.000
X19.150Y43.545
X19.100Y34.375
X19.150Y38.045
X15.000Y52.000
X4.000Y42.000
X19.150Y41.345
X19.150Y39.145
X19.150Y40.250
X3.500Y36.500
X14.750Y45.000
X11.250Y34.500
X22.675Y52.675
X2.250Y36.500
X7.350Y42.150
X14.000Y51.250
X48.250Y15.250
X51.000Y5.000
X38.250Y13.900
X49.150Y14.195
X39.150Y12.100
X47.000Y25.500
X48.500Y25.500
X34.250Y14.500
X40.000Y14.750
X34.250Y12.250
X33.550Y12.750
X44.000Y21.000
X56.000Y21.250
X37.895Y6.000
X38.500Y3.750
X48.250Y17.500
X39.150Y13.000
X49.500Y21.750
X42.000Y8.500
X37.350Y12.100
X43.250Y13.750
X40.250Y17.000
X38.250Y13.000
X42.250Y17.500
X39.150Y13.900
X35.000Y10.000
X31.780Y12.250
X34.250Y16.500
X42.500Y16.000
X39.750Y6.250
X37.000Y17.250
X38.250Y12.100
X54.500Y6.125
X37.350Y13.000
X38.375Y18.750
X49.150Y15.295
X49.100Y6.125
X49.150Y9.795
X45.000Y23.750
X34.000Y13.750
X49.150Y13.095
X49.150Y10.895
X49.150Y12.000
X33.500Y8.250
X44.750Y16.750
X41.250Y6.250
X52.675Y24.425
X32.250Y8.250
X37.350Y13.900
X44.000Y23.000
X18.250Y15.250
X21.000Y5.000
X8.250Y13.900
X19.150Y14.195
X9.150Y12.100
X17.000Y25.500
X18.500Y25.500
X4.250Y14.500
X10.000Y14.750
X4.250Y12.250
X3.550Y12.750
X14.000Y21.000
X26.000Y21.250
X7.895Y6.000
X8.500Y3.750
X18.250Y17.500
X9.150Y13.000
X19.500Y21.750
X12.000Y8.500
X7.350Y12.100
X13.250Y13.750
X10.250Y17.000
X8.250Y13.000
X12.250Y17.500
X9.150Y13.900
X5.000Y10.000
X1.780Y12.250
X4.250Y16.500
X12.500Y16.000
X9.750Y6.250
X7.000Y17.250
X8.250Y12.100
X24.500Y6.125
X7.350Y13.000
X8.375Y18.750
X19.150Y15.295
X19.100Y6.125
X19.150Y9.795
X15.000Y23.750
X4.000Y13.750
X19.150Y13.095
X19.150Y10.895
X19.150Y12.000
X3.500Y8.250
X14.750Y16.750
X11.250Y6.250
X22.675Y24.425
X2.250Y8.250
X7.350Y13.900
X14.000Y23.000
X78.250Y71.750
X81.000Y61.500
X68.250Y70.400
X79.150Y70.695
X69.150Y68.600
X77.000Y82.000
X78.500Y82.000
X64.250Y71.000
X70.000Y71.250
X64.250Y68.750
X63.550Y69.250
X74.000Y77.500
X86.000Y77.750
X67.895Y62.500
X68.500Y60.250
X78.250Y74.000
X69.150Y69.500
X79.500Y78.250
X72.000Y65.000
X67.350Y68.600
X73.250Y70.250
X70.250Y73.500
X68.250Y69.500
X72.250Y74.000
X69.150Y70.400
X65.000Y66.500
X61.780Y68.750
X64.250Y73.000
X72.500Y72.500
X69.750Y62.750
X67.000Y73.750
X68.250Y68.600
X84.500Y62.625
X67.350Y69.500
X68.375Y75.250
X79.150Y71.795
X79.100Y62.625
X79.150Y66.295
X75.000Y80.250
X64.000Y70.250
X79.150Y69.595
X79.150Y67.395
X79.150Y68.500
X63.500Y64.750
X74.750Y73.250
X71.250Y62.750
X82.675Y80.925
X62.250Y64.750
X67.350Y70.400
X74.000Y79.500
M30
