%FSLAX46Y46*%
%MOMM*%
%ADD10C,0.010000*%
%ADD11C,0.500000*%
G01*
%LPD*%
G01*
%LPD*%
D10*
X-5000000Y-7625000D02*
X-5000000Y92375000D01*
D10*
X-5000000Y92375000D02*
X95000000Y92375000D01*
D10*
X95000000Y92375000D02*
X95000000Y-7625000D01*
D10*
X95000000Y-7625000D02*
X-5000000Y-7625000D01*
D11*
X-28178572Y83321432D02*
X-29178572Y86321432D01*
D11*
X-28178572Y83750000D02*
X-29035714Y86321432D01*
D11*
X-28178572Y83321432D02*
X-28178572Y83750000D01*
D11*
X-28035714Y83750000D02*
X-28892856Y86321432D01*
D11*
X-28178572Y83321432D02*
X-27178572Y86178568D01*
D11*
X-28464286Y86321432D02*
X-29464284Y86321432D01*
D11*
X-26892856Y86321432D02*
X-27750000Y86321432D01*
D11*
X-29035714Y86035712D02*
X-29321428Y86321432D01*
D11*
X-28892856Y86035712D02*
X-28750000Y86321432D01*
D11*
X-28892856Y86178568D02*
X-28607144Y86321432D01*
D11*
X-27178572Y86178568D02*
X-27464286Y86321432D01*
D11*
X-27178572Y86178568D02*
X-27035714Y86321432D01*
D11*
X-23750000Y84750000D02*
X-26178572Y84750000D01*
D11*
X-23750000Y84607144D02*
X-23750000Y84750000D01*
D11*
X-26178572Y84607144D02*
X-26178572Y84750000D01*
D11*
X-23750000Y84607144D02*
X-26178572Y84607144D01*
D11*
X-20607144Y86321432D02*
X-20750000Y85892856D01*
D11*
X-20607144Y85464288D02*
X-20607144Y86321432D01*
D11*
X-20750000Y85892856D02*
X-20607144Y85464288D01*
D11*
X-21035714Y86178568D02*
X-20750000Y85892856D01*
D11*
X-21321428Y86321432D02*
X-21035714Y86178568D01*
D11*
X-21750000Y86321432D02*
X-21321428Y86321432D01*
D11*
X-22178572Y86178568D02*
X-21750000Y86321432D01*
D11*
X-22464286Y85892856D02*
X-22178572Y86178568D01*
D11*
X-22607142Y85607144D02*
X-22464286Y85892856D01*
D11*
X-22750000Y85178568D02*
X-22607142Y85607144D01*
D11*
X-22750000Y84464288D02*
X-22750000Y85178568D01*
D11*
X-22607142Y84035712D02*
X-22750000Y84464288D01*
D11*
X-22464286Y83750000D02*
X-22607142Y84035712D01*
D11*
X-22178572Y83464288D02*
X-22464286Y83750000D01*
D11*
X-21750000Y83321432D02*
X-22178572Y83464288D01*
D11*
X-21321428Y83321432D02*
X-21750000Y83321432D01*
D11*
X-21035714Y83464288D02*
X-21321428Y83321432D01*
D11*
X-20750000Y83750000D02*
X-21035714Y83464288D01*
D11*
X-20607144Y84035712D02*
X-20750000Y83750000D01*
D11*
X-22464286Y85607144D02*
X-22321428Y85892856D01*
D11*
X-22607142Y85178568D02*
X-22464286Y85607144D01*
D11*
X-22607142Y84464288D02*
X-22607142Y85178568D01*
D11*
X-22464286Y84035712D02*
X-22607142Y84464288D01*
D11*
X-22321428Y83750000D02*
X-22464286Y84035712D01*
D11*
X-22035714Y86178568D02*
X-21750000Y86321432D01*
D11*
X-22321428Y85750000D02*
X-22035714Y86178568D01*
D11*
X-22464286Y85178568D02*
X-22321428Y85750000D01*
D11*
X-22464286Y84464288D02*
X-22464286Y85178568D01*
D11*
X-22321428Y83892856D02*
X-22464286Y84464288D01*
D11*
X-22035714Y83464288D02*
X-22321428Y83892856D01*
D11*
X-21750000Y83321432D02*
X-22035714Y83464288D01*
D11*
X-19464286Y84035712D02*
X-19464286Y85321432D01*
D11*
X-19321428Y83607144D02*
X-19464286Y84035712D01*
D11*
X-19178572Y83464288D02*
X-19321428Y83607144D01*
D11*
X-18892856Y83321432D02*
X-19178572Y83464288D01*
D11*
X-18464286Y83321432D02*
X-18892856Y83321432D01*
D11*
X-18178572Y83464288D02*
X-18464286Y83321432D01*
D11*
X-18035714Y83607144D02*
X-18178572Y83464288D01*
D11*
X-17892856Y83892856D02*
X-18035714Y83607144D01*
D11*
X-19321428Y83892856D02*
X-19321428Y85178568D01*
D11*
X-19178572Y83607144D02*
X-19321428Y83892856D01*
D11*
X-19178572Y85321432D02*
X-19892856Y85321432D01*
D11*
X-19178572Y83892856D02*
X-19178572Y85321432D01*
D11*
X-19035714Y83464288D02*
X-19178572Y83892856D01*
D11*
X-18892856Y83321432D02*
X-19035714Y83464288D01*
D11*
X-17892856Y83321432D02*
X-17892856Y85321432D01*
D11*
X-17178572Y83321432D02*
X-17892856Y83321432D01*
D11*
X-17750000Y83464288D02*
X-17750000Y85178568D01*
D11*
X-17607142Y85321432D02*
X-18321428Y85321432D01*
D11*
X-17607142Y83321432D02*
X-17607142Y85321432D01*
D11*
X-19464286Y85178568D02*
X-19750000Y85321432D01*
D11*
X-19464286Y85035712D02*
X-19607144Y85321432D01*
D11*
X-17464286Y83321432D02*
X-17607142Y83607144D01*
D11*
X-17321428Y83321432D02*
X-17607142Y83464288D01*
D11*
X-16178571Y84035712D02*
X-16178571Y86035712D01*
D11*
X-16035714Y83607144D02*
X-16178571Y84035712D01*
D11*
X-15892857Y83464288D02*
X-16035714Y83607144D01*
D11*
X-15607143Y83321432D02*
X-15892857Y83464288D01*
D11*
X-15321429Y83321432D02*
X-15607143Y83321432D01*
D11*
X-15035714Y83464288D02*
X-15321429Y83321432D01*
D11*
X-14892857Y83750000D02*
X-15035714Y83464288D01*
D11*
X-16035714Y83892856D02*
X-16035714Y86035712D01*
D11*
X-15892857Y83607144D02*
X-16035714Y83892856D01*
D11*
X-15892857Y86321432D02*
X-16178571Y86035712D01*
D11*
X-15892857Y83892856D02*
X-15892857Y86321432D01*
D11*
X-15750000Y83464288D02*
X-15892857Y83892856D01*
D11*
X-15607143Y83321432D02*
X-15750000Y83464288D01*
D11*
X-15321429Y85321432D02*
X-16607143Y85321432D01*
D11*
X-28178572Y55071428D02*
X-29178572Y58071428D01*
D11*
X-28178572Y55500000D02*
X-29035714Y58071428D01*
D11*
X-28178572Y55071428D02*
X-28178572Y55500000D01*
D11*
X-28035714Y55500000D02*
X-28892856Y58071428D01*
D11*
X-28178572Y55071428D02*
X-27178572Y57928572D01*
D11*
X-28464286Y58071428D02*
X-29464284Y58071428D01*
D11*
X-26892856Y58071428D02*
X-27750000Y58071428D01*
D11*
X-29035714Y57785716D02*
X-29321428Y58071428D01*
D11*
X-28892856Y57785716D02*
X-28750000Y58071428D01*
D11*
X-28892856Y57928572D02*
X-28607144Y58071428D01*
D11*
X-27178572Y57928572D02*
X-27464286Y58071428D01*
D11*
X-27178572Y57928572D02*
X-27035714Y58071428D01*
D11*
X-23750000Y56500000D02*
X-26178572Y56500000D01*
D11*
X-23750000Y56357144D02*
X-23750000Y56500000D01*
D11*
X-26178572Y56357144D02*
X-26178572Y56500000D01*
D11*
X-23750000Y56357144D02*
X-26178572Y56357144D01*
D11*
X-20607144Y58071428D02*
X-20750000Y57642856D01*
D11*
X-20607144Y57214284D02*
X-20607144Y58071428D01*
D11*
X-20750000Y57642856D02*
X-20607144Y57214284D01*
D11*
X-21035714Y57928572D02*
X-20750000Y57642856D01*
D11*
X-21321428Y58071428D02*
X-21035714Y57928572D01*
D11*
X-21750000Y58071428D02*
X-21321428Y58071428D01*
D11*
X-22178572Y57928572D02*
X-21750000Y58071428D01*
D11*
X-22464286Y57642856D02*
X-22178572Y57928572D01*
D11*
X-22607142Y57357144D02*
X-22464286Y57642856D01*
D11*
X-22750000Y56928572D02*
X-22607142Y57357144D01*
D11*
X-22750000Y56214284D02*
X-22750000Y56928572D01*
D11*
X-22607142Y55785716D02*
X-22750000Y56214284D01*
D11*
X-22464286Y55500000D02*
X-22607142Y55785716D01*
D11*
X-22178572Y55214284D02*
X-22464286Y55500000D01*
D11*
X-21750000Y55071428D02*
X-22178572Y55214284D01*
D11*
X-21321428Y55071428D02*
X-21750000Y55071428D01*
D11*
X-21035714Y55214284D02*
X-21321428Y55071428D01*
D11*
X-20750000Y55500000D02*
X-21035714Y55214284D01*
D11*
X-20607144Y55785716D02*
X-20750000Y55500000D01*
D11*
X-22464286Y57357144D02*
X-22321428Y57642856D01*
D11*
X-22607142Y56928572D02*
X-22464286Y57357144D01*
D11*
X-22607142Y56214284D02*
X-22607142Y56928572D01*
D11*
X-22464286Y55785716D02*
X-22607142Y56214284D01*
D11*
X-22321428Y55500000D02*
X-22464286Y55785716D01*
D11*
X-22035714Y57928572D02*
X-21750000Y58071428D01*
D11*
X-22321428Y57500000D02*
X-22035714Y57928572D01*
D11*
X-22464286Y56928572D02*
X-22321428Y57500000D01*
D11*
X-22464286Y56214284D02*
X-22464286Y56928572D01*
D11*
X-22321428Y55642856D02*
X-22464286Y56214284D01*
D11*
X-22035714Y55214284D02*
X-22321428Y55642856D01*
D11*
X-21750000Y55071428D02*
X-22035714Y55214284D01*
D11*
X-19464286Y55785716D02*
X-19464286Y57071428D01*
D11*
X-19321428Y55357144D02*
X-19464286Y55785716D01*
D11*
X-19178572Y55214284D02*
X-19321428Y55357144D01*
D11*
X-18892856Y55071428D02*
X-19178572Y55214284D01*
D11*
X-18464286Y55071428D02*
X-18892856Y55071428D01*
D11*
X-18178572Y55214284D02*
X-18464286Y55071428D01*
D11*
X-18035714Y55357144D02*
X-18178572Y55214284D01*
D11*
X-17892856Y55642856D02*
X-18035714Y55357144D01*
D11*
X-19321428Y55642856D02*
X-19321428Y56928572D01*
D11*
X-19178572Y55357144D02*
X-19321428Y55642856D01*
D11*
X-19178572Y57071428D02*
X-19892856Y57071428D01*
D11*
X-19178572Y55642856D02*
X-19178572Y57071428D01*
D11*
X-19035714Y55214284D02*
X-19178572Y55642856D01*
D11*
X-18892856Y55071428D02*
X-19035714Y55214284D01*
D11*
X-17892856Y55071428D02*
X-17892856Y57071428D01*
D11*
X-17178572Y55071428D02*
X-17892856Y55071428D01*
D11*
X-17750000Y55214284D02*
X-17750000Y56928572D01*
D11*
X-17607142Y57071428D02*
X-18321428Y57071428D01*
D11*
X-17607142Y55071428D02*
X-17607142Y57071428D01*
D11*
X-19464286Y56928572D02*
X-19750000Y57071428D01*
D11*
X-19464286Y56785716D02*
X-19607144Y57071428D01*
D11*
X-17464286Y55071428D02*
X-17607142Y55357144D01*
D11*
X-17321428Y55071428D02*
X-17607142Y55214284D01*
D11*
X-16178571Y55785716D02*
X-16178571Y57785716D01*
D11*
X-16035714Y55357144D02*
X-16178571Y55785716D01*
D11*
X-15892857Y55214284D02*
X-16035714Y55357144D01*
D11*
X-15607143Y55071428D02*
X-15892857Y55214284D01*
D11*
X-15321429Y55071428D02*
X-15607143Y55071428D01*
D11*
X-15035714Y55214284D02*
X-15321429Y55071428D01*
D11*
X-14892857Y55500000D02*
X-15035714Y55214284D01*
D11*
X-16035714Y55642856D02*
X-16035714Y57785716D01*
D11*
X-15892857Y55357144D02*
X-16035714Y55642856D01*
D11*
X-15892857Y58071428D02*
X-16178571Y57785716D01*
D11*
X-15892857Y55642856D02*
X-15892857Y58071428D01*
D11*
X-15750000Y55214284D02*
X-15892857Y55642856D01*
D11*
X-15607143Y55071428D02*
X-15750000Y55214284D01*
D11*
X-15321429Y57071428D02*
X-16607143Y57071428D01*
D11*
X-5571428Y98071432D02*
X-6571428Y101071432D01*
D11*
X-5571428Y98500000D02*
X-6428571Y101071432D01*
D11*
X-5571428Y98071432D02*
X-5571428Y98500000D01*
D11*
X-5428571Y98500000D02*
X-6285714Y101071432D01*
D11*
X-5571428Y98071432D02*
X-4571428Y100928568D01*
D11*
X-5857143Y101071432D02*
X-6857143Y101071432D01*
D11*
X-4285714Y101071432D02*
X-5142857Y101071432D01*
D11*
X-6428571Y100785712D02*
X-6714285Y101071432D01*
D11*
X-6285714Y100785712D02*
X-6142857Y101071432D01*
D11*
X-6285714Y100928568D02*
X-6000000Y101071432D01*
D11*
X-4571428Y100928568D02*
X-4857143Y101071432D01*
D11*
X-4571428Y100928568D02*
X-4428571Y101071432D01*
D11*
X-1142857Y99500000D02*
X-3571428Y99500000D01*
D11*
X-1142857Y99357144D02*
X-1142857Y99500000D01*
D11*
X-3571428Y99357144D02*
X-3571428Y99500000D01*
D11*
X-1142857Y99357144D02*
X-3571428Y99357144D01*
D11*
X2000000Y101071432D02*
X1857143Y100642856D01*
D11*
X2000000Y100214288D02*
X2000000Y101071432D01*
D11*
X1857143Y100642856D02*
X2000000Y100214288D01*
D11*
X1571428Y100928568D02*
X1857143Y100642856D01*
D11*
X1285714Y101071432D02*
X1571428Y100928568D01*
D11*
X857142Y101071432D02*
X1285714Y101071432D01*
D11*
X428571Y100928568D02*
X857142Y101071432D01*
D11*
X142857Y100642856D02*
X428571Y100928568D01*
D11*
X0Y100357144D02*
X142857Y100642856D01*
D11*
X-142857Y99928568D02*
X0Y100357144D01*
D11*
X-142857Y99214288D02*
X-142857Y99928568D01*
D11*
X0Y98785712D02*
X-142857Y99214288D01*
D11*
X142857Y98500000D02*
X0Y98785712D01*
D11*
X428571Y98214288D02*
X142857Y98500000D01*
D11*
X857142Y98071432D02*
X428571Y98214288D01*
D11*
X1285714Y98071432D02*
X857142Y98071432D01*
D11*
X1571428Y98214288D02*
X1285714Y98071432D01*
D11*
X1857143Y98500000D02*
X1571428Y98214288D01*
D11*
X2000000Y98785712D02*
X1857143Y98500000D01*
D11*
X142857Y100357144D02*
X285714Y100642856D01*
D11*
X0Y99928568D02*
X142857Y100357144D01*
D11*
X0Y99214288D02*
X0Y99928568D01*
D11*
X142857Y98785712D02*
X0Y99214288D01*
D11*
X285714Y98500000D02*
X142857Y98785712D01*
D11*
X571428Y100928568D02*
X857142Y101071432D01*
D11*
X285714Y100500000D02*
X571428Y100928568D01*
D11*
X142857Y99928568D02*
X285714Y100500000D01*
D11*
X142857Y99214288D02*
X142857Y99928568D01*
D11*
X285714Y98642856D02*
X142857Y99214288D01*
D11*
X571428Y98214288D02*
X285714Y98642856D01*
D11*
X857142Y98071432D02*
X571428Y98214288D01*
D11*
X3142857Y98785712D02*
X3142857Y100071432D01*
D11*
X3285714Y98357144D02*
X3142857Y98785712D01*
D11*
X3428571Y98214288D02*
X3285714Y98357144D01*
D11*
X3714286Y98071432D02*
X3428571Y98214288D01*
D11*
X4142857Y98071432D02*
X3714286Y98071432D01*
D11*
X4428571Y98214288D02*
X4142857Y98071432D01*
D11*
X4571428Y98357144D02*
X4428571Y98214288D01*
D11*
X4714286Y98642856D02*
X4571428Y98357144D01*
D11*
X3285714Y98642856D02*
X3285714Y99928568D01*
D11*
X3428571Y98357144D02*
X3285714Y98642856D01*
D11*
X3428571Y100071432D02*
X2714286Y100071432D01*
D11*
X3428571Y98642856D02*
X3428571Y100071432D01*
D11*
X3571428Y98214288D02*
X3428571Y98642856D01*
D11*
X3714286Y98071432D02*
X3571428Y98214288D01*
D11*
X4714286Y98071432D02*
X4714286Y100071432D01*
D11*
X5428571Y98071432D02*
X4714286Y98071432D01*
D11*
X4857143Y98214288D02*
X4857143Y99928568D01*
D11*
X5000000Y100071432D02*
X4285714Y100071432D01*
D11*
X5000000Y98071432D02*
X5000000Y100071432D01*
D11*
X3142857Y99928568D02*
X2857143Y100071432D01*
D11*
X3142857Y99785712D02*
X3000000Y100071432D01*
D11*
X5142857Y98071432D02*
X5000000Y98357144D01*
D11*
X5285714Y98071432D02*
X5000000Y98214288D01*
D11*
X6428571Y98785712D02*
X6428571Y100785712D01*
D11*
X6571428Y98357144D02*
X6428571Y98785712D01*
D11*
X6714286Y98214288D02*
X6571428Y98357144D01*
D11*
X7000000Y98071432D02*
X6714286Y98214288D01*
D11*
X7285714Y98071432D02*
X7000000Y98071432D01*
D11*
X7571428Y98214288D02*
X7285714Y98071432D01*
D11*
X7714285Y98500000D02*
X7571428Y98214288D01*
D11*
X6571428Y98642856D02*
X6571428Y100785712D01*
D11*
X6714286Y98357144D02*
X6571428Y98642856D01*
D11*
X6714286Y101071432D02*
X6428571Y100785712D01*
D11*
X6714286Y98642856D02*
X6714286Y101071432D01*
D11*
X6857143Y98214288D02*
X6714286Y98642856D01*
D11*
X7000000Y98071432D02*
X6857143Y98214288D01*
D11*
X7285714Y100071432D02*
X6000000Y100071432D01*
D11*
X24428572Y98071432D02*
X23428572Y101071432D01*
D11*
X24428572Y98500000D02*
X23571428Y101071432D01*
D11*
X24428572Y98071432D02*
X24428572Y98500000D01*
D11*
X24571428Y98500000D02*
X23714286Y101071432D01*
D11*
X24428572Y98071432D02*
X25428572Y100928568D01*
D11*
X24142858Y101071432D02*
X23142858Y101071432D01*
D11*
X25714286Y101071432D02*
X24857142Y101071432D01*
D11*
X23571428Y100785712D02*
X23285714Y101071432D01*
D11*
X23714286Y100785712D02*
X23857142Y101071432D01*
D11*
X23714286Y100928568D02*
X24000000Y101071432D01*
D11*
X25428572Y100928568D02*
X25142856Y101071432D01*
D11*
X25428572Y100928568D02*
X25571428Y101071432D01*
D11*
X28857144Y99500000D02*
X26428572Y99500000D01*
D11*
X28857144Y99357144D02*
X28857144Y99500000D01*
D11*
X26428572Y99357144D02*
X26428572Y99500000D01*
D11*
X28857144Y99357144D02*
X26428572Y99357144D01*
D11*
X32000000Y101071432D02*
X31857144Y100642856D01*
D11*
X32000000Y100214288D02*
X32000000Y101071432D01*
D11*
X31857144Y100642856D02*
X32000000Y100214288D01*
D11*
X31571428Y100928568D02*
X31857144Y100642856D01*
D11*
X31285714Y101071432D02*
X31571428Y100928568D01*
D11*
X30857142Y101071432D02*
X31285714Y101071432D01*
D11*
X30428572Y100928568D02*
X30857142Y101071432D01*
D11*
X30142856Y100642856D02*
X30428572Y100928568D01*
D11*
X30000000Y100357144D02*
X30142856Y100642856D01*
D11*
X29857144Y99928568D02*
X30000000Y100357144D01*
D11*
X29857144Y99214288D02*
X29857144Y99928568D01*
D11*
X30000000Y98785712D02*
X29857144Y99214288D01*
D11*
X30142856Y98500000D02*
X30000000Y98785712D01*
D11*
X30428572Y98214288D02*
X30142856Y98500000D01*
D11*
X30857142Y98071432D02*
X30428572Y98214288D01*
D11*
X31285714Y98071432D02*
X30857142Y98071432D01*
D11*
X31571428Y98214288D02*
X31285714Y98071432D01*
D11*
X31857144Y98500000D02*
X31571428Y98214288D01*
D11*
X32000000Y98785712D02*
X31857144Y98500000D01*
D11*
X30142856Y100357144D02*
X30285714Y100642856D01*
D11*
X30000000Y99928568D02*
X30142856Y100357144D01*
D11*
X30000000Y99214288D02*
X30000000Y99928568D01*
D11*
X30142856Y98785712D02*
X30000000Y99214288D01*
D11*
X30285714Y98500000D02*
X30142856Y98785712D01*
D11*
X30571428Y100928568D02*
X30857142Y101071432D01*
D11*
X30285714Y100500000D02*
X30571428Y100928568D01*
D11*
X30142856Y99928568D02*
X30285714Y100500000D01*
D11*
X30142856Y99214288D02*
X30142856Y99928568D01*
D11*
X30285714Y98642856D02*
X30142856Y99214288D01*
D11*
X30571428Y98214288D02*
X30285714Y98642856D01*
D11*
X30857142Y98071432D02*
X30571428Y98214288D01*
D11*
X33142856Y98785712D02*
X33142856Y100071432D01*
D11*
X33285714Y98357144D02*
X33142856Y98785712D01*
D11*
X33428572Y98214288D02*
X33285714Y98357144D01*
D11*
X33714288Y98071432D02*
X33428572Y98214288D01*
D11*
X34142856Y98071432D02*
X33714288Y98071432D01*
D11*
X34428572Y98214288D02*
X34142856Y98071432D01*
D11*
X34571428Y98357144D02*
X34428572Y98214288D01*
D11*
X34714288Y98642856D02*
X34571428Y98357144D01*
D11*
X33285714Y98642856D02*
X33285714Y99928568D01*
D11*
X33428572Y98357144D02*
X33285714Y98642856D01*
D11*
X33428572Y100071432D02*
X32714286Y100071432D01*
D11*
X33428572Y98642856D02*
X33428572Y100071432D01*
D11*
X33571428Y98214288D02*
X33428572Y98642856D01*
D11*
X33714288Y98071432D02*
X33571428Y98214288D01*
D11*
X34714288Y98071432D02*
X34714288Y100071432D01*
D11*
X35428572Y98071432D02*
X34714288Y98071432D01*
D11*
X34857144Y98214288D02*
X34857144Y99928568D01*
D11*
X35000000Y100071432D02*
X34285712Y100071432D01*
D11*
X35000000Y98071432D02*
X35000000Y100071432D01*
D11*
X33142856Y99928568D02*
X32857144Y100071432D01*
D11*
X33142856Y99785712D02*
X33000000Y100071432D01*
D11*
X35142856Y98071432D02*
X35000000Y98357144D01*
D11*
X35285712Y98071432D02*
X35000000Y98214288D01*
D11*
X36428572Y98785712D02*
X36428572Y100785712D01*
D11*
X36571428Y98357144D02*
X36428572Y98785712D01*
D11*
X36714288Y98214288D02*
X36571428Y98357144D01*
D11*
X37000000Y98071432D02*
X36714288Y98214288D01*
D11*
X37285712Y98071432D02*
X37000000Y98071432D01*
D11*
X37571428Y98214288D02*
X37285712Y98071432D01*
D11*
X37714284Y98500000D02*
X37571428Y98214288D01*
D11*
X36571428Y98642856D02*
X36571428Y100785712D01*
D11*
X36714288Y98357144D02*
X36571428Y98642856D01*
D11*
X36714288Y101071432D02*
X36428572Y100785712D01*
D11*
X36714288Y98642856D02*
X36714288Y101071432D01*
D11*
X36857144Y98214288D02*
X36714288Y98642856D01*
D11*
X37000000Y98071432D02*
X36857144Y98214288D01*
D11*
X37285712Y100071432D02*
X36000000Y100071432D01*
D11*
X84428568Y98071432D02*
X83428568Y101071432D01*
D11*
X84428568Y98500000D02*
X83571432Y101071432D01*
D11*
X84428568Y98071432D02*
X84428568Y98500000D01*
D11*
X84571432Y98500000D02*
X83714288Y101071432D01*
D11*
X84428568Y98071432D02*
X85428568Y100928568D01*
D11*
X84142856Y101071432D02*
X83142856Y101071432D01*
D11*
X85714288Y101071432D02*
X84857144Y101071432D01*
D11*
X83571432Y100785712D02*
X83285712Y101071432D01*
D11*
X83714288Y100785712D02*
X83857144Y101071432D01*
D11*
X83714288Y100928568D02*
X84000000Y101071432D01*
D11*
X85428568Y100928568D02*
X85142856Y101071432D01*
D11*
X85428568Y100928568D02*
X85571432Y101071432D01*
D11*
X88857144Y99500000D02*
X86428568Y99500000D01*
D11*
X88857144Y99357144D02*
X88857144Y99500000D01*
D11*
X86428568Y99357144D02*
X86428568Y99500000D01*
D11*
X88857144Y99357144D02*
X86428568Y99357144D01*
D11*
X92000000Y101071432D02*
X91857144Y100642856D01*
D11*
X92000000Y100214288D02*
X92000000Y101071432D01*
D11*
X91857144Y100642856D02*
X92000000Y100214288D01*
D11*
X91571424Y100928568D02*
X91857144Y100642856D01*
D11*
X91285712Y101071432D02*
X91571424Y100928568D01*
D11*
X90857144Y101071432D02*
X91285712Y101071432D01*
D11*
X90428568Y100928568D02*
X90857144Y101071432D01*
D11*
X90142856Y100642856D02*
X90428568Y100928568D01*
D11*
X90000000Y100357144D02*
X90142856Y100642856D01*
D11*
X89857144Y99928568D02*
X90000000Y100357144D01*
D11*
X89857144Y99214288D02*
X89857144Y99928568D01*
D11*
X90000000Y98785712D02*
X89857144Y99214288D01*
D11*
X90142856Y98500000D02*
X90000000Y98785712D01*
D11*
X90428568Y98214288D02*
X90142856Y98500000D01*
D11*
X90857144Y98071432D02*
X90428568Y98214288D01*
D11*
X91285712Y98071432D02*
X90857144Y98071432D01*
D11*
X91571424Y98214288D02*
X91285712Y98071432D01*
D11*
X91857144Y98500000D02*
X91571424Y98214288D01*
D11*
X92000000Y98785712D02*
X91857144Y98500000D01*
D11*
X90142856Y100357144D02*
X90285712Y100642856D01*
D11*
X90000000Y99928568D02*
X90142856Y100357144D01*
D11*
X90000000Y99214288D02*
X90000000Y99928568D01*
D11*
X90142856Y98785712D02*
X90000000Y99214288D01*
D11*
X90285712Y98500000D02*
X90142856Y98785712D01*
D11*
X90571432Y100928568D02*
X90857144Y101071432D01*
D11*
X90285712Y100500000D02*
X90571432Y100928568D01*
D11*
X90142856Y99928568D02*
X90285712Y100500000D01*
D11*
X90142856Y99214288D02*
X90142856Y99928568D01*
D11*
X90285712Y98642856D02*
X90142856Y99214288D01*
D11*
X90571432Y98214288D02*
X90285712Y98642856D01*
D11*
X90857144Y98071432D02*
X90571432Y98214288D01*
D11*
X93142856Y98785712D02*
X93142856Y100071432D01*
D11*
X93285712Y98357144D02*
X93142856Y98785712D01*
D11*
X93428568Y98214288D02*
X93285712Y98357144D01*
D11*
X93714288Y98071432D02*
X93428568Y98214288D01*
D11*
X94142856Y98071432D02*
X93714288Y98071432D01*
D11*
X94428568Y98214288D02*
X94142856Y98071432D01*
D11*
X94571424Y98357144D02*
X94428568Y98214288D01*
D11*
X94714288Y98642856D02*
X94571424Y98357144D01*
D11*
X93285712Y98642856D02*
X93285712Y99928568D01*
D11*
X93428568Y98357144D02*
X93285712Y98642856D01*
D11*
X93428568Y100071432D02*
X92714288Y100071432D01*
D11*
X93428568Y98642856D02*
X93428568Y100071432D01*
D11*
X93571424Y98214288D02*
X93428568Y98642856D01*
D11*
X93714288Y98071432D02*
X93571424Y98214288D01*
D11*
X94714288Y98071432D02*
X94714288Y100071432D01*
D11*
X95428568Y98071432D02*
X94714288Y98071432D01*
D11*
X94857144Y98214288D02*
X94857144Y99928568D01*
D11*
X95000000Y100071432D02*
X94285712Y100071432D01*
D11*
X95000000Y98071432D02*
X95000000Y100071432D01*
D11*
X93142856Y99928568D02*
X92857144Y100071432D01*
D11*
X93142856Y99785712D02*
X93000000Y100071432D01*
D11*
X95142856Y98071432D02*
X95000000Y98357144D01*
D11*
X95285712Y98071432D02*
X95000000Y98214288D01*
D11*
X96428568Y98785712D02*
X96428568Y100785712D01*
D11*
X96571424Y98357144D02*
X96428568Y98785712D01*
D11*
X96714288Y98214288D02*
X96571424Y98357144D01*
D11*
X97000000Y98071432D02*
X96714288Y98214288D01*
D11*
X97285712Y98071432D02*
X97000000Y98071432D01*
D11*
X97571424Y98214288D02*
X97285712Y98071432D01*
D11*
X97714288Y98500000D02*
X97571424Y98214288D01*
D11*
X96571424Y98642856D02*
X96571424Y100785712D01*
D11*
X96714288Y98357144D02*
X96571424Y98642856D01*
D11*
X96714288Y101071432D02*
X96428568Y100785712D01*
D11*
X96714288Y98642856D02*
X96714288Y101071432D01*
D11*
X96857144Y98214288D02*
X96714288Y98642856D01*
D11*
X97000000Y98071432D02*
X96857144Y98214288D01*
D11*
X97285712Y100071432D02*
X96000000Y100071432D01*
D11*
X54428572Y98071432D02*
X53428572Y101071432D01*
D11*
X54428572Y98500000D02*
X53571428Y101071432D01*
D11*
X54428572Y98071432D02*
X54428572Y98500000D01*
D11*
X54571428Y98500000D02*
X53714284Y101071432D01*
D11*
X54428572Y98071432D02*
X55428572Y100928568D01*
D11*
X54142856Y101071432D02*
X53142856Y101071432D01*
D11*
X55714284Y101071432D02*
X54857144Y101071432D01*
D11*
X53571428Y100785712D02*
X53285716Y101071432D01*
D11*
X53714284Y100785712D02*
X53857144Y101071432D01*
D11*
X53714284Y100928568D02*
X54000000Y101071432D01*
D11*
X55428572Y100928568D02*
X55142856Y101071432D01*
D11*
X55428572Y100928568D02*
X55571428Y101071432D01*
D11*
X58857144Y99500000D02*
X56428572Y99500000D01*
D11*
X58857144Y99357144D02*
X58857144Y99500000D01*
D11*
X56428572Y99357144D02*
X56428572Y99500000D01*
D11*
X58857144Y99357144D02*
X56428572Y99357144D01*
D11*
X62000000Y101071432D02*
X61857144Y100642856D01*
D11*
X62000000Y100214288D02*
X62000000Y101071432D01*
D11*
X61857144Y100642856D02*
X62000000Y100214288D01*
D11*
X61571428Y100928568D02*
X61857144Y100642856D01*
D11*
X61285712Y101071432D02*
X61571428Y100928568D01*
D11*
X60857144Y101071432D02*
X61285712Y101071432D01*
D11*
X60428572Y100928568D02*
X60857144Y101071432D01*
D11*
X60142856Y100642856D02*
X60428572Y100928568D01*
D11*
X60000000Y100357144D02*
X60142856Y100642856D01*
D11*
X59857144Y99928568D02*
X60000000Y100357144D01*
D11*
X59857144Y99214288D02*
X59857144Y99928568D01*
D11*
X60000000Y98785712D02*
X59857144Y99214288D01*
D11*
X60142856Y98500000D02*
X60000000Y98785712D01*
D11*
X60428572Y98214288D02*
X60142856Y98500000D01*
D11*
X60857144Y98071432D02*
X60428572Y98214288D01*
D11*
X61285712Y98071432D02*
X60857144Y98071432D01*
D11*
X61571428Y98214288D02*
X61285712Y98071432D01*
D11*
X61857144Y98500000D02*
X61571428Y98214288D01*
D11*
X62000000Y98785712D02*
X61857144Y98500000D01*
D11*
X60142856Y100357144D02*
X60285712Y100642856D01*
D11*
X60000000Y99928568D02*
X60142856Y100357144D01*
D11*
X60000000Y99214288D02*
X60000000Y99928568D01*
D11*
X60142856Y98785712D02*
X60000000Y99214288D01*
D11*
X60285712Y98500000D02*
X60142856Y98785712D01*
D11*
X60571428Y100928568D02*
X60857144Y101071432D01*
D11*
X60285712Y100500000D02*
X60571428Y100928568D01*
D11*
X60142856Y99928568D02*
X60285712Y100500000D01*
D11*
X60142856Y99214288D02*
X60142856Y99928568D01*
D11*
X60285712Y98642856D02*
X60142856Y99214288D01*
D11*
X60571428Y98214288D02*
X60285712Y98642856D01*
D11*
X60857144Y98071432D02*
X60571428Y98214288D01*
D11*
X63142856Y98785712D02*
X63142856Y100071432D01*
D11*
X63285712Y98357144D02*
X63142856Y98785712D01*
D11*
X63428572Y98214288D02*
X63285712Y98357144D01*
D11*
X63714288Y98071432D02*
X63428572Y98214288D01*
D11*
X64142856Y98071432D02*
X63714288Y98071432D01*
D11*
X64428572Y98214288D02*
X64142856Y98071432D01*
D11*
X64571428Y98357144D02*
X64428572Y98214288D01*
D11*
X64714288Y98642856D02*
X64571428Y98357144D01*
D11*
X63285712Y98642856D02*
X63285712Y99928568D01*
D11*
X63428572Y98357144D02*
X63285712Y98642856D01*
D11*
X63428572Y100071432D02*
X62714288Y100071432D01*
D11*
X63428572Y98642856D02*
X63428572Y100071432D01*
D11*
X63571428Y98214288D02*
X63428572Y98642856D01*
D11*
X63714288Y98071432D02*
X63571428Y98214288D01*
D11*
X64714288Y98071432D02*
X64714288Y100071432D01*
D11*
X65428572Y98071432D02*
X64714288Y98071432D01*
D11*
X64857144Y98214288D02*
X64857144Y99928568D01*
D11*
X65000000Y100071432D02*
X64285712Y100071432D01*
D11*
X65000000Y98071432D02*
X65000000Y100071432D01*
D11*
X63142856Y99928568D02*
X62857144Y100071432D01*
D11*
X63142856Y99785712D02*
X63000000Y100071432D01*
D11*
X65142856Y98071432D02*
X65000000Y98357144D01*
D11*
X65285712Y98071432D02*
X65000000Y98214288D01*
D11*
X66428572Y98785712D02*
X66428572Y100785712D01*
D11*
X66571428Y98357144D02*
X66428572Y98785712D01*
D11*
X66714288Y98214288D02*
X66571428Y98357144D01*
D11*
X67000000Y98071432D02*
X66714288Y98214288D01*
D11*
X67285712Y98071432D02*
X67000000Y98071432D01*
D11*
X67571424Y98214288D02*
X67285712Y98071432D01*
D11*
X67714288Y98500000D02*
X67571424Y98214288D01*
D11*
X66571428Y98642856D02*
X66571428Y100785712D01*
D11*
X66714288Y98357144D02*
X66571428Y98642856D01*
D11*
X66714288Y101071432D02*
X66428572Y100785712D01*
D11*
X66714288Y98642856D02*
X66714288Y101071432D01*
D11*
X66857144Y98214288D02*
X66714288Y98642856D01*
D11*
X67000000Y98071432D02*
X66857144Y98214288D01*
D11*
X67285712Y100071432D02*
X66000000Y100071432D01*
D11*
X-28178572Y26821428D02*
X-29178572Y29821428D01*
D11*
X-28178572Y27250000D02*
X-29035714Y29821428D01*
D11*
X-28178572Y26821428D02*
X-28178572Y27250000D01*
D11*
X-28035714Y27250000D02*
X-28892856Y29821428D01*
D11*
X-28178572Y26821428D02*
X-27178572Y29678572D01*
D11*
X-28464286Y29821428D02*
X-29464284Y29821428D01*
D11*
X-26892856Y29821428D02*
X-27750000Y29821428D01*
D11*
X-29035714Y29535714D02*
X-29321428Y29821428D01*
D11*
X-28892856Y29535714D02*
X-28750000Y29821428D01*
D11*
X-28892856Y29678572D02*
X-28607144Y29821428D01*
D11*
X-27178572Y29678572D02*
X-27464286Y29821428D01*
D11*
X-27178572Y29678572D02*
X-27035714Y29821428D01*
D11*
X-23750000Y28250000D02*
X-26178572Y28250000D01*
D11*
X-23750000Y28107142D02*
X-23750000Y28250000D01*
D11*
X-26178572Y28107142D02*
X-26178572Y28250000D01*
D11*
X-23750000Y28107142D02*
X-26178572Y28107142D01*
D11*
X-20607144Y29821428D02*
X-20750000Y29392858D01*
D11*
X-20607144Y28964286D02*
X-20607144Y29821428D01*
D11*
X-20750000Y29392858D02*
X-20607144Y28964286D01*
D11*
X-21035714Y29678572D02*
X-20750000Y29392858D01*
D11*
X-21321428Y29821428D02*
X-21035714Y29678572D01*
D11*
X-21750000Y29821428D02*
X-21321428Y29821428D01*
D11*
X-22178572Y29678572D02*
X-21750000Y29821428D01*
D11*
X-22464286Y29392858D02*
X-22178572Y29678572D01*
D11*
X-22607142Y29107142D02*
X-22464286Y29392858D01*
D11*
X-22750000Y28678572D02*
X-22607142Y29107142D01*
D11*
X-22750000Y27964286D02*
X-22750000Y28678572D01*
D11*
X-22607142Y27535714D02*
X-22750000Y27964286D01*
D11*
X-22464286Y27250000D02*
X-22607142Y27535714D01*
D11*
X-22178572Y26964286D02*
X-22464286Y27250000D01*
D11*
X-21750000Y26821428D02*
X-22178572Y26964286D01*
D11*
X-21321428Y26821428D02*
X-21750000Y26821428D01*
D11*
X-21035714Y26964286D02*
X-21321428Y26821428D01*
D11*
X-20750000Y27250000D02*
X-21035714Y26964286D01*
D11*
X-20607144Y27535714D02*
X-20750000Y27250000D01*
D11*
X-22464286Y29107142D02*
X-22321428Y29392858D01*
D11*
X-22607142Y28678572D02*
X-22464286Y29107142D01*
D11*
X-22607142Y27964286D02*
X-22607142Y28678572D01*
D11*
X-22464286Y27535714D02*
X-22607142Y27964286D01*
D11*
X-22321428Y27250000D02*
X-22464286Y27535714D01*
D11*
X-22035714Y29678572D02*
X-21750000Y29821428D01*
D11*
X-22321428Y29250000D02*
X-22035714Y29678572D01*
D11*
X-22464286Y28678572D02*
X-22321428Y29250000D01*
D11*
X-22464286Y27964286D02*
X-22464286Y28678572D01*
D11*
X-22321428Y27392858D02*
X-22464286Y27964286D01*
D11*
X-22035714Y26964286D02*
X-22321428Y27392858D01*
D11*
X-21750000Y26821428D02*
X-22035714Y26964286D01*
D11*
X-19464286Y27535714D02*
X-19464286Y28821428D01*
D11*
X-19321428Y27107142D02*
X-19464286Y27535714D01*
D11*
X-19178572Y26964286D02*
X-19321428Y27107142D01*
D11*
X-18892856Y26821428D02*
X-19178572Y26964286D01*
D11*
X-18464286Y26821428D02*
X-18892856Y26821428D01*
D11*
X-18178572Y26964286D02*
X-18464286Y26821428D01*
D11*
X-18035714Y27107142D02*
X-18178572Y26964286D01*
D11*
X-17892856Y27392858D02*
X-18035714Y27107142D01*
D11*
X-19321428Y27392858D02*
X-19321428Y28678572D01*
D11*
X-19178572Y27107142D02*
X-19321428Y27392858D01*
D11*
X-19178572Y28821428D02*
X-19892856Y28821428D01*
D11*
X-19178572Y27392858D02*
X-19178572Y28821428D01*
D11*
X-19035714Y26964286D02*
X-19178572Y27392858D01*
D11*
X-18892856Y26821428D02*
X-19035714Y26964286D01*
D11*
X-17892856Y26821428D02*
X-17892856Y28821428D01*
D11*
X-17178572Y26821428D02*
X-17892856Y26821428D01*
D11*
X-17750000Y26964286D02*
X-17750000Y28678572D01*
D11*
X-17607142Y28821428D02*
X-18321428Y28821428D01*
D11*
X-17607142Y26821428D02*
X-17607142Y28821428D01*
D11*
X-19464286Y28678572D02*
X-19750000Y28821428D01*
D11*
X-19464286Y28535714D02*
X-19607144Y28821428D01*
D11*
X-17464286Y26821428D02*
X-17607142Y27107142D01*
D11*
X-17321428Y26821428D02*
X-17607142Y26964286D01*
D11*
X-16178571Y27535714D02*
X-16178571Y29535714D01*
D11*
X-16035714Y27107142D02*
X-16178571Y27535714D01*
D11*
X-15892857Y26964286D02*
X-16035714Y27107142D01*
D11*
X-15607143Y26821428D02*
X-15892857Y26964286D01*
D11*
X-15321429Y26821428D02*
X-15607143Y26821428D01*
D11*
X-15035714Y26964286D02*
X-15321429Y26821428D01*
D11*
X-14892857Y27250000D02*
X-15035714Y26964286D01*
D11*
X-16035714Y27392858D02*
X-16035714Y29535714D01*
D11*
X-15892857Y27107142D02*
X-16035714Y27392858D01*
D11*
X-15892857Y29821428D02*
X-16178571Y29535714D01*
D11*
X-15892857Y27392858D02*
X-15892857Y29821428D01*
D11*
X-15750000Y26964286D02*
X-15892857Y27392858D01*
D11*
X-15607143Y26821428D02*
X-15750000Y26964286D01*
D11*
X-15321429Y28821428D02*
X-16607143Y28821428D01*
D11*
X-28178572Y-1428571D02*
X-29178572Y1571428D01*
D11*
X-28178572Y-1000000D02*
X-29035714Y1571428D01*
D11*
X-28178572Y-1428571D02*
X-28178572Y-1000000D01*
D11*
X-28035714Y-1000000D02*
X-28892856Y1571428D01*
D11*
X-28178572Y-1428571D02*
X-27178572Y1428571D01*
D11*
X-28464286Y1571428D02*
X-29464284Y1571428D01*
D11*
X-26892856Y1571428D02*
X-27750000Y1571428D01*
D11*
X-29035714Y1285714D02*
X-29321428Y1571428D01*
D11*
X-28892856Y1285714D02*
X-28750000Y1571428D01*
D11*
X-28892856Y1428571D02*
X-28607144Y1571428D01*
D11*
X-27178572Y1428571D02*
X-27464286Y1571428D01*
D11*
X-27178572Y1428571D02*
X-27035714Y1571428D01*
D11*
X-23750000Y0D02*
X-26178572Y0D01*
D11*
X-23750000Y-142857D02*
X-23750000Y0D01*
D11*
X-26178572Y-142857D02*
X-26178572Y0D01*
D11*
X-23750000Y-142857D02*
X-26178572Y-142857D01*
D11*
X-20607144Y1571428D02*
X-20750000Y1142857D01*
D11*
X-20607144Y714285D02*
X-20607144Y1571428D01*
D11*
X-20750000Y1142857D02*
X-20607144Y714285D01*
D11*
X-21035714Y1428571D02*
X-20750000Y1142857D01*
D11*
X-21321428Y1571428D02*
X-21035714Y1428571D01*
D11*
X-21750000Y1571428D02*
X-21321428Y1571428D01*
D11*
X-22178572Y1428571D02*
X-21750000Y1571428D01*
D11*
X-22464286Y1142857D02*
X-22178572Y1428571D01*
D11*
X-22607142Y857142D02*
X-22464286Y1142857D01*
D11*
X-22750000Y428571D02*
X-22607142Y857142D01*
D11*
X-22750000Y-285714D02*
X-22750000Y428571D01*
D11*
X-22607142Y-714285D02*
X-22750000Y-285714D01*
D11*
X-22464286Y-1000000D02*
X-22607142Y-714285D01*
D11*
X-22178572Y-1285714D02*
X-22464286Y-1000000D01*
D11*
X-21750000Y-1428571D02*
X-22178572Y-1285714D01*
D11*
X-21321428Y-1428571D02*
X-21750000Y-1428571D01*
D11*
X-21035714Y-1285714D02*
X-21321428Y-1428571D01*
D11*
X-20750000Y-1000000D02*
X-21035714Y-1285714D01*
D11*
X-20607144Y-714285D02*
X-20750000Y-1000000D01*
D11*
X-22464286Y857142D02*
X-22321428Y1142857D01*
D11*
X-22607142Y428571D02*
X-22464286Y857142D01*
D11*
X-22607142Y-285714D02*
X-22607142Y428571D01*
D11*
X-22464286Y-714285D02*
X-22607142Y-285714D01*
D11*
X-22321428Y-1000000D02*
X-22464286Y-714285D01*
D11*
X-22035714Y1428571D02*
X-21750000Y1571428D01*
D11*
X-22321428Y1000000D02*
X-22035714Y1428571D01*
D11*
X-22464286Y428571D02*
X-22321428Y1000000D01*
D11*
X-22464286Y-285714D02*
X-22464286Y428571D01*
D11*
X-22321428Y-857142D02*
X-22464286Y-285714D01*
D11*
X-22035714Y-1285714D02*
X-22321428Y-857142D01*
D11*
X-21750000Y-1428571D02*
X-22035714Y-1285714D01*
D11*
X-19464286Y-714285D02*
X-19464286Y571428D01*
D11*
X-19321428Y-1142857D02*
X-19464286Y-714285D01*
D11*
X-19178572Y-1285714D02*
X-19321428Y-1142857D01*
D11*
X-18892856Y-1428571D02*
X-19178572Y-1285714D01*
D11*
X-18464286Y-1428571D02*
X-18892856Y-1428571D01*
D11*
X-18178572Y-1285714D02*
X-18464286Y-1428571D01*
D11*
X-18035714Y-1142857D02*
X-18178572Y-1285714D01*
D11*
X-17892856Y-857142D02*
X-18035714Y-1142857D01*
D11*
X-19321428Y-857142D02*
X-19321428Y428571D01*
D11*
X-19178572Y-1142857D02*
X-19321428Y-857142D01*
D11*
X-19178572Y571428D02*
X-19892856Y571428D01*
D11*
X-19178572Y-857142D02*
X-19178572Y571428D01*
D11*
X-19035714Y-1285714D02*
X-19178572Y-857142D01*
D11*
X-18892856Y-1428571D02*
X-19035714Y-1285714D01*
D11*
X-17892856Y-1428571D02*
X-17892856Y571428D01*
D11*
X-17178572Y-1428571D02*
X-17892856Y-1428571D01*
D11*
X-17750000Y-1285714D02*
X-17750000Y428571D01*
D11*
X-17607142Y571428D02*
X-18321428Y571428D01*
D11*
X-17607142Y-1428571D02*
X-17607142Y571428D01*
D11*
X-19464286Y428571D02*
X-19750000Y571428D01*
D11*
X-19464286Y285714D02*
X-19607144Y571428D01*
D11*
X-17464286Y-1428571D02*
X-17607142Y-1142857D01*
D11*
X-17321428Y-1428571D02*
X-17607142Y-1285714D01*
D11*
X-16178571Y-714285D02*
X-16178571Y1285714D01*
D11*
X-16035714Y-1142857D02*
X-16178571Y-714285D01*
D11*
X-15892857Y-1285714D02*
X-16035714Y-1142857D01*
D11*
X-15607143Y-1428571D02*
X-15892857Y-1285714D01*
D11*
X-15321429Y-1428571D02*
X-15607143Y-1428571D01*
D11*
X-15035714Y-1285714D02*
X-15321429Y-1428571D01*
D11*
X-14892857Y-1000000D02*
X-15035714Y-1285714D01*
D11*
X-16035714Y-857142D02*
X-16035714Y1285714D01*
D11*
X-15892857Y-1142857D02*
X-16035714Y-857142D01*
D11*
X-15892857Y1571428D02*
X-16178571Y1285714D01*
D11*
X-15892857Y-857142D02*
X-15892857Y1571428D01*
D11*
X-15750000Y-1285714D02*
X-15892857Y-857142D01*
D11*
X-15607143Y-1428571D02*
X-15750000Y-1285714D01*
D11*
X-15321429Y571428D02*
X-16607143Y571428D01*
D11*
X-11000000Y0D02*
X104000000Y0D01*
D11*
X0Y95750000D02*
X0Y-19250000D01*
D11*
X-11000000Y28250000D02*
X104000000Y28250000D01*
D11*
X30000000Y95750000D02*
X30000000Y-19250000D01*
D11*
X90000000Y95750000D02*
X90000000Y-19250000D01*
D11*
X-11000000Y84750000D02*
X104000000Y84750000D01*
D11*
X-11000000Y56500000D02*
X104000000Y56500000D01*
D11*
X60000000Y95750000D02*
X60000000Y-19250000D01*
G75*
M02*
